<svg width="42" height="43" viewBox="0 0 42 43" fill="none" xmlns="http://www.w3.org/2000/svg">
<g clip-path="url(#clip0_173_8949)">
<path d="M28.875 21.75C28.875 23.5711 28.7766 25.3266 28.6043 27H13.4039C13.2234 25.3266 13.1332 23.5711 13.1332 21.75C13.1332 19.9289 13.2316 18.1734 13.4039 16.5H28.6043C28.7848 18.1734 28.875 19.9289 28.875 21.75ZM31.2375 16.5H41.3355C41.7703 18.1816 42 19.9371 42 21.75C42 23.5629 41.7703 25.3184 41.3355 27H31.2375C31.4098 25.3102 31.5 23.5547 31.5 21.75C31.5 19.9453 31.4098 18.1898 31.2375 16.5ZM40.4742 13.875H30.9012C30.0809 8.6332 28.4566 4.24453 26.3648 1.43906C32.7879 3.13711 38.0133 7.79648 40.466 13.875H40.4742ZM28.2434 13.875H13.7566C14.257 10.8891 15.0281 8.24766 15.9715 6.10664C16.8328 4.1707 17.7926 2.76797 18.7195 1.88203C19.6383 1.0125 20.4012 0.75 21 0.75C21.5988 0.75 22.3617 1.0125 23.2805 1.88203C24.2074 2.76797 25.1672 4.1707 26.0285 6.10664C26.9801 8.23945 27.743 10.8809 28.2434 13.875ZM11.0988 13.875H1.52578C3.98672 7.79648 9.20391 3.13711 15.6352 1.43906C13.5434 4.24453 11.9191 8.6332 11.0988 13.875ZM0.664453 16.5H10.7625C10.5902 18.1898 10.5 19.9453 10.5 21.75C10.5 23.5547 10.5902 25.3102 10.7625 27H0.664453C0.229688 25.3184 0 23.5629 0 21.75C0 19.9371 0.229688 18.1816 0.664453 16.5ZM15.9715 37.3852C15.0199 35.2523 14.257 32.6109 13.7566 29.625H28.2434C27.743 32.6109 26.9719 35.2523 26.0285 37.3852C25.1672 39.3211 24.2074 40.7238 23.2805 41.6098C22.3617 42.4875 21.5988 42.75 21 42.75C20.4012 42.75 19.6383 42.4875 18.7195 41.618C17.7926 40.732 16.8328 39.3293 15.9715 37.3934V37.3852ZM11.0988 29.625C11.9191 34.8668 13.5434 39.2555 15.6352 42.0609C9.20391 40.3629 3.98672 35.7035 1.52578 29.625H11.0988ZM40.4742 29.625C38.0133 35.7035 32.7961 40.3629 26.373 42.0609C28.4648 39.2555 30.0809 34.8668 30.9094 29.625H40.4824H40.4742Z" fill="white"/>
</g>
<defs>
<clipPath id="clip0_173_8949">
<rect width="42" height="42" fill="white" transform="translate(0 0.75)"/>
</clipPath>
</defs>
</svg>
