<svg width="45" height="45" viewBox="0 0 45 45" fill="none" xmlns="http://www.w3.org/2000/svg">
<path d="M22.5 44.75C16.6652 44.75 11.0695 42.4322 6.94365 38.3064C2.81785 34.1805 0.5 28.5848 0.5 22.75C0.5 16.9152 2.81785 11.3195 6.94365 7.19365C11.0695 3.06785 16.6652 0.75 22.5 0.75C28.3348 0.75 33.9305 3.06785 38.0564 7.19365C42.1822 11.3195 44.5 16.9152 44.5 22.75C44.5 28.5848 42.1822 34.1805 38.0564 38.3064C33.9305 42.4322 28.3348 44.75 22.5 44.75ZM39.55 27.15C40.2942 24.2639 40.2942 21.2361 39.55 18.35H31.146C31.3499 21.2798 31.3499 24.2202 31.146 27.15H39.55ZM37.746 31.55H30.662C30.2935 34.2018 29.5913 36.7964 28.572 39.272C32.4368 37.8463 35.6818 35.1149 37.746 31.55ZM18.276 27.15H26.724C26.9628 24.2215 26.9628 21.2785 26.724 18.35H18.276C18.0372 21.2785 18.0372 24.2215 18.276 27.15ZM18.826 31.55C19.728 36.83 21.312 40.35 22.5 40.35C23.688 40.35 25.272 36.83 26.174 31.55H18.826ZM5.45 27.15H13.854C13.6501 24.2202 13.6501 21.2798 13.854 18.35H5.45C4.7058 21.2361 4.7058 24.2639 5.45 27.15ZM7.254 31.55C9.31816 35.1149 12.5632 37.8463 16.428 39.272C15.504 37.16 14.8 34.52 14.338 31.55H7.254ZM37.746 13.95C35.6818 10.3851 32.4368 7.65368 28.572 6.228C29.496 8.34 30.2 10.98 30.662 13.95H37.746ZM18.826 13.95H26.174C25.272 8.67 23.688 5.15 22.5 5.15C21.312 5.15 19.728 8.67 18.826 13.95ZM7.254 13.95H14.338C14.778 10.98 15.504 8.34 16.428 6.228C12.5632 7.65368 9.31816 10.3851 7.254 13.95Z" fill="url(#paint0_linear_3620_23270)"/>
<defs>
<linearGradient id="paint0_linear_3620_23270" x1="1.6" y1="1.66667" x2="42.1167" y2="46.5833" gradientUnits="userSpaceOnUse">
<stop stop-color="#7A96AC"/>
<stop offset="0.18" stop-color="#EAEFF3"/>
<stop offset="0.315" stop-color="#C2D4E1"/>
<stop offset="0.491919" stop-color="white"/>
<stop offset="0.615" stop-color="#D4DEE5"/>
<stop offset="0.785" stop-color="#ABBDC8"/>
<stop offset="0.955" stop-color="#BCCAD7"/>
</linearGradient>
</defs>
</svg>
