<svg width="83" height="84" viewBox="0 0 83 84" fill="none" xmlns="http://www.w3.org/2000/svg">
<rect width="82.5" height="83.5" rx="23" fill="#FF8D2A"/>
<path d="M13 48V21.25C13 21.1119 13.1119 21 13.25 21H27.3973C27.4631 21 27.5262 21.0259 27.573 21.0722L69.067 62.0722C69.226 62.2292 69.1147 62.5 68.8913 62.5H48.6036C48.5373 62.5 48.4737 62.4737 48.4268 62.4268L28.3536 42.3536C28.0386 42.0386 27.5 42.2617 27.5 42.7071V62.5C19.4919 62.5 13 56.0081 13 48Z" fill="white"/>
<path d="M55 44.3884V21.2101C55 21.0941 55.0941 21 55.2101 21C63.1022 21 69.5 27.3978 69.5 35.2899V56.9401C69.5 57.1563 69.2441 57.2706 69.0831 57.1262L55.0831 44.5745C55.0302 44.5271 55 44.4594 55 44.3884Z" fill="white"/>
</svg>
