<?xml version="1.0" encoding="utf-8"?>
<!-- Generator: Adobe Illustrator 27.5.0, SVG Export Plug-In . SVG Version: 6.00 Build 0)  -->
<svg version="1.1" xmlns="http://www.w3.org/2000/svg" xmlns:xlink="http://www.w3.org/1999/xlink" x="0px" y="0px"
	 viewBox="0 0 750 500" style="enable-background:new 0 0 750 500;" xml:space="preserve">
<g id="BACKGROUND">
	<rect style="fill:#FFFFFF;" width="750" height="500"/>
</g>
<g id="OBJECTS">
	<g>
		<g>
			<path style="opacity:0.25;fill:#333156;" d="M656.858,355.141c-88.375-5.493-182.083-8.724-280.621-8.75
				c-99.449-0.027-193.987,3.212-283.095,8.75c0-62.76,0-125.521,0-188.281h563.716V355.141z"/>
			<linearGradient id="SVGID_1_" gradientUnits="userSpaceOnUse" x1="387.8656" y1="374.0621" x2="358.2187" y2="88.1802">
				<stop  offset="0" style="stop-color:#5F19F5"/>
				<stop  offset="1" style="stop-color:#EC4868"/>
			</linearGradient>
			<rect x="82.762" y="152.393" style="fill:url(#SVGID_1_);" width="584.475" height="195.215"/>
			<g style="opacity:0.25;">
				<polygon style="fill:#256FFF;" points="118.506,304.668 101.099,318.962 116.949,320.519 				"/>
				<polygon style="fill:#256FFF;" points="143.619,296.22 128.787,290.418 137.817,311.052 				"/>
				<polygon style="fill:#256FFF;" points="156.835,258.962 172.512,256.156 154.028,243.285 				"/>
				<polygon style="fill:#256FFF;" points="146.865,155.324 153.823,169.65 159.798,152.393 152.9,152.393 				"/>
				<polygon style="fill:#256FFF;" points="104.756,164.243 103.815,152.393 90.862,152.393 				"/>
				<polygon style="fill:#256FFF;" points="132.982,208.671 125.757,222.866 139.952,230.089 				"/>
				<polygon style="fill:#256FFF;" points="104.177,278.147 89.344,272.345 98.374,292.979 				"/>
				<polygon style="fill:#256FFF;" points="99.625,223.405 82.762,224.073 82.762,229.51 88.818,235.104 				"/>
				<polygon style="fill:#256FFF;" points="84.786,331.357 88.372,322.19 82.762,319.995 82.762,326.733 				"/>
				<polygon style="fill:#256FFF;" points="82.762,298.077 82.762,301.499 86.584,300.97 				"/>
				<polygon style="fill:#256FFF;" points="129.172,339.535 113.496,342.353 114.441,347.607 123.56,347.607 				"/>
				<polygon style="fill:#256FFF;" points="90.379,338.909 89.532,347.607 97.533,347.607 				"/>
				<polygon style="fill:#256FFF;" points="180.868,335.971 179.734,347.607 190.439,347.607 				"/>
				<polygon style="fill:#256FFF;" points="141.493,323.167 140.539,332.964 150.336,333.918 				"/>
				<polygon style="fill:#256FFF;" points="169.892,314.4 161.041,318.708 174.199,323.251 				"/>
				<polygon style="fill:#256FFF;" points="169.828,280.504 160.171,278.597 167.921,290.161 				"/>
				<polygon style="fill:#256FFF;" points="138.984,267.636 138.197,257.824 129.172,268.422 				"/>
				<polygon style="fill:#256FFF;" points="86.832,250.574 82.762,255.354 82.762,260.776 87.619,260.386 				"/>
				<polygon style="fill:#256FFF;" points="108.455,237.798 111.876,247.028 121.106,243.606 				"/>
				<polygon style="fill:#256FFF;" points="159.837,207.217 165.189,220.068 168.939,210.966 				"/>
				<polygon style="fill:#256FFF;" points="177.969,173.158 167.055,181.799 176.833,182.936 				"/>
				<polygon style="fill:#256FFF;" points="137.835,183.666 122.104,186.153 140.322,199.398 				"/>
				<polygon style="fill:#256FFF;" points="106.168,188.799 97.143,199.398 106.955,198.611 				"/>
				<polygon style="fill:#256FFF;" points="128.863,157.366 120.909,163.165 126.709,171.119 				"/>
				<polygon style="fill:#256FFF;" points="82.762,186.196 89.077,183.855 82.762,180.956 				"/>
				<polygon style="fill:#256FFF;" points="163.085,344.197 155.307,347.607 161.754,347.607 				"/>
				<polygon style="fill:#256FFF;" points="276.058,185.876 274.501,201.726 291.908,187.432 				"/>
				<polygon style="fill:#256FFF;" points="255.19,195.342 249.388,210.174 264.22,215.976 				"/>
				<polygon style="fill:#256FFF;" points="207.938,229.953 196.239,219.146 185.432,230.845 				"/>
				<polygon style="fill:#256FFF;" points="236.172,247.432 220.495,250.238 238.979,263.11 				"/>
				<polygon style="fill:#256FFF;" points="239.184,336.744 235.423,347.607 244.46,347.607 				"/>
				<polygon style="fill:#256FFF;" points="288.251,342.152 288.684,347.607 294.647,347.607 				"/>
				<polygon style="fill:#256FFF;" points="260.025,297.723 267.249,283.529 253.055,276.305 				"/>
				<polygon style="fill:#256FFF;" points="294.632,213.415 288.83,228.247 303.663,234.049 				"/>
				<polygon style="fill:#256FFF;" points="204.53,259.222 190.952,267.547 199.277,281.125 				"/>
				<polygon style="fill:#256FFF;" points="304.189,271.29 293.382,282.99 315.888,282.097 				"/>
				<polygon style="fill:#256FFF;" points="308.221,175.038 304.635,184.205 313.802,187.79 				"/>
				<polygon style="fill:#256FFF;" points="306.423,205.425 314.271,211.365 320.212,203.517 				"/>
				<polygon style="fill:#256FFF;" points="263.835,166.859 279.511,164.041 277.416,152.393 273.893,152.393 				"/>
				<polygon style="fill:#256FFF;" points="302.628,167.485 304.098,152.393 290.215,152.393 				"/>
				<polygon style="fill:#256FFF;" points="210.711,152.393 199.112,152.393 209.483,165.002 				"/>
				<polygon style="fill:#256FFF;" points="252.468,173.43 242.671,172.476 251.514,183.228 				"/>
				<polygon style="fill:#256FFF;" points="223.115,191.994 231.966,187.687 218.808,183.143 				"/>
				<polygon style="fill:#256FFF;" points="232.836,227.797 225.086,216.233 223.179,225.89 				"/>
				<polygon style="fill:#256FFF;" points="254.023,238.758 254.81,248.57 263.835,237.972 				"/>
				<polygon style="fill:#256FFF;" points="204.497,299.369 194.685,300.155 195.472,309.967 				"/>
				<polygon style="fill:#256FFF;" points="209.242,332.679 199.818,329.837 206.4,342.104 				"/>
				<polygon style="fill:#256FFF;" points="305.388,246.008 306.175,255.82 315.2,245.221 				"/>
				<polygon style="fill:#256FFF;" points="284.552,268.596 281.131,259.366 271.901,262.788 				"/>
				<polygon style="fill:#256FFF;" points="224.068,295.428 233.169,299.177 227.817,286.327 				"/>
				<polygon style="fill:#256FFF;" points="222.55,328.621 233.464,319.98 223.687,318.843 				"/>
				<polygon style="fill:#256FFF;" points="270.903,320.242 252.685,306.996 255.171,322.728 				"/>
				<polygon style="fill:#256FFF;" points="295.864,306.996 286.052,307.783 286.839,317.595 				"/>
				<polygon style="fill:#256FFF;" points="272.098,343.229 266.298,335.275 264.366,347.607 266.092,347.607 				"/>
				<polygon style="fill:#256FFF;" points="313.159,319.117 303.93,322.539 316.581,328.347 				"/>
				<polygon style="fill:#256FFF;" points="233.501,153.028 229.922,162.197 242.671,156.607 				"/>
				<polygon style="fill:#256FFF;" points="196.795,190.757 193.216,199.927 205.965,194.336 				"/>
				<polygon style="fill:#256FFF;" points="365.617,304.668 348.21,318.962 364.06,320.519 				"/>
				<polygon style="fill:#256FFF;" points="390.73,296.22 375.898,290.418 384.927,311.052 				"/>
				<polygon style="fill:#256FFF;" points="403.945,258.962 419.623,256.156 401.139,243.285 				"/>
				<polygon style="fill:#256FFF;" points="393.976,155.324 400.934,169.65 406.908,152.393 400.011,152.393 				"/>
				<polygon style="fill:#256FFF;" points="351.867,164.243 350.926,152.393 337.973,152.393 				"/>
				<polygon style="fill:#256FFF;" points="380.092,208.671 372.868,222.866 387.063,230.089 				"/>
				<polygon style="fill:#256FFF;" points="351.288,278.147 336.455,272.345 345.485,292.979 				"/>
				<polygon style="fill:#256FFF;" points="346.736,223.405 324.23,224.297 335.929,235.104 				"/>
				<polygon style="fill:#256FFF;" points="335.483,322.19 326.316,318.604 331.897,331.357 				"/>
				<polygon style="fill:#256FFF;" points="325.846,295.029 319.905,302.878 333.695,300.97 				"/>
				<polygon style="fill:#256FFF;" points="376.283,339.535 360.607,342.353 361.552,347.607 370.67,347.607 				"/>
				<polygon style="fill:#256FFF;" points="337.49,338.909 336.642,347.607 344.644,347.607 				"/>
				<polygon style="fill:#256FFF;" points="427.979,335.971 426.845,347.607 437.55,347.607 				"/>
				<polygon style="fill:#256FFF;" points="388.604,323.167 387.65,332.964 397.447,333.918 				"/>
				<polygon style="fill:#256FFF;" points="417.003,314.4 408.151,318.708 421.31,323.251 				"/>
				<polygon style="fill:#256FFF;" points="416.939,280.504 407.282,278.597 415.032,290.161 				"/>
				<polygon style="fill:#256FFF;" points="386.095,267.636 385.308,257.824 376.283,268.422 				"/>
				<polygon style="fill:#256FFF;" points="333.943,250.574 324.918,261.173 334.73,260.386 				"/>
				<polygon style="fill:#256FFF;" points="355.565,237.798 358.987,247.028 368.217,243.606 				"/>
				<polygon style="fill:#256FFF;" points="406.948,207.217 412.3,220.068 416.05,210.966 				"/>
				<polygon style="fill:#256FFF;" points="425.08,173.158 414.166,181.799 423.943,182.936 				"/>
				<polygon style="fill:#256FFF;" points="384.946,183.666 369.215,186.153 387.433,199.398 				"/>
				<polygon style="fill:#256FFF;" points="353.279,188.799 344.254,199.398 354.066,198.611 				"/>
				<polygon style="fill:#256FFF;" points="375.974,157.366 368.02,163.165 373.82,171.119 				"/>
				<polygon style="fill:#256FFF;" points="336.188,183.855 323.537,178.047 326.958,187.277 				"/>
				<polygon style="fill:#256FFF;" points="410.196,344.197 402.418,347.607 408.864,347.607 				"/>
				<polygon style="fill:#256FFF;" points="523.169,185.876 521.612,201.726 539.019,187.432 				"/>
				<polygon style="fill:#256FFF;" points="502.301,195.342 496.499,210.174 511.331,215.976 				"/>
				<polygon style="fill:#256FFF;" points="455.049,229.953 443.35,219.146 432.543,230.845 				"/>
				<polygon style="fill:#256FFF;" points="483.283,247.432 467.606,250.238 486.089,263.11 				"/>
				<polygon style="fill:#256FFF;" points="486.294,336.744 482.534,347.607 491.571,347.607 				"/>
				<polygon style="fill:#256FFF;" points="535.362,342.152 535.795,347.607 541.758,347.607 				"/>
				<polygon style="fill:#256FFF;" points="507.136,297.723 514.36,283.529 500.166,276.305 				"/>
				<polygon style="fill:#256FFF;" points="541.743,213.415 535.941,228.247 550.773,234.049 				"/>
				<polygon style="fill:#256FFF;" points="451.641,259.222 438.063,267.547 446.388,281.125 				"/>
				<polygon style="fill:#256FFF;" points="551.299,271.29 540.493,282.99 562.999,282.097 				"/>
				<polygon style="fill:#256FFF;" points="555.332,175.038 551.746,184.205 560.913,187.79 				"/>
				<polygon style="fill:#256FFF;" points="553.534,205.425 561.382,211.365 567.323,203.517 				"/>
				<polygon style="fill:#256FFF;" points="510.946,166.859 526.621,164.041 524.527,152.393 521.004,152.393 				"/>
				<polygon style="fill:#256FFF;" points="549.739,167.485 551.209,152.393 537.326,152.393 				"/>
				<polygon style="fill:#256FFF;" points="457.822,152.393 446.223,152.393 456.594,165.002 				"/>
				<polygon style="fill:#256FFF;" points="499.579,173.43 489.782,172.476 498.624,183.228 				"/>
				<polygon style="fill:#256FFF;" points="470.226,191.994 479.077,187.687 465.919,183.143 				"/>
				<polygon style="fill:#256FFF;" points="479.947,227.797 472.197,216.233 470.289,225.89 				"/>
				<polygon style="fill:#256FFF;" points="501.134,238.758 501.921,248.57 510.946,237.972 				"/>
				<polygon style="fill:#256FFF;" points="451.608,299.369 441.796,300.155 442.582,309.967 				"/>
				<polygon style="fill:#256FFF;" points="456.353,332.679 446.929,329.837 453.511,342.104 				"/>
				<polygon style="fill:#256FFF;" points="552.499,246.008 553.286,255.82 562.311,245.221 				"/>
				<polygon style="fill:#256FFF;" points="531.663,268.596 528.242,259.366 519.012,262.788 				"/>
				<polygon style="fill:#256FFF;" points="471.179,295.428 480.28,299.177 474.928,286.327 				"/>
				<polygon style="fill:#256FFF;" points="469.661,328.621 480.575,319.98 470.797,318.843 				"/>
				<polygon style="fill:#256FFF;" points="518.014,320.242 499.796,306.996 502.282,322.728 				"/>
				<polygon style="fill:#256FFF;" points="542.975,306.996 533.163,307.783 533.949,317.595 				"/>
				<polygon style="fill:#256FFF;" points="519.208,343.229 513.409,335.275 511.477,347.607 513.203,347.607 				"/>
				<polygon style="fill:#256FFF;" points="560.27,319.117 551.041,322.539 563.692,328.347 				"/>
				<polygon style="fill:#256FFF;" points="480.612,153.028 477.033,162.197 489.782,156.607 				"/>
				<polygon style="fill:#256FFF;" points="443.906,190.757 440.327,199.927 453.076,194.336 				"/>
				<polygon style="fill:#256FFF;" points="612.727,304.668 595.32,318.962 611.171,320.519 				"/>
				<polygon style="fill:#256FFF;" points="637.841,296.22 623.008,290.418 632.038,311.052 				"/>
				<polygon style="fill:#256FFF;" points="648.25,243.285 651.056,258.962 666.734,256.156 				"/>
				<polygon style="fill:#256FFF;" points="641.087,155.324 648.045,169.65 654.019,152.393 647.122,152.393 				"/>
				<polygon style="fill:#256FFF;" points="598.978,164.243 598.037,152.393 585.084,152.393 				"/>
				<polygon style="fill:#256FFF;" points="627.203,208.671 619.979,222.866 634.173,230.089 				"/>
				<polygon style="fill:#256FFF;" points="598.398,278.147 583.566,272.345 592.596,292.979 				"/>
				<polygon style="fill:#256FFF;" points="593.847,223.405 571.341,224.297 583.04,235.104 				"/>
				<polygon style="fill:#256FFF;" points="582.594,322.19 573.427,318.604 579.008,331.357 				"/>
				<polygon style="fill:#256FFF;" points="572.957,295.029 567.016,302.878 580.806,300.97 				"/>
				<polygon style="fill:#256FFF;" points="623.393,339.535 607.718,342.353 608.663,347.607 617.781,347.607 				"/>
				<polygon style="fill:#256FFF;" points="584.601,338.909 583.753,347.607 591.754,347.607 				"/>
				<polygon style="fill:#256FFF;" points="635.715,323.167 634.76,332.964 644.557,333.918 				"/>
				<polygon style="fill:#256FFF;" points="667.238,320.821 664.113,314.4 655.262,318.708 667.238,322.843 				"/>
				<polygon style="fill:#256FFF;" points="664.05,280.504 654.393,278.597 662.142,290.161 				"/>
				<polygon style="fill:#256FFF;" points="633.206,267.636 632.419,257.824 623.393,268.422 				"/>
				<polygon style="fill:#256FFF;" points="581.054,250.574 572.029,261.173 581.841,260.386 				"/>
				<polygon style="fill:#256FFF;" points="602.676,237.798 606.098,247.028 615.328,243.606 				"/>
				<polygon style="fill:#256FFF;" points="659.411,220.068 663.161,210.966 654.059,207.217 				"/>
				<polygon style="fill:#256FFF;" points="661.277,181.799 667.238,182.492 667.238,177.08 				"/>
				<polygon style="fill:#256FFF;" points="632.057,183.666 616.326,186.153 634.543,199.398 				"/>
				<polygon style="fill:#256FFF;" points="600.39,188.799 591.365,199.398 601.177,198.611 				"/>
				<polygon style="fill:#256FFF;" points="623.085,157.366 615.131,163.165 620.931,171.119 				"/>
				<polygon style="fill:#256FFF;" points="583.299,183.855 570.648,178.047 574.069,187.277 				"/>
				<polygon style="fill:#256FFF;" points="655.975,347.607 657.306,344.197 649.529,347.607 				"/>
			</g>
		</g>
		<g>
			<g>
				<path style="fill:#BF6E0D;" d="M204.964,233.77l-24.139-61.626l-9.922-2.758l-46.302,44.261l12.815,1.381
					c-0.67,39.753,22.035,79.509,57.333,98.151c38.855,20.521,89.382,9.262,121.918-20.271c-0.731-1.383-1.538-2.361-2.269-3.745
					c-17.735,12.002-39.302,18.848-60.652,17.179c-21.35-1.669-42.246-12.342-54.529-29.884
					c-9.449-13.496-13.206-31.022-9.935-47.038l9.167,10.292L204.964,233.77z"/>
				<path style="fill:#E2AE1A;" d="M198.449,239.711l-27.546-70.326l-57.633,46.691l17.631,4.892
					c-0.67,39.753,22.035,79.509,57.333,98.151c38.855,20.521,89.382,9.262,121.918-20.271c-0.731-1.383-1.538-2.361-2.269-3.745
					c-17.735,12.002-39.302,18.848-60.651,17.179c-21.35-1.669-42.246-12.342-54.529-29.884
					c-9.449-13.496-13.206-31.022-9.935-47.039L198.449,239.711z"/>
			</g>
			<g>
				<path style="opacity:0.25;fill:#333156;" d="M330.917,253.903c-16.93,3.51-35.314,6.603-55.028,8.917
					c-28.002,3.286-53.909,4.44-77.19,4.332c-2.292-22.875-4.584-45.75-6.877-68.624c20.481-0.051,42.972-1.027,67.125-3.473
					c23.615-2.391,45.386-5.838,65.092-9.777C326.333,208.153,328.625,231.028,330.917,253.903z"/>
				
					<rect x="194.93" y="190.731" transform="matrix(0.995 -0.0997 0.0997 0.995 -21.1536 27.1835)" style="fill:#333156;" width="132.88" height="68.968"/>
				
					<text transform="matrix(0.995 -0.0997 0.0997 0.995 210.3151 255.6276)" style="fill:#FFFFFF; font-family:'Antonio-Regular'; font-size:59.5763px;">CASH</text>
			</g>
			<g>
				<path style="opacity:0.25;fill:#333156;" d="M357.442,314.126c-21.281-0.147-44.449-1.207-69.199-3.66
					c-22.627-2.242-43.708-5.365-63.08-8.955c1.406-14.741,2.811-29.482,4.217-44.223c20.643,4.02,43.524,7.488,68.393,9.766
					c22.888,2.096,44.281,2.892,63.887,2.849C360.253,284.645,358.847,299.386,357.442,314.126z"/>
				
					<rect x="226.971" y="262.496" transform="matrix(0.9955 0.0949 -0.0949 0.9955 28.3527 -26.5679)" style="fill:#0DB3F1;" width="132.88" height="44.423"/>
				
					<text transform="matrix(0.9955 0.0949 -0.0949 0.9955 234.643 292.572)" style="fill:#FFFFFF; font-family:'Montserrat-Bold'; font-size:37.1215px;">BACK</text>
			</g>
			<g>
				<g>
					<path style="fill:#D88416;" d="M313.104,204.4c-7.095,6.228,9.618,36.868,37.329,68.437
						c27.711,31.569,55.927,52.111,63.022,45.883l15.421-13.536l-100.351-114.32L313.104,204.4z"/>
					<path style="fill:#BF6E0D;" d="M340.303,206.785l-6.122-6.974l-19.412,17.04c0.948,2.603,2.28,5.577,3.974,8.859
						L340.303,206.785z"/>
					<path style="fill:#BF6E0D;" d="M351.801,219.883l-8.996-10.249l-22.217,19.502c2.023,3.634,4.449,7.591,7.239,11.791
						L351.801,219.883z"/>
					<path style="fill:#BF6E0D;" d="M331.68,196.961l-3.306-3.766l-14.179,12.447c-1.312,1.151-1.499,3.653-0.643,7.232
						L331.68,196.961z"/>
					<path style="fill:#FFD15F;" d="M414.566,291.386l-21.572,18.936c9.743,6.77,16.815,9.401,19.371,7.157l14.179-12.447
						L414.566,291.386z"/>
					<path style="fill:#FFD15F;" d="M426.945,306.878c-7.095,6.228-36.598-13.185-64.309-44.753
						c-27.711-31.569-43.136-63.339-36.041-69.567c7.095-6.228,35.311,14.315,63.022,45.883
						C417.328,270.01,434.04,300.65,426.945,306.878z"/>
					<path style="fill:#E2AE1A;" d="M428.876,305.184c-7.095,6.228-35.311-14.315-63.022-45.883
						c-27.711-31.569-44.424-62.209-37.329-68.437c7.095-6.228,35.311,14.314,63.022,45.883
						C419.258,268.315,435.971,298.955,428.876,305.184z"/>
					<path style="fill:#D88416;" d="M413.508,287.676c-4.922,4.32-24.496-9.93-43.719-31.83
						c-19.224-21.9-30.817-43.155-25.895-47.476c4.922-4.32,24.496,9.93,43.719,31.83C406.836,262.1,418.43,283.356,413.508,287.676
						z"/>
					<g>
						<path style="fill:#BF6E0D;" d="M413.508,287.676c4.922-4.32-6.672-25.576-25.896-47.476s-38.797-36.15-43.719-31.83
							c-0.462,0.406-0.779,0.962-0.957,1.653c7.981,1.697,23.937,14.487,39.664,32.403c17.417,19.842,28.571,39.155,26.853,45.822
							C411.228,288.626,412.613,288.462,413.508,287.676z"/>
					</g>
					<path id="XMLID_3_" style="fill:#FFFFFF;" d="M414.091,315.996c8.74-8.997,8.994-10.275,3.638-18.29
						c7.273,6.326,8.573,6.236,18.604-1.297c-8.74,8.998-8.994,10.276-3.638,18.29C425.421,308.372,424.122,308.463,414.091,315.996
						z"/>
				</g>
				<g>
					<path style="fill:#BF6E0D;" d="M391.583,251.717c4.24,4.683,6.011,9.054,5.18,13.647l5.527,6.153l0.606,2.866l-1.397,1.175
						l-5.891-6.59c-1.15,2.35-2.918,3.561-5.325,3.44c-2.565-0.131-6.096-2.675-10.432-7.592l-3.497-3.998l3.749-4.418l2.418-1.685
						l1.39,4.304c4.349,4.88,7.077,6.179,8.077,4.023c0.512-1.104,0.548-2.218,0.134-3.363c-0.405-1.12-1.365-2.517-2.885-4.206
						c-2.371-2.635-5.396-4.24-9.394-4.874c-0.315-0.053-1.047-0.159-2.227-0.32c-1.216-0.166-2.047-0.286-2.462-0.356
						c-6.635-0.96-12.462-3.853-16.574-8.519c-5.763-6.539-5.205-10.841,0.542-12.637l-5.316-5.949l1.397-1.175l2.601,0.879
						l5.039,5.613c1.187-0.049,2.3,0.063,3.355,0.326c3.281,0.834,6.949,3.584,11.248,8.336l2.792,0.367l-1.125,1.379l-3.253,2.306
						l-2.8-2.881c-1.853-2.06-3.427-3.518-4.744-4.394c-1.338-0.888-2.55-1.18-3.656-0.851c-1.159,0.344-1.765,0.951-1.775,1.825
						c-0.009,0.897,0.73,2.19,2.221,3.864c2.352,2.64,5.816,4.511,10.043,5.519l4.349,0.922
						C384.571,245.986,388.425,248.231,391.583,251.717z"/>
				</g>
				<g>
					<path style="fill:#E2AE1A;" d="M392.98,250.542c4.24,4.683,6.011,9.054,5.18,13.647l5.527,6.153l-0.791,4.041l-5.891-6.591
						c-1.15,2.35-2.918,3.561-5.325,3.44c-2.565-0.13-6.096-2.675-10.432-7.592l-3.197-3.624l4.47-5.302l2.787,3.129
						c4.349,4.88,7.077,6.179,8.077,4.023c0.512-1.104,0.548-2.218,0.134-3.363c-0.405-1.12-1.365-2.517-2.885-4.206
						c-2.371-2.635-5.396-4.24-9.394-4.874c-0.315-0.053-1.047-0.159-2.227-0.32c-1.216-0.166-2.047-0.286-2.462-0.356
						c-6.635-0.96-12.462-3.853-16.574-8.519c-5.762-6.539-5.204-10.841,0.542-12.637l-5.316-5.949l3.998-0.296l5.039,5.612
						c1.187-0.048,2.3,0.063,3.355,0.326c3.281,0.835,6.949,3.584,11.248,8.336l1.395,1.542l-3.565,2.095l-2.216-2.465
						c-1.853-2.06-3.427-3.518-4.744-4.394c-1.338-0.888-2.55-1.18-3.656-0.851c-1.159,0.344-1.765,0.951-1.775,1.825
						c-0.009,0.897,0.73,2.19,2.221,3.864c2.353,2.64,5.816,4.511,10.043,5.519l4.349,0.922
						C385.968,244.811,389.822,247.056,392.98,250.542z"/>
				</g>
			</g>
		</g>
		<g>
			<rect x="437.55" y="306.231" style="fill:#0DB3F1;" width="229.688" height="41.376"/>
			<g>
				
					<text transform="matrix(1 0 0 1 444.0875 336.4066)" style="fill:#FFFFFF; font-family:'Montserrat-Bold'; font-size:29.2104px;">GUARANTEED</text>
			</g>
		</g>
		<g>
			<g>
				<path style="fill:#D88416;" d="M489.837,253.014c1.301,5.329,21.578,4.957,45.291-0.831c23.712-5.789,41.88-14.801,40.58-20.131
					l-2.828-11.583l-85.87,20.962L489.837,253.014z"/>
				<path style="fill:#BF6E0D;" d="M498.378,239.643l-5.238,1.279l3.559,14.581c1.596,0.211,3.486,0.325,5.632,0.334
					L498.378,239.643z"/>
				<path style="fill:#BF6E0D;" d="M508.217,237.242l-7.698,1.879l4.074,16.688c2.416-0.065,5.107-0.251,8.02-0.559L508.217,237.242
					z"/>
				<path style="fill:#BF6E0D;" d="M490.999,241.445l-2.829,0.691l2.6,10.651c0.241,0.985,1.479,1.755,3.553,2.276L490.999,241.445z
					"/>
				<path style="fill:#FFD15F;" d="M561.925,224.131l3.956,16.204c6.107-3.199,9.363-6.135,8.894-8.055l-2.6-10.651L561.925,224.131
					z"/>
				<path style="fill:#FFD15F;" d="M573.234,221.919c1.301,5.329-16.631,15.309-40.344,21.098
					c-23.712,5.788-44.226,5.194-45.527-0.135c-1.301-5.329,16.867-14.342,40.579-20.131
					C551.655,216.962,571.933,216.589,573.234,221.919z"/>
				
					<ellipse transform="matrix(0.9715 -0.2371 0.2371 0.9715 -39.6518 132.2636)" style="fill:#E2AE1A;" cx="529.944" cy="230.949" rx="44.196" ry="9.933"/>
				
					<ellipse transform="matrix(0.9715 -0.2371 0.2371 0.9715 -39.6519 132.264)" style="fill:#D88416;" cx="529.945" cy="230.949" rx="30.659" ry="6.891"/>
				<g>
					<path style="fill:#BF6E0D;" d="M559.729,223.678c-0.903-3.697-14.969-3.439-31.419,0.577
						c-16.45,4.016-29.053,10.268-28.151,13.965c0.085,0.347,0.286,0.66,0.594,0.937c3.02-3.655,13.898-8.437,27.355-11.722
						c14.904-3.638,27.852-4.192,30.825-1.514C559.606,225.109,559.893,224.351,559.729,223.678z"/>
				</g>
			</g>
			<g>
				<path style="fill:#BF6E0D;" d="M535.311,225.307c3.552-0.925,6.28-0.663,8.423,1.001l4.656-1.193l1.639,0.458l0.23,1.036
					l-4.979,1.263c0.902,1.224,1.05,2.461,0.341,3.668c-0.757,1.286-3.017,2.421-6.716,3.333l-3,0.727l-1.268-3.119l-0.218-1.699
					l2.591,0.441c3.683-0.928,5.086-1.984,4.244-3.08c-0.431-0.561-0.995-0.879-1.696-0.973c-0.686-0.093-1.664,0.026-2.942,0.355
					c-1.995,0.513-3.635,1.64-5.036,3.529c-0.112,0.148-0.363,0.497-0.763,1.061c-0.413,0.582-0.698,0.977-0.845,1.173
					c-2.278,3.16-5.335,5.384-8.844,6.248c-4.918,1.211-6.984-0.233-6.364-3.677l-4.494,1.139l-0.23-1.036l1.152-1.104l4.246-1.087
					c0.294-0.624,0.651-1.168,1.07-1.641c1.312-1.466,3.714-2.616,7.318-3.553l0.94-1.34l0.408,0.951l0.314,2.296l-2.237,0.668
					c-1.559,0.401-2.734,0.82-3.539,1.263c-0.817,0.451-1.293,0.996-1.421,1.654c-0.135,0.69,0.016,1.165,0.463,1.405
					c0.459,0.246,1.324,0.213,2.587-0.105c1.992-0.502,3.888-1.783,5.543-3.69l1.644-1.993
					C530.473,227.378,532.666,225.996,535.311,225.307z"/>
			</g>
			<g>
				<path style="fill:#E2AE1A;" d="M535.081,224.271c3.552-0.925,6.28-0.663,8.423,1.001l4.656-1.193l1.869,1.494l-4.979,1.263
					c0.902,1.224,1.05,2.461,0.341,3.668c-0.757,1.286-3.017,2.421-6.716,3.333l-2.726,0.673l-1.529-3.728l2.361-0.595
					c3.683-0.928,5.086-1.984,4.244-3.08c-0.431-0.561-0.995-0.879-1.696-0.973c-0.686-0.093-1.664,0.026-2.942,0.355
					c-1.995,0.513-3.635,1.64-5.036,3.529c-0.112,0.148-0.364,0.497-0.764,1.061c-0.413,0.582-0.698,0.977-0.845,1.173
					c-2.278,3.16-5.335,5.384-8.844,6.248c-4.918,1.211-6.984-0.233-6.364-3.677l-4.494,1.139l0.923-2.139l4.246-1.087
					c0.294-0.624,0.651-1.168,1.07-1.641c1.312-1.466,3.714-2.616,7.318-3.553l1.169-0.304l0.121,2.4l-1.866,0.479
					c-1.559,0.401-2.734,0.819-3.539,1.263c-0.817,0.451-1.293,0.997-1.421,1.654c-0.135,0.69,0.015,1.165,0.463,1.405
					c0.46,0.246,1.324,0.213,2.588-0.105c1.992-0.502,3.888-1.783,5.543-3.69l1.644-1.993
					C530.243,226.342,532.436,224.96,535.081,224.271z"/>
			</g>
		</g>
		<g>
			<g>
				<path style="fill:#D88416;" d="M433.591,186.574c-6.627,2.804-1.885,28.979,10.59,58.464
					c12.476,29.485,27.961,51.115,34.588,48.311l14.403-6.094L447.994,180.48L433.591,186.574z"/>
				<path style="fill:#BF6E0D;" d="M452.696,194.823l-2.756-6.514l-18.13,7.671c0.061,2.11,0.311,4.582,0.75,7.363L452.696,194.823z
					"/>
				<path style="fill:#BF6E0D;" d="M457.873,207.058l-4.05-9.572l-20.75,8.78c0.592,3.114,1.398,6.559,2.409,10.267L457.873,207.058
					z"/>
				<path style="fill:#BF6E0D;" d="M448.814,185.648l-1.488-3.517l-13.243,5.603c-1.225,0.518-1.961,2.283-2.2,5.078
					L448.814,185.648z"/>
				<path style="fill:#FFD15F;" d="M486.13,273.841l-20.149,8.525c5.424,7.234,9.91,10.834,12.298,9.824l13.244-5.604
					L486.13,273.841z"/>
				<path style="fill:#FFD15F;" d="M491.369,288.018c-6.627,2.804-23.314-18.317-35.79-47.802
					c-12.475-29.485-16.015-56.169-9.388-58.973c6.627-2.804,22.112,18.826,34.588,48.311
					C493.254,259.039,497.996,285.214,491.369,288.018z"/>
				<path style="fill:#E2AE1A;" d="M493.172,287.255c-6.627,2.804-22.112-18.826-34.588-48.311
					c-12.476-29.485-17.217-55.661-10.59-58.464c6.627-2.804,22.112,18.826,34.588,48.311
					C495.058,258.276,499.799,284.451,493.172,287.255z"/>
				<path style="fill:#D88416;" d="M486.254,270.903c-4.597,1.945-15.34-13.06-23.994-33.514
					c-8.655-20.454-11.944-38.613-7.347-40.558c4.597-1.945,15.34,13.06,23.994,33.514
					C487.562,250.8,490.851,268.958,486.254,270.903z"/>
				<g>
					<path style="fill:#BF6E0D;" d="M486.254,270.903c4.597-1.945,1.308-20.103-7.347-40.558
						c-8.655-20.454-19.397-35.459-23.994-33.514c-0.432,0.183-0.794,0.509-1.089,0.966c5.367,3.142,13.842,16.222,20.923,32.956
						c7.841,18.533,11.278,35.18,8.436,39.591C484.376,271.044,485.418,271.257,486.254,270.903z"/>
				</g>
			</g>
			<g>
				<path style="fill:#BF6E0D;" d="M479.017,239.63c1.944,4.405,2.177,7.992,0.474,11.115l2.523,5.777l-0.249,2.219l-1.293,0.515
					l-2.681-6.181c-1.395,1.425-2.966,1.877-4.678,1.212c-1.824-0.71-3.769-3.397-5.726-7.995l-1.571-3.731l3.772-2.297l2.154-0.639
					l-0.026,3.447c1.976,4.574,3.637,6.168,4.879,4.848c0.635-0.676,0.929-1.473,0.904-2.401c-0.024-0.907-0.384-2.148-1.078-3.735
					c-1.083-2.475-2.886-4.362-5.627-5.779c-0.215-0.114-0.72-0.366-1.534-0.766c-0.84-0.412-1.412-0.698-1.696-0.848
					c-4.57-2.286-8.092-5.777-9.947-10.138c-2.601-6.113-1.165-9.091,3.423-9.012l-2.419-5.579l1.293-0.515l1.671,1.26l2.299,5.269
					c0.87,0.25,1.649,0.597,2.349,1.041c2.173,1.391,4.167,4.26,6.138,8.729l1.932,0.935l-1.145,0.728l-2.907,0.888l-1.335-2.756
					c-0.846-1.935-1.635-3.367-2.378-4.316c-0.755-0.964-1.562-1.465-2.441-1.493c-0.921-0.029-1.505,0.265-1.721,0.895
					c-0.222,0.646,0.003,1.759,0.68,3.328c1.069,2.474,3.125,4.659,5.942,6.402l2.925,1.71
					C475.319,233.802,477.569,236.35,479.017,239.63z"/>
			</g>
			<g>
				<path style="fill:#E2AE1A;" d="M480.309,239.115c1.944,4.405,2.177,7.992,0.474,11.115l2.523,5.777l-1.542,2.734l-2.681-6.181
					c-1.395,1.425-2.965,1.876-4.677,1.211c-1.824-0.71-3.769-3.397-5.726-7.995l-1.444-3.388l4.505-2.763l1.266,2.932
					c1.976,4.574,3.637,6.168,4.879,4.848c0.635-0.676,0.929-1.473,0.904-2.401c-0.024-0.907-0.384-2.148-1.078-3.735
					c-1.083-2.475-2.886-4.362-5.627-5.779c-0.215-0.114-0.72-0.366-1.534-0.766c-0.84-0.412-1.412-0.698-1.696-0.848
					c-4.57-2.286-8.092-5.777-9.947-10.138c-2.6-6.113-1.165-9.091,3.423-9.012l-2.419-5.579l2.963,0.745l2.299,5.269
					c0.87,0.25,1.649,0.597,2.349,1.041c2.173,1.391,4.167,4.26,6.138,8.729l0.64,1.45l-3.082,0.66l-1.012-2.315
					c-0.846-1.935-1.635-3.367-2.378-4.317c-0.755-0.964-1.562-1.465-2.441-1.493c-0.921-0.029-1.505,0.265-1.722,0.895
					c-0.222,0.647,0.003,1.759,0.68,3.328c1.069,2.474,3.125,4.659,5.942,6.402l2.925,1.711
					C476.611,233.287,478.861,235.835,480.309,239.115z"/>
			</g>
		</g>
	</g>
</g>
</svg>
