<svg width="38" height="36" viewBox="0 0 38 36" fill="none" xmlns="http://www.w3.org/2000/svg">
<path d="M27.5388 27.3601C25.9591 27.3601 24.6926 28.6417 24.6926 30.2401C24.6926 31.0039 24.9925 31.7364 25.5262 32.2765C26.06 32.8166 26.7839 33.1201 27.5388 33.1201C28.2936 33.1201 29.0175 32.8166 29.5513 32.2765C30.0851 31.7364 30.3849 31.0039 30.3849 30.2401C30.3849 29.4762 30.0851 28.7437 29.5513 28.2036C29.0175 27.6635 28.2936 27.3601 27.5388 27.3601ZM4.76953 4.32007V7.20007H7.61568L12.7388 18.1297L10.8034 21.6577C10.5899 22.0609 10.4618 22.5361 10.4618 23.0401C10.4618 23.8039 10.7617 24.5364 11.2955 25.0765C11.8292 25.6166 12.5531 25.9201 13.308 25.9201H30.3849V23.0401H13.9057C13.8113 23.0401 13.7208 23.0021 13.6541 22.9346C13.5874 22.8671 13.5499 22.7755 13.5499 22.6801C13.5499 22.6081 13.5641 22.5505 13.5926 22.5073L14.8734 20.1601H25.4753C26.5426 20.1601 27.4818 19.5553 27.9657 18.6769L33.0603 9.36007C33.1599 9.12967 33.2311 8.88487 33.2311 8.64007C33.2311 8.25816 33.0811 7.89189 32.8143 7.62183C32.5474 7.35178 32.1854 7.20007 31.808 7.20007H10.7607L9.42299 4.32007M13.308 27.3601C11.7284 27.3601 10.4618 28.6417 10.4618 30.2401C10.4618 31.0039 10.7617 31.7364 11.2955 32.2765C11.8292 32.8166 12.5531 33.1201 13.308 33.1201C14.0628 33.1201 14.7868 32.8166 15.3205 32.2765C15.8543 31.7364 16.1541 31.0039 16.1541 30.2401C16.1541 29.4762 15.8543 28.7437 15.3205 28.2036C14.7868 27.6635 14.0628 27.3601 13.308 27.3601Z" fill="#FF8D2A"/>
</svg>
