<svg width="38" height="36" viewBox="0 0 38 36" fill="none" xmlns="http://www.w3.org/2000/svg">
<path d="M19.64 28.0327L19.5 28.1744L19.346 28.0327C12.696 21.9259 8.3 17.8877 8.3 13.7929C8.3 10.9591 10.4 8.83379 13.2 8.83379C15.356 8.83379 17.456 10.2507 18.198 12.1777H20.802C21.544 10.2507 23.644 8.83379 25.8 8.83379C28.6 8.83379 30.7 10.9591 30.7 13.7929C30.7 17.8877 26.304 21.9259 19.64 28.0327ZM25.8 6C23.364 6 21.026 7.14768 19.5 8.94714C17.974 7.14768 15.636 6 13.2 6C8.888 6 5.5 9.41471 5.5 13.7929C5.5 19.1346 10.26 23.5128 17.47 30.1297L19.5 32L21.53 30.1297C28.74 23.5128 33.5 19.1346 33.5 13.7929C33.5 9.41471 30.112 6 25.8 6Z" fill="#919191"/>
</svg>
