<svg width="27" height="27" viewBox="0 0 27 27" fill="none" xmlns="http://www.w3.org/2000/svg">
<circle cx="13.5" cy="13.5" r="13.5" fill="#FF8D2A"/>
<path d="M6 15.8938V8.08759C6 8.03922 6.03922 8 6.08759 8H10.002C10.0687 8 10.1326 8.02664 10.1796 8.07401L21.5778 19.574C21.7342 19.7318 21.6224 20 21.4002 20H16.1582C16.091 20 16.0266 19.9729 15.9796 19.9249L10.9634 14.803C10.65 14.483 10.1062 14.7049 10.1062 15.1529V20C7.83841 20 6 18.1616 6 15.8938Z" fill="white"/>
<path d="M17.8938 14.6851V8.05951C17.8938 8.02664 17.9204 8 17.9533 8C20.1882 8 22 9.81176 22 12.0467V18.2131C22 18.3437 21.8447 18.4121 21.7484 18.3239L17.975 14.8695C17.9233 14.8221 17.8938 14.7552 17.8938 14.6851Z" fill="white"/>
</svg>
