<svg width="55" height="44" viewBox="0 0 55 44" fill="none" xmlns="http://www.w3.org/2000/svg">
<path d="M49.5 0H5.5C2.475 0 0 2.475 0 5.5V38.5C0 41.525 2.475 44 5.5 44H49.5C52.525 44 55 41.525 55 38.5V5.5C55 2.475 52.525 0 49.5 0ZM48.4 11.6875L30.415 22.935C28.6275 24.0625 26.3725 24.0625 24.585 22.935L6.6 11.6875C6.32425 11.5327 6.08278 11.3236 5.89019 11.0727C5.69761 10.8219 5.55792 10.5346 5.47958 10.2283C5.40124 9.9219 5.38588 9.60282 5.43443 9.29034C5.48298 8.97787 5.59442 8.67849 5.76202 8.41033C5.92962 8.14217 6.14989 7.9108 6.4095 7.73024C6.6691 7.54967 6.96265 7.42366 7.27236 7.35982C7.58208 7.29599 7.90153 7.29566 8.21138 7.35886C8.52122 7.42206 8.81503 7.54747 9.075 7.7275L27.5 19.25L45.925 7.7275C46.185 7.54747 46.4788 7.42206 46.7886 7.35886C47.0985 7.29566 47.4179 7.29599 47.7276 7.35982C48.0374 7.42366 48.3309 7.54967 48.5905 7.73024C48.8501 7.9108 49.0704 8.14217 49.238 8.41033C49.4056 8.67849 49.517 8.97787 49.5656 9.29034C49.6141 9.60282 49.5988 9.9219 49.5204 10.2283C49.4421 10.5346 49.3024 10.8219 49.1098 11.0727C48.9172 11.3236 48.6758 11.5327 48.4 11.6875Z" fill="white"/>
</svg>
