<svg width="81" height="80" viewBox="0 0 81 80" fill="none" xmlns="http://www.w3.org/2000/svg">
<circle cx="40.5" cy="40" r="40" fill="white"/>
<path d="M42.3912 21.5996C44.461 21.6051 45.5116 21.6162 46.4187 21.6419L46.7756 21.6548C47.1878 21.6695 47.5944 21.6879 48.0857 21.71C50.0433 21.802 51.3791 22.1111 52.5511 22.5656C53.7654 23.0329 54.7884 23.6659 55.8114 24.6871C56.747 25.6068 57.4709 26.7195 57.9328 27.9475C58.3873 29.1195 58.6964 30.4553 58.7884 32.4149C58.8105 32.9043 58.8289 33.3109 58.8436 33.7249L58.8546 34.0819C58.8822 34.9871 58.8933 36.0378 58.8969 38.1077L58.8988 39.4803V41.8907C58.9033 43.2327 58.8892 44.5748 58.8565 45.9165L58.8454 46.2734C58.8307 46.6874 58.8123 47.0941 58.7902 47.5835C58.6982 49.543 58.3855 50.877 57.9328 52.0509C57.4723 53.2796 56.7482 54.3925 55.8114 55.3113C54.8914 56.2466 53.7789 56.9705 52.5511 57.4328C51.3791 57.8872 50.0433 58.1964 48.0857 58.2884C47.6491 58.3089 47.2124 58.3273 46.7756 58.3435L46.4187 58.3546C45.5116 58.3803 44.461 58.3932 42.3912 58.3969L41.0186 58.3988H38.6101C37.2675 58.4034 35.9248 58.3893 34.5826 58.3564L34.2256 58.3454C33.7889 58.3288 33.3522 58.3098 32.9156 58.2884C30.958 58.1964 29.6222 57.8872 28.4483 57.4328C27.2205 56.9716 26.1084 56.2476 25.1899 55.3113C24.2534 54.3918 23.5289 53.2792 23.0666 52.0509C22.6122 50.8788 22.3031 49.543 22.2111 47.5835C22.1906 47.1469 22.1722 46.7102 22.1559 46.2734L22.1467 45.9165C22.1128 44.5748 22.0974 43.2327 22.1007 41.8907V38.1077C22.0955 36.7656 22.109 35.4236 22.1411 34.0819L22.154 33.7249C22.1687 33.3109 22.1871 32.9043 22.2092 32.4149C22.3012 30.4553 22.6103 29.1214 23.0648 27.9475C23.5268 26.7182 24.2528 25.6052 25.1917 24.6871C26.11 23.7514 27.2214 23.0274 28.4483 22.5656C29.6222 22.1111 30.9561 21.802 32.9156 21.71C33.4051 21.6879 33.8135 21.6695 34.2256 21.6548L34.5826 21.6438C35.9242 21.6111 37.2663 21.597 38.6083 21.6014L42.3912 21.5996ZM40.4997 30.7994C38.0599 30.7994 35.7199 31.7687 33.9947 33.4939C32.2694 35.2192 31.3002 37.5592 31.3002 39.9992C31.3002 42.4391 32.2694 44.7791 33.9947 46.5044C35.7199 48.2297 38.0599 49.199 40.4997 49.199C42.9396 49.199 45.2795 48.2297 47.0048 46.5044C48.73 44.7791 49.6993 42.4391 49.6993 39.9992C49.6993 37.5592 48.73 35.2192 47.0048 33.4939C45.2795 31.7687 42.9396 30.7994 40.4997 30.7994ZM40.4997 34.4793C41.2246 34.4792 41.9424 34.6218 42.6121 34.8991C43.2818 35.1764 43.8904 35.5829 44.403 36.0954C44.9157 36.6079 45.3223 37.2163 45.5998 37.886C45.8774 38.5556 46.0202 39.2734 46.0204 39.9983C46.0205 40.7231 45.8778 41.4409 45.6006 42.1107C45.3233 42.7804 44.9168 43.389 44.4043 43.9017C43.8919 44.4143 43.2834 44.821 42.6138 45.0985C41.9442 45.376 41.2264 45.5189 40.5016 45.5191C39.0376 45.5191 37.6337 44.9375 36.5985 43.9023C35.5634 42.8671 34.9819 41.4631 34.9819 39.9992C34.9819 38.5352 35.5634 37.1312 36.5985 36.096C37.6337 35.0609 39.0376 34.4793 40.5016 34.4793M50.1611 28.0395C49.5511 28.0395 48.9661 28.2818 48.5348 28.7131C48.1035 29.1444 47.8612 29.7294 47.8612 30.3394C47.8612 30.9494 48.1035 31.5344 48.5348 31.9657C48.9661 32.397 49.5511 32.6394 50.1611 32.6394C50.771 32.6394 51.356 32.397 51.7873 31.9657C52.2186 31.5344 52.461 30.9494 52.461 30.3394C52.461 29.7294 52.2186 29.1444 51.7873 28.7131C51.356 28.2818 50.771 28.0395 50.1611 28.0395Z" fill="#0F0F0F"/>
</svg>
