<svg width="38" height="55" viewBox="0 0 38 55" fill="none" xmlns="http://www.w3.org/2000/svg">
<path d="M19 26.125C17.2003 26.125 15.4743 25.4007 14.2018 24.1114C12.9292 22.822 12.2143 21.0734 12.2143 19.25C12.2143 17.4266 12.9292 15.678 14.2018 14.3886C15.4743 13.0993 17.2003 12.375 19 12.375C20.7997 12.375 22.5257 13.0993 23.7982 14.3886C25.0708 15.678 25.7857 17.4266 25.7857 19.25C25.7857 20.1528 25.6102 21.0468 25.2692 21.8809C24.9282 22.7151 24.4283 23.473 23.7982 24.1114C23.1681 24.7498 22.4201 25.2562 21.5968 25.6017C20.7735 25.9472 19.8911 26.125 19 26.125ZM19 0C13.9609 0 9.12816 2.02812 5.56497 5.63819C2.00178 9.24827 0 14.1446 0 19.25C0 33.6875 19 55 19 55C19 55 38 33.6875 38 19.25C38 14.1446 35.9982 9.24827 32.435 5.63819C28.8718 2.02812 24.0391 0 19 0Z" fill="white"/>
</svg>
