<svg width="81" height="80" viewBox="0 0 81 80" fill="none" xmlns="http://www.w3.org/2000/svg">
<circle cx="40.5" cy="40" r="40" fill="white"/>
<path fill-rule="evenodd" clip-rule="evenodd" d="M54.6734 24.2353C55.1751 24.027 55.7241 23.9551 56.2635 24.0272C56.8028 24.0993 57.3127 24.3128 57.7401 24.6454C58.1675 24.978 58.4967 25.4176 58.6935 25.9184C58.8903 26.4193 58.9476 26.963 58.8592 27.493L54.2552 55.0551C53.8087 57.7138 50.853 59.2384 48.3825 57.9141C46.316 56.8062 43.2467 55.0992 40.4859 53.3181C39.1056 52.4266 34.8771 49.5716 35.3968 47.54C35.8434 45.803 42.9483 39.2756 47.0082 35.3948C48.6018 33.8702 47.875 32.9906 45.9933 34.3931C41.3203 37.8752 33.8175 43.1704 31.3368 44.661C29.1485 45.9753 28.0077 46.1997 26.6435 45.9753C24.1548 45.5666 21.8467 44.9335 19.9629 44.1621C17.4173 43.1203 17.5411 39.6663 19.9609 38.6605L54.6734 24.2353Z" fill="#0F0F0F"/>
</svg>
