<svg width="228" height="94" viewBox="0 0 228 94" fill="none" xmlns="http://www.w3.org/2000/svg">
<path d="M0 60.0544V32.8223C0 32.6842 0.111928 32.5723 0.25 32.5723H14.6563C14.722 32.5723 14.7852 32.5982 14.832 32.6444L57.0759 74.3855C57.2349 74.5426 57.1237 74.8133 56.9002 74.8133H36.2375C36.1712 74.8133 36.1076 74.787 36.0607 74.7401L15.6125 54.2919C15.2975 53.9769 14.7589 54.2 14.7589 54.6454V74.8133C6.6078 74.8133 0 68.2055 0 60.0544Z" fill="white"/>
<path d="M42.75 56.3803V32.7862C42.75 32.668 42.8458 32.5723 42.9639 32.5723C50.9969 32.5723 57.5089 39.0843 57.5089 47.1173V69.1642C57.5089 69.3804 57.253 69.4946 57.092 69.3503L42.8331 56.5664C42.7802 56.519 42.75 56.4513 42.75 56.3803Z" fill="white"/>
<path d="M85.408 74.8097C81.2158 74.8097 77.5903 73.919 74.5316 72.1378C71.4909 70.3385 69.1429 67.8376 67.4876 64.6349C65.8323 61.4143 65.0046 57.6809 65.0046 53.4347C65.0046 49.1525 65.8323 45.41 67.4876 42.2074C69.1429 38.9867 71.4909 36.4858 74.5316 34.7045C77.5903 32.9053 81.2158 32.0057 85.408 32.0057C89.6003 32.0057 93.2167 32.9053 96.2575 34.7045C99.3162 36.4858 101.673 38.9867 103.328 42.2074C104.984 45.41 105.811 49.1525 105.811 53.4347C105.811 57.6809 104.984 61.4143 103.328 64.6349C101.673 67.8376 99.3162 70.3385 96.2575 72.1378C93.2167 73.919 89.6003 74.8097 85.408 74.8097ZM85.462 65.9034C87.3692 65.9034 88.9615 65.3636 90.239 64.2841C91.5165 63.1866 92.479 61.6932 93.1268 59.804C93.7925 57.9148 94.1254 55.7647 94.1254 53.3537C94.1254 50.9427 93.7925 48.7926 93.1268 46.9034C92.479 45.0142 91.5165 43.5208 90.239 42.4233C88.9615 41.3258 87.3692 40.777 85.462 40.777C83.5368 40.777 81.9175 41.3258 80.604 42.4233C79.3086 43.5208 78.328 45.0142 77.6623 46.9034C77.0146 48.7926 76.6907 50.9427 76.6907 53.3537C76.6907 55.7647 77.0146 57.9148 77.6623 59.804C78.328 61.6932 79.3086 63.1866 80.604 64.2841C81.9175 65.3636 83.5368 65.9034 85.462 65.9034ZM113.287 74V32.5455H124.245V39.8594H124.73C125.594 37.4304 127.033 35.5142 129.049 34.1108C131.064 32.7074 133.475 32.0057 136.282 32.0057C139.124 32.0057 141.544 32.7164 143.542 34.1378C145.539 35.5412 146.87 37.4484 147.536 39.8594H147.968C148.813 37.4844 150.343 35.5862 152.556 34.1648C154.787 32.7254 157.423 32.0057 160.463 32.0057C164.332 32.0057 167.471 33.2382 169.882 35.7031C172.311 38.1501 173.526 41.6226 173.526 46.1207V74H162.056V48.3878C162.056 46.0848 161.444 44.3575 160.221 43.206C158.997 42.0545 157.468 41.4787 155.632 41.4787C153.545 41.4787 151.917 42.1444 150.748 43.4759C149.578 44.7893 148.993 46.5256 148.993 48.6847V74H137.847V48.1449C137.847 46.1117 137.262 44.4924 136.093 43.2869C134.941 42.0814 133.421 41.4787 131.532 41.4787C130.254 41.4787 129.103 41.8026 128.077 42.4503C127.069 43.08 126.269 43.9706 125.675 45.1222C125.081 46.2557 124.784 47.5871 124.784 49.1165V74H113.287ZM201.338 74.8097C197.145 74.8097 193.52 73.919 190.461 72.1378C187.421 70.3385 185.073 67.8376 183.417 64.6349C181.762 61.4143 180.934 57.6809 180.934 53.4347C180.934 49.1525 181.762 45.41 183.417 42.2074C185.073 38.9867 187.421 36.4858 190.461 34.7045C193.52 32.9053 197.145 32.0057 201.338 32.0057C205.53 32.0057 209.146 32.9053 212.187 34.7045C215.246 36.4858 217.603 38.9867 219.258 42.2074C220.913 45.41 221.741 49.1525 221.741 53.4347C221.741 57.6809 220.913 61.4143 219.258 64.6349C217.603 67.8376 215.246 70.3385 212.187 72.1378C209.146 73.919 205.53 74.8097 201.338 74.8097ZM201.392 65.9034C203.299 65.9034 204.891 65.3636 206.169 64.2841C207.446 63.1866 208.409 61.6932 209.056 59.804C209.722 57.9148 210.055 55.7647 210.055 53.3537C210.055 50.9427 209.722 48.7926 209.056 46.9034C208.409 45.0142 207.446 43.5208 206.169 42.4233C204.891 41.3258 203.299 40.777 201.392 40.777C199.467 40.777 197.847 41.3258 196.534 42.4233C195.238 43.5208 194.258 45.0142 193.592 46.9034C192.944 48.7926 192.62 50.9427 192.62 53.3537C192.62 55.7647 192.944 57.9148 193.592 59.804C194.258 61.6932 195.238 63.1866 196.534 64.2841C197.847 65.3636 199.467 65.9034 201.392 65.9034Z" fill="#FF8D2A"/>
</svg>
