<svg width="29" height="24" viewBox="0 0 29 24" fill="none" xmlns="http://www.w3.org/2000/svg">
<circle cx="23" cy="12" r="6" fill="#FF8D2A"/>
<path d="M7.5 5H3C1.89543 5 1 5.89543 1 7V11M7.5 5V3C7.5 1.89543 8.39543 1 9.5 1H15C16.1046 1 17 1.89543 17 3V5M7.5 5H17M17 5H21C22.1046 5 23 5.89543 23 7V11M1 11V18C1 20.7614 3.23858 23 6 23H18C20.7614 23 23 20.7614 23 18V11M1 11L10 15.5M14.5 15.5V12C14.5 11.4477 14.0523 11 13.5 11H11C10.4477 11 10 11.4477 10 12V15.5M14.5 15.5C12.7426 16.202 11.7574 16.1541 10 15.5M14.5 15.5L23 11" stroke="white"/>
</svg>
