<svg width="41" height="50" viewBox="0 0 41 50" fill="none" xmlns="http://www.w3.org/2000/svg">
<path d="M27.5634 25.5C28.2982 24.7525 28.9185 23.9099 29.4109 23H20C19.3096 23 18.75 23.5596 18.75 24.25C18.75 24.9404 19.3096 25.5 20 25.5H27.5634Z" fill="white"/>
<path d="M30.7485 10.3643C30.7495 10.4094 30.75 10.4546 30.75 10.5V17.7122C30.75 19.2003 30.4517 20.6532 29.892 21.9934C29.8452 21.9978 29.7979 22 29.75 22H20C18.7574 22 17.75 23.0074 17.75 24.25C17.75 25.4926 18.7574 26.5 20 26.5H26.4423L24.3022 28.2388C23.2981 29.0547 22.0438 29.5 20.75 29.5C19.4562 29.5 18.2019 29.0547 17.1978 28.2388L14.8539 26.3344C13.1346 24.9375 11.8928 23.0769 11.25 21.0078V13.5C11.25 9.5418 13.5497 6.12072 16.8859 4.5H24.75C25.107 4.5 25.4567 4.53118 25.7966 4.59097C28.1213 5.77974 29.9195 7.85169 30.7485 10.3643Z" fill="white"/>
<path d="M14.5667 4.76236C12.3525 5.47339 10.75 7.54955 10.75 10V10.2114C11.4352 8.02154 12.7865 6.12607 14.5667 4.76236Z" fill="white"/>
<path d="M14.1827 28.6774C7.27251 30.896 2.99872 34.4286 1.19552 38.371C0.860878 39.1027 0.75 39.9102 0.75 40.7147C0.75 43.0947 1.84642 45.3874 3.85375 46.6661C5.91761 47.9808 7.86842 48.877 10.6723 49.5604C12.0442 49.8948 13.4605 50 14.8726 50H27.2819C29.2529 50 31.231 49.7983 33.102 49.1785C35.2896 48.4538 36.7201 47.6966 37.938 46.7371C39.5668 45.4539 40.25 43.3523 40.25 41.2787C40.25 40.106 40.0227 38.9367 39.4883 37.8928C37.6057 34.216 34.8511 31.1628 27.3238 28.6848C26.9769 28.5706 26.5927 28.673 26.347 28.9433L22.4227 33.2601C21.9942 33.7313 21.3869 34 20.75 34C20.1131 34 19.5058 33.7313 19.0773 33.2601L15.1489 28.9388C14.9053 28.6708 14.5275 28.5667 14.1827 28.6774Z" fill="white"/>
<path d="M29.75 22.5H20C19.0335 22.5 18.25 23.2835 18.25 24.25C18.25 25.2165 19.0335 26 20 26H31.25C33.0138 26 34.4728 24.6954 34.7148 22.9985C34.7537 22.7251 34.9739 22.5 35.25 22.5C36.3546 22.5 37.25 21.6046 37.25 20.5V14.5C37.25 13.3954 36.3546 12.5 35.25 12.5C34.9739 12.5 34.751 12.2754 34.7402 11.9995C34.4774 5.32794 28.9859 0 22.25 0H19.75C13.0141 0 7.52257 5.32794 7.25984 11.9995C7.24897 12.2754 7.02614 12.5 6.75 12.5C5.64543 12.5 4.75 13.3954 4.75 14.5V20.5C4.75 21.6046 5.64543 22.5 6.75 22.5H10.75V13.5C10.75 7.70101 15.451 3 21.25 3C27.049 3 31.75 7.70101 31.75 13.5V20.5C31.75 21.6046 30.8546 22.5 29.75 22.5Z" fill="white"/>
</svg>
