<svg width="145" height="42" viewBox="0 0 145 42" fill="none" xmlns="http://www.w3.org/2000/svg">
<rect x="0.924072" width="144" height="42" rx="6" fill="#0F0F0F"/>
<path d="M33.7539 34.7964C32.1385 36.3795 30.3748 36.1295 28.6771 35.3796C26.8804 34.6131 25.2321 34.5797 23.3366 35.3796C20.963 36.4128 19.7103 36.1129 18.2927 34.7964C10.249 26.4141 11.4358 13.649 20.5674 13.1824C22.7926 13.2991 24.342 14.4156 25.6442 14.5156C27.5892 14.1156 29.4518 12.9658 31.5286 13.1158C34.0176 13.3157 35.8967 14.3156 37.1329 16.1154C31.9902 19.2317 33.2099 26.0808 37.9241 27.9972C36.9845 30.4969 35.7648 32.9799 33.7374 34.813L33.7539 34.7964ZM25.4794 13.0824C25.2321 9.36624 28.2155 6.29996 31.644 6C32.122 10.2995 27.787 13.4991 25.4794 13.0824Z" fill="white"/>
<path d="M50.0491 17H47.8048V9.72727H50.1485C50.854 9.72727 51.4577 9.87287 51.9596 10.1641C52.4615 10.4529 52.8462 10.8684 53.1137 11.4105C53.3812 11.9503 53.515 12.5966 53.515 13.3494C53.515 14.107 53.38 14.7592 53.1102 15.3061C52.8403 15.8506 52.4473 16.2696 51.9312 16.5632C51.4151 16.8544 50.7877 17 50.0491 17ZM48.6854 16.2188H49.9923C50.5936 16.2188 51.0919 16.1027 51.4873 15.8707C51.8826 15.6387 52.1774 15.3085 52.3715 14.88C52.5656 14.4515 52.6627 13.9413 52.6627 13.3494C52.6627 12.7623 52.5668 12.2569 52.3751 11.8331C52.1833 11.407 51.8968 11.0803 51.5157 10.853C51.1345 10.6233 50.6599 10.5085 50.0917 10.5085H48.6854V16.2188ZM57.2945 17.1136C56.8021 17.1136 56.37 16.9964 55.9984 16.7621C55.629 16.5277 55.3402 16.1998 55.1319 15.7784C54.9259 15.357 54.8229 14.8646 54.8229 14.3011C54.8229 13.733 54.9259 13.237 55.1319 12.8132C55.3402 12.3894 55.629 12.0604 55.9984 11.826C56.37 11.5916 56.8021 11.4744 57.2945 11.4744C57.787 11.4744 58.2178 11.5916 58.5871 11.826C58.9588 12.0604 59.2477 12.3894 59.4536 12.8132C59.662 13.237 59.7661 13.733 59.7661 14.3011C59.7661 14.8646 59.662 15.357 59.4536 15.7784C59.2477 16.1998 58.9588 16.5277 58.5871 16.7621C58.2178 16.9964 57.787 17.1136 57.2945 17.1136ZM57.2945 16.3608C57.6686 16.3608 57.9763 16.2649 58.2178 16.0732C58.4593 15.8814 58.638 15.6293 58.754 15.3168C58.87 15.0043 58.928 14.6657 58.928 14.3011C58.928 13.9366 58.87 13.5968 58.754 13.282C58.638 12.9671 58.4593 12.7126 58.2178 12.5185C57.9763 12.3243 57.6686 12.2273 57.2945 12.2273C56.9205 12.2273 56.6127 12.3243 56.3712 12.5185C56.1298 12.7126 55.951 12.9671 55.835 13.282C55.719 13.5968 55.661 13.9366 55.661 14.3011C55.661 14.6657 55.719 15.0043 55.835 15.3168C55.951 15.6293 56.1298 15.8814 56.3712 16.0732C56.6127 16.2649 56.9205 16.3608 57.2945 16.3608ZM62.2957 17L60.6337 11.5455H61.5144L62.6934 15.7216H62.7502L63.915 11.5455H64.8099L65.9604 15.7074H66.0173L67.1962 11.5455H68.0769L66.415 17H65.5911L64.3979 12.8097H64.3127L63.1195 17H62.2957ZM70.2229 13.7188V17H69.3849V11.5455H70.1945V12.3977H70.2655C70.3934 12.1207 70.5875 11.8982 70.8479 11.7301C71.1084 11.5597 71.4445 11.4744 71.8565 11.4744C72.2258 11.4744 72.5489 11.5502 72.8259 11.7017C73.1029 11.8509 73.3183 12.0781 73.4722 12.3835C73.6261 12.6866 73.7031 13.0701 73.7031 13.5341V17H72.865V13.5909C72.865 13.1624 72.7537 12.8286 72.5312 12.5895C72.3086 12.348 72.0032 12.2273 71.615 12.2273C71.3475 12.2273 71.1084 12.2853 70.8977 12.4013C70.6893 12.5173 70.5248 12.6866 70.404 12.9091C70.2833 13.1316 70.2229 13.4015 70.2229 13.7188ZM76.2725 9.72727V17H75.4345V9.72727H76.2725ZM80.2234 17.1136C79.731 17.1136 79.299 16.9964 78.9273 16.7621C78.558 16.5277 78.2691 16.1998 78.0608 15.7784C77.8548 15.357 77.7518 14.8646 77.7518 14.3011C77.7518 13.733 77.8548 13.237 78.0608 12.8132C78.2691 12.3894 78.558 12.0604 78.9273 11.826C79.299 11.5916 79.731 11.4744 80.2234 11.4744C80.7159 11.4744 81.1467 11.5916 81.516 11.826C81.8877 12.0604 82.1766 12.3894 82.3825 12.8132C82.5909 13.237 82.695 13.733 82.695 14.3011C82.695 14.8646 82.5909 15.357 82.3825 15.7784C82.1766 16.1998 81.8877 16.5277 81.516 16.7621C81.1467 16.9964 80.7159 17.1136 80.2234 17.1136ZM80.2234 16.3608C80.5975 16.3608 80.9053 16.2649 81.1467 16.0732C81.3882 15.8814 81.5669 15.6293 81.683 15.3168C81.799 15.0043 81.857 14.6657 81.857 14.3011C81.857 13.9366 81.799 13.5968 81.683 13.282C81.5669 12.9671 81.3882 12.7126 81.1467 12.5185C80.9053 12.3243 80.5975 12.2273 80.2234 12.2273C79.8494 12.2273 79.5416 12.3243 79.3001 12.5185C79.0587 12.7126 78.8799 12.9671 78.7639 13.282C78.6479 13.5968 78.5899 13.9366 78.5899 14.3011C78.5899 14.6657 78.6479 15.0043 78.7639 15.3168C78.8799 15.6293 79.0587 15.8814 79.3001 16.0732C79.5416 16.2649 79.8494 16.3608 80.2234 16.3608ZM85.7794 17.1278C85.4338 17.1278 85.1201 17.0627 84.8384 16.9325C84.5567 16.8 84.3329 16.6094 84.1672 16.3608C84.0015 16.1098 83.9186 15.8068 83.9186 15.4517C83.9186 15.1392 83.9802 14.8859 84.1033 14.6918C84.2264 14.4953 84.3909 14.3414 84.5969 14.2301C84.8029 14.1188 85.0301 14.036 85.2787 13.9815C85.5297 13.9247 85.7818 13.8797 86.0351 13.8466C86.3666 13.804 86.6353 13.772 86.8412 13.7507C87.0496 13.727 87.2011 13.688 87.2958 13.6335C87.3928 13.5791 87.4414 13.4844 87.4414 13.3494V13.321C87.4414 12.9706 87.3455 12.6984 87.1537 12.5043C86.9643 12.3101 86.6767 12.2131 86.2908 12.2131C85.8907 12.2131 85.577 12.3007 85.3497 12.4759C85.1225 12.651 84.9627 12.8381 84.8703 13.0369L84.0749 12.7528C84.2169 12.4214 84.4063 12.1634 84.6431 11.9787C84.8822 11.7917 85.1426 11.6615 85.4243 11.5881C85.7084 11.5123 85.9878 11.4744 86.2624 11.4744C86.4376 11.4744 86.6388 11.4957 86.8661 11.5384C87.0957 11.5786 87.3171 11.6626 87.5301 11.7905C87.7456 11.9183 87.9243 12.1113 88.0664 12.3693C88.2084 12.6274 88.2794 12.973 88.2794 13.4062V17H87.4414V16.2614H87.3988C87.3419 16.3797 87.2472 16.5064 87.1147 16.6413C86.9821 16.7763 86.8057 16.8911 86.5855 16.9858C86.3654 17.0805 86.0967 17.1278 85.7794 17.1278ZM85.9073 16.375C86.2387 16.375 86.5181 16.3099 86.7453 16.1797C86.975 16.0495 87.1478 15.8814 87.2638 15.6754C87.3822 15.4695 87.4414 15.2528 87.4414 15.0256V14.2585C87.4059 14.3011 87.3277 14.3402 87.207 14.3757C87.0886 14.4089 86.9513 14.4384 86.7951 14.4645C86.6412 14.4882 86.4908 14.5095 86.3441 14.5284C86.1997 14.545 86.0825 14.5592 85.9925 14.571C85.7747 14.5994 85.5711 14.6456 85.3817 14.7095C85.1947 14.7711 85.0432 14.8646 84.9272 14.9901C84.8135 15.1132 84.7567 15.2812 84.7567 15.4943C84.7567 15.7855 84.8644 16.0057 85.0799 16.1548C85.2977 16.3016 85.5735 16.375 85.9073 16.375ZM92.0687 17.1136C91.6142 17.1136 91.2129 16.9988 90.8649 16.7692C90.5169 16.5372 90.2446 16.2105 90.0482 15.7891C89.8517 15.3653 89.7534 14.8646 89.7534 14.2869C89.7534 13.714 89.8517 13.2169 90.0482 12.7955C90.2446 12.3741 90.5181 12.0485 90.8685 11.8189C91.2188 11.5893 91.6237 11.4744 92.083 11.4744C92.4381 11.4744 92.7186 11.5336 92.9246 11.652C93.1329 11.768 93.2915 11.9006 93.4004 12.0497C93.5117 12.1965 93.5981 12.3172 93.6597 12.4119H93.7307V9.72727H94.5687V17H93.7591V16.1619H93.6597C93.5981 16.2614 93.5105 16.3868 93.3969 16.5384C93.2832 16.6875 93.1211 16.8213 92.9104 16.9396C92.6997 17.0556 92.4191 17.1136 92.0687 17.1136ZM92.1824 16.3608C92.5186 16.3608 92.8026 16.2732 93.0347 16.098C93.2667 15.9205 93.443 15.6754 93.5638 15.3629C93.6845 15.0481 93.7449 14.6847 93.7449 14.2727C93.7449 13.8655 93.6857 13.5092 93.5673 13.2038C93.449 12.8961 93.2738 12.657 93.0418 12.4865C92.8098 12.3137 92.5233 12.2273 92.1824 12.2273C91.8273 12.2273 91.5313 12.3184 91.2946 12.5007C91.0602 12.6806 90.8839 12.9257 90.7655 13.2358C90.6495 13.5436 90.5915 13.8892 90.5915 14.2727C90.5915 14.661 90.6507 15.0137 90.769 15.331C90.8898 15.6458 91.0673 15.8968 91.3017 16.0838C91.5384 16.2685 91.832 16.3608 92.1824 16.3608ZM101.648 17.1136C101.156 17.1136 100.724 16.9964 100.352 16.7621C99.9829 16.5277 99.6941 16.1998 99.4858 15.7784C99.2798 15.357 99.1768 14.8646 99.1768 14.3011C99.1768 13.733 99.2798 13.237 99.4858 12.8132C99.6941 12.3894 99.9829 12.0604 100.352 11.826C100.724 11.5916 101.156 11.4744 101.648 11.4744C102.141 11.4744 102.572 11.5916 102.941 11.826C103.313 12.0604 103.602 12.3894 103.808 12.8132C104.016 13.237 104.12 13.733 104.12 14.3011C104.12 14.8646 104.016 15.357 103.808 15.7784C103.602 16.1998 103.313 16.5277 102.941 16.7621C102.572 16.9964 102.141 17.1136 101.648 17.1136ZM101.648 16.3608C102.022 16.3608 102.33 16.2649 102.572 16.0732C102.813 15.8814 102.992 15.6293 103.108 15.3168C103.224 15.0043 103.282 14.6657 103.282 14.3011C103.282 13.9366 103.224 13.5968 103.108 13.282C102.992 12.9671 102.813 12.7126 102.572 12.5185C102.33 12.3243 102.022 12.2273 101.648 12.2273C101.274 12.2273 100.967 12.3243 100.725 12.5185C100.484 12.7126 100.305 12.9671 100.189 13.282C100.073 13.5968 100.015 13.9366 100.015 14.3011C100.015 14.6657 100.073 15.0043 100.189 15.3168C100.305 15.6293 100.484 15.8814 100.725 16.0732C100.967 16.2649 101.274 16.3608 101.648 16.3608ZM106.437 13.7188V17H105.599V11.5455H106.409V12.3977H106.48C106.608 12.1207 106.802 11.8982 107.062 11.7301C107.323 11.5597 107.659 11.4744 108.071 11.4744C108.44 11.4744 108.763 11.5502 109.04 11.7017C109.317 11.8509 109.533 12.0781 109.687 12.3835C109.841 12.6866 109.918 13.0701 109.918 13.5341V17H109.079V13.5909C109.079 13.1624 108.968 12.8286 108.746 12.5895C108.523 12.348 108.218 12.2273 107.829 12.2273C107.562 12.2273 107.323 12.2853 107.112 12.4013C106.904 12.5173 106.739 12.6866 106.618 12.9091C106.498 13.1316 106.437 13.4015 106.437 13.7188ZM117.034 11.5455V12.2557H114.207V11.5455H117.034ZM115.031 10.2386H115.869V15.4375C115.869 15.6742 115.903 15.8518 115.972 15.9702C116.043 16.0862 116.133 16.1643 116.242 16.2045C116.353 16.2424 116.47 16.2614 116.593 16.2614C116.686 16.2614 116.761 16.2566 116.821 16.2472C116.88 16.2353 116.927 16.2259 116.963 16.2188L117.133 16.9716C117.076 16.9929 116.997 17.0142 116.895 17.0355C116.793 17.0592 116.664 17.071 116.508 17.071C116.271 17.071 116.039 17.0201 115.812 16.9183C115.587 16.8165 115.4 16.6615 115.251 16.4531C115.104 16.2448 115.031 15.982 115.031 15.6648V10.2386ZM119.449 13.7188V17H118.611V9.72727H119.449V12.3977H119.521C119.648 12.116 119.84 11.8923 120.096 11.7266C120.354 11.5585 120.697 11.4744 121.126 11.4744C121.497 11.4744 121.823 11.549 122.102 11.6982C122.382 11.8449 122.598 12.071 122.752 12.3764C122.908 12.6795 122.986 13.0653 122.986 13.5341V17H122.148V13.5909C122.148 13.1577 122.036 12.8227 121.811 12.5859C121.588 12.3468 121.28 12.2273 120.884 12.2273C120.61 12.2273 120.363 12.2853 120.146 12.4013C119.93 12.5173 119.76 12.6866 119.634 12.9091C119.511 13.1316 119.449 13.4015 119.449 13.7188ZM127.007 17.1136C126.481 17.1136 126.028 16.9976 125.646 16.7656C125.268 16.5312 124.975 16.2045 124.769 15.7855C124.566 15.3641 124.464 14.8741 124.464 14.3153C124.464 13.7566 124.566 13.2642 124.769 12.8381C124.975 12.4096 125.262 12.0758 125.629 11.8366C125.998 11.5952 126.429 11.4744 126.921 11.4744C127.205 11.4744 127.486 11.5218 127.763 11.6165C128.04 11.7112 128.292 11.8651 128.519 12.0781C128.747 12.2888 128.928 12.5682 129.063 12.9162C129.198 13.2642 129.265 13.6927 129.265 14.2017V14.5568H125.061V13.8324H128.413C128.413 13.5246 128.351 13.25 128.228 13.0085C128.107 12.767 127.935 12.5765 127.71 12.4368C127.487 12.2971 127.224 12.2273 126.921 12.2273C126.588 12.2273 126.299 12.3101 126.055 12.4759C125.813 12.6392 125.628 12.8523 125.497 13.1151C125.367 13.3778 125.302 13.6596 125.302 13.9602V14.4432C125.302 14.8551 125.373 15.2043 125.515 15.4908C125.66 15.7749 125.86 15.9915 126.115 16.1406C126.371 16.2874 126.668 16.3608 127.007 16.3608C127.227 16.3608 127.426 16.33 127.603 16.2685C127.783 16.2045 127.938 16.1098 128.068 15.9844C128.199 15.8565 128.299 15.6979 128.37 15.5085L129.18 15.7358C129.095 16.0104 128.951 16.2519 128.75 16.4602C128.549 16.6662 128.3 16.8272 128.004 16.9432C127.709 17.0568 127.376 17.1136 127.007 17.1136Z" fill="white"/>
<path d="M46.6094 35H44.3964L49.369 21.1818H51.7778L56.7504 35H54.5374L50.6307 23.6918H50.5228L46.6094 35ZM46.9805 29.5888H54.1595V31.343H46.9805V29.5888ZM58.964 38.8864V24.6364H60.9341V26.3164H61.1028C61.2198 26.1005 61.3884 25.8509 61.6088 25.5675C61.8293 25.2841 62.1351 25.0367 62.5265 24.8253C62.9178 24.6094 63.4351 24.5014 64.0783 24.5014C64.915 24.5014 65.6616 24.7128 66.3184 25.1357C66.9751 25.5585 67.4901 26.168 67.8635 26.9641C68.2413 27.7603 68.4302 28.7184 68.4302 29.8384C68.4302 30.9585 68.2436 31.9188 67.8702 32.7195C67.4969 33.5156 66.9841 34.1296 66.3319 34.5614C65.6796 34.9888 64.9352 35.2024 64.0986 35.2024C63.4688 35.2024 62.9538 35.0967 62.5535 34.8853C62.1576 34.6739 61.8472 34.4265 61.6223 34.1431C61.3974 33.8597 61.2243 33.6078 61.1028 33.3874H60.9814V38.8864H58.964ZM60.9409 29.8182C60.9409 30.5469 61.0466 31.1856 61.258 31.7344C61.4694 32.2831 61.7753 32.7127 62.1756 33.0231C62.5759 33.329 63.0662 33.4819 63.6465 33.4819C64.2492 33.4819 64.753 33.3222 65.1579 33.0028C65.5627 32.679 65.8686 32.2404 66.0755 31.6871C66.2869 31.1339 66.3926 30.5109 66.3926 29.8182C66.3926 29.1345 66.2891 28.5205 66.0822 27.9762C65.8798 27.4319 65.5739 27.0024 65.1646 26.6875C64.7598 26.3726 64.2537 26.2152 63.6465 26.2152C63.0617 26.2152 62.5669 26.3659 62.1621 26.6673C61.7618 26.9686 61.4582 27.3892 61.2512 27.929C61.0443 28.4687 60.9409 29.0985 60.9409 29.8182ZM71.0705 38.8864V24.6364H73.0407V26.3164H73.2094C73.3263 26.1005 73.495 25.8509 73.7154 25.5675C73.9358 25.2841 74.2417 25.0367 74.633 24.8253C75.0244 24.6094 75.5416 24.5014 76.1849 24.5014C77.0215 24.5014 77.7682 24.7128 78.4249 25.1357C79.0817 25.5585 79.5967 26.168 79.97 26.9641C80.3479 27.7603 80.5368 28.7184 80.5368 29.8384C80.5368 30.9585 80.3501 31.9188 79.9768 32.7195C79.6034 33.5156 79.0906 34.1296 78.4384 34.5614C77.7862 34.9888 77.0418 35.2024 76.2051 35.2024C75.5754 35.2024 75.0603 35.0967 74.66 34.8853C74.2642 34.6739 73.9538 34.4265 73.7289 34.1431C73.504 33.8597 73.3308 33.6078 73.2094 33.3874H73.0879V38.8864H71.0705ZM73.0474 29.8182C73.0474 30.5469 73.1531 31.1856 73.3646 31.7344C73.576 32.2831 73.8818 32.7127 74.2822 33.0231C74.6825 33.329 75.1728 33.4819 75.7531 33.4819C76.3558 33.4819 76.8596 33.3222 77.2644 33.0028C77.6692 32.679 77.9751 32.2404 78.182 31.6871C78.3934 31.1339 78.4991 30.5109 78.4991 29.8182C78.4991 29.1345 78.3957 28.5205 78.1888 27.9762C77.9864 27.4319 77.6805 27.0024 77.2712 26.6875C76.8663 26.3726 76.3603 26.2152 75.7531 26.2152C75.1683 26.2152 74.6735 26.3659 74.2687 26.6673C73.8683 26.9686 73.5647 27.3892 73.3578 27.929C73.1509 28.4687 73.0474 29.0985 73.0474 29.8182ZM90.8756 24.8118C90.8036 24.1731 90.5068 23.6783 89.985 23.3274C89.4632 22.9721 88.8065 22.7944 88.0148 22.7944C87.448 22.7944 86.9577 22.8844 86.5439 23.0643C86.1301 23.2397 85.8085 23.4826 85.5791 23.793C85.3542 24.0988 85.2417 24.4474 85.2417 24.8388C85.2417 25.1671 85.3182 25.4505 85.4711 25.6889C85.6286 25.9273 85.8332 26.1275 86.0851 26.2894C86.3415 26.4469 86.6159 26.5795 86.9083 26.6875C87.2006 26.791 87.4818 26.8764 87.7517 26.9439L89.1011 27.2947C89.5419 27.4027 89.994 27.5489 90.4573 27.7333C90.9206 27.9177 91.3501 28.1606 91.746 28.462C92.1418 28.7634 92.4612 29.1367 92.7041 29.582C92.9515 30.0273 93.0752 30.5604 93.0752 31.1811C93.0752 31.9638 92.8728 32.6587 92.4679 33.266C92.0676 33.8732 91.4851 34.3523 90.7204 34.7031C89.9602 35.054 89.0404 35.2294 87.9608 35.2294C86.9263 35.2294 86.0311 35.0652 85.2755 34.7369C84.5198 34.4085 83.9283 33.9429 83.501 33.3402C83.0736 32.733 82.8375 32.0133 82.7925 31.1811H84.8841C84.9246 31.6804 85.0865 32.0965 85.3699 32.4293C85.6578 32.7577 86.0244 33.0028 86.4697 33.1648C86.9195 33.3222 87.4121 33.4009 87.9473 33.4009C88.5366 33.4009 89.0606 33.3087 89.5194 33.1243C89.9827 32.9354 90.3471 32.6745 90.6125 32.3416C90.8778 32.0043 91.0105 31.6107 91.0105 31.1609C91.0105 30.7515 90.8936 30.4164 90.6597 30.1555C90.4303 29.8946 90.1177 29.6787 89.7218 29.5078C89.3305 29.3369 88.8874 29.1862 88.3926 29.0558L86.7598 28.6104C85.6533 28.3091 84.7762 27.866 84.1284 27.2812C83.4852 26.6965 83.1636 25.9228 83.1636 24.9602C83.1636 24.1641 83.3795 23.4691 83.8113 22.8754C84.2431 22.2816 84.8279 21.8205 85.5656 21.4922C86.3033 21.1593 87.1354 20.9929 88.062 20.9929C88.9976 20.9929 89.823 21.1571 90.5382 21.4854C91.2579 21.8138 91.8247 22.2659 92.2385 22.8416C92.6523 23.4129 92.8683 24.0696 92.8862 24.8118H90.8756ZM100.622 24.6364V26.2557H94.9615V24.6364H100.622ZM96.4796 22.1534H98.497V31.957C98.497 32.3484 98.5555 32.643 98.6724 32.8409C98.7894 33.0343 98.94 33.167 99.1245 33.239C99.3134 33.3065 99.5181 33.3402 99.7385 33.3402C99.9004 33.3402 100.042 33.329 100.164 33.3065C100.285 33.284 100.379 33.266 100.447 33.2525L100.811 34.919C100.694 34.964 100.528 35.009 100.312 35.054C100.096 35.1035 99.8262 35.1304 99.5023 35.1349C98.9715 35.1439 98.4767 35.0495 98.0179 34.8516C97.5591 34.6536 97.188 34.3478 96.9047 33.9339C96.6213 33.5201 96.4796 33.0006 96.4796 32.3754V22.1534ZM107.488 35.2092C106.516 35.2092 105.669 34.9865 104.944 34.5412C104.22 34.0959 103.658 33.4729 103.258 32.6722C102.857 31.8716 102.657 30.936 102.657 29.8654C102.657 28.7904 102.857 27.8503 103.258 27.0451C103.658 26.2399 104.22 25.6147 104.944 25.1694C105.669 24.7241 106.516 24.5014 107.488 24.5014C108.46 24.5014 109.308 24.7241 110.032 25.1694C110.756 25.6147 111.318 26.2399 111.719 27.0451C112.119 27.8503 112.319 28.7904 112.319 29.8654C112.319 30.936 112.119 31.8716 111.719 32.6722C111.318 33.4729 110.756 34.0959 110.032 34.5412C109.308 34.9865 108.46 35.2092 107.488 35.2092ZM107.495 33.5156C108.125 33.5156 108.646 33.3492 109.06 33.0163C109.474 32.6835 109.78 32.2404 109.978 31.6871C110.18 31.1339 110.281 30.5244 110.281 29.8587C110.281 29.1974 110.18 28.5902 109.978 28.0369C109.78 27.4792 109.474 27.0316 109.06 26.6942C108.646 26.3569 108.125 26.1882 107.495 26.1882C106.861 26.1882 106.334 26.3569 105.916 26.6942C105.502 27.0316 105.194 27.4792 104.992 28.0369C104.794 28.5902 104.695 29.1974 104.695 29.8587C104.695 30.5244 104.794 31.1339 104.992 31.6871C105.194 32.2404 105.502 32.6835 105.916 33.0163C106.334 33.3492 106.861 33.5156 107.495 33.5156ZM114.951 35V24.6364H116.901V26.2827H117.009C117.198 25.7249 117.531 25.2863 118.007 24.967C118.489 24.6431 119.033 24.4812 119.64 24.4812C119.766 24.4812 119.915 24.4857 120.085 24.4947C120.261 24.5037 120.398 24.5149 120.497 24.5284V26.4581C120.416 26.4356 120.272 26.4109 120.065 26.3839C119.858 26.3524 119.651 26.3366 119.444 26.3366C118.968 26.3366 118.543 26.4379 118.169 26.6403C117.8 26.8382 117.508 27.1148 117.292 27.4702C117.076 27.821 116.968 28.2214 116.968 28.6712V35H114.951ZM126.718 35.2092C125.697 35.2092 124.818 34.991 124.08 34.5547C123.347 34.1139 122.78 33.4954 122.38 32.6992C121.984 31.8986 121.786 30.9607 121.786 29.8857C121.786 28.8241 121.984 27.8885 122.38 27.0788C122.78 26.2692 123.338 25.6372 124.053 25.1829C124.773 24.7286 125.614 24.5014 126.577 24.5014C127.161 24.5014 127.728 24.5981 128.277 24.7915C128.826 24.985 129.318 25.2886 129.755 25.7024C130.191 26.1162 130.535 26.6538 130.787 27.315C131.039 27.9717 131.165 28.7701 131.165 29.7102V30.4254H122.926V28.9141H129.188C129.188 28.3833 129.08 27.9132 128.864 27.5039C128.648 27.0901 128.344 26.764 127.953 26.5256C127.566 26.2872 127.112 26.168 126.59 26.168C126.023 26.168 125.529 26.3074 125.106 26.5863C124.688 26.8607 124.364 27.2205 124.134 27.6658C123.909 28.1067 123.797 28.5857 123.797 29.103V30.2837C123.797 30.9764 123.918 31.5657 124.161 32.0515C124.409 32.5373 124.753 32.9084 125.194 33.1648C125.634 33.4167 126.149 33.5426 126.739 33.5426C127.121 33.5426 127.47 33.4886 127.784 33.3807C128.099 33.2682 128.371 33.1018 128.601 32.8814C128.83 32.661 129.006 32.3888 129.127 32.065L131.037 32.4091C130.884 32.9714 130.609 33.4639 130.213 33.8867C129.822 34.305 129.33 34.6312 128.736 34.8651C128.147 35.0945 127.474 35.2092 126.718 35.2092Z" fill="white"/>
</svg>
