<svg width="144" height="42" viewBox="0 0 144 42" fill="none" xmlns="http://www.w3.org/2000/svg">
<rect width="144" height="42" rx="6" fill="white"/>
<path d="M32.8298 34.7964C31.2144 36.3795 29.4508 36.1295 27.753 35.3796C25.9563 34.6131 24.308 34.5797 22.4125 35.3796C20.0389 36.4128 18.7862 36.1129 17.3687 34.7964C9.32493 26.4141 10.5117 13.649 19.6433 13.1824C21.8685 13.2991 23.418 14.4156 24.7201 14.5156C26.6651 14.1156 28.5277 12.9658 30.6046 13.1158C33.0935 13.3157 34.9726 14.3156 36.2088 16.1154C31.0661 19.2317 32.2858 26.0808 37 27.9972C36.0605 30.4969 34.8407 32.9799 32.8133 34.813L32.8298 34.7964ZM24.5553 13.0824C24.308 9.36624 27.2915 6.29996 30.72 6C31.198 10.2995 26.8629 13.4991 24.5553 13.0824Z" fill="#1C1C1C"/>
<path d="M49.125 17H46.8807V9.72727H49.2244C49.9299 9.72727 50.5336 9.87287 51.0355 10.1641C51.5374 10.4529 51.9221 10.8684 52.1896 11.4105C52.4571 11.9503 52.5909 12.5966 52.5909 13.3494C52.5909 14.107 52.456 14.7592 52.1861 15.3061C51.9162 15.8506 51.5232 16.2696 51.0071 16.5632C50.491 16.8544 49.8636 17 49.125 17ZM47.7614 16.2188H49.0682C49.6695 16.2188 50.1679 16.1027 50.5632 15.8707C50.9586 15.6387 51.2533 15.3085 51.4474 14.88C51.6416 14.4515 51.7386 13.9413 51.7386 13.3494C51.7386 12.7623 51.6428 12.2569 51.451 11.8331C51.2592 11.407 50.9728 11.0803 50.5916 10.853C50.2105 10.6233 49.7358 10.5085 49.1676 10.5085H47.7614V16.2188ZM56.3705 17.1136C55.878 17.1136 55.446 16.9964 55.0743 16.7621C54.705 16.5277 54.4161 16.1998 54.2078 15.7784C54.0018 15.357 53.8989 14.8646 53.8989 14.3011C53.8989 13.733 54.0018 13.237 54.2078 12.8132C54.4161 12.3894 54.705 12.0604 55.0743 11.826C55.446 11.5916 55.878 11.4744 56.3705 11.4744C56.8629 11.4744 57.2937 11.5916 57.6631 11.826C58.0348 12.0604 58.3236 12.3894 58.5295 12.8132C58.7379 13.237 58.842 13.733 58.842 14.3011C58.842 14.8646 58.7379 15.357 58.5295 15.7784C58.3236 16.1998 58.0348 16.5277 57.6631 16.7621C57.2937 16.9964 56.8629 17.1136 56.3705 17.1136ZM56.3705 16.3608C56.7445 16.3608 57.0523 16.2649 57.2937 16.0732C57.5352 15.8814 57.714 15.6293 57.83 15.3168C57.946 15.0043 58.004 14.6657 58.004 14.3011C58.004 13.9366 57.946 13.5968 57.83 13.282C57.714 12.9671 57.5352 12.7126 57.2937 12.5185C57.0523 12.3243 56.7445 12.2273 56.3705 12.2273C55.9964 12.2273 55.6886 12.3243 55.4472 12.5185C55.2057 12.7126 55.0269 12.9671 54.9109 13.282C54.7949 13.5968 54.7369 13.9366 54.7369 14.3011C54.7369 14.6657 54.7949 15.0043 54.9109 15.3168C55.0269 15.6293 55.2057 15.8814 55.4472 16.0732C55.6886 16.2649 55.9964 16.3608 56.3705 16.3608ZM61.3716 17L59.7097 11.5455H60.5903L61.7693 15.7216H61.8261L62.9909 11.5455H63.8858L65.0364 15.7074H65.0932L66.2722 11.5455H67.1528L65.4909 17H64.667L63.4739 12.8097H63.3886L62.1955 17H61.3716ZM69.2989 13.7188V17H68.4608V11.5455H69.2705V12.3977H69.3415C69.4693 12.1207 69.6634 11.8982 69.9239 11.7301C70.1843 11.5597 70.5205 11.4744 70.9324 11.4744C71.3017 11.4744 71.6249 11.5502 71.9018 11.7017C72.1788 11.8509 72.3943 12.0781 72.5482 12.3835C72.702 12.6866 72.779 13.0701 72.779 13.5341V17H71.9409V13.5909C71.9409 13.1624 71.8296 12.8286 71.6071 12.5895C71.3846 12.348 71.0792 12.2273 70.6909 12.2273C70.4234 12.2273 70.1843 12.2853 69.9736 12.4013C69.7652 12.5173 69.6007 12.6866 69.48 12.9091C69.3592 13.1316 69.2989 13.4015 69.2989 13.7188ZM75.3485 9.72727V17H74.5104V9.72727H75.3485ZM79.2994 17.1136C78.8069 17.1136 78.3749 16.9964 78.0032 16.7621C77.6339 16.5277 77.3451 16.1998 77.1367 15.7784C76.9308 15.357 76.8278 14.8646 76.8278 14.3011C76.8278 13.733 76.9308 13.237 77.1367 12.8132C77.3451 12.3894 77.6339 12.0604 78.0032 11.826C78.3749 11.5916 78.8069 11.4744 79.2994 11.4744C79.7918 11.4744 80.2227 11.5916 80.592 11.826C80.9637 12.0604 81.2525 12.3894 81.4585 12.8132C81.6668 13.237 81.771 13.733 81.771 14.3011C81.771 14.8646 81.6668 15.357 81.4585 15.7784C81.2525 16.1998 80.9637 16.5277 80.592 16.7621C80.2227 16.9964 79.7918 17.1136 79.2994 17.1136ZM79.2994 16.3608C79.6734 16.3608 79.9812 16.2649 80.2227 16.0732C80.4641 15.8814 80.6429 15.6293 80.7589 15.3168C80.8749 15.0043 80.9329 14.6657 80.9329 14.3011C80.9329 13.9366 80.8749 13.5968 80.7589 13.282C80.6429 12.9671 80.4641 12.7126 80.2227 12.5185C79.9812 12.3243 79.6734 12.2273 79.2994 12.2273C78.9253 12.2273 78.6175 12.3243 78.3761 12.5185C78.1346 12.7126 77.9558 12.9671 77.8398 13.282C77.7238 13.5968 77.6658 13.9366 77.6658 14.3011C77.6658 14.6657 77.7238 15.0043 77.8398 15.3168C77.9558 15.6293 78.1346 15.8814 78.3761 16.0732C78.6175 16.2649 78.9253 16.3608 79.2994 16.3608ZM84.8554 17.1278C84.5097 17.1278 84.196 17.0627 83.9143 16.9325C83.6326 16.8 83.4089 16.6094 83.2431 16.3608C83.0774 16.1098 82.9946 15.8068 82.9946 15.4517C82.9946 15.1392 83.0561 14.8859 83.1792 14.6918C83.3023 14.4953 83.4669 14.3414 83.6728 14.2301C83.8788 14.1188 84.1061 14.036 84.3547 13.9815C84.6056 13.9247 84.8577 13.8797 85.111 13.8466C85.4425 13.804 85.7112 13.772 85.9172 13.7507C86.1255 13.727 86.277 13.688 86.3717 13.6335C86.4688 13.5791 86.5173 13.4844 86.5173 13.3494V13.321C86.5173 12.9706 86.4214 12.6984 86.2297 12.5043C86.0403 12.3101 85.7526 12.2131 85.3667 12.2131C84.9666 12.2131 84.6529 12.3007 84.4257 12.4759C84.1984 12.651 84.0386 12.8381 83.9463 13.0369L83.1508 12.7528C83.2929 12.4214 83.4823 12.1634 83.719 11.9787C83.9581 11.7917 84.2185 11.6615 84.5002 11.5881C84.7843 11.5123 85.0637 11.4744 85.3383 11.4744C85.5135 11.4744 85.7147 11.4957 85.942 11.5384C86.1717 11.5786 86.393 11.6626 86.6061 11.7905C86.8215 11.9183 87.0002 12.1113 87.1423 12.3693C87.2843 12.6274 87.3554 12.973 87.3554 13.4062V17H86.5173V16.2614H86.4747C86.4179 16.3797 86.3232 16.5064 86.1906 16.6413C86.058 16.7763 85.8816 16.8911 85.6615 16.9858C85.4413 17.0805 85.1726 17.1278 84.8554 17.1278ZM84.9832 16.375C85.3146 16.375 85.594 16.3099 85.8213 16.1797C86.0509 16.0495 86.2237 15.8814 86.3397 15.6754C86.4581 15.4695 86.5173 15.2528 86.5173 15.0256V14.2585C86.4818 14.3011 86.4037 14.3402 86.2829 14.3757C86.1645 14.4089 86.0272 14.4384 85.871 14.4645C85.7171 14.4882 85.5668 14.5095 85.42 14.5284C85.2756 14.545 85.1584 14.5592 85.0684 14.571C84.8506 14.5994 84.647 14.6456 84.4576 14.7095C84.2706 14.7711 84.1191 14.8646 84.0031 14.9901C83.8895 15.1132 83.8326 15.2812 83.8326 15.4943C83.8326 15.7855 83.9404 16.0057 84.1558 16.1548C84.3736 16.3016 84.6494 16.375 84.9832 16.375ZM91.1447 17.1136C90.6901 17.1136 90.2889 16.9988 89.9408 16.7692C89.5928 16.5372 89.3206 16.2105 89.1241 15.7891C88.9276 15.3653 88.8293 14.8646 88.8293 14.2869C88.8293 13.714 88.9276 13.2169 89.1241 12.7955C89.3206 12.3741 89.594 12.0485 89.9444 11.8189C90.2948 11.5893 90.6996 11.4744 91.1589 11.4744C91.514 11.4744 91.7945 11.5336 92.0005 11.652C92.2088 11.768 92.3674 11.9006 92.4764 12.0497C92.5876 12.1965 92.674 12.3172 92.7356 12.4119H92.8066V9.72727H93.6447V17H92.835V16.1619H92.7356C92.674 16.2614 92.5864 16.3868 92.4728 16.5384C92.3592 16.6875 92.197 16.8213 91.9863 16.9396C91.7756 17.0556 91.4951 17.1136 91.1447 17.1136ZM91.2583 16.3608C91.5945 16.3608 91.8786 16.2732 92.1106 16.098C92.3426 15.9205 92.519 15.6754 92.6397 15.3629C92.7604 15.0481 92.8208 14.6847 92.8208 14.2727C92.8208 13.8655 92.7616 13.5092 92.6433 13.2038C92.5249 12.8961 92.3497 12.657 92.1177 12.4865C91.8857 12.3137 91.5992 12.2273 91.2583 12.2273C90.9032 12.2273 90.6073 12.3184 90.3705 12.5007C90.1362 12.6806 89.9598 12.9257 89.8414 13.2358C89.7254 13.5436 89.6674 13.8892 89.6674 14.2727C89.6674 14.661 89.7266 15.0137 89.845 15.331C89.9657 15.6458 90.1433 15.8968 90.3776 16.0838C90.6144 16.2685 90.9079 16.3608 91.2583 16.3608ZM100.724 17.1136C100.232 17.1136 99.7999 16.9964 99.4282 16.7621C99.0589 16.5277 98.7701 16.1998 98.5617 15.7784C98.3558 15.357 98.2528 14.8646 98.2528 14.3011C98.2528 13.733 98.3558 13.237 98.5617 12.8132C98.7701 12.3894 99.0589 12.0604 99.4282 11.826C99.7999 11.5916 100.232 11.4744 100.724 11.4744C101.217 11.4744 101.648 11.5916 102.017 11.826C102.389 12.0604 102.677 12.3894 102.883 12.8132C103.092 13.237 103.196 13.733 103.196 14.3011C103.196 14.8646 103.092 15.357 102.883 15.7784C102.677 16.1998 102.389 16.5277 102.017 16.7621C101.648 16.9964 101.217 17.1136 100.724 17.1136ZM100.724 16.3608C101.098 16.3608 101.406 16.2649 101.648 16.0732C101.889 15.8814 102.068 15.6293 102.184 15.3168C102.3 15.0043 102.358 14.6657 102.358 14.3011C102.358 13.9366 102.3 13.5968 102.184 13.282C102.068 12.9671 101.889 12.7126 101.648 12.5185C101.406 12.3243 101.098 12.2273 100.724 12.2273C100.35 12.2273 100.043 12.3243 99.8011 12.5185C99.5596 12.7126 99.3808 12.9671 99.2648 13.282C99.1488 13.5968 99.0908 13.9366 99.0908 14.3011C99.0908 14.6657 99.1488 15.0043 99.2648 15.3168C99.3808 15.6293 99.5596 15.8814 99.8011 16.0732C100.043 16.2649 100.35 16.3608 100.724 16.3608ZM105.513 13.7188V17H104.675V11.5455H105.485V12.3977H105.556C105.684 12.1207 105.878 11.8982 106.138 11.7301C106.399 11.5597 106.735 11.4744 107.147 11.4744C107.516 11.4744 107.839 11.5502 108.116 11.7017C108.393 11.8509 108.609 12.0781 108.763 12.3835C108.916 12.6866 108.993 13.0701 108.993 13.5341V17H108.155V13.5909C108.155 13.1624 108.044 12.8286 107.822 12.5895C107.599 12.348 107.294 12.2273 106.905 12.2273C106.638 12.2273 106.399 12.2853 106.188 12.4013C105.98 12.5173 105.815 12.6866 105.694 12.9091C105.574 13.1316 105.513 13.4015 105.513 13.7188ZM116.11 11.5455V12.2557H113.283V11.5455H116.11ZM114.107 10.2386H114.945V15.4375C114.945 15.6742 114.979 15.8518 115.048 15.9702C115.119 16.0862 115.209 16.1643 115.318 16.2045C115.429 16.2424 115.546 16.2614 115.669 16.2614C115.762 16.2614 115.837 16.2566 115.896 16.2472C115.956 16.2353 116.003 16.2259 116.038 16.2188L116.209 16.9716C116.152 16.9929 116.073 17.0142 115.971 17.0355C115.869 17.0592 115.74 17.071 115.584 17.071C115.347 17.071 115.115 17.0201 114.888 16.9183C114.663 16.8165 114.476 16.6615 114.327 16.4531C114.18 16.2448 114.107 15.982 114.107 15.6648V10.2386ZM118.525 13.7188V17H117.687V9.72727H118.525V12.3977H118.596C118.724 12.116 118.916 11.8923 119.172 11.7266C119.43 11.5585 119.773 11.4744 120.202 11.4744C120.573 11.4744 120.899 11.549 121.178 11.6982C121.457 11.8449 121.674 12.071 121.828 12.3764C121.984 12.6795 122.062 13.0653 122.062 13.5341V17H121.224V13.5909C121.224 13.1577 121.112 12.8227 120.887 12.5859C120.664 12.3468 120.355 12.2273 119.96 12.2273C119.685 12.2273 119.439 12.2853 119.221 12.4013C119.006 12.5173 118.836 12.6866 118.71 12.9091C118.587 13.1316 118.525 13.4015 118.525 13.7188ZM126.082 17.1136C125.557 17.1136 125.104 16.9976 124.722 16.7656C124.344 16.5312 124.051 16.2045 123.845 15.7855C123.642 15.3641 123.54 14.8741 123.54 14.3153C123.54 13.7566 123.642 13.2642 123.845 12.8381C124.051 12.4096 124.338 12.0758 124.705 11.8366C125.074 11.5952 125.505 11.4744 125.997 11.4744C126.281 11.4744 126.562 11.5218 126.839 11.6165C127.116 11.7112 127.368 11.8651 127.595 12.0781C127.823 12.2888 128.004 12.5682 128.139 12.9162C128.274 13.2642 128.341 13.6927 128.341 14.2017V14.5568H124.136V13.8324H127.489C127.489 13.5246 127.427 13.25 127.304 13.0085C127.183 12.767 127.011 12.5765 126.786 12.4368C126.563 12.2971 126.3 12.2273 125.997 12.2273C125.663 12.2273 125.375 12.3101 125.131 12.4759C124.889 12.6392 124.703 12.8523 124.573 13.1151C124.443 13.3778 124.378 13.6596 124.378 13.9602V14.4432C124.378 14.8551 124.449 15.2043 124.591 15.4908C124.735 15.7749 124.935 15.9915 125.191 16.1406C125.447 16.2874 125.744 16.3608 126.082 16.3608C126.303 16.3608 126.502 16.33 126.679 16.2685C126.859 16.2045 127.014 16.1098 127.144 15.9844C127.274 15.8565 127.375 15.6979 127.446 15.5085L128.256 15.7358C128.171 16.0104 128.027 16.2519 127.826 16.4602C127.625 16.6662 127.376 16.8272 127.08 16.9432C126.784 17.0568 126.452 17.1136 126.082 17.1136Z" fill="#1C1C1C"/>
<path d="M45.6854 35H43.4723L48.445 21.1818H50.8537L55.8264 35H53.6133L49.7067 23.6918H49.5987L45.6854 35ZM46.0565 29.5888H53.2354V31.343H46.0565V29.5888ZM58.0399 38.8864V24.6364H60.0101V26.3164H60.1787C60.2957 26.1005 60.4644 25.8509 60.6848 25.5675C60.9052 25.2841 61.2111 25.0367 61.6024 24.8253C61.9937 24.6094 62.511 24.5014 63.1542 24.5014C63.9909 24.5014 64.7376 24.7128 65.3943 25.1357C66.051 25.5585 66.5661 26.168 66.9394 26.9641C67.3172 27.7603 67.5062 28.7184 67.5062 29.8384C67.5062 30.9585 67.3195 31.9188 66.9461 32.7195C66.5728 33.5156 66.06 34.1296 65.4078 34.5614C64.7556 34.9888 64.0111 35.2024 63.1745 35.2024C62.5447 35.2024 62.0297 35.0967 61.6294 34.8853C61.2335 34.6739 60.9232 34.4265 60.6983 34.1431C60.4734 33.8597 60.3002 33.6078 60.1787 33.3874H60.0573V38.8864H58.0399ZM60.0168 29.8182C60.0168 30.5469 60.1225 31.1856 60.3339 31.7344C60.5453 32.2831 60.8512 32.7127 61.2515 33.0231C61.6519 33.329 62.1422 33.4819 62.7224 33.4819C63.3252 33.4819 63.829 33.3222 64.2338 33.0028C64.6386 32.679 64.9445 32.2404 65.1514 31.6871C65.3628 31.1339 65.4685 30.5109 65.4685 29.8182C65.4685 29.1345 65.3651 28.5205 65.1581 27.9762C64.9557 27.4319 64.6499 27.0024 64.2405 26.6875C63.8357 26.3726 63.3297 26.2152 62.7224 26.2152C62.1377 26.2152 61.6429 26.3659 61.238 26.6673C60.8377 26.9686 60.5341 27.3892 60.3272 27.929C60.1203 28.4687 60.0168 29.0985 60.0168 29.8182ZM70.1465 38.8864V24.6364H72.1166V26.3164H72.2853C72.4023 26.1005 72.5709 25.8509 72.7913 25.5675C73.0117 25.2841 73.3176 25.0367 73.709 24.8253C74.1003 24.6094 74.6176 24.5014 75.2608 24.5014C76.0974 24.5014 76.8441 24.7128 77.5009 25.1357C78.1576 25.5585 78.6726 26.168 79.046 26.9641C79.4238 27.7603 79.6127 28.7184 79.6127 29.8384C79.6127 30.9585 79.426 31.9188 79.0527 32.7195C78.6794 33.5156 78.1666 34.1296 77.5144 34.5614C76.8621 34.9888 76.1177 35.2024 75.281 35.2024C74.6513 35.2024 74.1363 35.0967 73.7359 34.8853C73.3401 34.6739 73.0297 34.4265 72.8048 34.1431C72.5799 33.8597 72.4068 33.6078 72.2853 33.3874H72.1639V38.8864H70.1465ZM72.1234 29.8182C72.1234 30.5469 72.2291 31.1856 72.4405 31.7344C72.6519 32.2831 72.9578 32.7127 73.3581 33.0231C73.7584 33.329 74.2487 33.4819 74.829 33.4819C75.4317 33.4819 75.9355 33.3222 76.3403 33.0028C76.7452 32.679 77.051 32.2404 77.258 31.6871C77.4694 31.1339 77.5751 30.5109 77.5751 29.8182C77.5751 29.1345 77.4716 28.5205 77.2647 27.9762C77.0623 27.4319 76.7564 27.0024 76.3471 26.6875C75.9423 26.3726 75.4362 26.2152 74.829 26.2152C74.2442 26.2152 73.7494 26.3659 73.3446 26.6673C72.9443 26.9686 72.6407 27.3892 72.4337 27.929C72.2268 28.4687 72.1234 29.0985 72.1234 29.8182ZM89.9515 24.8118C89.8796 24.1731 89.5827 23.6783 89.0609 23.3274C88.5391 22.9721 87.8824 22.7944 87.0907 22.7944C86.524 22.7944 86.0337 22.8844 85.6198 23.0643C85.206 23.2397 84.8844 23.4826 84.655 23.793C84.4301 24.0988 84.3176 24.4474 84.3176 24.8388C84.3176 25.1671 84.3941 25.4505 84.547 25.6889C84.7045 25.9273 84.9091 26.1275 85.161 26.2894C85.4174 26.4469 85.6918 26.5795 85.9842 26.6875C86.2766 26.791 86.5577 26.8764 86.8276 26.9439L88.177 27.2947C88.6178 27.4027 89.0699 27.5489 89.5332 27.7333C89.9965 27.9177 90.4261 28.1606 90.8219 28.462C91.2177 28.7634 91.5371 29.1367 91.78 29.582C92.0274 30.0273 92.1511 30.5604 92.1511 31.1811C92.1511 31.9638 91.9487 32.6587 91.5439 33.266C91.1435 33.8732 90.561 34.3523 89.7963 34.7031C89.0362 35.054 88.1163 35.2294 87.0368 35.2294C86.0022 35.2294 85.1071 35.0652 84.3514 34.7369C83.5957 34.4085 83.0042 33.9429 82.5769 33.3402C82.1496 32.733 81.9134 32.0133 81.8684 31.1811H83.96C84.0005 31.6804 84.1625 32.0965 84.4458 32.4293C84.7337 32.7577 85.1003 33.0028 85.5456 33.1648C85.9954 33.3222 86.488 33.4009 87.0233 33.4009C87.6125 33.4009 88.1365 33.3087 88.5953 33.1243C89.0586 32.9354 89.423 32.6745 89.6884 32.3416C89.9538 32.0043 90.0865 31.6107 90.0865 31.1609C90.0865 30.7515 89.9695 30.4164 89.7356 30.1555C89.5062 29.8946 89.1936 29.6787 88.7978 29.5078C88.4064 29.3369 87.9634 29.1862 87.4686 29.0558L85.8358 28.6104C84.7292 28.3091 83.8521 27.866 83.2044 27.2812C82.5611 26.6965 82.2395 25.9228 82.2395 24.9602C82.2395 24.1641 82.4554 23.4691 82.8872 22.8754C83.3191 22.2816 83.9038 21.8205 84.6415 21.4922C85.3792 21.1593 86.2113 20.9929 87.138 20.9929C88.0736 20.9929 88.899 21.1571 89.6142 21.4854C90.3339 21.8138 90.9006 22.2659 91.3144 22.8416C91.7283 23.4129 91.9442 24.0696 91.9622 24.8118H89.9515ZM99.6983 24.6364V26.2557H94.0374V24.6364H99.6983ZM95.5555 22.1534H97.5729V31.957C97.5729 32.3484 97.6314 32.643 97.7483 32.8409C97.8653 33.0343 98.016 33.167 98.2004 33.239C98.3893 33.3065 98.594 33.3402 98.8144 33.3402C98.9763 33.3402 99.118 33.329 99.2395 33.3065C99.3609 33.284 99.4554 33.266 99.5228 33.2525L99.8872 34.919C99.7702 34.964 99.6038 35.009 99.3879 35.054C99.172 35.1035 98.9021 35.1304 98.5782 35.1349C98.0475 35.1439 97.5527 35.0495 97.0939 34.8516C96.6351 34.6536 96.264 34.3478 95.9806 33.9339C95.6972 33.5201 95.5555 33.0006 95.5555 32.3754V22.1534ZM106.564 35.2092C105.592 35.2092 104.744 34.9865 104.02 34.5412C103.296 34.0959 102.734 33.4729 102.334 32.6722C101.933 31.8716 101.733 30.936 101.733 29.8654C101.733 28.7904 101.933 27.8503 102.334 27.0451C102.734 26.2399 103.296 25.6147 104.02 25.1694C104.744 24.7241 105.592 24.5014 106.564 24.5014C107.536 24.5014 108.383 24.7241 109.108 25.1694C109.832 25.6147 110.394 26.2399 110.794 27.0451C111.195 27.8503 111.395 28.7904 111.395 29.8654C111.395 30.936 111.195 31.8716 110.794 32.6722C110.394 33.4729 109.832 34.0959 109.108 34.5412C108.383 34.9865 107.536 35.2092 106.564 35.2092ZM106.571 33.5156C107.2 33.5156 107.722 33.3492 108.136 33.0163C108.55 32.6835 108.856 32.2404 109.054 31.6871C109.256 31.1339 109.357 30.5244 109.357 29.8587C109.357 29.1974 109.256 28.5902 109.054 28.0369C108.856 27.4792 108.55 27.0316 108.136 26.6942C107.722 26.3569 107.2 26.1882 106.571 26.1882C105.936 26.1882 105.41 26.3569 104.992 26.6942C104.578 27.0316 104.27 27.4792 104.068 28.0369C103.87 28.5902 103.771 29.1974 103.771 29.8587C103.771 30.5244 103.87 31.1339 104.068 31.6871C104.27 32.2404 104.578 32.6835 104.992 33.0163C105.41 33.3492 105.936 33.5156 106.571 33.5156ZM114.027 35V24.6364H115.977V26.2827H116.085C116.274 25.7249 116.606 25.2863 117.083 24.967C117.565 24.6431 118.109 24.4812 118.716 24.4812C118.842 24.4812 118.99 24.4857 119.161 24.4947C119.337 24.5037 119.474 24.5149 119.573 24.5284V26.4581C119.492 26.4356 119.348 26.4109 119.141 26.3839C118.934 26.3524 118.727 26.3366 118.52 26.3366C118.044 26.3366 117.619 26.4379 117.245 26.6403C116.876 26.8382 116.584 27.1148 116.368 27.4702C116.152 27.821 116.044 28.2214 116.044 28.6712V35H114.027ZM125.794 35.2092C124.773 35.2092 123.894 34.991 123.156 34.5547C122.423 34.1139 121.856 33.4954 121.456 32.6992C121.06 31.8986 120.862 30.9607 120.862 29.8857C120.862 28.8241 121.06 27.8885 121.456 27.0788C121.856 26.2692 122.414 25.6372 123.129 25.1829C123.849 24.7286 124.69 24.5014 125.653 24.5014C126.237 24.5014 126.804 24.5981 127.353 24.7915C127.902 24.985 128.394 25.2886 128.831 25.7024C129.267 26.1162 129.611 26.6538 129.863 27.315C130.115 27.9717 130.241 28.7701 130.241 29.7102V30.4254H122.002V28.9141H128.264C128.264 28.3833 128.156 27.9132 127.94 27.5039C127.724 27.0901 127.42 26.764 127.029 26.5256C126.642 26.2872 126.188 26.168 125.666 26.168C125.099 26.168 124.605 26.3074 124.182 26.5863C123.763 26.8607 123.44 27.2205 123.21 27.6658C122.985 28.1067 122.873 28.5857 122.873 29.103V30.2837C122.873 30.9764 122.994 31.5657 123.237 32.0515C123.485 32.5373 123.829 32.9084 124.269 33.1648C124.71 33.4167 125.225 33.5426 125.815 33.5426C126.197 33.5426 126.546 33.4886 126.86 33.3807C127.175 33.2682 127.447 33.1018 127.677 32.8814C127.906 32.661 128.082 32.3888 128.203 32.065L130.113 32.4091C129.96 32.9714 129.685 33.4639 129.289 33.8867C128.898 34.305 128.405 34.6312 127.812 34.8651C127.222 35.0945 126.55 35.2092 125.794 35.2092Z" fill="#1C1C1C"/>
</svg>
