<svg width="1440" height="823" viewBox="0 0 1440 823" fill="none" xmlns="http://www.w3.org/2000/svg">
<path d="M755.5 673.5C1004 478.5 1140.45 514.424 1475.32 318V-22.5C1475.32 -39.3 487.656 -29.5 -6.17688 -22.5L-36 815.5C220 815.5 507 868.5 755.5 673.5Z" fill="#0F0F0F"/>
<g filter="url(#filter0_f_2_2348)">
<path d="M13.0865 410.315L1.82227 373.5L-20.8897 254.079C-26.4067 225.07 -29.6531 195.676 -30.5996 166.163L-34.6777 39V6.01037C-34.6777 -24.0579 -15.1845 -50.6558 13.4881 -59.7103C19.3512 -61.5618 25.4356 -62.6204 31.5795 -62.8579L171.061 -68.2502C201.187 -69.4149 231.359 -68.1791 261.289 -64.5545L455.935 -40.9827C477.746 -38.3414 499.061 -32.5667 519.222 -23.8371C562.555 -5.07466 599.006 26.6583 623.557 66.9934L627.822 74L637.861 93.9136C651.314 120.599 658.322 150.067 658.322 179.952C658.322 191.626 657.266 203.274 655.081 214.742C651.647 232.767 647.501 253.758 646.322 257C645.204 260.076 629.848 285.81 615.526 309.504C604.605 327.572 589.234 342.521 570.938 353.054C556.666 361.272 540.921 366.611 524.594 368.77L488.822 373.5L439.322 384.5L376.822 403L297.822 426L229.322 453.5L158.345 474.72C141.171 479.854 123.142 481.488 105.325 479.524L95.2954 478.418C77.9667 476.508 61.4719 469.967 47.543 459.483C31.1514 447.146 19.089 429.933 13.0865 410.315Z" fill="#262525"/>
</g>
<mask id="mask0_2_2348" style="mask-type:alpha" maskUnits="userSpaceOnUse" x="-36" y="-32" width="1512" height="855">
<path d="M755.5 673.5C1004 478.5 1140.45 514.424 1475.32 318V-22.5C1475.32 -39.3 487.656 -29.5 -6.17688 -22.5L-36 815.5C220 815.5 507 868.5 755.5 673.5Z" fill="#0F0F0F"/>
</mask>
<g mask="url(#mask0_2_2348)">
<g filter="url(#filter1_f_2_2348)">
<path d="M669.324 736.444V757.373C669.324 764.778 672.448 771.84 677.928 776.821C685.994 784.155 697.751 785.747 707.478 780.823L1410.25 425.091C1440.66 409.701 1459.82 378.52 1459.82 344.442V341.648C1459.82 319.463 1451.01 298.187 1435.32 282.5L1413.32 263L1381.82 235L1349.32 211.5L1310.32 180.5C1283.05 163.536 1254.26 149.134 1224.33 137.477L1221.82 136.5C1192.58 126.198 1162.11 119.142 1131.32 115.5H1110.99C1096.61 115.5 1082.28 117.327 1068.35 120.938C1055.38 124.301 1042.85 129.186 1031.03 135.492L1018.82 142L1008.17 147.894C999.631 152.617 991.631 158.254 984.309 164.704C977.668 170.554 971.62 177.043 966.252 184.078L945.324 211.5L932.416 232.604C920.049 252.822 909.635 274.171 901.313 296.362L893.621 316.876C890.098 326.269 887.512 335.987 885.9 345.889C882.876 364.469 876.434 382.327 866.901 398.559L862.824 405.5C855.838 420.802 847.488 435.444 837.875 449.248L832.824 456.5L809.824 483.5L775.824 519.5L743.018 560.891C729.252 578.26 717.125 596.867 706.793 616.473L698.202 632.777C685.045 657.746 676.203 684.76 672.05 712.676L670.125 725.615C669.592 729.2 669.324 732.82 669.324 736.444Z" fill="#212121"/>
</g>
</g>
<defs>
<filter id="filter0_f_2_2348" x="-44.7777" y="-78.7741" width="713.2" height="569.204" filterUnits="userSpaceOnUse" color-interpolation-filters="sRGB">
<feFlood flood-opacity="0" result="BackgroundImageFix"/>
<feBlend mode="normal" in="SourceGraphic" in2="BackgroundImageFix" result="shape"/>
<feGaussianBlur stdDeviation="5.05" result="effect1_foregroundBlur_2_2348"/>
</filter>
<filter id="filter1_f_2_2348" x="659.224" y="105.4" width="810.7" height="688.357" filterUnits="userSpaceOnUse" color-interpolation-filters="sRGB">
<feFlood flood-opacity="0" result="BackgroundImageFix"/>
<feBlend mode="normal" in="SourceGraphic" in2="BackgroundImageFix" result="shape"/>
<feGaussianBlur stdDeviation="5.05" result="effect1_foregroundBlur_2_2348"/>
</filter>
</defs>
</svg>
