<svg width="51" height="48" viewBox="0 0 51 48" fill="none" xmlns="http://www.w3.org/2000/svg">
<path fill-rule="evenodd" clip-rule="evenodd" d="M7 0C3.13401 0 0 3.13401 0 7V12H51V7C51 3.13401 47.866 0 44 0H7ZM51 15H0V41C0 44.866 3.13401 48 7 48H44C47.866 48 51 44.866 51 41V15ZM8 9C9.10457 9 10 8.10457 10 7C10 5.89543 9.10457 5 8 5C6.89543 5 6 5.89543 6 7C6 8.10457 6.89543 9 8 9ZM14 9C15.1046 9 16 8.10457 16 7C16 5.89543 15.1046 5 14 5C12.8954 5 12 5.89543 12 7C12 8.10457 12.8954 9 14 9ZM22 7C22 8.10457 21.1046 9 20 9C18.8954 9 18 8.10457 18 7C18 5.89543 18.8954 5 20 5C21.1046 5 22 5.89543 22 7ZM35 5.5C34.1716 5.5 33.5 6.17157 33.5 7C33.5 7.82843 34.1716 8.5 35 8.5H44C44.8284 8.5 45.5 7.82843 45.5 7C45.5 6.17157 44.8284 5.5 44 5.5H35ZM18 33.8824V39.6471C18 40.314 18.211 40.8456 18.4613 41.1694C18.7096 41.4908 18.9168 41.5294 19 41.5294H22V33.8824H18ZM28 29.2941H34.5C35.3284 29.2941 36 28.425 36 27.3529C36 26.2809 35.3284 25.4118 34.5 25.4118H32V19.3289C32 17.4904 30.5096 16 28.6711 16C27.2434 16 25.9747 16.9103 25.5175 18.2628L25.25 19.054L24.9825 18.2628C24.5253 16.9103 23.2566 16 21.8289 16C19.9904 16 18.5 17.4904 18.5 19.3289V25.4118H15.5C14.6716 25.4118 14 26.2809 14 27.3529C14 28.425 14.6716 29.2941 15.5 29.2941H22H24V27.4118V27.2941V25.4118H22H20.5V19.3289C20.5 18.595 21.095 18 21.8289 18C22.3989 18 22.9053 18.3634 23.0879 18.9033L24.3027 22.4967C24.44 22.903 24.8211 23.1765 25.25 23.1765C25.6789 23.1765 26.06 22.903 26.1973 22.4967L27.4121 18.9033C27.5947 18.3634 28.1011 18 28.6711 18C29.405 18 30 18.595 30 19.3289V25.4118H28H26V27.2941V27.4118V29.2941H28ZM32 39.6471V33.8824H28V41.5294H31C31.0832 41.5294 31.2904 41.4908 31.5387 41.1694C31.789 40.8456 32 40.314 32 39.6471ZM28 43.5294H31C32.6569 43.5294 34 41.7912 34 39.6471V33.1765C34 32.4618 33.5523 31.8824 33 31.8824H28H26V33.8824V41.5294V43.5294H28ZM17 31.8824C16.4477 31.8824 16 32.4618 16 33.1765V39.6471C16 41.7912 17.3431 43.5294 19 43.5294H22H24V41.5294V33.8824V31.8824H22H17Z" fill="white"/>
</svg>
