<svg width="30" height="26" viewBox="0 0 30 26" fill="none" xmlns="http://www.w3.org/2000/svg">
<path d="M1.75 13.5V24.25C1.75 24.3881 1.86193 24.5 2 24.5H15H28C28.1381 24.5 28.25 24.3881 28.25 24.25V13.5" stroke="white" stroke-width="3" stroke-linecap="round"/>
<path d="M6.63626 8.41937L14.8212 17.3058C14.9183 17.4113 15.0841 17.4136 15.1842 17.3109L23.8368 8.4244C23.991 8.26598 23.8788 8 23.6576 8H17.75V0.25C17.75 0.111929 17.6381 0 17.5 0H12.5C12.3619 0 12.25 0.111929 12.25 0.25V8H6.82015C6.60234 8 6.4887 8.25916 6.63626 8.41937Z" fill="white"/>
</svg>
