<svg width="159" height="42" viewBox="0 0 159 42" fill="none" xmlns="http://www.w3.org/2000/svg">
<rect width="158.924" height="42" rx="6" fill="white"/>
<path d="M22.2387 20.4646L12.0908 30.9838C12.2048 31.3834 12.4096 31.7519 12.6895 32.0611C12.9695 32.3704 13.3172 32.6122 13.7061 32.7682C14.095 32.9241 14.5148 32.99 14.9334 32.9608C15.352 32.9316 15.7583 32.8081 16.1213 32.5997L27.5395 26.1656L22.2387 20.4646Z" fill="#EA4335"/>
<path d="M32.4995 18.6766L27.5618 15.8784L22.0039 20.704L27.5844 26.1506L32.4845 23.3824C32.9186 23.1575 33.2821 22.8193 33.5358 22.4046C33.7895 21.9898 33.9236 21.5143 33.9236 21.0295C33.9236 20.5447 33.7895 20.0691 33.5358 19.6544C33.2821 19.2396 32.9186 18.9014 32.4845 18.6766L32.4995 18.6766Z" fill="#FBBC04"/>
<path d="M12.0908 11.0229C12.0295 11.2473 11.9989 11.4788 12 11.7112V30.2955C12.0007 30.5278 12.0312 30.7591 12.0908 30.9838L22.5865 20.734L12.0908 11.0229Z" fill="#4285F4"/>
<path d="M22.3143 21.0033L27.5622 15.8784L16.1591 9.41427C15.7301 9.16567 15.2421 9.03402 14.7449 9.03272C13.5111 9.03035 12.4264 9.84056 12.0908 11.0154L22.3143 21.0033Z" fill="#34A853"/>
<path d="M45.5133 12.0497C45.4541 11.858 45.3725 11.6863 45.2683 11.5348C45.1665 11.3809 45.0434 11.2495 44.899 11.1406C44.7569 11.0317 44.5936 10.95 44.4089 10.8956C44.2243 10.8388 44.023 10.8104 43.8052 10.8104C43.4146 10.8104 43.0666 10.9086 42.7612 11.1051C42.4558 11.3016 42.2155 11.5904 42.0403 11.9716C41.8675 12.3504 41.7811 12.812 41.7811 13.3565C41.7811 13.9058 41.8675 14.371 42.0403 14.7521C42.2131 15.1333 42.4534 15.4233 42.7612 15.6222C43.069 15.8187 43.4264 15.9169 43.8336 15.9169C44.2029 15.9169 44.5225 15.8459 44.7924 15.7038C45.0647 15.5618 45.2742 15.3606 45.421 15.1001C45.5678 14.8374 45.6412 14.5296 45.6412 14.1768L45.9395 14.223H43.965V13.1932H46.916V14.0668C46.916 14.6894 46.7834 15.228 46.5183 15.6825C46.2531 16.1371 45.8886 16.4875 45.4245 16.7337C44.9605 16.9775 44.4279 17.0994 43.8265 17.0994C43.1565 17.0994 42.5682 16.9491 42.0616 16.6484C41.5574 16.3454 41.1632 15.9157 40.8791 15.3594C40.5974 14.8007 40.4565 14.1378 40.4565 13.3707C40.4565 12.7836 40.5394 12.2592 40.7051 11.7976C40.8732 11.3359 41.1075 10.9441 41.4082 10.6222C41.7089 10.2978 42.0616 10.0516 42.4664 9.88352C42.8713 9.71307 43.3116 9.62784 43.7875 9.62784C44.1899 9.62784 44.5652 9.68703 44.9132 9.8054C45.2612 9.9214 45.5701 10.0871 45.84 10.3026C46.1123 10.518 46.336 10.7737 46.5112 11.0696C46.6864 11.3655 46.8012 11.6922 46.8556 12.0497H45.5133ZM48.39 17V9.72727H53.1201V10.8317H49.7075V12.8061H52.8751V13.9105H49.7075V15.8956H53.1485V17H48.39ZM54.3446 10.8317V9.72727H60.1472V10.8317H57.8993V17H56.5925V10.8317H54.3446ZM65.4637 9.72727V17H64.1462V9.72727H65.4637ZM66.7708 10.8317V9.72727H72.5733V10.8317H70.3255V17H69.0186V10.8317H66.7708ZM83.071 13.3636C83.071 14.1473 82.9242 14.8184 82.6306 15.3771C82.3395 15.9335 81.9417 16.3596 81.4375 16.6555C80.9356 16.9515 80.3662 17.0994 79.7294 17.0994C79.0925 17.0994 78.522 16.9515 78.0177 16.6555C77.5158 16.3572 77.1181 15.9299 76.8245 15.3736C76.5333 14.8149 76.3878 14.1449 76.3878 13.3636C76.3878 12.58 76.5333 11.91 76.8245 11.3537C77.1181 10.795 77.5158 10.3677 78.0177 10.0717C78.522 9.7758 79.0925 9.62784 79.7294 9.62784C80.3662 9.62784 80.9356 9.7758 81.4375 10.0717C81.9417 10.3677 82.3395 10.795 82.6306 11.3537C82.9242 11.91 83.071 12.58 83.071 13.3636ZM81.7464 13.3636C81.7464 12.812 81.66 12.3468 81.4872 11.968C81.3167 11.5869 81.08 11.2992 80.777 11.1051C80.4739 10.9086 80.1247 10.8104 79.7294 10.8104C79.334 10.8104 78.9848 10.9086 78.6818 11.1051C78.3788 11.2992 78.1408 11.5869 77.968 11.968C77.7976 12.3468 77.7123 12.812 77.7123 13.3636C77.7123 13.9152 77.7976 14.3816 77.968 14.7628C78.1408 15.1416 78.3788 15.4292 78.6818 15.6257C78.9848 15.8198 79.334 15.9169 79.7294 15.9169C80.1247 15.9169 80.4739 15.8198 80.777 15.6257C81.08 15.4292 81.3167 15.1416 81.4872 14.7628C81.66 14.3816 81.7464 13.9152 81.7464 13.3636ZM90.4931 9.72727V17H89.3212L85.8944 12.0462H85.834V17H84.5165V9.72727H85.6955L89.1188 14.6847H89.1827V9.72727H90.4931Z" fill="#1C1C1C"/>
<path d="M50.7935 25.5472C50.6631 25.1379 50.4876 24.7713 50.2672 24.4474C50.0513 24.1191 49.7927 23.8402 49.4913 23.6108C49.1899 23.3769 48.8458 23.1992 48.459 23.0778C48.0766 22.9563 47.6561 22.8956 47.1973 22.8956C46.4191 22.8956 45.7174 23.0958 45.0922 23.4961C44.4669 23.8964 43.9721 24.4834 43.6078 25.2571C43.2479 26.0263 43.068 26.9686 43.068 28.0842C43.068 29.2042 43.2502 30.151 43.6145 30.9247C43.9789 31.6984 44.4782 32.2854 45.1124 32.6857C45.7466 33.0861 46.4686 33.2862 47.2782 33.2862C48.0294 33.2862 48.6839 33.1333 49.2417 32.8274C49.8039 32.5215 50.238 32.0897 50.5439 31.532C50.8542 30.9697 51.0094 30.3085 51.0094 29.5483L51.5492 29.6495H47.5953V27.929H53.0268V29.5011C53.0268 30.6616 52.7794 31.6692 52.2846 32.5238C51.7943 33.3739 51.1151 34.0307 50.247 34.494C49.3833 34.9573 48.3938 35.1889 47.2782 35.1889C46.0278 35.1889 44.9302 34.901 43.9856 34.3253C43.0455 33.7495 42.3123 32.9331 41.786 31.8761C41.2598 30.8145 40.9966 29.555 40.9966 28.0977C40.9966 26.9956 41.1496 26.006 41.4554 25.1289C41.7613 24.2518 42.1909 23.5073 42.7441 22.8956C43.3019 22.2794 43.9564 21.8093 44.7076 21.4854C45.4632 21.1571 46.2886 20.9929 47.1838 20.9929C47.9305 20.9929 48.6254 21.1031 49.2686 21.3235C49.9164 21.5439 50.4921 21.8565 50.9959 22.2614C51.5042 22.6662 51.9248 23.1475 52.2576 23.7053C52.5905 24.2585 52.8154 24.8725 52.9324 25.5472H50.7935ZM60.2569 35.2092C59.2853 35.2092 58.4374 34.9865 57.7132 34.5412C56.989 34.0959 56.4267 33.4729 56.0264 32.6722C55.6261 31.8716 55.4259 30.936 55.4259 29.8654C55.4259 28.7904 55.6261 27.8503 56.0264 27.0451C56.4267 26.2399 56.989 25.6147 57.7132 25.1694C58.4374 24.7241 59.2853 24.5014 60.2569 24.5014C61.2285 24.5014 62.0763 24.7241 62.8005 25.1694C63.5247 25.6147 64.087 26.2399 64.4873 27.0451C64.8877 27.8503 65.0878 28.7904 65.0878 29.8654C65.0878 30.936 64.8877 31.8716 64.4873 32.6722C64.087 33.4729 63.5247 34.0959 62.8005 34.5412C62.0763 34.9865 61.2285 35.2092 60.2569 35.2092ZM60.2636 33.5156C60.8933 33.5156 61.4151 33.3492 61.829 33.0163C62.2428 32.6835 62.5486 32.2404 62.7466 31.6871C62.949 31.1339 63.0502 30.5244 63.0502 29.8587C63.0502 29.1974 62.949 28.5902 62.7466 28.0369C62.5486 27.4792 62.2428 27.0316 61.829 26.6942C61.4151 26.3569 60.8933 26.1882 60.2636 26.1882C59.6294 26.1882 59.1031 26.3569 58.6848 26.6942C58.271 27.0316 57.9628 27.4792 57.7604 28.0369C57.5625 28.5902 57.4635 29.1974 57.4635 29.8587C57.4635 30.5244 57.5625 31.1339 57.7604 31.6871C57.9628 32.2404 58.271 32.6835 58.6848 33.0163C59.1031 33.3492 59.6294 33.5156 60.2636 33.5156ZM72.0851 35.2092C71.1135 35.2092 70.2656 34.9865 69.5414 34.5412C68.8172 34.0959 68.255 33.4729 67.8546 32.6722C67.4543 31.8716 67.2541 30.936 67.2541 29.8654C67.2541 28.7904 67.4543 27.8503 67.8546 27.0451C68.255 26.2399 68.8172 25.6147 69.5414 25.1694C70.2656 24.7241 71.1135 24.5014 72.0851 24.5014C73.0567 24.5014 73.9046 24.7241 74.6288 25.1694C75.353 25.6147 75.9152 26.2399 76.3156 27.0451C76.7159 27.8503 76.9161 28.7904 76.9161 29.8654C76.9161 30.936 76.7159 31.8716 76.3156 32.6722C75.9152 33.4729 75.353 34.0959 74.6288 34.5412C73.9046 34.9865 73.0567 35.2092 72.0851 35.2092ZM72.0919 33.5156C72.7216 33.5156 73.2434 33.3492 73.6572 33.0163C74.071 32.6835 74.3769 32.2404 74.5748 31.6871C74.7772 31.1339 74.8784 30.5244 74.8784 29.8587C74.8784 29.1974 74.7772 28.5902 74.5748 28.0369C74.3769 27.4792 74.071 27.0316 73.6572 26.6942C73.2434 26.3569 72.7216 26.1882 72.0919 26.1882C71.4576 26.1882 70.9313 26.3569 70.513 26.6942C70.0992 27.0316 69.7911 27.4792 69.5887 28.0369C69.3907 28.5902 69.2918 29.1974 69.2918 29.8587C69.2918 30.5244 69.3907 31.1339 69.5887 31.6871C69.7911 32.2404 70.0992 32.6835 70.513 33.0163C70.9313 33.3492 71.4576 33.5156 72.0919 33.5156ZM83.8931 39.1023C83.07 39.1023 82.3615 38.9943 81.7678 38.7784C81.1785 38.5625 80.6972 38.2769 80.3239 37.9215C79.9505 37.5662 79.6716 37.1771 79.4872 36.7543L81.2212 36.0391C81.3427 36.237 81.5046 36.4461 81.707 36.6665C81.9139 36.8915 82.1928 37.0826 82.5437 37.2401C82.899 37.3975 83.3556 37.4762 83.9133 37.4762C84.678 37.4762 85.31 37.2895 85.8093 36.9162C86.3086 36.5473 86.5582 35.9581 86.5582 35.1484V33.1108H86.43C86.3086 33.3312 86.1332 33.5763 85.9038 33.8462C85.6789 34.1161 85.3685 34.35 84.9727 34.5479C84.5768 34.7459 84.0618 34.8448 83.4276 34.8448C82.6089 34.8448 81.8712 34.6536 81.2145 34.2713C80.5623 33.8845 80.045 33.3155 79.6626 32.5643C79.2848 31.8086 79.0959 30.8797 79.0959 29.7777C79.0959 28.6757 79.2825 27.7311 79.6559 26.9439C80.0337 26.1567 80.551 25.554 81.2077 25.1357C81.8645 24.7128 82.6089 24.5014 83.441 24.5014C84.0843 24.5014 84.6038 24.6094 84.9996 24.8253C85.3955 25.0367 85.7036 25.2841 85.924 25.5675C86.1489 25.8509 86.3221 26.1005 86.4435 26.3164H86.592V24.6364H88.5689V35.2294C88.5689 36.12 88.362 36.851 87.9481 37.4222C87.5343 37.9935 86.9743 38.4163 86.2681 38.6907C85.5664 38.9651 84.7747 39.1023 83.8931 39.1023ZM83.8729 33.1715C84.4531 33.1715 84.9434 33.0366 85.3437 32.7667C85.7486 32.4923 86.0544 32.101 86.2614 31.5927C86.4728 31.0799 86.5785 30.4659 86.5785 29.7507C86.5785 29.0535 86.475 28.4395 86.2681 27.9087C86.0612 27.378 85.7576 26.9641 85.3572 26.6673C84.9569 26.3659 84.4621 26.2152 83.8729 26.2152C83.2656 26.2152 82.7596 26.3726 82.3548 26.6875C81.9499 26.9979 81.6441 27.4207 81.4371 27.956C81.2347 28.4912 81.1335 29.0895 81.1335 29.7507C81.1335 30.4299 81.237 31.0259 81.4439 31.5387C81.6508 32.0515 81.9567 32.4518 82.3615 32.7397C82.7708 33.0276 83.2746 33.1715 83.8729 33.1715ZM93.6719 21.1818V35H91.6545V21.1818H93.6719ZM101.233 35.2092C100.211 35.2092 99.3321 34.991 98.5944 34.5547C97.8612 34.1139 97.2945 33.4954 96.8941 32.6992C96.4983 31.8986 96.3004 30.9607 96.3004 29.8857C96.3004 28.8241 96.4983 27.8885 96.8941 27.0788C97.2945 26.2692 97.8522 25.6372 98.5674 25.1829C99.2871 24.7286 100.128 24.5014 101.091 24.5014C101.676 24.5014 102.242 24.5981 102.791 24.7915C103.34 24.985 103.832 25.2886 104.269 25.7024C104.705 26.1162 105.049 26.6538 105.301 27.315C105.553 27.9717 105.679 28.7701 105.679 29.7102V30.4254H97.4407V28.9141H103.702C103.702 28.3833 103.594 27.9132 103.378 27.5039C103.162 27.0901 102.859 26.764 102.467 26.5256C102.08 26.2872 101.626 26.168 101.104 26.168C100.538 26.168 100.043 26.3074 99.62 26.5863C99.2017 26.8607 98.8778 27.2205 98.6484 27.6658C98.4235 28.1067 98.311 28.5857 98.311 29.103V30.2837C98.311 30.9764 98.4325 31.5657 98.6754 32.0515C98.9228 32.5373 99.2669 32.9084 99.7077 33.1648C100.149 33.4167 100.664 33.5426 101.253 33.5426C101.635 33.5426 101.984 33.4886 102.299 33.3807C102.613 33.2682 102.886 33.1018 103.115 32.8814C103.344 32.661 103.52 32.3888 103.641 32.065L105.551 32.4091C105.398 32.9714 105.123 33.4639 104.728 33.8867C104.336 34.305 103.844 34.6312 103.25 34.8651C102.661 35.0945 101.988 35.2092 101.233 35.2092ZM108.459 35V21.1818H113.385C114.46 21.1818 115.35 21.3775 116.057 21.7688C116.763 22.1602 117.291 22.6954 117.642 23.3746C117.993 24.0494 118.168 24.8095 118.168 25.6552C118.168 26.5053 117.991 27.27 117.635 27.9492C117.285 28.6239 116.754 29.1592 116.043 29.555C115.337 29.9464 114.448 30.142 113.378 30.142H109.991V28.3743H113.189C113.868 28.3743 114.419 28.2573 114.842 28.0234C115.265 27.785 115.575 27.4612 115.773 27.0518C115.971 26.6425 116.07 26.177 116.07 25.6552C116.07 25.1334 115.971 24.6701 115.773 24.2653C115.575 23.8604 115.263 23.5433 114.835 23.3139C114.412 23.0845 113.855 22.9698 113.162 22.9698H110.544V35H108.459ZM122.848 21.1818V35H120.831V21.1818H122.848ZM128.958 35.2294C128.301 35.2294 127.708 35.108 127.177 34.8651C126.646 34.6177 126.225 34.2601 125.915 33.7923C125.609 33.3245 125.456 32.7509 125.456 32.0717C125.456 31.487 125.569 31.0057 125.794 30.6278C126.019 30.25 126.322 29.9509 126.705 29.7305C127.087 29.5101 127.514 29.3436 127.986 29.2312C128.459 29.1187 128.94 29.0333 129.43 28.9748C130.051 28.9028 130.555 28.8443 130.942 28.7994C131.329 28.7499 131.61 28.6712 131.785 28.5632C131.961 28.4553 132.048 28.2798 132.048 28.0369V27.9897C132.048 27.4004 131.882 26.9439 131.549 26.62C131.221 26.2962 130.73 26.1342 130.078 26.1342C129.399 26.1342 128.864 26.2849 128.472 26.5863C128.085 26.8832 127.818 27.2138 127.669 27.5781L125.773 27.1463C125.998 26.5166 126.327 26.0083 126.758 25.6214C127.195 25.2301 127.696 24.9467 128.263 24.7713C128.83 24.5914 129.426 24.5014 130.051 24.5014C130.465 24.5014 130.903 24.5509 131.367 24.6499C131.835 24.7443 132.271 24.9197 132.676 25.1761C133.085 25.4325 133.42 25.7991 133.681 26.2759C133.942 26.7482 134.072 27.3622 134.072 28.1179V35H132.102V33.5831H132.021C131.891 33.844 131.695 34.1004 131.434 34.3523C131.173 34.6042 130.838 34.8133 130.429 34.9798C130.02 35.1462 129.529 35.2294 128.958 35.2294ZM129.397 33.6101C129.954 33.6101 130.431 33.4999 130.827 33.2795C131.227 33.0591 131.531 32.7712 131.738 32.4158C131.949 32.056 132.055 31.6714 132.055 31.2621V29.9261C131.983 29.9981 131.844 30.0656 131.637 30.1286C131.434 30.187 131.203 30.2388 130.942 30.2837C130.681 30.3242 130.427 30.3625 130.179 30.3984C129.932 30.4299 129.725 30.4569 129.559 30.4794C129.167 30.5289 128.81 30.6121 128.486 30.729C128.166 30.846 127.91 31.0147 127.717 31.2351C127.528 31.451 127.433 31.7389 127.433 32.0987C127.433 32.598 127.618 32.9759 127.986 33.2322C128.355 33.4841 128.825 33.6101 129.397 33.6101ZM138.044 38.8864C137.742 38.8864 137.468 38.8616 137.22 38.8121C136.973 38.7672 136.789 38.7177 136.667 38.6637L137.153 37.0107C137.522 37.1096 137.85 37.1523 138.138 37.1388C138.426 37.1254 138.68 37.0174 138.9 36.815C139.125 36.6126 139.323 36.282 139.494 35.8232L139.744 35.1349L135.952 24.6364H138.111L140.736 32.679H140.844L143.468 24.6364H145.634L141.363 36.3832C141.165 36.9229 140.913 37.3795 140.607 37.7528C140.302 38.1307 139.937 38.4141 139.514 38.603C139.092 38.7919 138.601 38.8864 138.044 38.8864Z" fill="#1C1C1C"/>
</svg>
