<svg width="159" height="42" viewBox="0 0 159 42" fill="none" xmlns="http://www.w3.org/2000/svg">
<rect width="158.924" height="42" rx="6" fill="#0F0F0F"/>
<path d="M22.2387 20.4644L12.0908 30.9835C12.2048 31.3831 12.4096 31.7516 12.6895 32.0609C12.9695 32.3701 13.3172 32.612 13.7061 32.7679C14.095 32.9238 14.5148 32.9897 14.9334 32.9605C15.352 32.9313 15.7583 32.8078 16.1213 32.5995L27.5395 26.1654L22.2387 20.4644Z" fill="#EA4335"/>
<path d="M32.4999 18.6766L27.5623 15.8784L22.0043 20.704L27.5849 26.1506L32.4849 23.3824C32.919 23.1575 33.2826 22.8193 33.5363 22.4046C33.79 21.9898 33.9241 21.5143 33.9241 21.0295C33.9241 20.5447 33.79 20.0691 33.5363 19.6544C33.2826 19.2396 32.919 18.9014 32.4849 18.6766L32.4999 18.6766Z" fill="#FBBC04"/>
<path d="M12.0908 11.0229C12.0295 11.2473 11.9989 11.4788 12 11.7112V30.2955C12.0007 30.5278 12.0312 30.7591 12.0908 30.9838L22.5865 20.734L12.0908 11.0229Z" fill="#4285F4"/>
<path d="M22.3143 21.0033L27.5622 15.8784L16.1591 9.41427C15.7301 9.16567 15.2421 9.03402 14.7449 9.03272C13.5111 9.03035 12.4264 9.84056 12.0908 11.0154L22.3143 21.0033Z" fill="#34A853"/>
<path d="M45.5136 12.0497C45.4544 11.858 45.3727 11.6863 45.2685 11.5348C45.1667 11.3809 45.0436 11.2495 44.8992 11.1406C44.7572 11.0317 44.5938 10.95 44.4092 10.8956C44.2245 10.8388 44.0233 10.8104 43.8055 10.8104C43.4148 10.8104 43.0668 10.9086 42.7614 11.1051C42.456 11.3016 42.2157 11.5904 42.0405 11.9716C41.8677 12.3504 41.7813 12.812 41.7813 13.3565C41.7813 13.9058 41.8677 14.371 42.0405 14.7521C42.2134 15.1333 42.4537 15.4233 42.7614 15.6222C43.0692 15.8187 43.4267 15.9169 43.8339 15.9169C44.2032 15.9169 44.5228 15.8459 44.7927 15.7038C45.0649 15.5618 45.2745 15.3606 45.4212 15.1001C45.568 14.8374 45.6414 14.5296 45.6414 14.1768L45.9397 14.223H43.9653V13.1932H46.9163V14.0668C46.9163 14.6894 46.7837 15.228 46.5185 15.6825C46.2534 16.1371 45.8888 16.4875 45.4248 16.7337C44.9608 16.9775 44.4281 17.0994 43.8268 17.0994C43.1568 17.0994 42.5685 16.9491 42.0619 16.6484C41.5576 16.3454 41.1634 15.9157 40.8793 15.3594C40.5976 14.8007 40.4567 14.1378 40.4567 13.3707C40.4567 12.7836 40.5396 12.2592 40.7053 11.7976C40.8734 11.3359 41.1078 10.9441 41.4084 10.6222C41.7091 10.2978 42.0619 10.0516 42.4667 9.88352C42.8715 9.71307 43.3119 9.62784 43.7877 9.62784C44.1902 9.62784 44.5654 9.68703 44.9134 9.8054C45.2614 9.9214 45.5704 10.0871 45.8403 10.3026C46.1125 10.518 46.3362 10.7737 46.5114 11.0696C46.6866 11.3655 46.8014 11.6922 46.8559 12.0497H45.5136ZM48.3902 17V9.72727H53.1203V10.8317H49.7077V12.8061H52.8753V13.9105H49.7077V15.8956H53.1488V17H48.3902ZM54.3448 10.8317V9.72727H60.1474V10.8317H57.8995V17H56.5927V10.8317H54.3448ZM65.464 9.72727V17H64.1465V9.72727H65.464ZM66.771 10.8317V9.72727H72.5736V10.8317H70.3257V17H69.0189V10.8317H66.771ZM83.0712 13.3636C83.0712 14.1473 82.9245 14.8184 82.6309 15.3771C82.3397 15.9335 81.942 16.3596 81.4377 16.6555C80.9358 16.9515 80.3665 17.0994 79.7296 17.0994C79.0928 17.0994 78.5222 16.9515 78.018 16.6555C77.5161 16.3572 77.1183 15.9299 76.8248 15.3736C76.5336 14.8149 76.388 14.1449 76.388 13.3636C76.388 12.58 76.5336 11.91 76.8248 11.3537C77.1183 10.795 77.5161 10.3677 78.018 10.0717C78.5222 9.7758 79.0928 9.62784 79.7296 9.62784C80.3665 9.62784 80.9358 9.7758 81.4377 10.0717C81.942 10.3677 82.3397 10.795 82.6309 11.3537C82.9245 11.91 83.0712 12.58 83.0712 13.3636ZM81.7467 13.3636C81.7467 12.812 81.6602 12.3468 81.4874 11.968C81.317 11.5869 81.0802 11.2992 80.7772 11.1051C80.4742 10.9086 80.125 10.8104 79.7296 10.8104C79.3343 10.8104 78.9851 10.9086 78.682 11.1051C78.379 11.2992 78.1411 11.5869 77.9683 11.968C77.7978 12.3468 77.7126 12.812 77.7126 13.3636C77.7126 13.9152 77.7978 14.3816 77.9683 14.7628C78.1411 15.1416 78.379 15.4292 78.682 15.6257C78.9851 15.8198 79.3343 15.9169 79.7296 15.9169C80.125 15.9169 80.4742 15.8198 80.7772 15.6257C81.0802 15.4292 81.317 15.1416 81.4874 14.7628C81.6602 14.3816 81.7467 13.9152 81.7467 13.3636ZM90.4934 9.72727V17H89.3215L85.8946 12.0462H85.8343V17H84.5168V9.72727H85.6958L89.1191 14.6847H89.183V9.72727H90.4934Z" fill="white"/>
<path d="M50.7937 25.5472C50.6633 25.1379 50.4879 24.7713 50.2675 24.4474C50.0516 24.1191 49.7929 23.8402 49.4915 23.6108C49.1902 23.3769 48.8461 23.1992 48.4592 23.0778C48.0769 22.9563 47.6563 22.8956 47.1975 22.8956C46.4193 22.8956 45.7176 23.0958 45.0924 23.4961C44.4672 23.8964 43.9724 24.4834 43.608 25.2571C43.2482 26.0263 43.0682 26.9686 43.0682 28.0842C43.0682 29.2042 43.2504 30.151 43.6148 30.9247C43.9791 31.6984 44.4784 32.2854 45.1126 32.6857C45.7469 33.0861 46.4688 33.2862 47.2785 33.2862C48.0297 33.2862 48.6841 33.1333 49.2419 32.8274C49.8042 32.5215 50.2382 32.0897 50.5441 31.532C50.8545 30.9697 51.0097 30.3085 51.0097 29.5483L51.5494 29.6495H47.5956V27.929H53.0271V29.5011C53.0271 30.6616 52.7797 31.6692 52.2849 32.5238C51.7946 33.3739 51.1154 34.0307 50.2472 34.494C49.3836 34.9573 48.394 35.1889 47.2785 35.1889C46.028 35.1889 44.9305 34.901 43.9859 34.3253C43.0458 33.7495 42.3126 32.9331 41.7863 31.8761C41.26 30.8145 40.9969 29.555 40.9969 28.0977C40.9969 26.9956 41.1498 26.006 41.4557 25.1289C41.7615 24.2518 42.1911 23.5073 42.7444 22.8956C43.3021 22.2794 43.9566 21.8093 44.7078 21.4854C45.4635 21.1571 46.2889 20.9929 47.184 20.9929C47.9307 20.9929 48.6257 21.1031 49.2689 21.3235C49.9166 21.5439 50.4924 21.8565 50.9962 22.2614C51.5044 22.6662 51.925 23.1475 52.2579 23.7053C52.5907 24.2585 52.8156 24.8725 52.9326 25.5472H50.7937ZM60.2571 35.2092C59.2855 35.2092 58.4376 34.9865 57.7134 34.5412C56.9892 34.0959 56.427 33.4729 56.0266 32.6722C55.6263 31.8716 55.4261 30.936 55.4261 29.8654C55.4261 28.7904 55.6263 27.8503 56.0266 27.0451C56.427 26.2399 56.9892 25.6147 57.7134 25.1694C58.4376 24.7241 59.2855 24.5014 60.2571 24.5014C61.2287 24.5014 62.0766 24.7241 62.8008 25.1694C63.525 25.6147 64.0872 26.2399 64.4876 27.0451C64.8879 27.8503 65.0881 28.7904 65.0881 29.8654C65.0881 30.936 64.8879 31.8716 64.4876 32.6722C64.0872 33.4729 63.525 34.0959 62.8008 34.5412C62.0766 34.9865 61.2287 35.2092 60.2571 35.2092ZM60.2639 33.5156C60.8936 33.5156 61.4154 33.3492 61.8292 33.0163C62.243 32.6835 62.5489 32.2404 62.7468 31.6871C62.9492 31.1339 63.0504 30.5244 63.0504 29.8587C63.0504 29.1974 62.9492 28.5902 62.7468 28.0369C62.5489 27.4792 62.243 27.0316 61.8292 26.6942C61.4154 26.3569 60.8936 26.1882 60.2639 26.1882C59.6296 26.1882 59.1033 26.3569 58.685 26.6942C58.2712 27.0316 57.9631 27.4792 57.7607 28.0369C57.5627 28.5902 57.4638 29.1974 57.4638 29.8587C57.4638 30.5244 57.5627 31.1339 57.7607 31.6871C57.9631 32.2404 58.2712 32.6835 58.685 33.0163C59.1033 33.3492 59.6296 33.5156 60.2639 33.5156ZM72.0854 35.2092C71.1138 35.2092 70.2659 34.9865 69.5417 34.5412C68.8175 34.0959 68.2552 33.4729 67.8549 32.6722C67.4546 31.8716 67.2544 30.936 67.2544 29.8654C67.2544 28.7904 67.4546 27.8503 67.8549 27.0451C68.2552 26.2399 68.8175 25.6147 69.5417 25.1694C70.2659 24.7241 71.1138 24.5014 72.0854 24.5014C73.0569 24.5014 73.9048 24.7241 74.629 25.1694C75.3532 25.6147 75.9155 26.2399 76.3158 27.0451C76.7162 27.8503 76.9163 28.7904 76.9163 29.8654C76.9163 30.936 76.7162 31.8716 76.3158 32.6722C75.9155 33.4729 75.3532 34.0959 74.629 34.5412C73.9048 34.9865 73.0569 35.2092 72.0854 35.2092ZM72.0921 33.5156C72.7218 33.5156 73.2436 33.3492 73.6574 33.0163C74.0713 32.6835 74.3771 32.2404 74.5751 31.6871C74.7775 31.1339 74.8787 30.5244 74.8787 29.8587C74.8787 29.1974 74.7775 28.5902 74.5751 28.0369C74.3771 27.4792 74.0713 27.0316 73.6574 26.6942C73.2436 26.3569 72.7218 26.1882 72.0921 26.1882C71.4579 26.1882 70.9316 26.3569 70.5133 26.6942C70.0994 27.0316 69.7913 27.4792 69.5889 28.0369C69.391 28.5902 69.292 29.1974 69.292 29.8587C69.292 30.5244 69.391 31.1339 69.5889 31.6871C69.7913 32.2404 70.0994 32.6835 70.5133 33.0163C70.9316 33.3492 71.4579 33.5156 72.0921 33.5156ZM83.8934 39.1023C83.0702 39.1023 82.3617 38.9943 81.768 38.7784C81.1787 38.5625 80.6974 38.2769 80.3241 37.9215C79.9508 37.5662 79.6719 37.1771 79.4875 36.7543L81.2215 36.0391C81.3429 36.237 81.5049 36.4461 81.7073 36.6665C81.9142 36.8915 82.1931 37.0826 82.5439 37.2401C82.8993 37.3975 83.3558 37.4762 83.9136 37.4762C84.6783 37.4762 85.3103 37.2895 85.8095 36.9162C86.3088 36.5473 86.5585 35.9581 86.5585 35.1484V33.1108H86.4303C86.3088 33.3312 86.1334 33.5763 85.904 33.8462C85.6791 34.1161 85.3687 34.35 84.9729 34.5479C84.5771 34.7459 84.062 34.8448 83.4278 34.8448C82.6091 34.8448 81.8715 34.6536 81.2147 34.2713C80.5625 33.8845 80.0452 33.3155 79.6629 32.5643C79.285 31.8086 79.0961 30.8797 79.0961 29.7777C79.0961 28.6757 79.2828 27.7311 79.6561 26.9439C80.034 26.1567 80.5513 25.554 81.208 25.1357C81.8647 24.7128 82.6091 24.5014 83.4413 24.5014C84.0845 24.5014 84.6041 24.6094 84.9999 24.8253C85.3957 25.0367 85.7038 25.2841 85.9242 25.5675C86.1492 25.8509 86.3223 26.1005 86.4438 26.3164H86.5922V24.6364H88.5691V35.2294C88.5691 36.12 88.3622 36.851 87.9484 37.4222C87.5346 37.9935 86.9746 38.4163 86.2684 38.6907C85.5666 38.9651 84.775 39.1023 83.8934 39.1023ZM83.8731 33.1715C84.4534 33.1715 84.9437 33.0366 85.344 32.7667C85.7488 32.4923 86.0547 32.101 86.2616 31.5927C86.473 31.0799 86.5787 30.4659 86.5787 29.7507C86.5787 29.0535 86.4753 28.4395 86.2684 27.9087C86.0614 27.378 85.7578 26.9641 85.3575 26.6673C84.9572 26.3659 84.4624 26.2152 83.8731 26.2152C83.2659 26.2152 82.7598 26.3726 82.355 26.6875C81.9502 26.9979 81.6443 27.4207 81.4374 27.956C81.235 28.4912 81.1338 29.0895 81.1338 29.7507C81.1338 30.4299 81.2372 31.0259 81.4441 31.5387C81.651 32.0515 81.9569 32.4518 82.3617 32.7397C82.7711 33.0276 83.2749 33.1715 83.8731 33.1715ZM93.6721 21.1818V35H91.6547V21.1818H93.6721ZM101.233 35.2092C100.212 35.2092 99.3324 34.991 98.5947 34.5547C97.8615 34.1139 97.2947 33.4954 96.8944 32.6992C96.4986 31.8986 96.3006 30.9607 96.3006 29.8857C96.3006 28.8241 96.4986 27.8885 96.8944 27.0788C97.2947 26.2692 97.8525 25.6372 98.5677 25.1829C99.2874 24.7286 100.129 24.5014 101.091 24.5014C101.676 24.5014 102.243 24.5981 102.791 24.7915C103.34 24.985 103.833 25.2886 104.269 25.7024C104.705 26.1162 105.049 26.6538 105.301 27.315C105.553 27.9717 105.679 28.7701 105.679 29.7102V30.4254H97.4409V28.9141H103.702C103.702 28.3833 103.594 27.9132 103.378 27.5039C103.162 27.0901 102.859 26.764 102.468 26.5256C102.081 26.2872 101.626 26.168 101.105 26.168C100.538 26.168 100.043 26.3074 99.6202 26.5863C99.2019 26.8607 98.8781 27.2205 98.6486 27.6658C98.4237 28.1067 98.3113 28.5857 98.3113 29.103V30.2837C98.3113 30.9764 98.4327 31.5657 98.6756 32.0515C98.923 32.5373 99.2671 32.9084 99.708 33.1648C100.149 33.4167 100.664 33.5426 101.253 33.5426C101.635 33.5426 101.984 33.4886 102.299 33.3807C102.614 33.2682 102.886 33.1018 103.115 32.8814C103.345 32.661 103.52 32.3888 103.642 32.065L105.551 32.4091C105.398 32.9714 105.124 33.4639 104.728 33.8867C104.337 34.305 103.844 34.6312 103.25 34.8651C102.661 35.0945 101.988 35.2092 101.233 35.2092ZM108.459 35V21.1818H113.385C114.46 21.1818 115.351 21.3775 116.057 21.7688C116.763 22.1602 117.292 22.6954 117.642 23.3746C117.993 24.0494 118.169 24.8095 118.169 25.6552C118.169 26.5053 117.991 27.27 117.636 27.9492C117.285 28.6239 116.754 29.1592 116.043 29.555C115.337 29.9464 114.449 30.142 113.378 30.142H109.991V28.3743H113.189C113.868 28.3743 114.419 28.2573 114.842 28.0234C115.265 27.785 115.575 27.4612 115.773 27.0518C115.971 26.6425 116.07 26.177 116.07 25.6552C116.07 25.1334 115.971 24.6701 115.773 24.2653C115.575 23.8604 115.263 23.5433 114.836 23.3139C114.413 23.0845 113.855 22.9698 113.162 22.9698H110.544V35H108.459ZM122.848 21.1818V35H120.831V21.1818H122.848ZM128.958 35.2294C128.302 35.2294 127.708 35.108 127.177 34.8651C126.646 34.6177 126.226 34.2601 125.915 33.7923C125.609 33.3245 125.457 32.7509 125.457 32.0717C125.457 31.487 125.569 31.0057 125.794 30.6278C126.019 30.25 126.322 29.9509 126.705 29.7305C127.087 29.5101 127.514 29.3436 127.987 29.2312C128.459 29.1187 128.94 29.0333 129.431 28.9748C130.051 28.9028 130.555 28.8443 130.942 28.7994C131.329 28.7499 131.61 28.6712 131.785 28.5632C131.961 28.4553 132.049 28.2798 132.049 28.0369V27.9897C132.049 27.4004 131.882 26.9439 131.549 26.62C131.221 26.2962 130.731 26.1342 130.078 26.1342C129.399 26.1342 128.864 26.2849 128.473 26.5863C128.086 26.8832 127.818 27.2138 127.67 27.5781L125.774 27.1463C125.999 26.5166 126.327 26.0083 126.759 25.6214C127.195 25.2301 127.697 24.9467 128.263 24.7713C128.83 24.5914 129.426 24.5014 130.051 24.5014C130.465 24.5014 130.904 24.5509 131.367 24.6499C131.835 24.7443 132.271 24.9197 132.676 25.1761C133.085 25.4325 133.42 25.7991 133.681 26.2759C133.942 26.7482 134.073 27.3622 134.073 28.1179V35H132.102V33.5831H132.022C131.891 33.844 131.695 34.1004 131.435 34.3523C131.174 34.6042 130.839 34.8133 130.429 34.9798C130.02 35.1462 129.53 35.2294 128.958 35.2294ZM129.397 33.6101C129.955 33.6101 130.431 33.4999 130.827 33.2795C131.228 33.0591 131.531 32.7712 131.738 32.4158C131.95 32.056 132.055 31.6714 132.055 31.2621V29.9261C131.983 29.9981 131.844 30.0656 131.637 30.1286C131.435 30.187 131.203 30.2388 130.942 30.2837C130.681 30.3242 130.427 30.3625 130.18 30.3984C129.932 30.4299 129.725 30.4569 129.559 30.4794C129.167 30.5289 128.81 30.6121 128.486 30.729C128.167 30.846 127.91 31.0147 127.717 31.2351C127.528 31.451 127.433 31.7389 127.433 32.0987C127.433 32.598 127.618 32.9759 127.987 33.2322C128.356 33.4841 128.826 33.6101 129.397 33.6101ZM138.044 38.8864C137.742 38.8864 137.468 38.8616 137.221 38.8121C136.973 38.7672 136.789 38.7177 136.667 38.6637L137.153 37.0107C137.522 37.1096 137.85 37.1523 138.138 37.1388C138.426 37.1254 138.68 37.0174 138.901 36.815C139.126 36.6126 139.324 36.282 139.494 35.8232L139.744 35.1349L135.952 24.6364H138.111L140.736 32.679H140.844L143.469 24.6364H145.634L141.363 36.3832C141.166 36.9229 140.914 37.3795 140.608 37.7528C140.302 38.1307 139.938 38.4141 139.515 38.603C139.092 38.7919 138.602 38.8864 138.044 38.8864Z" fill="white"/>
</svg>
