<svg width="52" height="50" viewBox="0 0 52 50" fill="none" xmlns="http://www.w3.org/2000/svg">
<path d="M16 49C16 46.2386 18.2386 44 21 44H31C33.7614 44 36 46.2386 36 49V49.75C36 49.8881 35.8881 50 35.75 50H16.25C16.1119 50 16 49.8881 16 49.75V49Z" fill="white"/>
<path fill-rule="evenodd" clip-rule="evenodd" d="M24.0007 14.0093L13.3283 29.3132C12.8344 30.0214 12.8507 30.9665 13.3688 31.6572L16.8007 36.2332C16.9305 36.4063 17.0007 36.6168 17.0007 36.8332V40.7499C17.0007 40.8879 17.1127 40.9999 17.2507 40.9999H25.7507H34.2507C34.3888 40.9999 34.5007 40.8879 34.5007 40.7499V36.8619C34.5007 36.628 34.5827 36.4014 34.7325 36.2217L38.5058 31.6938C39.0911 30.9914 39.1256 29.9815 38.5896 29.2408L28.0007 14.609V26.4159C29.7666 27.1875 31.0007 28.9495 31.0007 30.9999C31.0007 33.7613 28.7621 35.9999 26.0007 35.9999C23.2393 35.9999 21.0007 33.7613 21.0007 30.9999C21.0007 28.9495 22.2348 27.1875 24.0007 26.4159V14.0093ZM26.0007 32.9999C27.1053 32.9999 28.0007 32.1044 28.0007 30.9999C28.0007 29.8953 27.1053 28.9999 26.0007 28.9999C24.8962 28.9999 24.0007 29.8953 24.0007 30.9999C24.0007 32.1044 24.8962 32.9999 26.0007 32.9999Z" fill="white"/>
<circle cx="43.5" cy="25.5" r="4.5" fill="white"/>
<circle cx="8.5" cy="25.5" r="4.5" fill="white"/>
<circle cx="26.5" cy="5.5" r="4.5" fill="white"/>
<rect x="42" width="10" height="9" rx="3" fill="white"/>
<rect width="10" height="9" rx="3" fill="white"/>
<path d="M9 24V22C9 12.335 16.835 4.5 26.5 4.5V4.5" stroke="white" stroke-width="3"/>
<path d="M43.5 23.5V21.5C43.5 11.835 35.665 4 26 4V4" stroke="white" stroke-width="3"/>
<path d="M6.5 4.5C6.9 4.5 33.6667 4.5 47 4.5" stroke="white" stroke-width="3"/>
</svg>
