<svg width="34" height="32" viewBox="0 0 34 32" fill="none" xmlns="http://www.w3.org/2000/svg">
<path d="M3.4 32H5.1V10.1053H3.4C2.49826 10.1053 1.63346 10.4601 0.995837 11.0919C0.358213 11.7236 0 12.5803 0 13.4737V28.6316C0 29.5249 0.358213 30.3817 0.995837 31.0134C1.63346 31.6451 2.49826 32 3.4 32ZM30.6 10.1053H18.7L20.6074 4.43284C20.7776 3.92659 20.824 3.38753 20.7427 2.86005C20.6614 2.33257 20.4548 1.83177 20.1399 1.3989C19.8249 0.966022 19.4107 0.61346 18.9313 0.37025C18.4519 0.127039 17.9211 0.000138295 17.3825 0H17L8.5 9.15874V32H27.2L33.8504 17.5225L34 16.8421V13.4737C34 12.5803 33.6418 11.7236 33.0042 11.0919C32.3665 10.4601 31.5017 10.1053 30.6 10.1053Z" fill="white"/>
</svg>
