<svg width="163" height="38" viewBox="0 0 163 38" fill="none" xmlns="http://www.w3.org/2000/svg">
<rect width="163" height="38" fill="#7D97DA"/>
<g id="&#208;&#145;&#208;&#181;&#208;&#183; &#208;&#178;&#209;&#133;&#208;&#190;&#208;&#180;&#209;&#131;" clip-path="url(#clip0_0_1)">
<rect width="1280" height="6560" transform="translate(-77 -279)" fill="white"/>
<g id="screen 1">
<g id="BG">
<path id="Background(Gray)" d="M598.5 415.5C847 220.5 983.454 256.424 1318.32 60V-280.5C1318.32 -297.3 330.656 -287.5 -163.177 -280.5L-193 557.5C63 557.5 350 610.5 598.5 415.5Z" fill="#0F0F0F"/>
<g id="Blob 01" filter="url(#filter0_f_0_1)">
<path d="M-143.913 152.315L-155.177 115.5L-177.889 -3.92117C-183.406 -32.9296 -186.652 -62.3239 -187.599 -91.8371L-191.677 -219V-251.99C-191.677 -282.058 -172.184 -308.656 -143.511 -317.71C-137.648 -319.562 -131.563 -320.62 -125.419 -320.858L14.0615 -326.25C44.1882 -327.415 74.3598 -326.179 104.29 -322.554L298.936 -298.983C320.747 -296.341 342.062 -290.567 362.223 -281.837C405.556 -263.075 442.007 -231.342 466.558 -191.007L470.823 -184L480.862 -164.086C494.315 -137.401 501.323 -107.933 501.323 -78.0478C501.323 -66.3738 500.267 -54.7258 498.082 -43.2581C494.648 -25.2326 490.502 -4.24167 489.323 -1C488.205 2.07587 472.849 27.8104 458.527 51.5044C447.606 69.5716 432.235 84.5205 413.939 95.0543C399.667 103.272 383.922 108.611 367.595 110.77L331.823 115.5L282.323 126.5L219.823 145L140.823 168L72.3232 195.5L1.34584 216.72C-15.8277 221.854 -33.8573 223.488 -51.6739 221.524L-61.7036 220.418C-79.0323 218.508 -95.5271 211.967 -109.456 201.483C-125.848 189.146 -137.91 171.933 -143.913 152.315Z" fill="#262525"/>
</g>
</g>
<g id="txt">
<g id="H1">
<g id="Logo V1">
<path d="M0 24.615V0.227917C0 0.102042 0.102127 0 0.228108 0H13.1366C13.1966 0 13.2542 0.0236387 13.2969 0.0657924L51.1574 37.4442C51.3024 37.5874 51.201 37.8342 50.9971 37.8342H32.4859C32.4254 37.8342 32.3673 37.8102 32.3246 37.7675L14.0091 19.4674C13.7217 19.1802 13.2303 19.3836 13.2303 19.7897V37.5842C13.2303 37.7223 13.1174 37.8345 12.9794 37.8319C5.78828 37.6983 0 31.8321 0 24.615Z" fill="#FF8D2A"/>
<path d="M38.3222 21.3224V0.191582C38.3222 0.0857744 38.408 0 38.5139 0C45.7149 0 51.5525 5.83266 51.5525 13.0276V32.7655C51.5525 32.9626 51.319 33.0667 51.1721 32.9352L38.398 21.4921C38.3498 21.4489 38.3222 21.3872 38.3222 21.3224Z" fill="#FF8D2A"/>
<path d="M69.9256 38C66.7044 38 63.9187 37.3162 61.5685 35.9487C59.2321 34.5674 57.428 32.6474 56.1561 30.1887C54.8842 27.7161 54.2483 24.8499 54.2483 21.59C54.2483 18.3024 54.8842 15.4293 56.1561 12.9706C57.428 10.498 59.2321 8.57797 61.5685 7.21047C63.9187 5.82915 66.7044 5.13849 69.9256 5.13849C73.1467 5.13849 75.9255 5.82915 78.2619 7.21047C80.6121 8.57797 82.4231 10.498 83.695 12.9706C84.9669 15.4293 85.6028 18.3024 85.6028 21.59C85.6028 24.8499 84.9669 27.7161 83.695 30.1887C82.4231 32.6474 80.6121 34.5674 78.2619 35.9487C75.9255 37.3162 73.1467 38 69.9256 38ZM69.967 31.1625C71.4325 31.1625 72.656 30.7481 73.6375 29.9193C74.6191 29.0767 75.3587 27.9302 75.8564 26.4798C76.3679 25.0294 76.6237 23.3788 76.6237 21.5278C76.6237 19.6768 76.3679 18.0262 75.8564 16.5758C75.3587 15.1254 74.6191 13.9789 73.6375 13.1363C72.656 12.2937 71.4325 11.8724 69.967 11.8724C68.4878 11.8724 67.2436 12.2937 66.2344 13.1363C65.239 13.9789 64.4855 15.1254 63.974 16.5758C63.4763 18.0262 63.2275 19.6768 63.2275 21.5278C63.2275 23.3788 63.4763 25.0294 63.974 26.4798C64.4855 27.9302 65.239 29.0767 66.2344 29.9193C67.2436 30.7481 68.4878 31.1625 69.967 31.1625Z" fill="#FF8D2A"/>
<path d="M85.5074 37.3784V5.55289H93.9267V11.1679H94.3C94.9636 9.30316 96.0695 7.83206 97.6179 6.75463C99.1663 5.67721 101.019 5.13849 103.175 5.13849C105.36 5.13849 107.219 5.68411 108.754 6.77535C110.288 7.85278 111.311 9.31697 111.823 11.1679H112.155C112.804 9.3446 113.98 7.88731 115.68 6.79607C117.394 5.69102 119.42 5.13849 121.756 5.13849C124.728 5.13849 127.141 6.0847 128.993 7.9771C130.86 9.85569 131.793 12.5216 131.793 15.9749V37.3784H122.979V17.7154C122.979 15.9473 122.509 14.6212 121.569 13.7372C120.629 12.8531 119.454 12.4111 118.044 12.4111C116.44 12.4111 115.189 12.9222 114.291 13.9444C113.392 14.9527 112.943 16.2857 112.943 17.9433V37.3784H104.378V17.5289C104.378 15.968 103.929 14.7248 103.03 13.7993C102.146 12.8739 100.977 12.4111 99.5257 12.4111C98.5442 12.4111 97.6594 12.6598 96.8714 13.157C96.0972 13.6405 95.482 14.3242 95.0258 15.2083C94.5696 16.0785 94.3415 17.1007 94.3415 18.2748V37.3784H85.5074Z" fill="#FF8D2A"/>
<path d="M147.323 38C144.102 38 141.316 37.3162 138.966 35.9487C136.629 34.5674 134.825 32.6474 133.553 30.1887C132.281 27.7161 131.645 24.8499 131.645 21.59C131.645 18.3024 132.281 15.4293 133.553 12.9706C134.825 10.498 136.629 8.57797 138.966 7.21047C141.316 5.82915 144.102 5.13849 147.323 5.13849C150.544 5.13849 153.323 5.82915 155.659 7.21047C158.009 8.57797 159.82 10.498 161.092 12.9706C162.364 15.4293 163 18.3024 163 21.59C163 24.8499 162.364 27.7161 161.092 30.1887C159.82 32.6474 158.009 34.5674 155.659 35.9487C153.323 37.3162 150.544 38 147.323 38ZM147.364 31.1625C148.83 31.1625 150.053 30.7481 151.035 29.9193C152.016 29.0767 152.756 27.9302 153.254 26.4798C153.765 25.0294 154.021 23.3788 154.021 21.5278C154.021 19.6768 153.765 18.0262 153.254 16.5758C152.756 15.1254 152.016 13.9789 151.035 13.1363C150.053 12.2937 148.83 11.8724 147.364 11.8724C145.885 11.8724 144.641 12.2937 143.632 13.1363C142.636 13.9789 141.883 15.1254 141.371 16.5758C140.873 18.0262 140.625 19.6768 140.625 21.5278C140.625 23.3788 140.873 25.0294 141.371 26.4798C141.883 27.9302 142.636 29.0767 143.632 29.9193C144.641 30.7481 145.885 31.1625 147.364 31.1625Z" fill="#FF8D2A"/>
</g>
</g>
</g>
</g>
</g>
<rect id="Rectangle 319" x="-535" y="-1466" width="8150" height="12937" rx="96" stroke="black" stroke-width="64"/>
<defs>
<filter id="filter0_f_0_1" x="-201.777" y="-336.774" width="713.2" height="569.204" filterUnits="userSpaceOnUse" color-interpolation-filters="sRGB">
<feFlood flood-opacity="0" result="BackgroundImageFix"/>
<feBlend mode="normal" in="SourceGraphic" in2="BackgroundImageFix" result="shape"/>
<feGaussianBlur stdDeviation="5.05" result="effect1_foregroundBlur_0_1"/>
</filter>
<clipPath id="clip0_0_1">
<rect width="1280" height="6560" fill="white" transform="translate(-77 -279)"/>
</clipPath>
</defs>
</svg>
