<svg width="32" height="54" viewBox="0 0 32 54" fill="none" xmlns="http://www.w3.org/2000/svg">
<path d="M25.8462 0H6.15385C4.52174 0 2.95649 0.646508 1.80242 1.7973C0.64835 2.94809 0 4.5089 0 6.13636V47.8636C0 49.4911 0.64835 51.0519 1.80242 52.2027C2.95649 53.3535 4.52174 54 6.15385 54H25.8462C27.4783 54 29.0435 53.3535 30.1976 52.2027C31.3517 51.0519 32 49.4911 32 47.8636V6.13636C32 4.5089 31.3517 2.94809 30.1976 1.7973C29.0435 0.646508 27.4783 0 25.8462 0ZM16 51.5455C13.9569 51.5455 12.3077 49.9009 12.3077 47.8636C12.3077 45.8264 13.9569 44.1818 16 44.1818C18.0431 44.1818 19.6923 45.8264 19.6923 47.8636C19.6923 49.9009 18.0431 51.5455 16 51.5455ZM27.0769 41.7273H4.92308V7.36364H27.0769V41.7273Z" fill="white"/>
</svg>
