<svg width="68" height="63" viewBox="0 0 68 63" fill="none" xmlns="http://www.w3.org/2000/svg">
<path d="M41.8288 48.6621V62.3942C41.8288 62.4532 41.8766 62.501 41.9356 62.501C56.3306 62.501 68 50.8315 68 36.4366L68 0.481316C68 0.343243 67.8881 0.231316 67.75 0.231316H39.2163C39.0782 0.231316 38.9663 0.343243 38.9663 0.481316L38.9663 32.7548C38.9663 32.8929 39.0782 33.0048 39.2163 33.0048H54.5055V35.9855C54.5055 42.9369 48.8702 48.5722 41.9187 48.5722C41.869 48.5722 41.8288 48.6125 41.8288 48.6621Z" fill="#CECECE"/>
<path d="M2.86246 48.6621V62.3942C2.86246 62.4532 2.91029 62.501 2.96928 62.501C17.3643 62.501 29.0337 50.8315 29.0337 36.4366L29.0337 0.481316C29.0337 0.343243 28.9218 0.231316 28.7837 0.231316H0.249983C0.111912 0.231316 -1.71661e-05 0.343243 -1.71661e-05 0.481316L-1.71661e-05 32.7548C-1.71661e-05 32.8929 0.111912 33.0048 0.249983 33.0048H15.5392V35.9855C15.5392 42.9369 9.90386 48.5722 2.95237 48.5722C2.90271 48.5722 2.86246 48.6125 2.86246 48.6621Z" fill="#CECECE"/>
</svg>
