<svg width="68" height="63" viewBox="0 0 68 63" fill="none" xmlns="http://www.w3.org/2000/svg">
<path d="M26.1712 13.8388V0.106821C26.1712 0.0478255 26.1234 0 26.0644 0C11.6694 0 0 11.6694 0 26.0644V62.0197C0 62.1577 0.111928 62.2697 0.25 62.2697H28.7837C28.9218 62.2697 29.0337 62.1577 29.0337 62.0197V29.7462C29.0337 29.6081 28.9218 29.4962 28.7837 29.4962H13.4945V26.5155C13.4945 19.564 19.1298 13.9287 26.0813 13.9287C26.131 13.9287 26.1712 13.8885 26.1712 13.8388Z" fill="#CECECE"/>
<path d="M65.1375 13.8388V0.106821C65.1375 0.0478255 65.0897 0 65.0307 0C50.6357 0 38.9663 11.6694 38.9663 26.0644V62.0197C38.9663 62.1577 39.0782 62.2697 39.2163 62.2697H67.75C67.8881 62.2697 68 62.1577 68 62.0197V29.7462C68 29.6081 67.8881 29.4962 67.75 29.4962H52.4608V26.5155C52.4608 19.564 58.0961 13.9287 65.0476 13.9287C65.0973 13.9287 65.1375 13.8885 65.1375 13.8388Z" fill="#CECECE"/>
</svg>
