<svg width="36" height="36" viewBox="0 0 36 36" fill="none" xmlns="http://www.w3.org/2000/svg">
<path d="M17.1508 1.36588C17.542 0.736562 18.458 0.73656 18.8492 1.36587L23.816 9.35415C23.9536 9.57557 24.1723 9.73447 24.4255 9.79698L33.5576 12.0521C34.277 12.2298 34.56 13.1008 34.0824 13.6674L28.0199 20.8596C27.8519 21.059 27.7683 21.316 27.7871 21.5761L28.4643 30.9581C28.5177 31.6972 27.7767 32.2356 27.0902 31.9565L18.3767 28.4132C18.1352 28.315 17.8648 28.315 17.6233 28.4132L8.90975 31.9565C8.2233 32.2356 7.48231 31.6972 7.53566 30.9581L8.21288 21.5761C8.23166 21.316 8.14812 21.059 7.98008 20.8596L1.91758 13.6674C1.43998 13.1008 1.72301 12.2298 2.44244 12.0521L11.5745 9.79698C11.8277 9.73447 12.0464 9.57557 12.184 9.35415L17.1508 1.36588Z" fill="white"/>
</svg>
