<svg width="61" height="58" viewBox="0 0 61 58" fill="none" xmlns="http://www.w3.org/2000/svg">
<path fill-rule="evenodd" clip-rule="evenodd" d="M3.03004 29.2713C16.1196 5.13352 44.9888 4.69018 59.8862 29.2607C59.9342 29.3399 59.9342 29.443 59.8862 29.5222C44.9888 54.0927 16.1196 53.6494 3.03004 29.5116C2.98999 29.4377 2.98999 29.3452 3.03004 29.2713ZM31.4651 39.8906C37.2641 39.8906 41.9651 35.1896 41.9651 29.3906C41.9651 23.5916 37.2641 18.8906 31.4651 18.8906C25.6661 18.8906 20.9651 23.5916 20.9651 29.3906C20.9651 35.1896 25.6661 39.8906 31.4651 39.8906Z" fill="white"/>
<path d="M3 17.5V8C3 5.23858 5.23858 3 8 3H19.7157M58 17.5V8C58 5.23858 55.7614 3 53 3H38.8578M3 40V50C3 52.7614 5.23857 55 8 55H19.7157M58 40V50C58 52.7614 55.7614 55 53 55H38.8578" stroke="white" stroke-width="5" stroke-linecap="round" stroke-linejoin="round"/>
</svg>
