<svg width="24" height="23" viewBox="0 0 24 23" fill="none" xmlns="http://www.w3.org/2000/svg">
<path d="M10.2577 1.09115C11.0227 -0.266138 12.9773 -0.26614 13.7423 1.09115L16.1529 5.36798C16.4383 5.87433 16.9299 6.23148 17.4996 6.34644L22.3121 7.31744C23.8393 7.6256 24.4433 9.48449 23.3889 10.6315L20.0663 14.2457C19.6729 14.6736 19.4851 15.2515 19.5519 15.8289L20.1155 20.7059C20.2944 22.2536 18.7131 23.4025 17.2964 22.7541L12.8323 20.7109C12.3038 20.469 11.6962 20.469 11.1677 20.7109L6.7036 22.7541C5.28689 23.4025 3.70562 22.2536 3.88449 20.7059L4.44814 15.8289C4.51487 15.2515 4.32711 14.6736 3.93373 14.2457L0.611139 10.6315C-0.443314 9.48449 0.160674 7.6256 1.68794 7.31744L6.50036 6.34644C7.07013 6.23148 7.5617 5.87434 7.8471 5.36798L10.2577 1.09115Z" fill="#FF8D2A"/>
</svg>
