<svg width="137" height="137" viewBox="0 0 137 137" fill="none" xmlns="http://www.w3.org/2000/svg">
<mask id="mask0_2_2903" style="mask-type:alpha" maskUnits="userSpaceOnUse" x="0" y="0" width="137" height="137">
<circle cx="68.5" cy="68.5" r="68.5" fill="#FF8D2A"/>
</mask>
<g mask="url(#mask0_2_2903)">
<path d="M-30.4551 51.5732L90.7889 -27.0406" stroke="#FF8D2A" stroke-width="2" stroke-dasharray="1 1"/>
<path d="M-27.7344 55.7686L93.5096 -22.8453" stroke="#FF8D2A" stroke-width="2" stroke-dasharray="1 1"/>
<path d="M-25.0137 59.9639L96.2303 -18.65" stroke="#FF8D2A" stroke-width="2" stroke-dasharray="1 1"/>
<path d="M-22.293 64.1592L98.951 -14.4547" stroke="#FF8D2A" stroke-width="2" stroke-dasharray="1 1"/>
<path d="M-19.5742 68.3545L101.67 -10.2594" stroke="#FF8D2A" stroke-width="2" stroke-dasharray="1 1"/>
<path d="M-16.8535 72.5498L104.39 -6.06407" stroke="#FF8D2A" stroke-width="2" stroke-dasharray="1 1"/>
<path d="M-14.1328 76.7451L107.111 -1.86876" stroke="#FF8D2A" stroke-width="2" stroke-dasharray="1 1"/>
<path d="M-11.4121 80.9402L109.832 2.32631" stroke="#FF8D2A" stroke-width="2" stroke-dasharray="1 1"/>
<path d="M-8.69336 85.1355L112.551 6.52162" stroke="#FF8D2A" stroke-width="2" stroke-dasharray="1 1"/>
<path d="M-5.97266 89.3308L115.271 10.7169" stroke="#FF8D2A" stroke-width="2" stroke-dasharray="1 1"/>
<path d="M-3.25195 93.5261L117.992 14.9122" stroke="#FF8D2A" stroke-width="2" stroke-dasharray="1 1"/>
<path d="M-0.53125 97.7214L120.713 19.1076" stroke="#FF8D2A" stroke-width="2" stroke-dasharray="1 1"/>
<path d="M2.1875 101.917L123.432 23.3029" stroke="#FF8D2A" stroke-width="2" stroke-dasharray="1 1"/>
<path d="M4.9082 106.112L126.152 27.4982" stroke="#FF8D2A" stroke-width="2" stroke-dasharray="1 1"/>
<path d="M7.62891 110.307L128.873 31.6935" stroke="#FF8D2A" stroke-width="2" stroke-dasharray="1 1"/>
<path d="M10.3496 114.503L131.594 35.8888" stroke="#FF8D2A" stroke-width="2" stroke-dasharray="1 1"/>
<path d="M13.0684 118.698L134.312 40.0841" stroke="#FF8D2A" stroke-width="2" stroke-dasharray="1 1"/>
<path d="M15.7891 122.893L137.033 44.2794" stroke="#FF8D2A" stroke-width="2" stroke-dasharray="1 1"/>
<path d="M18.5098 127.089L139.754 48.4747" stroke="#FF8D2A" stroke-width="2" stroke-dasharray="1 1"/>
<path d="M21.2305 131.284L142.474 52.6701" stroke="#FF8D2A" stroke-width="2" stroke-dasharray="1 1"/>
<path d="M23.9492 135.479L145.193 56.8651" stroke="#FF8D2A" stroke-width="2" stroke-dasharray="1 1"/>
<path d="M26.6699 139.674L147.914 61.0604" stroke="#FF8D2A" stroke-width="2" stroke-dasharray="1 1"/>
<path d="M29.3906 143.87L150.635 65.2558" stroke="#FF8D2A" stroke-width="2" stroke-dasharray="1 1"/>
<path d="M32.1113 148.065L153.355 69.4511" stroke="#FF8D2A" stroke-width="2" stroke-dasharray="1 1"/>
<path d="M34.8301 152.26L156.074 73.6464" stroke="#FF8D2A" stroke-width="2" stroke-dasharray="1 1"/>
<path d="M37.5508 156.456L158.795 77.8417" stroke="#FF8D2A" stroke-width="2" stroke-dasharray="1 1"/>
<path d="M40.2715 160.651L161.515 82.037" stroke="#FF8D2A" stroke-width="2" stroke-dasharray="1 1"/>
<path d="M42.9922 164.846L164.236 86.2323" stroke="#FF8D2A" stroke-width="2" stroke-dasharray="1 1"/>
<path d="M45.7109 169.042L166.955 90.4276" stroke="#FF8D2A" stroke-width="2" stroke-dasharray="1 1"/>
</g>
</svg>
