<svg width="417" height="303" viewBox="0 0 417 303" fill="none" xmlns="http://www.w3.org/2000/svg">
<path d="M10.548 295.726L11.5559 301.938H408.036L409.589 290.614C410.295 285.457 410.183 280.221 409.255 275.1C408.447 270.635 407.027 266.303 405.036 262.225L404.648 261.431C402.379 256.784 399.475 252.476 396.019 248.629L392.179 244.353C387.402 239.036 383.228 233.206 379.733 226.97L375.927 220.179C374.641 217.886 373.613 215.457 372.862 212.937L372.643 212.202C371.801 209.382 371.374 206.454 371.374 203.511C371.374 199.286 372.254 195.108 373.959 191.242L374.925 189.051C376.046 186.508 376.911 183.859 377.507 181.144L379.774 170.802C380.457 167.689 380.801 164.511 380.801 161.325V157.577C380.801 154.351 380.178 151.155 378.965 148.165C377.42 144.356 374.96 140.986 371.804 138.352L367.717 134.943C364.582 132.327 361.115 130.137 357.405 128.431L353.836 126.788C349.476 124.782 344.935 123.194 340.275 122.045L322.141 117.575L233.891 86.2681C226.741 83.7315 219.784 80.6794 213.076 77.1358C200.301 70.3879 186.655 65.4376 172.525 62.4252L141.707 55.8552C137.704 55.0016 133.621 54.5713 129.528 54.5713C118.167 54.5713 107.048 57.8742 97.5714 64.1397C78.5826 76.6939 55.4833 92.2096 54.5036 93.8195C53.8293 94.9277 52.0193 101.634 50.1089 109.235C47.0279 121.493 47.0433 134.308 49.8221 146.638C51.193 152.72 53.2382 158.631 55.9197 164.26L68.1212 189.874C72.5387 201.266 73.1077 213.791 69.7412 225.536L67.3628 233.834C63.4958 247.326 54.3192 258.671 41.9336 265.272L20.9014 275.641C17.5397 277.298 14.7432 279.913 12.8638 283.156C10.6633 286.953 9.84503 291.394 10.548 295.726Z" fill="#FFBF88"/>
<path d="M333.659 168.701C349.412 169.964 357.861 171.832 365.608 197.104V225.507L355.657 205.367C351.467 206.916 342.062 198.238 336.802 190.907C350.462 191.713 352.78 196.275 355.657 205.367L365.608 225.507V197.104C350.419 194.005 344.134 178.513 333.659 168.701Z" fill="white"/>
<path d="M373.988 216.212C393.712 198.75 401.009 210.617 411.698 245.131C387.606 234.803 387.996 216.263 373.988 216.212Z" fill="white"/>
<path d="M368.227 203.817C376.359 192.547 380.875 185.901 391.272 190.907C384.196 199.322 378.912 201.728 368.227 203.817Z" fill="white"/>
<path d="M356.704 217.244C349.565 208.309 342.066 210.835 322.137 230.155C338.897 227.057 354.086 225.507 356.704 217.244Z" fill="white"/>
<path d="M365.608 197.104H366.608C366.608 197.005 366.593 196.906 366.564 196.811L365.608 197.104ZM333.659 168.701L333.739 167.704C333.316 167.67 332.917 167.907 332.745 168.296C332.573 168.685 332.665 169.14 332.976 169.431L333.659 168.701ZM374.048 243.737C374.134 244.283 374.646 244.656 375.191 244.57C375.737 244.484 376.109 243.972 376.024 243.427L374.048 243.737ZM374.983 243.25L375.971 243.094L374.983 243.25ZM373.988 216.212L373.325 215.463C373.15 215.618 373.034 215.831 372.999 216.063L373.988 216.212ZM411.698 245.131L411.304 246.05C411.663 246.204 412.078 246.135 412.368 245.874C412.657 245.614 412.769 245.208 412.654 244.835L411.698 245.131ZM368.227 203.817L367.416 203.232C367.176 203.565 367.163 204.011 367.385 204.357C367.606 204.702 368.016 204.878 368.419 204.799L368.227 203.817ZM391.272 190.907L392.037 191.55C392.236 191.314 392.315 190.999 392.25 190.697C392.185 190.395 391.984 190.14 391.706 190.006L391.272 190.907ZM364.608 243.582C364.608 244.134 365.056 244.582 365.608 244.582C366.16 244.582 366.608 244.134 366.608 243.582H364.608ZM336.802 190.907L336.861 189.909C336.476 189.886 336.112 190.087 335.926 190.424C335.74 190.762 335.764 191.177 335.989 191.49L336.802 190.907ZM357.276 243.568C357.268 244.121 357.71 244.574 358.262 244.582C358.814 244.589 359.268 244.148 359.276 243.596L357.276 243.568ZM356.704 217.244L357.559 216.725L357.525 216.67L357.486 216.62L356.704 217.244ZM322.137 230.155L321.441 229.437C321.124 229.744 321.046 230.222 321.248 230.614C321.45 231.005 321.885 231.219 322.319 231.138L322.137 230.155ZM366.564 196.811C362.674 184.12 358.547 177.079 353.236 173.099C347.925 169.12 341.59 168.334 333.739 167.704L333.579 169.697C341.481 170.331 347.248 171.111 352.036 174.699C356.824 178.287 360.795 184.815 364.652 197.397L366.564 196.811ZM332.976 169.431C335.539 171.832 337.86 174.593 340.153 177.466C342.432 180.321 344.704 183.312 347.112 186.077C351.944 191.625 357.494 196.469 365.408 198.084L365.808 196.124C358.534 194.64 353.346 190.189 348.62 184.763C346.249 182.041 344.036 179.125 341.716 176.219C339.41 173.33 337.017 170.475 334.343 167.971L332.976 169.431ZM376.024 243.427L375.971 243.094L373.996 243.405L374.048 243.737L376.024 243.427ZM375.971 243.094C374.325 232.63 373.407 226.779 374.977 216.361L372.999 216.063C371.381 226.804 372.345 232.913 373.996 243.405L375.971 243.094ZM374.651 216.96C379.542 212.63 383.541 210.234 386.915 209.486C390.196 208.759 392.966 209.571 395.56 211.921C398.212 214.325 400.674 218.34 403.154 223.998C405.626 229.637 408.073 236.806 410.743 245.427L412.654 244.835C409.979 236.2 407.505 228.942 404.986 223.195C402.475 217.466 399.876 213.134 396.903 210.439C393.87 207.691 390.45 206.654 386.482 207.534C382.606 208.393 378.296 211.062 373.325 215.463L374.651 216.96ZM373.985 217.212C380.421 217.235 383.532 221.404 388.275 227.436C392.971 233.407 399.024 240.786 411.304 246.05L412.092 244.212C400.28 239.148 394.482 232.093 389.847 226.2C385.26 220.366 381.562 215.24 373.992 215.212L373.985 217.212ZM369.038 204.403C371.079 201.574 372.866 199.074 374.573 196.972C376.28 194.869 377.865 193.219 379.479 192.074C381.077 190.94 382.689 190.311 384.476 190.226C386.275 190.141 388.339 190.605 390.838 191.808L391.706 190.006C389.007 188.706 386.607 188.123 384.381 188.229C382.143 188.335 380.169 189.132 378.322 190.443C376.49 191.743 374.771 193.555 373.02 195.711C371.268 197.868 369.441 200.425 367.416 203.232L369.038 204.403ZM368.419 204.799C373.792 203.748 377.903 202.601 381.578 200.614C385.265 198.621 388.449 195.818 392.037 191.55L390.507 190.263C387.019 194.411 384.023 197.019 380.627 198.855C377.22 200.697 373.347 201.798 368.035 202.836L368.419 204.799ZM366.608 243.582V225.507H364.608V243.582H366.608ZM366.608 225.507V197.104H364.608V225.507H366.608ZM366.505 225.064L356.553 204.924L354.76 205.81L364.712 225.95L366.505 225.064ZM356.61 205.065C355.179 200.542 353.817 196.869 350.941 194.286C348.042 191.682 343.77 190.316 336.861 189.909L336.743 191.905C343.494 192.304 347.211 193.623 349.605 195.774C352.022 197.946 353.258 201.1 354.703 205.668L356.61 205.065ZM335.989 191.49C338.665 195.22 342.39 199.288 345.997 202.241C347.798 203.715 349.606 204.942 351.267 205.701C352.887 206.442 354.574 206.833 356.004 206.305L355.31 204.429C354.645 204.675 353.585 204.562 352.099 203.883C350.654 203.222 348.995 202.111 347.264 200.693C343.805 197.862 340.198 193.925 337.614 190.324L335.989 191.49ZM359.276 243.596C359.31 241.045 359.425 238.454 359.53 235.901C359.635 233.356 359.73 230.848 359.721 228.495C359.703 223.852 359.291 219.571 357.559 216.725L355.85 217.764C357.261 220.082 357.703 223.835 357.721 228.502C357.729 230.805 357.637 233.271 357.532 235.819C357.427 238.361 357.311 240.984 357.276 243.568L359.276 243.596ZM357.486 216.62C355.642 214.313 353.693 212.638 351.429 211.833C349.14 211.019 346.665 211.141 343.872 212.165C338.385 214.179 331.385 219.797 321.441 229.437L322.833 230.873C332.818 221.193 339.532 215.888 344.561 214.043C347.028 213.138 349.011 213.096 350.759 213.717C352.532 214.348 354.197 215.709 355.923 217.869L357.486 216.62ZM355.751 216.942C354.613 220.532 350.667 222.868 344.444 224.676C338.289 226.465 330.398 227.611 321.955 229.172L322.319 231.138C330.635 229.601 338.719 228.423 345.003 226.597C351.22 224.79 356.177 222.22 357.658 217.547L355.751 216.942Z" fill="#0F0F0F"/>
<path d="M346.754 301.938L343.088 256.493H341.469C340.916 256.493 340.469 256.045 340.469 255.493V244.066C340.469 243.513 340.916 243.066 341.469 243.066H390.273C390.825 243.066 391.273 243.513 391.273 244.066V255.493C391.273 256.045 390.825 256.493 390.273 256.493H389.178L385.511 301.938H346.754Z" fill="#FF8D2A"/>
<path d="M343.088 256.493L346.754 301.938H385.511L389.178 256.493M343.088 256.493H389.178M343.088 256.493H341.469C340.916 256.493 340.469 256.045 340.469 255.493V244.066C340.469 243.513 340.916 243.066 341.469 243.066H390.273C390.825 243.066 391.273 243.513 391.273 244.066V255.493C391.273 256.045 390.825 256.493 390.273 256.493H389.178" stroke="#0F0F0F" stroke-width="2" stroke-linecap="round"/>
<path d="M308.532 25.135V286.445C308.532 295.002 301.497 301.938 292.819 301.938H283.916H140.931C132.254 301.938 125.219 295.002 125.219 286.445V25.135C125.219 16.5787 132.254 9.64233 140.931 9.64233H283.916H292.819C301.497 9.64233 308.532 16.5787 308.532 25.135Z" fill="white"/>
<path d="M283.916 9.64233H140.931C132.254 9.64233 125.219 16.5787 125.219 25.135V286.445C125.219 295.002 132.254 301.938 140.931 301.938H283.916M283.916 9.64233H292.819C301.497 9.64233 308.532 16.5787 308.532 25.135V286.445C308.532 295.002 301.497 301.938 292.819 301.938H283.916M283.916 9.64233L290.526 14.8023C294.29 17.7408 296.486 22.2151 296.486 26.9493V286.166C296.486 292.034 293.123 297.399 287.8 300.023L283.916 301.938M178.641 17.9051H144.074C138.867 17.9051 134.646 22.0669 134.646 27.2007V281.988C134.646 287.197 138.987 291.389 144.269 291.281H277.302C282.432 291.177 286.534 287.047 286.534 281.988V27.2007C286.534 22.0669 282.314 17.9051 277.107 17.9051H243.587M178.641 17.9051V26.3978C178.641 30.2638 181.775 33.3978 185.641 33.3978H236.587C240.453 33.3978 243.587 30.2638 243.587 26.3978V17.9051M178.641 17.9051H243.587" stroke="#0F0F0F" stroke-width="2"/>
<path d="M292.822 16.8723L283.918 9.64233H292.822L300.678 11.708L305.392 15.8394L308.534 23.0693V275.084V289.027L304.868 296.774L297.012 301.422L287.584 301.938L286.537 300.905L292.822 295.741L296.488 286.962V47.8577V25.135L292.822 16.8723Z" fill="#FF8D2A"/>
<path d="M283.916 9.64233H140.931C132.254 9.64233 125.219 16.5787 125.219 25.135V286.445C125.219 295.002 132.254 301.938 140.931 301.938H283.916M283.916 9.64233H292.819C301.497 9.64233 308.532 16.5787 308.532 25.135V286.445C308.532 295.002 301.497 301.938 292.819 301.938H283.916M283.916 9.64233L290.526 14.8023C294.29 17.7408 296.486 22.2151 296.486 26.9493V286.166C296.486 292.034 293.123 297.399 287.8 300.023L283.916 301.938M178.641 17.9051H144.074C138.867 17.9051 134.646 22.0669 134.646 27.2007V281.988C134.646 287.197 138.987 291.389 144.269 291.281H277.302C282.432 291.177 286.534 287.047 286.534 281.988V27.2007C286.534 22.0669 282.314 17.9051 277.107 17.9051H243.587M178.641 17.9051V26.3978C178.641 30.2638 181.775 33.3978 185.641 33.3978H236.587C240.453 33.3978 243.587 30.2638 243.587 26.3978V17.9051M178.641 17.9051H243.587" stroke="#0F0F0F" stroke-width="2"/>
<path d="M190.688 24.1023H231.54" stroke="#0F0F0F" stroke-width="6" stroke-linecap="round"/>
<rect x="180.734" y="47.8577" width="169.696" height="111.547" rx="10" fill="white"/>
<rect x="180.734" y="118.091" width="169.696" height="17.5584" fill="#0F0F0F"/>
<rect x="180.734" y="47.8577" width="169.696" height="111.547" rx="10" stroke="#0F0F0F" stroke-width="2"/>
<path d="M197.492 78.8101C197.492 78.2578 197.94 77.8101 198.492 77.8101H206.396H225.251H233.155C233.707 77.8101 234.155 78.2578 234.155 78.8101V89.6878V100.566C234.155 101.118 233.707 101.566 233.155 101.566H225.251H206.396H198.492C197.94 101.566 197.492 101.118 197.492 100.566V93.0445V84.5236V78.8101Z" fill="#FF8D2A"/>
<path d="M206.396 77.8101H198.492C197.94 77.8101 197.492 78.2578 197.492 78.8101V84.5236M206.396 77.8101H225.251M206.396 77.8101V84.5236M206.396 101.566H198.492C197.94 101.566 197.492 101.118 197.492 100.566V93.0445M206.396 101.566H225.251M206.396 101.566V93.0445M225.251 77.8101H233.155C233.707 77.8101 234.155 78.2578 234.155 78.8101V89.6878M225.251 77.8101V89.6878M225.251 101.566H233.155C233.707 101.566 234.155 101.118 234.155 100.566V89.6878M225.251 101.566V89.6878M225.251 89.6878H234.155M206.396 84.5236H197.492M206.396 84.5236V93.0445M197.492 84.5236V93.0445M206.396 93.0445H197.492" stroke="#0F0F0F" stroke-width="2"/>
<path d="M348.336 39.5948V19.9707M355.668 44.2426L372.952 34.947" stroke="#0F0F0F" stroke-width="2" stroke-linecap="round"/>
<rect x="247.777" y="92.27" width="18" height="8" rx="1" stroke="black" stroke-width="2"/>
<rect x="271.777" y="92.27" width="18" height="8" rx="1" stroke="black" stroke-width="2"/>
<rect x="295.777" y="92.27" width="18" height="8" rx="1" stroke="black" stroke-width="2"/>
<rect x="319.777" y="92.27" width="18" height="8" rx="1" stroke="black" stroke-width="2"/>
<rect x="158.734" y="176.964" width="29.3301" height="15.4927" rx="1" fill="#FF8D2A" stroke="#0F0F0F" stroke-width="2"/>
<path d="M203.781 181.095H246.729M203.781 188.325H256.68" stroke="#0F0F0F" stroke-width="2" stroke-linecap="round"/>
<path d="M172.683 189.358V180.062H173.198V189.358H172.683ZM173.923 183.221C173.902 182.955 173.809 182.748 173.644 182.6C173.48 182.45 173.247 182.375 172.943 182.375C172.742 182.375 172.575 182.405 172.441 182.466C172.307 182.526 172.206 182.61 172.139 182.716C172.072 182.82 172.038 182.94 172.036 183.076C172.032 183.187 172.05 183.285 172.092 183.37C172.136 183.455 172.199 183.53 172.281 183.595C172.364 183.658 172.465 183.714 172.582 183.762C172.699 183.811 172.831 183.853 172.978 183.889L173.53 184.034C173.849 184.114 174.129 184.221 174.372 184.354C174.617 184.487 174.822 184.646 174.987 184.83C175.155 185.014 175.282 185.225 175.367 185.465C175.453 185.705 175.497 185.973 175.499 186.271C175.497 186.741 175.395 187.144 175.192 187.48C174.988 187.817 174.696 188.075 174.315 188.254C173.937 188.433 173.479 188.522 172.943 188.522C172.405 188.522 171.936 188.429 171.537 188.243C171.137 188.056 170.826 187.773 170.604 187.393C170.382 187.013 170.268 186.533 170.262 185.952H171.75C171.763 186.191 171.818 186.391 171.916 186.551C172.015 186.711 172.15 186.832 172.322 186.914C172.495 186.996 172.696 187.037 172.924 187.037C173.134 187.037 173.312 187.005 173.458 186.939C173.607 186.874 173.721 186.783 173.801 186.667C173.88 186.551 173.921 186.418 173.923 186.268C173.921 186.127 173.883 186.007 173.81 185.908C173.737 185.806 173.624 185.719 173.471 185.647C173.32 185.572 173.127 185.503 172.893 185.44L172.221 185.258C171.664 185.11 171.226 184.872 170.905 184.543C170.585 184.211 170.426 183.763 170.428 183.199C170.426 182.739 170.533 182.336 170.748 181.99C170.964 181.644 171.262 181.374 171.643 181.18C172.024 180.987 172.459 180.89 172.946 180.89C173.445 180.89 173.877 180.988 174.243 181.184C174.612 181.378 174.897 181.65 175.1 182.001C175.304 182.352 175.407 182.759 175.411 183.221H173.923Z" fill="#0F0F0F"/>
<path d="M172.683 189.358V180.062H173.198V189.358H172.683ZM173.923 183.221C173.902 182.955 173.809 182.748 173.644 182.6C173.48 182.45 173.247 182.375 172.943 182.375C172.742 182.375 172.575 182.405 172.441 182.466C172.307 182.526 172.206 182.61 172.139 182.716C172.072 182.82 172.038 182.94 172.036 183.076C172.032 183.187 172.05 183.285 172.092 183.37C172.136 183.455 172.199 183.53 172.281 183.595C172.364 183.658 172.465 183.714 172.582 183.762C172.699 183.811 172.831 183.853 172.978 183.889L173.53 184.034C173.849 184.114 174.129 184.221 174.372 184.354C174.617 184.487 174.822 184.646 174.987 184.83C175.155 185.014 175.282 185.225 175.367 185.465C175.453 185.705 175.497 185.973 175.499 186.271C175.497 186.741 175.395 187.144 175.192 187.48C174.988 187.817 174.696 188.075 174.315 188.254C173.937 188.433 173.479 188.522 172.943 188.522C172.405 188.522 171.936 188.429 171.537 188.243C171.137 188.056 170.826 187.773 170.604 187.393C170.382 187.013 170.268 186.533 170.262 185.952H171.75C171.763 186.191 171.818 186.391 171.916 186.551C172.015 186.711 172.15 186.832 172.322 186.914C172.495 186.996 172.696 187.037 172.924 187.037C173.134 187.037 173.312 187.005 173.458 186.939C173.607 186.874 173.721 186.783 173.801 186.667C173.88 186.551 173.921 186.418 173.923 186.268C173.921 186.127 173.883 186.007 173.81 185.908C173.737 185.806 173.624 185.719 173.471 185.647C173.32 185.572 173.127 185.503 172.893 185.44L172.221 185.258C171.664 185.11 171.226 184.872 170.905 184.543C170.585 184.211 170.426 183.763 170.428 183.199C170.426 182.739 170.533 182.336 170.748 181.99C170.964 181.644 171.262 181.374 171.643 181.18C172.024 180.987 172.459 180.89 172.946 180.89C173.445 180.89 173.877 180.988 174.243 181.184C174.612 181.378 174.897 181.65 175.1 182.001C175.304 182.352 175.407 182.759 175.411 183.221H173.923Z" fill="#0F0F0F"/>
<rect x="147.215" y="168.701" width="126.748" height="33.0511" rx="1" stroke="#0F0F0F" stroke-width="2"/>
<rect x="158.734" y="219.31" width="29.3301" height="15.4927" rx="1" fill="#FF8D2A" stroke="#0F0F0F" stroke-width="2"/>
<path d="M203.781 223.442H246.729M203.781 230.672H256.68" stroke="#0F0F0F" stroke-width="2" stroke-linecap="round"/>
<path d="M172.683 231.704V222.409H173.198V231.704H172.683ZM173.923 225.568C173.902 225.301 173.809 225.094 173.644 224.947C173.48 224.797 173.247 224.722 172.943 224.722C172.742 224.722 172.575 224.752 172.441 224.812C172.307 224.873 172.206 224.957 172.139 225.063C172.072 225.167 172.038 225.287 172.036 225.423C172.032 225.534 172.05 225.632 172.092 225.717C172.136 225.801 172.199 225.876 172.281 225.942C172.364 226.005 172.465 226.06 172.582 226.109C172.699 226.157 172.831 226.2 172.978 226.236L173.53 226.381C173.849 226.461 174.129 226.568 174.372 226.701C174.617 226.834 174.822 226.992 174.987 227.176C175.155 227.36 175.282 227.572 175.367 227.812C175.453 228.051 175.497 228.32 175.499 228.618C175.497 229.087 175.395 229.491 175.192 229.827C174.988 230.164 174.696 230.421 174.315 230.6C173.937 230.78 173.479 230.869 172.943 230.869C172.405 230.869 171.936 230.776 171.537 230.59C171.137 230.403 170.826 230.12 170.604 229.74C170.382 229.36 170.268 228.879 170.262 228.298H171.75C171.763 228.538 171.818 228.738 171.916 228.897C172.015 229.057 172.15 229.178 172.322 229.261C172.495 229.343 172.696 229.384 172.924 229.384C173.134 229.384 173.312 229.351 173.458 229.286C173.607 229.221 173.721 229.13 173.801 229.014C173.88 228.897 173.921 228.764 173.923 228.614C173.921 228.474 173.883 228.354 173.81 228.255C173.737 228.153 173.624 228.066 173.471 227.993C173.32 227.918 173.127 227.849 172.893 227.786L172.221 227.605C171.664 227.457 171.226 227.219 170.905 226.889C170.585 226.558 170.426 226.11 170.428 225.546C170.426 225.086 170.533 224.683 170.748 224.337C170.964 223.991 171.262 223.721 171.643 223.527C172.024 223.333 172.459 223.237 172.946 223.237C173.445 223.237 173.877 223.335 174.243 223.531C174.612 223.724 174.897 223.997 175.1 224.348C175.304 224.699 175.407 225.105 175.411 225.568H173.923Z" fill="#0F0F0F"/>
<path d="M172.683 231.704V222.409H173.198V231.704H172.683ZM173.923 225.568C173.902 225.301 173.809 225.094 173.644 224.947C173.48 224.797 173.247 224.722 172.943 224.722C172.742 224.722 172.575 224.752 172.441 224.812C172.307 224.873 172.206 224.957 172.139 225.063C172.072 225.167 172.038 225.287 172.036 225.423C172.032 225.534 172.05 225.632 172.092 225.717C172.136 225.801 172.199 225.876 172.281 225.942C172.364 226.005 172.465 226.06 172.582 226.109C172.699 226.157 172.831 226.2 172.978 226.236L173.53 226.381C173.849 226.461 174.129 226.568 174.372 226.701C174.617 226.834 174.822 226.992 174.987 227.176C175.155 227.36 175.282 227.572 175.367 227.812C175.453 228.051 175.497 228.32 175.499 228.618C175.497 229.087 175.395 229.491 175.192 229.827C174.988 230.164 174.696 230.421 174.315 230.6C173.937 230.78 173.479 230.869 172.943 230.869C172.405 230.869 171.936 230.776 171.537 230.59C171.137 230.403 170.826 230.12 170.604 229.74C170.382 229.36 170.268 228.879 170.262 228.298H171.75C171.763 228.538 171.818 228.738 171.916 228.897C172.015 229.057 172.15 229.178 172.322 229.261C172.495 229.343 172.696 229.384 172.924 229.384C173.134 229.384 173.312 229.351 173.458 229.286C173.607 229.221 173.721 229.13 173.801 229.014C173.88 228.897 173.921 228.764 173.923 228.614C173.921 228.474 173.883 228.354 173.81 228.255C173.737 228.153 173.624 228.066 173.471 227.993C173.32 227.918 173.127 227.849 172.893 227.786L172.221 227.605C171.664 227.457 171.226 227.219 170.905 226.889C170.585 226.558 170.426 226.11 170.428 225.546C170.426 225.086 170.533 224.683 170.748 224.337C170.964 223.991 171.262 223.721 171.643 223.527C172.024 223.333 172.459 223.237 172.946 223.237C173.445 223.237 173.877 223.335 174.243 223.531C174.612 223.724 174.897 223.997 175.1 224.348C175.304 224.699 175.407 225.105 175.411 225.568H173.923Z" fill="#0F0F0F"/>
<rect x="147.215" y="211.047" width="126.748" height="33.0511" rx="1" stroke="#0F0F0F" stroke-width="2"/>
<rect x="175.492" y="253.394" width="72.2778" height="26.854" rx="13.427" fill="#0F0F0F"/>
<path d="M205.524 261.66C205.932 262.031 206.233 262.475 206.427 262.993C206.621 263.5 206.696 264.008 206.653 264.516C206.61 265.002 206.454 265.452 206.185 265.864C205.916 266.266 205.508 266.573 204.959 266.784C204.529 266.964 204.104 267.091 203.685 267.165C203.265 267.239 202.803 267.297 202.298 267.339C202.072 267.36 201.878 267.376 201.717 267.387C201.566 267.387 201.389 267.392 201.185 267.403C201.141 267.403 201.066 267.403 200.959 267.403C200.862 267.403 200.792 267.408 200.749 267.419V270.702C200.717 270.903 200.674 271.109 200.62 271.321C200.577 271.532 200.453 271.696 200.249 271.813C200.131 271.876 199.985 271.913 199.813 271.924C199.641 271.934 199.485 271.929 199.346 271.908C199.195 271.887 199.066 271.85 198.958 271.797C198.862 271.733 198.781 271.628 198.717 271.479C198.673 271.384 198.63 271.279 198.587 271.162C198.555 271.035 198.539 270.882 198.539 270.702V261.93C198.539 261.856 198.544 261.787 198.555 261.724C198.566 261.66 198.577 261.597 198.587 261.533C198.609 261.481 198.625 261.422 198.636 261.359C198.647 261.296 198.663 261.237 198.684 261.185C198.706 261.132 198.727 261.084 198.749 261.042C198.781 260.999 198.819 260.962 198.862 260.931C198.915 260.878 198.996 260.83 199.104 260.788C199.222 260.746 199.394 260.724 199.62 260.724H199.652C199.985 260.703 200.356 260.687 200.765 260.677C201.174 260.656 201.512 260.661 201.781 260.693C201.932 260.714 202.072 260.73 202.201 260.74C202.33 260.74 202.453 260.746 202.572 260.756C202.701 260.767 202.83 260.777 202.959 260.788C203.088 260.799 203.217 260.814 203.346 260.836C203.454 260.857 203.55 260.873 203.636 260.883C203.733 260.894 203.83 260.91 203.927 260.931C204.013 260.952 204.104 260.973 204.201 260.994C204.308 261.015 204.405 261.052 204.491 261.105C204.717 261.169 204.905 261.248 205.056 261.343C205.206 261.438 205.362 261.544 205.524 261.66ZM204.556 264.278C204.567 264.024 204.513 263.802 204.395 263.612C204.287 263.421 204.131 263.263 203.927 263.136C203.722 263.009 203.491 262.908 203.233 262.834C202.975 262.76 202.717 262.707 202.459 262.676C202.394 262.676 202.303 262.676 202.185 262.676C202.077 262.665 201.959 262.66 201.83 262.66C201.701 262.649 201.577 262.644 201.459 262.644C201.351 262.633 201.265 262.628 201.201 262.628C201.147 262.617 201.082 262.612 201.007 262.612C200.932 262.612 200.846 262.612 200.749 262.612C200.76 262.94 200.765 263.257 200.765 263.564C200.765 263.86 200.765 264.183 200.765 264.532C200.754 264.722 200.749 264.912 200.749 265.103C200.749 265.293 200.749 265.478 200.749 265.658L201.749 265.642C202.007 265.642 202.292 265.626 202.604 265.594C202.916 265.563 203.212 265.499 203.491 265.404C203.771 265.309 204.007 265.171 204.201 264.992C204.405 264.812 204.524 264.574 204.556 264.278Z" fill="white"/>
<path d="M216.321 270.813C216.332 270.877 216.337 270.94 216.337 271.004C216.348 271.056 216.353 271.12 216.353 271.194C216.353 271.321 216.315 271.437 216.24 271.543C216.208 271.596 216.165 271.649 216.111 271.702C216.057 271.744 215.993 271.781 215.918 271.813C215.649 271.961 215.364 272.014 215.063 271.971C214.912 271.929 214.778 271.86 214.659 271.765C214.638 271.744 214.622 271.733 214.611 271.733C214.6 271.723 214.589 271.707 214.579 271.686C214.568 271.675 214.557 271.665 214.546 271.654C214.536 271.633 214.52 271.617 214.498 271.606C214.444 271.554 214.401 271.506 214.369 271.464C214.337 271.411 214.304 271.358 214.272 271.305C214.251 271.252 214.224 271.205 214.192 271.162C214.17 271.109 214.143 271.056 214.111 271.004C214.089 270.961 214.068 270.924 214.046 270.893C214.025 270.85 214.009 270.808 213.998 270.766C213.955 270.67 213.928 270.586 213.917 270.512L213.579 269.735C212.837 269.735 212.095 269.74 211.353 269.75C210.621 269.75 209.885 269.745 209.143 269.735L208.804 270.512C208.782 270.554 208.766 270.596 208.755 270.639C208.755 270.681 208.745 270.723 208.723 270.766C208.702 270.808 208.68 270.85 208.659 270.893C208.648 270.924 208.632 270.961 208.61 271.004C208.578 271.056 208.546 271.109 208.514 271.162C208.492 271.205 208.465 271.252 208.433 271.305C208.411 271.358 208.384 271.411 208.352 271.464C208.32 271.506 208.277 271.554 208.223 271.606C208.202 271.617 208.186 271.633 208.175 271.654C208.164 271.665 208.153 271.675 208.143 271.686C208.132 271.707 208.121 271.723 208.11 271.733C208.1 271.733 208.083 271.744 208.062 271.765C207.944 271.86 207.809 271.929 207.659 271.971C207.357 272.014 207.073 271.961 206.804 271.813C206.728 271.781 206.664 271.744 206.61 271.702C206.556 271.649 206.513 271.596 206.481 271.543C206.406 271.437 206.368 271.321 206.368 271.194C206.368 271.12 206.368 271.056 206.368 271.004C206.379 270.94 206.39 270.877 206.4 270.813C206.422 270.718 206.449 270.623 206.481 270.528C206.513 270.433 206.529 270.385 206.529 270.385L209.885 262.263L209.981 262.009C210.003 261.946 210.03 261.888 210.062 261.835C210.094 261.782 210.121 261.719 210.143 261.645C210.196 261.507 210.256 261.385 210.32 261.28C210.352 261.216 210.39 261.158 210.433 261.105C210.476 261.052 210.519 260.999 210.562 260.947C210.627 260.862 210.718 260.793 210.836 260.74C210.987 260.687 211.159 260.661 211.353 260.661C211.557 260.661 211.734 260.687 211.885 260.74C212.003 260.793 212.095 260.862 212.159 260.947C212.234 261.042 212.315 261.153 212.401 261.28C212.466 261.385 212.525 261.507 212.578 261.645C212.6 261.719 212.627 261.782 212.659 261.835C212.691 261.888 212.718 261.946 212.74 262.009L212.837 262.263L216.192 270.385C216.192 270.385 216.208 270.433 216.24 270.528C216.272 270.623 216.299 270.718 216.321 270.813ZM212.498 266.927C212.358 266.62 212.213 266.303 212.062 265.975C211.922 265.647 211.772 265.314 211.611 264.976C211.568 264.881 211.525 264.785 211.482 264.69C211.439 264.584 211.396 264.484 211.353 264.389C211.32 264.484 211.283 264.584 211.24 264.69C211.197 264.785 211.154 264.881 211.111 264.976C210.949 265.314 210.793 265.647 210.643 265.975C210.503 266.303 210.363 266.62 210.223 266.927L209.933 267.625H212.788L212.498 266.927Z" fill="white"/>
<path d="M224.719 261.343C224.729 261.396 224.729 261.449 224.719 261.502C224.719 261.555 224.702 261.613 224.67 261.676C224.627 261.824 224.579 261.957 224.525 262.073C224.461 262.221 224.38 262.348 224.283 262.454C224.24 262.517 224.197 262.58 224.154 262.644C224.122 262.697 224.09 262.75 224.057 262.803L223.848 263.072L221.783 266.007L221.412 266.467V270.686C221.39 270.739 221.38 270.792 221.38 270.845C221.38 270.898 221.374 270.956 221.363 271.019C221.342 271.072 221.326 271.125 221.315 271.178C221.304 271.22 221.288 271.268 221.267 271.321C221.245 271.363 221.234 271.395 221.234 271.416C221.224 271.437 221.213 271.453 221.202 271.464C221.202 271.474 221.197 271.49 221.186 271.511C221.121 271.617 221.03 271.712 220.912 271.797C220.675 271.913 220.406 271.94 220.105 271.876C219.933 271.855 219.804 271.802 219.718 271.717C219.664 271.686 219.621 271.649 219.589 271.606C219.557 271.564 219.525 271.517 219.492 271.464C219.471 271.4 219.449 271.342 219.428 271.289C219.406 271.236 219.39 271.183 219.379 271.131C219.358 271.078 219.347 271.03 219.347 270.988C219.347 270.935 219.347 270.887 219.347 270.845V266.514L218.992 265.975L216.895 263.056L216.718 262.771C216.653 262.676 216.573 262.565 216.476 262.438C216.39 262.321 216.314 262.194 216.25 262.057C216.207 261.994 216.169 261.93 216.137 261.867C216.116 261.793 216.094 261.719 216.073 261.645C216.04 261.539 216.035 261.433 216.056 261.327C216.089 261.19 216.153 261.073 216.25 260.978C216.358 260.883 216.47 260.809 216.589 260.756C216.739 260.65 216.911 260.608 217.105 260.629C217.223 260.629 217.325 260.65 217.411 260.693C217.497 260.735 217.583 260.783 217.669 260.836C217.766 260.91 217.858 260.989 217.944 261.073C218.04 261.158 218.127 261.248 218.202 261.343C218.288 261.449 218.368 261.549 218.444 261.645C218.519 261.729 218.594 261.83 218.67 261.946L218.718 262.009C218.976 262.348 219.218 262.676 219.444 262.993C219.67 263.3 219.906 263.633 220.154 263.992C220.175 264.013 220.207 264.056 220.25 264.119C220.293 264.183 220.342 264.257 220.396 264.341C220.439 264.267 220.476 264.204 220.508 264.151C220.552 264.087 220.584 264.045 220.605 264.024C220.853 263.664 221.089 263.326 221.315 263.009C221.541 262.691 221.783 262.364 222.041 262.025L222.073 261.962C222.159 261.867 222.234 261.771 222.299 261.676C222.374 261.571 222.455 261.465 222.541 261.359C222.681 261.169 222.869 261.005 223.106 260.867C223.278 260.751 223.455 260.677 223.638 260.645C223.842 260.624 224.02 260.666 224.17 260.772C224.235 260.814 224.294 260.851 224.348 260.883C224.412 260.915 224.466 260.952 224.509 260.994C224.595 261.089 224.665 261.206 224.719 261.343Z" fill="white"/>
<path d="M205.524 261.66C205.932 262.031 206.233 262.475 206.427 262.993C206.621 263.5 206.696 264.008 206.653 264.516C206.61 265.002 206.454 265.452 206.185 265.864C205.916 266.266 205.508 266.573 204.959 266.784C204.529 266.964 204.104 267.091 203.685 267.165C203.265 267.239 202.803 267.297 202.298 267.339C202.072 267.36 201.878 267.376 201.717 267.387C201.566 267.387 201.389 267.392 201.185 267.403C201.141 267.403 201.066 267.403 200.959 267.403C200.862 267.403 200.792 267.408 200.749 267.419V270.702C200.717 270.903 200.674 271.109 200.62 271.321C200.577 271.532 200.453 271.696 200.249 271.813C200.131 271.876 199.985 271.913 199.813 271.924C199.641 271.934 199.485 271.929 199.346 271.908C199.195 271.887 199.066 271.85 198.958 271.797C198.862 271.733 198.781 271.628 198.717 271.479C198.673 271.384 198.63 271.279 198.587 271.162C198.555 271.035 198.539 270.882 198.539 270.702V261.93C198.539 261.856 198.544 261.787 198.555 261.724C198.566 261.66 198.577 261.597 198.587 261.533C198.609 261.481 198.625 261.422 198.636 261.359C198.647 261.296 198.663 261.237 198.684 261.185C198.706 261.132 198.727 261.084 198.749 261.042C198.781 260.999 198.819 260.962 198.862 260.931C198.915 260.878 198.996 260.83 199.104 260.788C199.222 260.746 199.394 260.724 199.62 260.724H199.652C199.985 260.703 200.356 260.687 200.765 260.677C201.174 260.656 201.512 260.661 201.781 260.693C201.932 260.714 202.072 260.73 202.201 260.74C202.33 260.74 202.453 260.746 202.572 260.756C202.701 260.767 202.83 260.777 202.959 260.788C203.088 260.799 203.217 260.814 203.346 260.836C203.454 260.857 203.55 260.873 203.636 260.883C203.733 260.894 203.83 260.91 203.927 260.931C204.013 260.952 204.104 260.973 204.201 260.994C204.308 261.015 204.405 261.052 204.491 261.105C204.717 261.169 204.905 261.248 205.056 261.343C205.206 261.438 205.362 261.544 205.524 261.66ZM204.556 264.278C204.567 264.024 204.513 263.802 204.395 263.612C204.287 263.421 204.131 263.263 203.927 263.136C203.722 263.009 203.491 262.908 203.233 262.834C202.975 262.76 202.717 262.707 202.459 262.676C202.394 262.676 202.303 262.676 202.185 262.676C202.077 262.665 201.959 262.66 201.83 262.66C201.701 262.649 201.577 262.644 201.459 262.644C201.351 262.633 201.265 262.628 201.201 262.628C201.147 262.617 201.082 262.612 201.007 262.612C200.932 262.612 200.846 262.612 200.749 262.612C200.76 262.94 200.765 263.257 200.765 263.564C200.765 263.86 200.765 264.183 200.765 264.532C200.754 264.722 200.749 264.912 200.749 265.103C200.749 265.293 200.749 265.478 200.749 265.658L201.749 265.642C202.007 265.642 202.292 265.626 202.604 265.594C202.916 265.563 203.212 265.499 203.491 265.404C203.771 265.309 204.007 265.171 204.201 264.992C204.405 264.812 204.524 264.574 204.556 264.278Z" fill="white"/>
<path d="M216.321 270.813C216.332 270.877 216.337 270.94 216.337 271.004C216.348 271.056 216.353 271.12 216.353 271.194C216.353 271.321 216.315 271.437 216.24 271.543C216.208 271.596 216.165 271.649 216.111 271.702C216.057 271.744 215.993 271.781 215.918 271.813C215.649 271.961 215.364 272.014 215.063 271.971C214.912 271.929 214.778 271.86 214.659 271.765C214.638 271.744 214.622 271.733 214.611 271.733C214.6 271.723 214.589 271.707 214.579 271.686C214.568 271.675 214.557 271.665 214.546 271.654C214.536 271.633 214.52 271.617 214.498 271.606C214.444 271.554 214.401 271.506 214.369 271.464C214.337 271.411 214.304 271.358 214.272 271.305C214.251 271.252 214.224 271.205 214.192 271.162C214.17 271.109 214.143 271.056 214.111 271.004C214.089 270.961 214.068 270.924 214.046 270.893C214.025 270.85 214.009 270.808 213.998 270.766C213.955 270.67 213.928 270.586 213.917 270.512L213.579 269.735C212.837 269.735 212.095 269.74 211.353 269.75C210.621 269.75 209.885 269.745 209.143 269.735L208.804 270.512C208.782 270.554 208.766 270.596 208.755 270.639C208.755 270.681 208.745 270.723 208.723 270.766C208.702 270.808 208.68 270.85 208.659 270.893C208.648 270.924 208.632 270.961 208.61 271.004C208.578 271.056 208.546 271.109 208.514 271.162C208.492 271.205 208.465 271.252 208.433 271.305C208.411 271.358 208.384 271.411 208.352 271.464C208.32 271.506 208.277 271.554 208.223 271.606C208.202 271.617 208.186 271.633 208.175 271.654C208.164 271.665 208.153 271.675 208.143 271.686C208.132 271.707 208.121 271.723 208.11 271.733C208.1 271.733 208.083 271.744 208.062 271.765C207.944 271.86 207.809 271.929 207.659 271.971C207.357 272.014 207.073 271.961 206.804 271.813C206.728 271.781 206.664 271.744 206.61 271.702C206.556 271.649 206.513 271.596 206.481 271.543C206.406 271.437 206.368 271.321 206.368 271.194C206.368 271.12 206.368 271.056 206.368 271.004C206.379 270.94 206.39 270.877 206.4 270.813C206.422 270.718 206.449 270.623 206.481 270.528C206.513 270.433 206.529 270.385 206.529 270.385L209.885 262.263L209.981 262.009C210.003 261.946 210.03 261.888 210.062 261.835C210.094 261.782 210.121 261.719 210.143 261.645C210.196 261.507 210.256 261.385 210.32 261.28C210.352 261.216 210.39 261.158 210.433 261.105C210.476 261.052 210.519 260.999 210.562 260.947C210.627 260.862 210.718 260.793 210.836 260.74C210.987 260.687 211.159 260.661 211.353 260.661C211.557 260.661 211.734 260.687 211.885 260.74C212.003 260.793 212.095 260.862 212.159 260.947C212.234 261.042 212.315 261.153 212.401 261.28C212.466 261.385 212.525 261.507 212.578 261.645C212.6 261.719 212.627 261.782 212.659 261.835C212.691 261.888 212.718 261.946 212.74 262.009L212.837 262.263L216.192 270.385C216.192 270.385 216.208 270.433 216.24 270.528C216.272 270.623 216.299 270.718 216.321 270.813ZM212.498 266.927C212.358 266.62 212.213 266.303 212.062 265.975C211.922 265.647 211.772 265.314 211.611 264.976C211.568 264.881 211.525 264.785 211.482 264.69C211.439 264.584 211.396 264.484 211.353 264.389C211.32 264.484 211.283 264.584 211.24 264.69C211.197 264.785 211.154 264.881 211.111 264.976C210.949 265.314 210.793 265.647 210.643 265.975C210.503 266.303 210.363 266.62 210.223 266.927L209.933 267.625H212.788L212.498 266.927Z" fill="white"/>
<path d="M224.719 261.343C224.729 261.396 224.729 261.449 224.719 261.502C224.719 261.555 224.702 261.613 224.67 261.676C224.627 261.824 224.579 261.957 224.525 262.073C224.461 262.221 224.38 262.348 224.283 262.454C224.24 262.517 224.197 262.58 224.154 262.644C224.122 262.697 224.09 262.75 224.057 262.803L223.848 263.072L221.783 266.007L221.412 266.467V270.686C221.39 270.739 221.38 270.792 221.38 270.845C221.38 270.898 221.374 270.956 221.363 271.019C221.342 271.072 221.326 271.125 221.315 271.178C221.304 271.22 221.288 271.268 221.267 271.321C221.245 271.363 221.234 271.395 221.234 271.416C221.224 271.437 221.213 271.453 221.202 271.464C221.202 271.474 221.197 271.49 221.186 271.511C221.121 271.617 221.03 271.712 220.912 271.797C220.675 271.913 220.406 271.94 220.105 271.876C219.933 271.855 219.804 271.802 219.718 271.717C219.664 271.686 219.621 271.649 219.589 271.606C219.557 271.564 219.525 271.517 219.492 271.464C219.471 271.4 219.449 271.342 219.428 271.289C219.406 271.236 219.39 271.183 219.379 271.131C219.358 271.078 219.347 271.03 219.347 270.988C219.347 270.935 219.347 270.887 219.347 270.845V266.514L218.992 265.975L216.895 263.056L216.718 262.771C216.653 262.676 216.573 262.565 216.476 262.438C216.39 262.321 216.314 262.194 216.25 262.057C216.207 261.994 216.169 261.93 216.137 261.867C216.116 261.793 216.094 261.719 216.073 261.645C216.04 261.539 216.035 261.433 216.056 261.327C216.089 261.19 216.153 261.073 216.25 260.978C216.358 260.883 216.47 260.809 216.589 260.756C216.739 260.65 216.911 260.608 217.105 260.629C217.223 260.629 217.325 260.65 217.411 260.693C217.497 260.735 217.583 260.783 217.669 260.836C217.766 260.91 217.858 260.989 217.944 261.073C218.04 261.158 218.127 261.248 218.202 261.343C218.288 261.449 218.368 261.549 218.444 261.645C218.519 261.729 218.594 261.83 218.67 261.946L218.718 262.009C218.976 262.348 219.218 262.676 219.444 262.993C219.67 263.3 219.906 263.633 220.154 263.992C220.175 264.013 220.207 264.056 220.25 264.119C220.293 264.183 220.342 264.257 220.396 264.341C220.439 264.267 220.476 264.204 220.508 264.151C220.552 264.087 220.584 264.045 220.605 264.024C220.853 263.664 221.089 263.326 221.315 263.009C221.541 262.691 221.783 262.364 222.041 262.025L222.073 261.962C222.159 261.867 222.234 261.771 222.299 261.676C222.374 261.571 222.455 261.465 222.541 261.359C222.681 261.169 222.869 261.005 223.106 260.867C223.278 260.751 223.455 260.677 223.638 260.645C223.842 260.624 224.02 260.666 224.17 260.772C224.235 260.814 224.294 260.851 224.348 260.883C224.412 260.915 224.466 260.952 224.509 260.994C224.595 261.089 224.665 261.206 224.719 261.343Z" fill="white"/>
<path d="M415.894 301.938H1.08203" stroke="#0F0F0F" stroke-width="2" stroke-linecap="round"/>
<path d="M113.689 21.5201C113.689 32.6434 104.543 41.6607 93.2623 41.6607C81.9811 41.6607 72.8359 32.6434 72.8359 21.5201C72.8359 10.3969 81.9811 1.37964 93.2623 1.37964C104.543 1.37964 113.689 10.3969 113.689 21.5201Z" fill="white" stroke="#0F0F0F" stroke-width="2"/>
<path d="M73.3594 17.9052C81.3237 17.8152 85.8375 17.4929 90.9909 10.6116C91.3635 10.1141 92.0951 10.0468 92.5474 10.4733C97.7464 15.3754 102.208 16.8917 112.641 16.3559L110.022 10.1588L104.261 4.47818L96.4045 1.37964H91.6907L85.9294 2.92891L79.6444 6.54387L75.4544 11.7081L73.3594 17.9052Z" fill="#0F0F0F"/>
<path d="M84.3574 24.6186C84.3574 25.4742 83.6539 26.1679 82.7861 26.1679C81.9183 26.1679 81.2148 25.4742 81.2148 24.6186C81.2148 23.763 81.9183 23.0693 82.7861 23.0693C83.6539 23.0693 84.3574 23.763 84.3574 24.6186Z" fill="#0F0F0F"/>
<path d="M100.07 24.6186C100.07 25.4742 99.3665 26.1679 98.4987 26.1679C97.6309 26.1679 96.9274 25.4742 96.9274 24.6186C96.9274 23.763 97.6309 23.0693 98.4987 23.0693C99.3665 23.0693 100.07 23.763 100.07 24.6186Z" fill="#0F0F0F"/>
<path d="M92.2136 28.4918V17.6469C92.2136 17.5043 92.0964 17.3887 91.9518 17.3887H91.3419C91.2356 17.3887 91.1398 17.4521 91.0996 17.5491L86.6001 28.394C86.5296 28.5639 86.6563 28.75 86.8424 28.75H91.9518C92.0964 28.75 92.2136 28.6344 92.2136 28.4918Z" fill="#0F0F0F"/>
<path d="M78.0742 23.0695C79.7693 19.9357 80.591 18.0557 85.4068 17.9053M105.309 23.0695C103.614 19.9357 102.793 18.0557 97.9768 17.9053" stroke="#0F0F0F" stroke-width="2" stroke-linecap="round"/>
<path d="M59.284 283.909L59.746 282.314L86.9811 285.929L83.3149 301.422H40.3672L41.4555 297.344C42.4144 293.751 45.0944 290.847 48.632 289.568L56.6976 286.652C57.9549 286.198 58.9161 285.178 59.284 283.909Z" fill="#FF8D2A"/>
<path d="M99.1471 255.857L91.1712 254.427L88.0286 284.896H90.6167C90.9636 284.896 91.2879 285.065 91.4829 285.348L99.7632 297.355C99.9582 297.638 100.283 297.807 100.629 297.807H109.288C109.944 297.807 110.438 297.219 110.317 296.584L103.358 259.986C102.958 257.882 101.283 256.24 99.1471 255.857Z" fill="#FF8D2A"/>
<path d="M59.284 283.909L59.746 282.314L86.9811 285.929L83.3149 301.422H40.3672L41.4555 297.344C42.4144 293.751 45.0944 290.847 48.632 289.568L56.6976 286.652C57.9549 286.198 58.9161 285.178 59.284 283.909Z" stroke="#0F0F0F" stroke-width="2"/>
<path d="M99.1471 255.857L91.1712 254.427L88.0286 284.896H90.6167C90.9636 284.896 91.2879 285.065 91.4829 285.348L99.7632 297.355C99.9582 297.638 100.283 297.807 100.629 297.807H109.288C109.944 297.807 110.438 297.219 110.317 296.584L103.358 259.986C102.958 257.882 101.283 256.24 99.1471 255.857Z" stroke="#0F0F0F" stroke-width="2"/>
<path fill-rule="evenodd" clip-rule="evenodd" d="M56.6038 129.453C18.7324 190.061 28.7499 217.172 61.2421 259.075L58.8039 281.336C58.7439 281.884 59.1302 282.381 59.6819 282.467L80.1701 285.657L87.4992 286.798C88.0772 286.888 88.6178 286.494 88.6998 285.923L103.876 180.175C104.132 178.396 104.759 176.686 105.66 175.125C114.605 159.605 115.618 148.774 115.262 129.453H100.073H56.6038ZM65.2018 222.925L54.5087 204.85L68.3129 194.522L65.2018 222.925Z" fill="white"/>
<path d="M66.0313 145.978L70.941 151.193C72.1448 152.472 72.728 154.214 72.5367 155.959L58.8039 281.336M100.073 129.453H115.262C115.618 148.774 114.605 159.605 105.66 175.125M100.073 129.453H56.6037C18.7324 190.061 28.7499 217.172 61.2421 259.075L58.8039 281.336M100.073 129.453L80.1701 285.657M80.1701 285.657L87.4992 286.798M80.1701 285.657L59.6819 282.467M105.66 175.125C104.759 176.686 104.132 178.396 103.876 180.175M105.66 175.125C105.647 175.146 105.635 175.167 105.623 175.189C104.744 176.711 104.134 178.377 103.885 180.117L103.876 180.175M103.876 180.175L88.6998 285.923M88.6998 285.923C88.6178 286.494 88.0772 286.888 87.4992 286.798M88.6998 285.923L88.6944 285.96C88.6153 286.511 88.101 286.892 87.5507 286.806L87.4992 286.798M59.6819 282.467C59.1302 282.381 58.7439 281.884 58.8039 281.336M59.6819 282.467L59.6411 282.461C59.1128 282.379 58.7426 281.895 58.8008 281.364L58.8039 281.336M65.2018 222.925L54.5087 204.85L68.3129 194.522L65.2018 222.925Z" stroke="#0F0F0F" stroke-width="2" stroke-linecap="round"/>
<path d="M65.007 67.3987L62.8839 73.6789L54.5039 129.969H116.307C118.24 118.897 119.688 113.22 119.449 98.9836L134.638 67.9982C126.794 60.6727 121.206 56.2822 111.479 50.3757C108.148 48.3528 104.297 47.2735 100.409 47.5473C90.0293 48.2782 83.0807 50.9554 74.591 55.6652C70.0247 58.1985 66.6794 62.4518 65.007 67.3987Z" fill="#0F0F0F"/>
<path d="M132.266 107.255L113.169 90.7206L132.548 66.4487C175.815 102.351 166.373 119.592 104.694 146.086C104.145 146.322 103.488 146.161 103.127 145.686C102.631 145.034 102.853 144.092 103.587 143.73L111.471 139.843C111.498 139.83 111.487 139.788 111.456 139.79L96.649 140.763C96.1856 140.794 95.7488 140.545 95.5387 140.131C95.1885 139.44 95.6007 138.607 96.3621 138.466L111.257 135.712C111.305 135.704 111.3 135.634 111.252 135.631L93.7246 134.697C92.8803 134.652 92.2188 133.954 92.2188 133.109C92.2188 132.23 92.9309 131.518 93.8093 131.518H111.071C111.139 131.518 111.15 131.42 111.083 131.405L98.3724 128.62C97.8375 128.503 97.4563 128.029 97.4563 127.482C97.4563 126.853 97.9551 126.337 98.5835 126.317L113.142 125.838C113.159 125.838 113.175 125.829 113.184 125.815L115.406 122.529C115.822 121.914 116.74 121.951 117.105 122.599L118.266 124.659C118.596 125.245 119.399 125.344 119.862 124.857L132.477 111.59C133.656 110.349 133.56 108.375 132.266 107.255Z" fill="white" stroke="#0F0F0F" stroke-width="2"/>
<path d="M75.9784 90.7209L59.4099 94.6813C58.9807 94.7839 58.5324 94.61 58.289 94.2467L40.3633 67.4818L42.4583 61.8012L57.6471 55.0876L77.0259 85.5566L75.9784 90.7209Z" fill="#FF8D2A"/>
<path d="M56.0758 65.9325C56.0758 66.7882 55.3724 67.4818 54.5046 67.4818C53.6368 67.4818 52.9333 66.7882 52.9333 65.9325C52.9333 65.0769 53.6368 64.3833 54.5046 64.3833C55.3724 64.3833 56.0758 65.0769 56.0758 65.9325Z" fill="#FF8D2A"/>
<path d="M59.2184 70.0639C59.2184 70.9196 58.5149 71.6132 57.6471 71.6132C56.7793 71.6132 56.0758 70.9196 56.0758 70.0639C56.0758 69.2083 56.7793 68.5147 57.6471 68.5147C58.5149 68.5147 59.2184 69.2083 59.2184 70.0639Z" fill="#FF8D2A"/>
<path d="M40.3633 67.4818L56.0758 60.2519M40.3633 67.4818L58.289 94.2467C58.5324 94.61 58.9807 94.7839 59.4099 94.6813L75.9784 90.7209M40.3633 67.4818L42.4583 61.8012L57.6471 55.0876M56.0758 60.2519L75.9784 90.7209M56.0758 60.2519L57.6471 55.0876M75.9784 90.7209L77.0259 85.5566L57.6471 55.0876M56.0758 65.9325C56.0758 66.7882 55.3724 67.4818 54.5046 67.4818C53.6368 67.4818 52.9333 66.7882 52.9333 65.9325C52.9333 65.0769 53.6368 64.3833 54.5046 64.3833C55.3724 64.3833 56.0758 65.0769 56.0758 65.9325ZM59.2184 70.0639C59.2184 70.9196 58.5149 71.6132 57.6471 71.6132C56.7793 71.6132 56.0758 70.9196 56.0758 70.0639C56.0758 69.2083 56.7793 68.5147 57.6471 68.5147C58.5149 68.5147 59.2184 69.2083 59.2184 70.0639Z" stroke="#0F0F0F" stroke-width="2"/>
<path d="M49.7945 76.7415L55.5512 72.1296L50.961 83.1931C50.9161 83.3013 51.0257 83.4092 51.1333 83.3626L62.6593 78.3621C63.4112 78.0359 64.2883 78.2505 64.8047 78.8869C65.4672 79.7035 65.3053 80.9094 64.4507 81.5222L55.0647 88.2528C54.979 88.3143 55.0505 88.4478 55.1492 88.4104L67.5975 83.6895C67.9166 83.5685 68.277 83.6446 68.52 83.8842C68.8737 84.2329 68.8655 84.8061 68.502 85.1446L59.9677 93.092C59.9042 93.1512 59.959 93.2563 60.0438 93.2381L70.818 90.9287C71.3894 90.8062 71.9716 91.084 72.2359 91.6051C72.5639 92.2521 72.2929 93.0422 71.6369 93.3516L60.9445 98.3937C60.8494 98.4386 60.7887 98.5344 60.7887 98.6396V102.99C60.7887 103.731 60.4918 104.441 59.9645 104.961L59.8667 105.057C59.1525 105.761 58.9166 106.818 59.2637 107.759C60.2724 110.494 60.7887 113.386 60.7887 116.302V120.293C60.7887 122.601 60.6699 124.999 59.5295 127.006C58.9332 128.055 58.1412 128.961 56.9564 129.885C55.4348 131.072 53.486 131.518 51.5562 131.518C50.3864 131.518 49.2059 131.368 48.147 130.871C47.1575 130.406 46.3107 129.84 45.513 129.063C42.4941 126.123 41.9336 121.572 41.9336 117.358C41.9336 115.102 42.2054 112.848 42.8421 110.684C44.1352 106.288 45.4505 103.06 47.7744 98.6971C48.3529 97.6111 48.2614 96.2857 47.5165 95.3063C47.2924 95.0118 47.1711 94.6519 47.1711 94.2818V82.2045C47.1711 80.0798 48.1362 78.07 49.7945 76.7415Z" fill="white" stroke="#0F0F0F" stroke-width="2" stroke-linejoin="round"/>
</svg>
