<svg width="418" height="326" viewBox="0 0 418 326" fill="none" xmlns="http://www.w3.org/2000/svg">
<path d="M18.1492 318.107L17.3906 319.496L399.73 318.98L409.157 297.29L410.095 295.441C411.907 291.867 413.279 288.086 414.179 284.181C415.018 280.538 415.442 276.811 415.442 273.073V269.403V257.009V254.462C415.442 251.354 415.036 248.258 414.235 245.254L413.992 244.345C413.218 241.443 412.006 238.677 410.398 236.14C408.538 233.206 406.175 230.622 403.419 228.508L402.872 228.089L396.064 223.442L246.703 120.87C237.031 114.228 226.508 108.921 215.417 105.094L214.83 104.891C205.446 101.653 195.71 99.5418 185.827 98.6026L175.537 97.6246C163.49 96.4797 151.341 98.0771 140 102.297L118.236 110.395C107.857 114.257 99.9542 122.854 96.9791 133.522L87.0625 169.077C85.7534 173.771 80.281 175.865 76.1731 173.244C75.7436 172.97 75.3443 172.652 74.9816 172.294L71.6968 169.055C69.0389 166.435 65.8908 164.363 62.4322 162.959C60.0005 161.972 57.4437 161.326 54.8348 161.04L51.36 160.659C50.0173 160.512 48.6622 160.517 47.3204 160.672C42.8888 161.186 38.8054 163.326 35.86 166.677L35.1743 167.457C34.146 168.627 33.2529 169.909 32.5118 171.279L31.141 173.813C30.0066 175.91 29.0364 178.092 28.2388 180.339L25.7707 187.292C23.3337 195.874 21.8364 204.695 21.3051 213.6L21.0569 217.761L21.8127 229.312C22.0069 232.28 22.4162 235.23 23.0373 238.139C23.8105 241.76 24.909 245.304 26.3195 248.728L31.0082 260.108L34.4788 268.853C35.3058 270.937 35.936 273.093 36.3612 275.294C37.3209 280.262 37.2209 285.377 36.0679 290.304L35.8815 291.1C35.0816 294.518 33.7591 297.792 31.9608 300.806C30.2869 303.612 28.2187 306.163 25.8194 308.38L25.5117 308.665C22.5615 311.392 20.0748 314.581 18.1492 318.107Z" fill="#FFBF88"/>
<path d="M0.105469 319.496H417.536" stroke="#0F0F0F" stroke-width="2"/>
<path d="M381.396 1.37964H233.698C224.441 1.37964 216.938 8.77839 216.938 17.9052V275.6C216.938 284.727 224.441 292.126 233.698 292.126H381.396C390.652 292.126 398.156 284.727 398.156 275.6V17.9052C398.156 8.77838 390.652 1.37964 381.396 1.37964Z" fill="white"/>
<path d="M370.921 1.37964H233.698C224.441 1.37964 216.938 8.77839 216.938 17.9052V276.117C216.938 285.244 224.441 292.642 233.698 292.642H370.921C380.177 292.642 387.681 285.244 387.681 276.117V17.9052C387.681 8.77838 380.177 1.37964 370.921 1.37964Z" fill="white"/>
<path d="M361.493 7.57672H241.03C231.774 7.57672 224.27 14.9755 224.27 24.1023V269.92C224.27 279.047 231.774 286.445 241.03 286.445H361.493C370.749 286.445 378.253 279.047 378.253 269.92V24.1023C378.253 14.9755 370.749 7.57672 361.493 7.57672Z" fill="white"/>
<path d="M233.698 1.37964H381.396C390.652 1.37964 398.156 8.77838 398.156 17.9052V275.6C398.156 284.727 390.652 292.126 381.396 292.126H233.698C224.441 292.126 216.938 284.727 216.938 275.6V17.9052M233.698 1.37964C224.441 1.37964 216.938 8.77839 216.938 17.9052M233.698 1.37964H370.921C380.177 1.37964 387.681 8.77838 387.681 17.9052V276.117C387.681 285.244 380.177 292.642 370.921 292.642H233.698C224.441 292.642 216.938 285.244 216.938 276.117V17.9052M268.789 8.09314V16.8723C268.789 22.0062 273.01 26.168 278.217 26.168H324.83C330.037 26.168 334.258 22.0062 334.258 16.8723V8.09314M241.03 7.57672H361.493C370.749 7.57672 378.253 14.9755 378.253 24.1023V269.92C378.253 279.047 370.749 286.445 361.493 286.445H241.03C231.774 286.445 224.27 279.047 224.27 269.92V24.1023C224.27 14.9755 231.774 7.57672 241.03 7.57672Z" stroke="#0F0F0F" stroke-width="2" stroke-linecap="round"/>
<path d="M382.442 6.02745L374.586 1.89606L385.061 1.37964L390.299 3.96176L395.536 8.60957L398.155 15.3231V252.878L398.679 273.018L397.631 279.215L395.536 283.863L388.727 290.577L381.918 292.126L377.205 291.61L384.537 285.412L387.68 278.48V22.0366L386.632 12.741L382.442 6.02745Z" fill="#FF8D2A"/>
<path d="M233.698 1.37964H381.396C390.652 1.37964 398.156 8.77838 398.156 17.9052V275.6C398.156 284.727 390.652 292.126 381.396 292.126H233.698C224.441 292.126 216.938 284.727 216.938 275.6V17.9052M233.698 1.37964C224.441 1.37964 216.938 8.77839 216.938 17.9052M233.698 1.37964H370.921C380.177 1.37964 387.681 8.77838 387.681 17.9052V276.117C387.681 285.244 380.177 292.642 370.921 292.642H233.698C224.441 292.642 216.938 285.244 216.938 276.117V17.9052M268.789 8.09314V16.8723C268.789 22.0062 273.01 26.168 278.217 26.168H324.83C330.037 26.168 334.258 22.0062 334.258 16.8723V8.09314M241.03 7.57672H361.493C370.749 7.57672 378.253 14.9755 378.253 24.1023V269.92C378.253 279.047 370.749 286.445 361.493 286.445H241.03C231.774 286.445 224.27 279.047 224.27 269.92V24.1023C224.27 14.9755 231.774 7.57672 241.03 7.57672Z" stroke="#0F0F0F" stroke-width="2" stroke-linecap="round"/>
<path d="M259.363 219.827H342.116" stroke="#0F0F0F" stroke-width="11" stroke-linecap="round"/>
<rect x="248.367" y="208.982" width="104.75" height="21.6898" rx="10.8449" stroke="#0F0F0F" stroke-width="2"/>
<path d="M222.368 310.989C248.629 282.35 218.798 223.42 256.744 222.409H334.26C309.746 232.694 328.341 279.339 304.706 312.367C304.52 312.627 304.217 312.783 303.897 312.783H223.108C222.205 312.783 221.757 311.654 222.368 310.989Z" fill="white"/>
<path d="M250.983 231.704H263.029M246.269 239.967H305.977M246.269 248.746H272.457M246.269 258.558H298.645M244.174 266.305H287.646M250.983 275.6H305.977M243.127 283.347H259.363M236.842 301.938H285.551M256.744 222.409C218.798 223.42 248.629 282.35 222.368 310.989C221.757 311.654 222.205 312.783 223.108 312.783H303.897C304.217 312.783 304.52 312.627 304.706 312.367C328.341 279.339 309.746 232.694 334.26 222.409H256.744Z" stroke="#0F0F0F" stroke-width="2" stroke-linecap="round"/>
<ellipse cx="301.785" cy="124.288" rx="57.6127" ry="56.8066" fill="#0F0F0F"/>
<path d="M278.738 122.223L294.451 139.265L325.876 105.697" stroke="white" stroke-width="20" stroke-linecap="round" stroke-linejoin="round"/>
<path d="M274.721 40.6279C274.702 40.0629 275.155 39.5947 275.72 39.5947H275.994C276.559 39.5947 277.012 40.0629 276.993 40.6279L276.914 43.012H274.8L274.721 40.6279ZM274.8 53.868H276.895L276.973 56.1187C276.992 56.6841 276.539 57.1531 275.973 57.1531H275.721C275.156 57.1531 274.703 56.6841 274.722 56.1187L274.8 53.868ZM279.123 45.2852C278.629 45.5692 278.009 45.372 277.648 44.931C277.624 44.9013 277.6 44.8721 277.575 44.8434C277.348 44.5665 277.097 44.3588 276.82 44.2203C276.543 44.0693 276.234 43.9938 275.895 43.9938C275.555 43.9938 275.272 44.0504 275.045 44.1637C274.831 44.2644 274.668 44.4028 274.554 44.579C274.454 44.7553 274.403 44.9566 274.403 45.1832C274.403 45.5608 274.542 45.8629 274.819 46.0894C275.108 46.316 275.479 46.5174 275.932 46.6936C276.398 46.8572 276.895 47.0397 277.424 47.2411C277.877 47.4048 278.305 47.6061 278.707 47.8453C279.11 48.0718 279.469 48.3488 279.784 48.676C280.098 49.0033 280.344 49.3871 280.52 49.8277C280.709 50.2556 280.803 50.7591 280.803 51.3381C280.803 52.1562 280.595 52.8611 280.18 53.4526C279.765 54.0316 279.179 54.4722 278.424 54.7742C277.669 55.0763 276.769 55.2274 275.725 55.2274C274.932 55.2274 274.177 55.0763 273.459 54.7742C272.755 54.4596 272.132 54.0505 271.59 53.547C271.272 53.251 271 52.9375 270.773 52.6067C270.501 52.2096 270.648 51.6844 271.042 51.4068L271.727 50.9231C272.203 50.5869 272.857 50.7339 273.208 51.1992C273.324 51.3517 273.439 51.4924 273.554 51.6213C273.868 51.9737 274.208 52.238 274.573 52.4142C274.951 52.5905 275.366 52.6786 275.819 52.6786C276.197 52.6786 276.499 52.6282 276.725 52.5275C276.964 52.4268 277.141 52.2821 277.254 52.0933C277.38 51.8919 277.443 51.6527 277.443 51.3758C277.443 51.0234 277.317 50.7339 277.065 50.5074C276.826 50.2682 276.499 50.0605 276.083 49.8843C275.681 49.7081 275.221 49.5193 274.705 49.3179C274.378 49.2046 274.007 49.0473 273.591 48.8459C273.189 48.6319 272.799 48.3613 272.421 48.0341C272.056 47.7068 271.748 47.3166 271.496 46.8635C271.257 46.3978 271.137 45.844 271.137 45.2021C271.137 44.5602 271.332 43.9686 271.723 43.4274C272.125 42.8861 272.673 42.4519 273.365 42.1246C274.07 41.7974 274.881 41.6338 275.8 41.6338C276.719 41.6338 277.48 41.7659 278.084 42.0302C278.701 42.2946 279.211 42.6407 279.614 43.0686C279.779 43.2441 279.932 43.4237 280.074 43.6076C280.407 44.0397 280.235 44.6461 279.762 44.918L279.123 45.2852Z" fill="#0F0F0F"/>
<path d="M284.633 55.0386C283.751 55.0386 283.301 53.9786 283.914 53.3438L288.167 48.9403C288.52 48.5501 288.822 48.1977 289.073 47.883C289.338 47.5684 289.533 47.26 289.659 46.9579C289.797 46.6433 289.866 46.3097 289.866 45.9573C289.866 45.7559 289.829 45.5545 289.753 45.3531C289.678 45.1517 289.564 44.9755 289.413 44.8245C289.262 44.6609 289.073 44.535 288.847 44.4469C288.62 44.3462 288.356 44.2958 288.054 44.2958C287.651 44.2958 287.293 44.3965 286.978 44.5979C286.676 44.7993 286.443 45.0825 286.279 45.4475C286.243 45.5364 286.21 45.6287 286.183 45.7243C286.028 46.2546 285.605 46.7125 285.053 46.7125H283.919C283.367 46.7125 282.909 46.2618 282.996 45.7165C283.087 45.1531 283.256 44.6229 283.504 44.1259C283.895 43.3456 284.48 42.7225 285.26 42.2568C286.053 41.7911 287.016 41.5582 288.148 41.5582C288.966 41.5582 289.69 41.6841 290.319 41.9358C290.949 42.175 291.471 42.5022 291.886 42.9176C292.314 43.3204 292.635 43.7672 292.849 44.2581C293.063 44.749 293.17 45.2461 293.17 45.7496C293.17 46.467 292.994 47.1278 292.641 47.732C292.289 48.3236 291.83 48.8648 291.263 49.3557L290.134 50.3673C289.451 50.9796 289.884 52.1122 290.801 52.1122H292.472C293.024 52.1122 293.472 52.5599 293.472 53.1122V54.0386C293.472 54.5908 293.024 55.0386 292.472 55.0386H284.633Z" fill="#0F0F0F"/>
<path d="M295.855 44.8056C295.303 44.8056 294.855 44.3579 294.855 43.8056V42.8226C294.855 42.2703 295.303 41.8226 295.855 41.8226H304.041C304.778 41.8226 305.262 42.5934 304.942 43.2574L299.526 54.4733C299.36 54.8189 299.01 55.0386 298.626 55.0386H297.422C296.677 55.0386 296.194 54.2538 296.529 53.5887L300.222 46.2554C300.557 45.5904 300.074 44.8056 299.329 44.8056H295.855Z" fill="#0F0F0F"/>
<path d="M302.601 53.7547C302.601 53.2764 302.771 52.8674 303.11 52.5275C303.45 52.1877 303.872 52.0178 304.375 52.0178C304.904 52.0178 305.332 52.1877 305.659 52.5275C305.986 52.8674 306.15 53.2764 306.15 53.7547C306.15 54.233 305.986 54.6421 305.659 54.9819C305.332 55.3218 304.904 55.4917 304.375 55.4917C303.872 55.4917 303.45 55.3218 303.11 54.9819C302.771 54.6421 302.601 54.233 302.601 53.7547Z" fill="#0F0F0F"/>
<path d="M314.554 46.467C314.554 46.0139 314.453 45.6237 314.252 45.2965C314.063 44.9566 313.799 44.6986 313.459 44.5224C313.132 44.3336 312.761 44.2392 312.345 44.2392C311.918 44.2392 311.534 44.3336 311.194 44.5224C310.867 44.6986 310.602 44.9566 310.401 45.2965C310.212 45.6237 310.118 46.0139 310.118 46.467C310.118 46.9076 310.212 47.2978 310.401 47.6376C310.602 47.9774 310.867 48.2418 311.194 48.4306C311.534 48.6194 311.918 48.7138 312.345 48.7138C312.761 48.7138 313.132 48.6194 313.459 48.4306C313.799 48.2418 314.063 47.9774 314.252 47.6376C314.453 47.2978 314.554 46.9076 314.554 46.467ZM312.665 54.5998C312.475 54.8411 312.185 54.9819 311.878 54.9819H310.565C309.7 54.9819 309.243 53.958 309.821 53.3141L312.61 50.2053L313.252 49.9221C312.899 50.2619 312.559 50.4885 312.232 50.6018C311.918 50.7025 311.521 50.7528 311.043 50.7528C310.552 50.7528 310.061 50.6584 309.57 50.4696C309.092 50.2682 308.658 49.985 308.268 49.62C307.878 49.2424 307.563 48.7893 307.324 48.2606C307.085 47.732 306.965 47.1341 306.965 46.467C306.965 45.372 307.204 44.4595 307.682 43.7294C308.173 42.9994 308.821 42.4519 309.627 42.0869C310.445 41.7093 311.351 41.5205 312.345 41.5205C313.327 41.5205 314.221 41.7093 315.026 42.0869C315.844 42.4519 316.492 42.9994 316.971 43.7294C317.461 44.4595 317.707 45.372 317.707 46.467C317.707 47.1719 317.556 47.8264 317.254 48.4306C316.964 49.0347 316.606 49.6011 316.178 50.1298L312.665 54.5998Z" fill="#0F0F0F"/>
<path d="M330.071 50.8094C330.071 51.5898 329.914 52.2632 329.599 52.8296C329.297 53.396 328.882 53.8617 328.353 54.2267C327.837 54.5917 327.264 54.8623 326.635 55.0386C326.019 55.2022 325.389 55.284 324.747 55.284C323.942 55.284 323.212 55.2022 322.558 55.0386C321.903 54.8875 321.324 54.6861 320.821 54.4344C320.574 54.3048 320.338 54.1692 320.112 54.0275C319.711 53.7755 319.588 53.2591 319.791 52.8312L320.137 52.1024C320.417 51.5135 321.175 51.3518 321.739 51.6793C321.76 51.6915 321.781 51.7037 321.802 51.7157C322.193 51.9171 322.583 52.0807 322.973 52.2066C323.363 52.3198 323.715 52.3765 324.03 52.3765C324.571 52.3765 325.031 52.3073 325.408 52.1688C325.786 52.0303 326.075 51.8164 326.277 51.5269C326.478 51.2374 326.579 50.885 326.579 50.4696C326.579 50.0291 326.453 49.6766 326.201 49.4123C325.962 49.1354 325.647 48.934 325.257 48.8082C324.88 48.6823 324.471 48.6194 324.03 48.6194C323.69 48.6194 323.313 48.6445 322.897 48.6949C322.495 48.7326 322.073 48.8145 321.632 48.9403C321.091 49.0838 320.513 48.6159 320.645 48.0712L321.976 42.5868C322.084 42.1384 322.486 41.8226 322.948 41.8226H328.788C329.34 41.8226 329.788 42.2703 329.788 42.8226V43.579C329.788 44.1313 329.34 44.579 328.788 44.579H325.103C324.745 44.579 324.428 44.8104 324.319 45.1512L324.097 45.8438C323.963 46.2622 324.408 46.6714 324.842 46.5992C325.232 46.5237 325.635 46.4859 326.05 46.4859C326.755 46.4859 327.409 46.6558 328.013 46.9957C328.63 47.3355 329.127 47.8264 329.505 48.4683C329.882 49.1102 330.071 49.8906 330.071 50.8094Z" fill="#0F0F0F"/>
<path d="M274.721 40.6279C274.702 40.0629 275.155 39.5947 275.72 39.5947H275.994C276.559 39.5947 277.012 40.0629 276.993 40.6279L276.914 43.012H274.8L274.721 40.6279ZM274.8 53.868H276.895L276.973 56.1187C276.992 56.6841 276.539 57.1531 275.973 57.1531H275.721C275.156 57.1531 274.703 56.6841 274.722 56.1187L274.8 53.868ZM279.123 45.2852C278.629 45.5692 278.009 45.372 277.648 44.931C277.624 44.9013 277.6 44.8721 277.575 44.8434C277.348 44.5665 277.097 44.3588 276.82 44.2203C276.543 44.0693 276.234 43.9938 275.895 43.9938C275.555 43.9938 275.272 44.0504 275.045 44.1637C274.831 44.2644 274.668 44.4028 274.554 44.579C274.454 44.7553 274.403 44.9566 274.403 45.1832C274.403 45.5608 274.542 45.8629 274.819 46.0894C275.108 46.316 275.479 46.5174 275.932 46.6936C276.398 46.8572 276.895 47.0397 277.424 47.2411C277.877 47.4048 278.305 47.6061 278.707 47.8453C279.11 48.0718 279.469 48.3488 279.784 48.676C280.098 49.0033 280.344 49.3871 280.52 49.8277C280.709 50.2556 280.803 50.7591 280.803 51.3381C280.803 52.1562 280.595 52.8611 280.18 53.4526C279.765 54.0316 279.179 54.4722 278.424 54.7742C277.669 55.0763 276.769 55.2274 275.725 55.2274C274.932 55.2274 274.177 55.0763 273.459 54.7742C272.755 54.4596 272.132 54.0505 271.59 53.547C271.272 53.251 271 52.9375 270.773 52.6067C270.501 52.2096 270.648 51.6844 271.042 51.4068L271.727 50.9231C272.203 50.5869 272.857 50.7339 273.208 51.1992C273.324 51.3517 273.439 51.4924 273.554 51.6213C273.868 51.9737 274.208 52.238 274.573 52.4142C274.951 52.5905 275.366 52.6786 275.819 52.6786C276.197 52.6786 276.499 52.6282 276.725 52.5275C276.964 52.4268 277.141 52.2821 277.254 52.0933C277.38 51.8919 277.443 51.6527 277.443 51.3758C277.443 51.0234 277.317 50.7339 277.065 50.5074C276.826 50.2682 276.499 50.0605 276.083 49.8843C275.681 49.7081 275.221 49.5193 274.705 49.3179C274.378 49.2046 274.007 49.0473 273.591 48.8459C273.189 48.6319 272.799 48.3613 272.421 48.0341C272.056 47.7068 271.748 47.3166 271.496 46.8635C271.257 46.3978 271.137 45.844 271.137 45.2021C271.137 44.5602 271.332 43.9686 271.723 43.4274C272.125 42.8861 272.673 42.4519 273.365 42.1246C274.07 41.7974 274.881 41.6338 275.8 41.6338C276.719 41.6338 277.48 41.7659 278.084 42.0302C278.701 42.2946 279.211 42.6407 279.614 43.0686C279.779 43.2441 279.932 43.4237 280.074 43.6076C280.407 44.0397 280.235 44.6461 279.762 44.918L279.123 45.2852Z" fill="#0F0F0F"/>
<path d="M284.633 55.0386C283.751 55.0386 283.301 53.9786 283.914 53.3438L288.167 48.9403C288.52 48.5501 288.822 48.1977 289.073 47.883C289.338 47.5684 289.533 47.26 289.659 46.9579C289.797 46.6433 289.866 46.3097 289.866 45.9573C289.866 45.7559 289.829 45.5545 289.753 45.3531C289.678 45.1517 289.564 44.9755 289.413 44.8245C289.262 44.6609 289.073 44.535 288.847 44.4469C288.62 44.3462 288.356 44.2958 288.054 44.2958C287.651 44.2958 287.293 44.3965 286.978 44.5979C286.676 44.7993 286.443 45.0825 286.279 45.4475C286.243 45.5364 286.21 45.6287 286.183 45.7243C286.028 46.2546 285.605 46.7125 285.053 46.7125H283.919C283.367 46.7125 282.909 46.2618 282.996 45.7165C283.087 45.1531 283.256 44.6229 283.504 44.1259C283.895 43.3456 284.48 42.7225 285.26 42.2568C286.053 41.7911 287.016 41.5582 288.148 41.5582C288.966 41.5582 289.69 41.6841 290.319 41.9358C290.949 42.175 291.471 42.5022 291.886 42.9176C292.314 43.3204 292.635 43.7672 292.849 44.2581C293.063 44.749 293.17 45.2461 293.17 45.7496C293.17 46.467 292.994 47.1278 292.641 47.732C292.289 48.3236 291.83 48.8648 291.263 49.3557L290.134 50.3673C289.451 50.9796 289.884 52.1122 290.801 52.1122H292.472C293.024 52.1122 293.472 52.5599 293.472 53.1122V54.0386C293.472 54.5908 293.024 55.0386 292.472 55.0386H284.633Z" fill="#0F0F0F"/>
<path d="M295.855 44.8056C295.303 44.8056 294.855 44.3579 294.855 43.8056V42.8226C294.855 42.2703 295.303 41.8226 295.855 41.8226H304.041C304.778 41.8226 305.262 42.5934 304.942 43.2574L299.526 54.4733C299.36 54.8189 299.01 55.0386 298.626 55.0386H297.422C296.677 55.0386 296.194 54.2538 296.529 53.5887L300.222 46.2554C300.557 45.5904 300.074 44.8056 299.329 44.8056H295.855Z" fill="#0F0F0F"/>
<path d="M302.601 53.7547C302.601 53.2764 302.771 52.8674 303.11 52.5275C303.45 52.1877 303.872 52.0178 304.375 52.0178C304.904 52.0178 305.332 52.1877 305.659 52.5275C305.986 52.8674 306.15 53.2764 306.15 53.7547C306.15 54.233 305.986 54.6421 305.659 54.9819C305.332 55.3218 304.904 55.4917 304.375 55.4917C303.872 55.4917 303.45 55.3218 303.11 54.9819C302.771 54.6421 302.601 54.233 302.601 53.7547Z" fill="#0F0F0F"/>
<path d="M314.554 46.467C314.554 46.0139 314.453 45.6237 314.252 45.2965C314.063 44.9566 313.799 44.6986 313.459 44.5224C313.132 44.3336 312.761 44.2392 312.345 44.2392C311.918 44.2392 311.534 44.3336 311.194 44.5224C310.867 44.6986 310.602 44.9566 310.401 45.2965C310.212 45.6237 310.118 46.0139 310.118 46.467C310.118 46.9076 310.212 47.2978 310.401 47.6376C310.602 47.9774 310.867 48.2418 311.194 48.4306C311.534 48.6194 311.918 48.7138 312.345 48.7138C312.761 48.7138 313.132 48.6194 313.459 48.4306C313.799 48.2418 314.063 47.9774 314.252 47.6376C314.453 47.2978 314.554 46.9076 314.554 46.467ZM312.665 54.5998C312.475 54.8411 312.185 54.9819 311.878 54.9819H310.565C309.7 54.9819 309.243 53.958 309.821 53.3141L312.61 50.2053L313.252 49.9221C312.899 50.2619 312.559 50.4885 312.232 50.6018C311.918 50.7025 311.521 50.7528 311.043 50.7528C310.552 50.7528 310.061 50.6584 309.57 50.4696C309.092 50.2682 308.658 49.985 308.268 49.62C307.878 49.2424 307.563 48.7893 307.324 48.2606C307.085 47.732 306.965 47.1341 306.965 46.467C306.965 45.372 307.204 44.4595 307.682 43.7294C308.173 42.9994 308.821 42.4519 309.627 42.0869C310.445 41.7093 311.351 41.5205 312.345 41.5205C313.327 41.5205 314.221 41.7093 315.026 42.0869C315.844 42.4519 316.492 42.9994 316.971 43.7294C317.461 44.4595 317.707 45.372 317.707 46.467C317.707 47.1719 317.556 47.8264 317.254 48.4306C316.964 49.0347 316.606 49.6011 316.178 50.1298L312.665 54.5998Z" fill="#0F0F0F"/>
<path d="M330.071 50.8094C330.071 51.5898 329.914 52.2632 329.599 52.8296C329.297 53.396 328.882 53.8617 328.353 54.2267C327.837 54.5917 327.264 54.8623 326.635 55.0386C326.019 55.2022 325.389 55.284 324.747 55.284C323.942 55.284 323.212 55.2022 322.558 55.0386C321.903 54.8875 321.324 54.6861 320.821 54.4344C320.574 54.3048 320.338 54.1692 320.112 54.0275C319.711 53.7755 319.588 53.2591 319.791 52.8312L320.137 52.1024C320.417 51.5135 321.175 51.3518 321.739 51.6793C321.76 51.6915 321.781 51.7037 321.802 51.7157C322.193 51.9171 322.583 52.0807 322.973 52.2066C323.363 52.3198 323.715 52.3765 324.03 52.3765C324.571 52.3765 325.031 52.3073 325.408 52.1688C325.786 52.0303 326.075 51.8164 326.277 51.5269C326.478 51.2374 326.579 50.885 326.579 50.4696C326.579 50.0291 326.453 49.6766 326.201 49.4123C325.962 49.1354 325.647 48.934 325.257 48.8082C324.88 48.6823 324.471 48.6194 324.03 48.6194C323.69 48.6194 323.313 48.6445 322.897 48.6949C322.495 48.7326 322.073 48.8145 321.632 48.9403C321.091 49.0838 320.513 48.6159 320.645 48.0712L321.976 42.5868C322.084 42.1384 322.486 41.8226 322.948 41.8226H328.788C329.34 41.8226 329.788 42.2703 329.788 42.8226V43.579C329.788 44.1313 329.34 44.579 328.788 44.579H325.103C324.745 44.579 324.428 44.8104 324.319 45.1512L324.097 45.8438C323.963 46.2622 324.408 46.6714 324.842 46.5992C325.232 46.5237 325.635 46.4859 326.05 46.4859C326.755 46.4859 327.409 46.6558 328.013 46.9957C328.63 47.3355 329.127 47.8264 329.505 48.4683C329.882 49.1102 330.071 49.8906 330.071 50.8094Z" fill="#0F0F0F"/>
<path d="M281.363 15.8396H322.216" stroke="#0F0F0F" stroke-width="6" stroke-linecap="round"/>
<path d="M202.276 38.562L193.896 21.52M198.609 46.3083H179.23" stroke="#0F0F0F" stroke-width="2"/>
<path d="M229.509 260.107C207.288 261.088 203.528 269.7 194.417 282.83H201.226C209.612 273.738 221.128 269.403 229.509 260.107Z" fill="white"/>
<path d="M235.794 222.925C204.892 244.098 201.226 259.075 192.846 282.83H193.893C198.607 263.206 243.237 232.72 235.794 222.925Z" fill="white"/>
<path d="M193.512 238.698C190.452 254.214 192.748 265.432 190.227 282.83H192.323C195.938 244.646 217.368 225.535 227.508 195.313C227.723 194.67 227.244 194.005 226.566 194.005H225.375C224.581 194.005 224.272 192.973 224.936 192.536C227.503 190.848 229.251 188.115 229.446 185.048C229.752 180.26 229.398 176.475 227.937 170.766C217.727 191.381 204.356 194.194 196.626 222.174C195.374 226.706 195.465 231.497 196.477 236.089L196.772 237.428C196.983 238.386 195.783 238.998 195.132 238.264C194.617 237.683 193.662 237.936 193.512 238.698Z" fill="white"/>
<path d="M189.679 281.388L189.704 282.83H188.919H188.133H186.038C173.992 251.845 140.473 238.934 143.09 222.925C174.918 241.068 180.848 253.988 187.797 278.773C183.543 234.993 160.141 204.293 152.518 169.217L156.39 168.581C157.274 168.435 157.536 167.292 156.804 166.776L151.47 163.02L152.518 139.781C168.977 164.82 176.147 181.116 182.748 206.611C184.294 212.585 184.461 218.83 183.432 224.915C183.278 225.829 184.417 226.375 185.033 225.681L185.124 225.578C185.677 224.955 186.708 225.282 186.796 226.112C189.092 247.542 189.311 260.153 189.679 281.388Z" fill="white"/>
<path d="M151.995 259.591C172.531 260.079 175.847 269.808 185.516 282.83H182.373C171.374 270.952 159.173 270.842 151.995 259.591Z" fill="white"/>
<path d="M194.417 282.83L193.596 282.26L192.506 283.83H194.417V282.83ZM229.509 260.107L230.251 260.777C230.521 260.478 230.585 260.045 230.413 259.681C230.241 259.316 229.867 259.091 229.464 259.108L229.509 260.107ZM201.226 282.83V283.83H201.664L201.961 283.508L201.226 282.83ZM192.846 282.83L191.903 282.497L191.433 283.83H192.846V282.83ZM235.794 222.925L236.59 222.32C236.267 221.895 235.668 221.799 235.228 222.1L235.794 222.925ZM193.893 282.83V283.83H194.682L194.866 283.064L193.893 282.83ZM190.227 282.83L189.237 282.687L189.072 283.83H190.227V282.83ZM193.512 238.698L194.493 238.892L193.512 238.698ZM196.772 237.428L197.749 237.213L196.772 237.428ZM196.477 236.089L197.453 235.874L196.477 236.089ZM196.626 222.174L195.662 221.908L196.626 222.174ZM227.937 170.766L228.906 170.518C228.802 170.113 228.458 169.815 228.042 169.772C227.626 169.728 227.227 169.948 227.041 170.322L227.937 170.766ZM229.446 185.048L228.448 184.985L229.446 185.048ZM227.508 195.313L228.456 195.631V195.631L227.508 195.313ZM192.323 282.83V283.83H193.233L193.319 282.924L192.323 282.83ZM189.704 282.83V283.83H190.722L190.704 282.813L189.704 282.83ZM189.679 281.388L188.679 281.405V281.405L189.679 281.388ZM186.796 226.112L185.802 226.218L186.796 226.112ZM185.124 225.578L184.376 224.915H184.376L185.124 225.578ZM185.033 225.681L185.781 226.345H185.781L185.033 225.681ZM182.748 206.611L183.716 206.361L182.748 206.611ZM152.518 139.781L153.354 139.231L151.658 136.652L151.519 139.736L152.518 139.781ZM151.47 163.02L150.471 162.975L150.447 163.522L150.895 163.837L151.47 163.02ZM156.804 166.776L156.228 167.594H156.228L156.804 166.776ZM156.39 168.581L156.228 167.594H156.228L156.39 168.581ZM152.518 169.217L152.356 168.23L151.317 168.401L151.541 169.429L152.518 169.217ZM143.09 222.925L143.586 222.056L142.336 221.344L142.104 222.764L143.09 222.925ZM186.038 282.83L185.106 283.192L185.354 283.83H186.038V282.83ZM185.516 282.83V283.83H187.504L186.318 282.234L185.516 282.83ZM151.995 259.591L152.019 258.591C151.65 258.582 151.306 258.778 151.124 259.1C150.943 259.422 150.954 259.817 151.152 260.129L151.995 259.591ZM182.373 282.83L181.639 283.509L181.936 283.83H182.373V282.83ZM183.432 224.915L182.446 224.748L183.432 224.915ZM224.936 192.536L224.386 191.7V191.701L224.936 192.536ZM195.132 238.264L194.384 238.928L195.132 238.264ZM195.239 283.4C199.858 276.744 202.964 271.491 207.675 267.691C212.311 263.952 218.574 261.591 229.553 261.106L229.464 259.108C218.222 259.605 211.495 262.04 206.419 266.134C201.417 270.168 198.088 275.786 193.596 282.26L195.239 283.4ZM228.766 259.438C224.668 263.983 219.794 267.328 214.807 270.718C209.85 274.089 204.775 277.507 200.491 282.152L201.961 283.508C206.063 279.061 210.939 275.766 215.932 272.372C220.895 268.998 225.969 265.528 230.251 260.777L228.766 259.438ZM201.226 281.83H194.417V283.83H201.226V281.83ZM193.789 283.163C197.997 271.233 200.969 261.681 206.723 252.438C212.457 243.226 220.987 234.282 236.359 223.75L235.228 222.1C219.698 232.741 210.944 241.872 205.025 251.381C199.126 260.857 196.074 270.672 191.903 282.497L193.789 283.163ZM234.997 223.53C235.67 224.416 235.828 225.601 235.362 227.232C234.891 228.88 233.815 230.843 232.233 233.081C229.073 237.55 224.101 242.837 218.68 248.5C213.284 254.137 207.463 260.127 202.702 265.934C197.962 271.717 194.157 277.452 192.921 282.596L194.866 283.064C195.987 278.396 199.528 272.962 204.249 267.202C208.949 261.469 214.705 255.545 220.125 249.883C225.52 244.248 230.604 238.85 233.866 234.235C235.495 231.931 236.722 229.751 237.285 227.781C237.853 225.794 237.778 223.883 236.59 222.32L234.997 223.53ZM193.893 281.83H192.846V283.83H193.893V281.83ZM191.217 282.973C192.488 274.202 192.544 266.985 192.667 260.076C192.791 253.163 192.981 246.556 194.493 238.892L192.531 238.505C190.982 246.357 190.791 253.117 190.667 260.04C190.544 266.968 190.487 274.06 189.237 282.687L191.217 282.973ZM197.749 237.213L197.453 235.874L195.5 236.304L195.796 237.644L197.749 237.213ZM197.59 222.44C201.409 208.617 206.603 201.042 212.123 194.344C217.653 187.634 223.662 181.652 228.833 171.21L227.041 170.322C222.002 180.496 216.22 186.227 210.58 193.072C204.929 199.929 199.573 207.75 195.662 221.908L197.59 222.44ZM226.968 171.014C228.406 176.634 228.746 180.313 228.448 184.985L230.444 185.112C230.757 180.206 230.389 176.316 228.906 170.518L226.968 171.014ZM225.375 195.005H226.566V193.005H225.375V195.005ZM226.56 194.995C221.525 210.002 213.709 222.201 206.585 235.617C199.479 249 193.152 263.458 191.328 282.736L193.319 282.924C195.108 264.018 201.304 249.829 208.352 236.555C215.382 223.314 223.351 210.846 228.456 195.631L226.56 194.995ZM192.323 281.83H190.227V283.83H192.323V281.83ZM190.704 282.813L190.679 281.37L188.679 281.405L188.705 282.847L190.704 282.813ZM190.679 281.37C190.311 260.132 190.092 247.483 187.791 226.005L185.802 226.218C188.093 247.601 188.311 260.174 188.679 281.405L190.679 281.37ZM184.376 224.915L184.285 225.017L185.781 226.345L185.872 226.242L184.376 224.915ZM183.716 206.361C177.086 180.752 169.869 164.356 153.354 139.231L151.682 140.33C168.085 165.283 175.208 181.479 181.779 206.862L183.716 206.361ZM151.519 139.736L150.471 162.975L152.469 163.065L153.517 139.826L151.519 139.736ZM150.895 163.837L156.228 167.594L157.38 165.959L152.046 162.202L150.895 163.837ZM156.228 167.594L152.356 168.23L152.68 170.204L156.553 169.567L156.228 167.594ZM151.541 169.429C155.377 187.083 163.189 203.646 170.498 221.117C177.824 238.626 184.69 257.134 186.802 278.869L188.793 278.676C186.651 256.632 179.688 237.899 172.343 220.345C164.983 202.752 157.282 186.427 153.495 169.005L151.541 169.429ZM186.802 278.869C186.931 280.2 187.043 281.543 187.135 282.898L189.131 282.762C189.037 281.387 188.924 280.025 188.793 278.676L186.802 278.869ZM188.133 283.83H188.919V281.83H188.133V283.83ZM188.919 283.83H189.704V281.83H188.919V283.83ZM189.883 282.566C189.504 281.177 189.131 279.824 188.76 278.503L186.834 279.043C187.203 280.358 187.575 281.707 187.954 283.094L189.883 282.566ZM188.76 278.503C185.282 266.097 182.023 256.518 175.578 247.765C169.132 239.01 159.558 231.161 143.586 222.056L142.595 223.794C158.451 232.832 167.756 240.514 173.968 248.951C180.182 257.39 183.363 266.663 186.834 279.043L188.76 278.503ZM142.104 222.764C141.385 227.16 143.174 231.247 146.203 235.282C149.227 239.309 153.619 243.456 158.376 247.986C167.947 257.1 179.174 267.935 185.106 283.192L186.97 282.468C180.856 266.74 169.3 255.627 159.755 246.537C154.953 241.964 150.704 237.945 147.802 234.081C144.907 230.224 143.487 226.694 144.077 223.086L142.104 222.764ZM186.038 283.83H188.133V281.83H186.038V283.83ZM186.318 282.234C183.886 278.959 181.939 276.009 179.897 273.188C177.892 270.418 175.88 267.897 173.497 265.765C168.678 261.452 162.47 258.84 152.019 258.591L151.972 260.591C162.057 260.83 167.774 263.326 172.164 267.255C174.386 269.244 176.299 271.628 178.277 274.36C180.217 277.041 182.31 280.191 184.713 283.426L186.318 282.234ZM151.152 260.129C154.89 265.989 159.944 268.931 165.27 271.852C170.612 274.782 176.267 277.708 181.639 283.509L183.107 282.151C177.48 276.074 171.535 273.007 166.232 270.099C160.914 267.182 156.278 264.444 152.838 259.053L151.152 260.129ZM182.373 283.83H185.516V281.83H182.373V283.83ZM156.228 167.594L156.228 167.594L156.553 169.567C158.319 169.277 158.844 166.99 157.38 165.959L156.228 167.594ZM184.285 225.017C184.281 225.021 184.284 225.017 184.297 225.01C184.308 225.003 184.322 224.999 184.335 224.996C184.36 224.992 184.373 224.998 184.376 224.999C184.378 225 184.39 225.006 184.403 225.029C184.409 225.04 184.414 225.054 184.417 225.067C184.419 225.081 184.417 225.087 184.418 225.081L182.446 224.748C182.124 226.653 184.498 227.79 185.781 226.345L184.285 225.017ZM187.791 226.005C187.609 224.309 185.503 223.644 184.376 224.915L185.872 226.242C185.875 226.239 185.874 226.241 185.868 226.244C185.862 226.248 185.856 226.25 185.849 226.252C185.837 226.255 185.831 226.253 185.831 226.253C185.83 226.253 185.824 226.251 185.815 226.241C185.811 226.236 185.807 226.229 185.804 226.223C185.801 226.216 185.802 226.214 185.802 226.218L187.791 226.005ZM226.566 195.005C226.568 195.005 226.568 195.005 226.567 195.005C226.565 195.005 226.563 195.004 226.562 195.003C226.559 195.002 226.56 195.001 226.561 195.003C226.562 195.004 226.561 195.004 226.56 195.001C226.56 194.999 226.56 194.997 226.56 194.995C226.56 194.993 226.561 194.993 226.56 194.995L228.456 195.631C228.889 194.339 227.925 193.005 226.566 193.005V195.005ZM228.448 184.985C228.275 187.704 226.721 190.166 224.386 191.7L225.485 193.372C228.286 191.531 230.226 188.525 230.444 185.112L228.448 184.985ZM197.453 235.874C196.469 231.409 196.389 226.786 197.59 222.44L195.662 221.908C194.358 226.626 194.46 231.586 195.5 236.304L197.453 235.874ZM194.384 238.928C195.719 240.433 198.182 239.177 197.749 237.213L195.796 237.644C195.798 237.654 195.796 237.652 195.797 237.641C195.799 237.63 195.802 237.618 195.808 237.608C195.817 237.59 195.825 237.588 195.821 237.59C195.818 237.591 195.824 237.586 195.844 237.589C195.856 237.591 195.867 237.595 195.877 237.6C195.887 237.606 195.887 237.608 195.88 237.601L194.384 238.928ZM224.386 191.701C222.893 192.682 223.588 195.005 225.375 195.005V193.005C225.403 193.005 225.454 193.018 225.5 193.054C225.54 193.086 225.558 193.121 225.567 193.148C225.575 193.175 225.578 193.214 225.563 193.262C225.544 193.318 225.508 193.356 225.485 193.372L224.386 191.701ZM184.418 225.081C185.468 218.869 185.3 212.482 183.716 206.361L181.779 206.862C183.288 212.689 183.453 218.791 182.446 224.748L184.418 225.081ZM194.493 238.892C194.493 238.89 194.492 238.895 194.488 238.903C194.484 238.911 194.478 238.918 194.472 238.925C194.46 238.938 194.449 238.942 194.442 238.944C194.436 238.945 194.426 238.946 194.412 238.943C194.405 238.941 194.398 238.937 194.392 238.934C194.385 238.93 194.383 238.927 194.384 238.928L195.88 237.601C194.826 236.412 192.844 236.915 192.531 238.505L194.493 238.892Z" fill="#0F0F0F"/>
<path d="M209.883 282.83H172.187C171.756 282.83 171.426 283.212 171.487 283.638L174.528 304.929C175.722 313.288 182.88 319.496 191.324 319.496C199.949 319.496 207.202 313.025 208.181 304.456L210.565 283.595C210.612 283.187 210.293 282.83 209.883 282.83Z" fill="#FF8D2A" stroke="#0F0F0F" stroke-width="2" stroke-linecap="round"/>
<path d="M89.1453 317.202V302.971L115.857 301.422V306.881C115.857 307.322 116.141 307.715 116.564 307.858L126.254 311.143C130.061 312.433 132.617 315.964 132.617 319.933V323.034C132.617 323.634 132.1 324.107 131.494 324.064L93.0333 321.323C90.8421 321.167 89.1453 319.368 89.1453 317.202Z" fill="#FF8D2A"/>
<path d="M36.8449 248.863L49.8639 243.066L61.9102 267.338L57.7229 269.402C57.0705 269.724 56.6347 270.357 56.5724 271.073L55.5977 282.286C55.2935 285.786 53.014 288.818 49.7059 290.123L45.7309 291.69C45.1449 291.921 44.4863 291.593 44.3279 290.991L34.5135 253.665C34.0017 251.718 34.986 249.691 36.8449 248.863Z" fill="#FF8D2A"/>
<path d="M89.1453 317.202V302.971L115.857 301.422V306.881C115.857 307.322 116.141 307.715 116.564 307.858L126.254 311.143C130.061 312.433 132.617 315.964 132.617 319.933V323.034C132.617 323.634 132.1 324.107 131.494 324.064L93.0333 321.323C90.8421 321.167 89.1453 319.368 89.1453 317.202Z" stroke="#0F0F0F" stroke-width="2" stroke-linecap="round"/>
<path d="M36.8449 248.863L49.8639 243.066L61.9102 267.338L57.7229 269.402C57.0705 269.724 56.6347 270.357 56.5724 271.073L55.5977 282.286C55.2935 285.786 53.014 288.818 49.7059 290.123L45.7309 291.69C45.1449 291.921 44.4863 291.593 44.3279 290.991L34.5135 253.665C34.0017 251.718 34.986 249.691 36.8449 248.863Z" stroke="#0F0F0F" stroke-width="2" stroke-linecap="round"/>
<path d="M121.648 248.23L119.011 303.766C119.005 303.899 118.895 304.004 118.761 304.004H94.9072H86.245C86.1103 304.004 85.9998 303.897 85.9952 303.762L84.464 259.075L59.5251 269.819C59.397 269.875 59.2485 269.814 59.1952 269.685L47.8609 242.254C47.8098 242.13 47.8652 241.988 47.9866 241.932L83.3139 225.507L80.7659 151.142H87.5747H152.52C159.561 209.239 155.028 232.849 121.648 248.23Z" fill="white"/>
<path d="M133.141 177.48L126.558 181.537C125.434 182.23 124.724 183.433 124.661 184.752L121.648 248.23M121.648 248.23L119.011 303.766C119.005 303.899 118.895 304.004 118.761 304.004H94.9072M121.648 248.23C155.028 232.849 159.561 209.239 152.52 151.142H87.5747M83.3139 225.507L80.7659 151.142H87.5747M83.3139 225.507L47.9866 241.932C47.8652 241.988 47.8098 242.13 47.8609 242.254L59.1952 269.685C59.2485 269.814 59.397 269.875 59.5251 269.819L84.464 259.075M83.3139 225.507L84.464 259.075M84.464 259.075L85.9952 303.762C85.9998 303.897 86.1103 304.004 86.245 304.004H94.9072M87.5747 151.142L94.9072 304.004" stroke="#0F0F0F" stroke-width="2" stroke-linecap="round"/>
<path d="M79.1967 120.673L59.2941 94.8523C22.7454 130.417 26.6199 147.92 89.8861 173.019C90.3899 173.219 90.981 173.142 91.4066 172.806C92.2946 172.106 92.136 170.716 91.1131 170.234L81.5994 165.747C81.5466 165.723 81.5706 165.643 81.6284 165.651L98.0311 168.03C98.6584 168.12 99.2667 167.772 99.505 167.184C99.835 166.371 99.3298 165.46 98.4649 165.31L83.3334 162.677C83.2284 162.658 83.2417 162.504 83.3483 162.504H99.8624C100.887 162.504 101.718 161.673 101.718 160.648C101.718 159.662 100.946 158.848 99.9612 158.795L82.3392 157.856L96.3516 156.992C97.8957 156.897 99.0993 155.617 99.0993 154.07C99.0993 152.453 97.7885 151.142 96.1715 151.142H79.7204V149.243C79.7204 148.257 78.4443 147.866 77.892 148.682L75.5304 152.175L60.5812 136.453C60.1728 136.023 60.2255 135.335 60.6944 134.972L79.1967 120.673Z" fill="white" stroke="#0F0F0F" stroke-width="2"/>
<path d="M173.469 111.894L178.183 86.0732L197.561 91.2374L199.656 90.721L208.56 65.9327V58.7027L210.131 53.5385L217.464 49.9235L225.844 46.3086L227.939 47.8578L226.891 49.9235L220.606 54.0549L227.939 53.0221L232.653 50.44L234.748 45.2757L237.367 43.7265L241.557 43.21L244.175 42.6936H246.794L247.842 44.7593L246.794 47.3414L248.889 47.8578L249.413 50.9564L246.794 55.6042L240.509 61.8013L231.605 64.8998L226.368 66.9655L226.891 76.2611L226.368 84.5239L225.844 92.7867L223.749 98.9837L219.035 106.73L208.56 111.894L194.943 112.927L182.373 112.411L173.469 111.894Z" fill="white"/>
<path d="M177.659 85.5564L177.93 84.5939L176.848 84.2891L176.671 85.3993L177.659 85.5564ZM173.469 111.894L172.481 111.737L172.314 112.791L173.376 112.89L173.469 111.894ZM225.878 66.757L224.885 66.8673V66.8673L225.878 66.757ZM226.141 66.378L225.908 65.4055H225.908L226.141 66.378ZM249.272 50.4671L248.329 50.1341V50.1341L249.272 50.4671ZM244.871 48.9216L243.948 48.5362V48.5362L244.871 48.9216ZM241.158 55.2185C240.945 55.7282 241.185 56.3138 241.695 56.5267C242.205 56.7395 242.79 56.4989 243.003 55.9893L241.158 55.2185ZM247.254 45.4543L246.287 45.2011V45.2011L247.254 45.4543ZM242.916 44.0315L241.986 43.6626V43.6626L242.916 44.0315ZM238.008 53.6858C237.805 54.1991 238.056 54.7804 238.569 54.9841C239.082 55.1878 239.664 54.9368 239.867 54.4235L238.008 53.6858ZM238.082 45.2249L239.029 45.5451V45.5451L238.082 45.2249ZM234.848 51.6687C234.671 52.1919 234.952 52.7594 235.475 52.9363C235.998 53.1131 236.566 52.8324 236.743 52.3092L234.848 51.6687ZM235.283 45.3309L236.257 45.5567L235.283 45.3309ZM220.288 54.5561L220.361 55.5534L220.361 55.5534L220.288 54.5561ZM220.25 54.4575L220.811 55.2852L220.811 55.2852L220.25 54.4575ZM226.843 49.9882L227.404 50.8159L227.404 50.8159L226.843 49.9882ZM224.792 46.633L224.331 45.7457V45.7457L224.792 46.633ZM213.544 51.4665L213.181 50.5345L213.544 51.4665ZM208.439 65.7737L209.387 66.094V66.094L208.439 65.7737ZM200.265 89.9538L201.212 90.2741L200.265 89.9538ZM197.828 91.2384L198.099 90.2759L197.828 91.2384ZM227.367 47.2697L228.195 46.7095V46.7095L227.367 47.2697ZM247.878 47.6128L247.531 48.5507V48.5507L247.878 47.6128ZM245.589 42.6544L245.35 43.6254L245.589 42.6544ZM176.671 85.3993L172.481 111.737L174.456 112.051L178.646 85.7136L176.671 85.3993ZM173.376 112.89C182.891 113.776 191.327 114.447 198.522 114.182C205.712 113.916 211.786 112.714 216.512 109.755C226.084 103.764 229.573 90.9886 226.872 66.6468L224.885 66.8673C227.584 91.1966 223.913 102.763 215.451 108.06C211.161 110.745 205.501 111.923 198.449 112.183C191.402 112.443 183.09 111.786 173.561 110.898L173.376 112.89ZM226.374 67.3505C233.217 65.7114 238.317 64.0522 242.133 61.5566C246.002 59.0261 248.493 55.6755 250.215 50.8001L248.329 50.1341C246.732 54.657 244.489 57.6256 241.038 59.8829C237.533 62.1751 232.727 63.7722 225.908 65.4055L226.374 67.3505ZM243.948 48.5362L241.158 55.2185L243.003 55.9893L245.794 49.3069L243.948 48.5362ZM247.761 47.4652L248.222 45.7075L246.287 45.2011L245.827 46.9588L247.761 47.4652ZM241.986 43.6626L238.008 53.6858L239.867 54.4235L243.845 44.4004L241.986 43.6626ZM237.135 44.9046L234.848 51.6687L236.743 52.3092L239.029 45.5451L237.135 44.9046ZM234.309 45.1051C233.548 48.3889 232.19 50.2555 230.072 51.4375C227.863 52.6702 224.719 53.2256 220.214 53.5588L220.361 55.5534C224.87 55.2199 228.415 54.6523 231.046 53.1839C233.768 51.6648 235.401 49.2521 236.257 45.5567L234.309 45.1051ZM220.811 55.2852L227.404 50.8159L226.282 49.1604L219.689 53.6297L220.811 55.2852ZM224.331 45.7457C219.497 48.2578 215.997 49.439 213.181 50.5345L213.907 52.3984C216.662 51.3266 220.297 50.0961 225.253 47.5204L224.331 45.7457ZM207.56 59.6938V65.0383H209.56V59.6938H207.56ZM207.492 65.4535L199.317 89.6336L201.212 90.2741L209.387 66.094L207.492 65.4535ZM198.099 90.2759L177.93 84.5939L177.388 86.519L197.557 92.2009L198.099 90.2759ZM199.317 89.6336C199.147 90.1379 198.611 90.4202 198.099 90.2759L197.557 92.2009C199.094 92.634 200.701 91.7869 201.212 90.2741L199.317 89.6336ZM207.56 65.0383C207.56 65.1795 207.537 65.3197 207.492 65.4535L209.387 66.094C209.501 65.7539 209.56 65.3973 209.56 65.0383H207.56ZM228.195 46.7095C227.336 45.4387 225.665 45.0524 224.331 45.7457L225.253 47.5204C225.713 47.2812 226.265 47.4255 226.538 47.8298L228.195 46.7095ZM227.404 50.8159C228.756 49.8998 229.11 48.0621 228.195 46.7095L226.538 47.8298C226.835 48.2681 226.72 48.8636 226.282 49.1604L227.404 50.8159ZM243.721 42.3322C241.203 40.9563 238.054 42.1865 237.135 44.9046L239.029 45.5451C239.55 44.0047 241.335 43.3075 242.762 44.0873L243.721 42.3322ZM220.214 53.5588C220.682 53.5242 221.036 53.826 221.165 54.163C221.297 54.5097 221.228 55.0028 220.811 55.2852L219.689 53.6297C219.227 53.9432 219.148 54.4878 219.297 54.877C219.442 55.2566 219.838 55.5921 220.361 55.5534L220.214 53.5588ZM248.225 46.6748C246.531 46.0485 244.644 46.8696 243.948 48.5362L245.794 49.3069C246.076 48.6298 246.843 48.2962 247.531 48.5507L248.225 46.6748ZM245.828 41.6835C244.233 41.2902 242.592 42.1354 241.986 43.6626L243.845 44.4004C244.082 43.8023 244.725 43.4714 245.35 43.6254L245.828 41.6835ZM239.074 42.8517C237.082 41.7471 234.779 43.0797 234.309 45.1051L236.257 45.5567C236.472 44.6296 237.445 44.2352 238.104 44.6007L239.074 42.8517ZM250.215 50.8001C250.823 49.0791 249.86 47.2795 248.225 46.6748L247.531 48.5507C248.219 48.8049 248.546 49.5199 248.329 50.1341L250.215 50.8001ZM213.181 50.5345C209.366 52.0189 207.56 55.8563 207.56 59.6938H209.56C209.56 56.4095 211.085 53.4962 213.907 52.3984L213.181 50.5345ZM248.222 45.7075C248.686 43.9334 247.609 42.1224 245.828 41.6835L245.35 43.6254C246.047 43.7972 246.469 44.5064 246.287 45.2011L248.222 45.7075ZM226.872 66.6468C226.907 66.9589 226.715 67.2688 226.374 67.3505L225.908 65.4055C225.233 65.5672 224.812 66.2138 224.885 66.8673L226.872 66.6468Z" fill="#0F0F0F"/>
<path d="M97.8596 75.4372C80.604 79.6906 71.6328 85.1026 56.9102 94.1911C56.7855 94.2681 56.7508 94.4369 56.8382 94.5545L77.9936 123.045C78.0717 123.151 78.2288 123.151 78.3081 123.047C78.7641 122.448 79.7209 122.77 79.7209 123.524V151.142H154.617V113.98C154.617 113.408 155.097 112.952 155.669 112.982L174.303 113.949C174.428 113.955 174.538 113.869 174.562 113.747L180.236 84.7563C180.261 84.6259 180.178 84.4977 180.049 84.4653C160.07 79.4384 147.717 77.0834 122.669 74.1953H108.858C105.156 74.1953 101.454 74.5512 97.8596 75.4372Z" fill="#0F0F0F"/>
<path d="M87.1299 61.954L97.0024 39.0784H135.76L147.089 61.9057C147.419 62.5704 146.936 63.3503 146.194 63.3503H88.0481C87.3291 63.3503 86.845 62.6142 87.1299 61.954Z" fill="#0F0F0F"/>
<ellipse cx="116.384" cy="46.8249" rx="20.9501" ry="20.6569" fill="white" stroke="#0F0F0F" stroke-width="2"/>
<path d="M95.9531 41.1442C105.575 41.6717 110.587 40.6846 117.158 34.658C117.589 34.2632 118.266 34.3049 118.656 34.7393C122.954 39.5196 127.974 40.7502 136.806 42.6935L131.045 32.365L125.283 28.2337L117.951 26.168L111.142 26.6844L105.381 29.2665L100.667 33.9143L95.9531 41.1442Z" fill="#0F0F0F"/>
<path d="M111.143 46.8246C111.143 47.9655 110.205 48.8903 109.048 48.8903C107.891 48.8903 106.953 47.9655 106.953 46.8246C106.953 45.6838 107.891 44.7589 109.048 44.7589C110.205 44.7589 111.143 45.6838 111.143 46.8246Z" fill="#0F0F0F"/>
<path d="M126.856 46.8246C126.856 47.9655 125.918 48.8903 124.761 48.8903C123.604 48.8903 122.666 47.9655 122.666 46.8246C122.666 45.6838 123.604 44.7589 124.761 44.7589C125.918 44.7589 126.856 45.6838 126.856 46.8246Z" fill="#0F0F0F"/>
<path d="M115.857 52.7635V41.9186C115.857 41.776 115.974 41.6604 116.119 41.6604H116.721C116.831 41.6604 116.929 41.7283 116.967 41.8304L120.967 52.6753C121.029 52.8437 120.902 53.0217 120.721 53.0217H116.119C115.974 53.0217 115.857 52.9061 115.857 52.7635Z" fill="#0F0F0F"/>
<path d="M102.762 45.2754C105.675 42.3749 107.444 41.0605 111.666 41.1441M131.568 44.7631C128.655 41.8626 126.885 40.5481 122.664 40.6317" stroke="#0F0F0F" stroke-width="2" stroke-linecap="round"/>
</svg>
