<svg width="531" height="331" viewBox="0 0 531 331" fill="none" xmlns="http://www.w3.org/2000/svg">
<path d="M453.366 94.7883C408.982 40.474 373.123 -1.86385 302.431 0.471554C231.93 2.80061 204.95 56.3566 154.197 104.672C101.596 154.747 2.56466 175.178 0.537219 247.252C-0.424391 281.436 19.5374 306.806 46.8173 328.917H490.191C511.828 305.085 528.883 279.266 530.775 247.252C534.26 188.267 490.96 140.793 453.366 94.7883Z" fill="#FFBF88"/>
<path d="M68.6484 328.4H494.805" stroke="black" stroke-width="2" stroke-linecap="round"/>
<path d="M354.742 180.503L365.34 148.684H422.999L443.604 185.818C443.987 186.509 443.455 187.351 442.667 187.301L355.628 181.817C354.973 181.776 354.535 181.125 354.742 180.503Z" fill="#0F0F0F"/>
<ellipse cx="393.651" cy="162.628" rx="32.4991" ry="32.0182" fill="white" stroke="#0F0F0F" stroke-width="2"/>
<path d="M388.412 177.354V167.009C388.412 166.871 388.3 166.759 388.162 166.759H386.479C386.38 166.759 386.29 166.818 386.25 166.909L381.75 177.254C381.678 177.419 381.799 177.604 381.979 177.604H388.162C388.3 177.604 388.412 177.492 388.412 177.354Z" fill="#0F0F0F"/>
<path d="M398.367 160.562C403.431 160.915 405.295 162.25 407.278 166.759" stroke="#0F0F0F" stroke-width="3" stroke-linecap="round"/>
<path d="M377.398 158.496C372.334 158.849 370.47 160.184 368.487 164.693" stroke="#0F0F0F" stroke-width="3" stroke-linecap="round"/>
<path d="M362.723 152.816C376.634 152.856 381.085 150.526 389.89 145.07C390.9 144.444 392.185 144.473 393.176 145.128C401.619 150.711 408.102 153.311 425.1 153.848L420.382 144.036L414.616 137.839L408.326 134.224L398.891 130.609H392.601L383.166 132.675L374.779 136.29L369.537 141.454L362.723 152.816Z" fill="#0F0F0F"/>
<ellipse cx="375.304" cy="166.242" rx="2.62089" ry="2.58212" fill="#0F0F0F"/>
<ellipse cx="398.371" cy="167.275" rx="2.62089" ry="2.58212" fill="#0F0F0F"/>
<path d="M352.284 217.595C337.47 227.367 332.751 235.809 324.455 249.902L320.262 258.165L344.898 295.864L351.712 286.568L353.285 325.3L471.749 323.751L479.05 284.707C479.072 284.588 479.175 284.503 479.295 284.503H482.965C483.126 284.503 483.245 284.348 483.208 284.191C477.74 260.965 477.428 247.013 462.905 225.536C460.857 222.508 457.975 220.132 454.626 218.667C448.056 215.792 442.366 213.88 433.466 211.577C431.042 210.95 428.546 210.607 426.044 210.534C400.61 209.786 384.941 210.71 360.139 214.62C357.347 215.061 354.644 216.038 352.284 217.595Z" fill="#0F0F0F"/>
<path d="M479.614 282.954L452.357 289.668V304.038C452.357 305.903 451.068 307.525 449.243 307.912C424.86 313.082 399.349 313.818 371.523 313.922C363.769 313.951 357.48 320.226 357.48 327.98C357.48 328.497 357.9 328.916 358.416 328.916H463.614C472.451 328.916 479.614 321.752 479.614 312.916V282.954Z" fill="white"/>
<path d="M360.626 328.399C364.501 322.58 366.594 319.264 376.875 317.554M369.537 328.399C373.279 323.677 375.338 320.992 383.165 320.137M381.593 328.399C383.869 325.739 385.295 324.324 390.504 323.235M452.357 289.668L479.614 282.954V312.916C479.614 321.752 472.451 328.916 463.614 328.916H358.416C357.9 328.916 357.48 328.497 357.48 327.98V327.98C357.48 320.226 363.769 313.951 371.523 313.922C399.349 313.818 424.86 313.082 449.243 307.912C451.068 307.525 452.357 305.903 452.357 304.038V289.668Z" stroke="#0F0F0F" stroke-width="2" stroke-linecap="round"/>
<path d="M330.222 298.963L343.326 290.7L323.932 261.781L317.117 268.494L330.222 298.963Z" fill="white" stroke="#0F0F0F" stroke-width="2"/>
<path d="M210.008 327.078L194.07 254.675C192.654 248.238 197.631 242.157 204.316 242.157H318.097C323.032 242.157 327.298 245.548 328.343 250.3L343.659 319.979C344.077 321.879 345.784 323.236 347.758 323.236H358.004C358.583 323.236 359.052 323.698 359.052 324.269V328.389C359.052 328.964 358.576 329.428 357.993 329.422L211.022 327.892C210.532 327.887 210.112 327.549 210.008 327.078Z" fill="white"/>
<path d="M268.893 283.988C268.893 288.836 265.608 292.767 261.555 292.767C257.502 292.767 254.216 288.836 254.216 283.988C254.216 279.139 257.502 275.208 261.555 275.208C265.608 275.208 268.893 279.139 268.893 283.988Z" fill="white"/>
<path d="M210.008 327.078L194.07 254.675C192.654 248.238 197.631 242.157 204.316 242.157H318.097C323.032 242.157 327.298 245.548 328.343 250.3L343.659 319.979C344.077 321.879 345.784 323.236 347.758 323.236H358.004C358.583 323.236 359.052 323.698 359.052 324.269V328.389C359.052 328.964 358.576 329.428 357.993 329.422L211.022 327.892C210.532 327.887 210.112 327.549 210.008 327.078Z" stroke="#0F0F0F" stroke-width="2"/>
<path d="M268.893 283.988C268.893 288.836 265.608 292.767 261.555 292.767C257.502 292.767 254.216 288.836 254.216 283.988C254.216 279.139 257.502 275.208 261.555 275.208C265.608 275.208 268.893 279.139 268.893 283.988Z" stroke="#0F0F0F" stroke-width="2"/>
<path d="M200.746 295.348C200.746 293.352 202.389 291.733 204.415 291.733H207.56C209.587 291.733 211.23 293.352 211.23 295.348C211.23 297.345 209.587 298.963 207.56 298.963H204.415C202.389 298.963 200.746 297.345 200.746 295.348Z" fill="white"/>
<path d="M202.843 302.578C202.843 300.582 204.486 298.963 206.512 298.963H209.657C211.684 298.963 213.326 300.582 213.326 302.578C213.326 304.575 211.684 306.193 209.657 306.193H206.512C204.486 306.193 202.843 304.575 202.843 302.578Z" fill="white"/>
<path d="M201.794 309.292C201.794 307.581 203.203 306.193 204.94 306.193H207.036C208.773 306.193 210.181 307.581 210.181 309.292C210.181 311.003 208.773 312.39 207.036 312.39H204.94C203.203 312.39 201.794 311.003 201.794 309.292Z" fill="white"/>
<path d="M200.746 316.005C200.746 314.579 201.92 313.423 203.367 313.423H205.464C206.911 313.423 208.085 314.579 208.085 316.005C208.085 317.431 206.911 318.587 205.464 318.587H203.367C201.92 318.587 200.746 317.431 200.746 316.005Z" fill="white"/>
<path d="M200.746 295.348C200.746 293.352 202.389 291.733 204.415 291.733H207.56C209.587 291.733 211.23 293.352 211.23 295.348C211.23 297.345 209.587 298.963 207.56 298.963H204.415C202.389 298.963 200.746 297.345 200.746 295.348Z" stroke="#0F0F0F" stroke-width="2"/>
<path d="M202.843 302.578C202.843 300.582 204.486 298.963 206.512 298.963H209.657C211.684 298.963 213.326 300.582 213.326 302.578C213.326 304.575 211.684 306.193 209.657 306.193H206.512C204.486 306.193 202.843 304.575 202.843 302.578Z" stroke="#0F0F0F" stroke-width="2"/>
<path d="M201.794 309.292C201.794 307.581 203.203 306.193 204.94 306.193H207.036C208.773 306.193 210.181 307.581 210.181 309.292C210.181 311.003 208.773 312.39 207.036 312.39H204.94C203.203 312.39 201.794 311.003 201.794 309.292Z" stroke="#0F0F0F" stroke-width="2"/>
<path d="M200.746 316.005C200.746 314.579 201.92 313.423 203.367 313.423H205.464C206.911 313.423 208.085 314.579 208.085 316.005C208.085 317.431 206.911 318.587 205.464 318.587H203.367C201.92 318.587 200.746 317.431 200.746 316.005Z" stroke="#0F0F0F" stroke-width="2"/>
<path d="M167.617 295.865H150.526C148.732 295.865 147.277 297.319 147.277 299.113V317.638C147.277 324.152 152.558 329.432 159.071 329.432C165.585 329.432 170.865 324.152 170.865 317.638V301.545V299.113C170.865 297.319 169.411 295.865 167.617 295.865Z" fill="#FF8D2A"/>
<path d="M170.865 301.545C186.067 301.545 181.349 319.104 170.865 319.62M159.071 329.432V329.432C165.585 329.432 170.865 324.152 170.865 317.638V299.113C170.865 297.319 169.411 295.865 167.617 295.865H150.526C148.732 295.865 147.277 297.319 147.277 299.113V317.638C147.277 324.152 152.558 329.432 159.071 329.432Z" stroke="#0F0F0F" stroke-width="2"/>
<path d="M159.334 289.151C148.326 277.79 163.527 268.494 161.43 256.617C167.721 262.297 157.761 277.274 159.334 289.151Z" fill="white" stroke="#0F0F0F" stroke-width="2" stroke-linejoin="round"/>
<path d="M119.494 226.664C131.675 258.941 129.977 281.921 111.107 285.536C109.938 284.247 108.889 282.936 107.961 281.598C106.553 283.048 104.981 284.365 103.244 285.536C100.687 283.161 98.393 280.844 96.3915 278.487C94.8644 281.879 92.4441 284.357 89.0916 285.536C73.3656 284.504 68.62 254.845 82.8014 227.697C85.2292 230.787 87.3849 234.015 89.2602 237.3C91.2505 228.968 94.6302 219.08 99.5745 207.04C106.023 216.647 110.721 226.267 113.623 235.399C115.365 232.606 117.321 229.698 119.494 226.664Z" fill="white"/>
<path d="M111.107 285.536L110.366 286.208L110.744 286.624L111.296 286.519L111.107 285.536ZM117.349 255.606C117.361 255.054 116.923 254.596 116.371 254.584C115.819 254.572 115.362 255.01 115.349 255.562L117.349 255.606ZM119.494 226.664L120.43 226.311C120.3 225.966 119.99 225.721 119.624 225.673C119.259 225.625 118.896 225.782 118.681 226.082L119.494 226.664ZM89.0916 285.536L89.0261 286.534L89.2304 286.548L89.4235 286.48L89.0916 285.536ZM82.8014 227.697L83.5878 227.079C83.3781 226.812 83.0473 226.67 82.7093 226.701C82.3713 226.733 82.0723 226.933 81.9151 227.234L82.8014 227.697ZM99.5745 207.04L100.405 206.483C100.199 206.176 99.8412 206.008 99.4739 206.045C99.1067 206.082 98.7897 206.319 98.6495 206.66L99.5745 207.04ZM103.244 285.536L102.563 286.269L103.145 286.809L103.803 286.366L103.244 285.536ZM107.961 281.598L108.783 281.028L107.961 281.598ZM112.058 285.846C115.674 274.721 117.072 268.162 117.349 255.606L115.349 255.562C115.077 267.893 113.722 274.258 110.156 285.227L112.058 285.846ZM111.296 286.519C116.215 285.576 120.075 283.355 122.862 279.989C125.638 276.636 127.291 272.219 127.937 266.971C129.227 256.501 126.541 242.506 120.43 226.311L118.559 227.017C124.628 243.099 127.183 256.732 125.952 266.726C125.338 271.709 123.79 275.732 121.321 278.714C118.863 281.683 115.435 283.689 110.919 284.554L111.296 286.519ZM89.1571 284.539C82.0562 284.072 77.0876 277.101 75.7234 266.285C74.3722 255.572 76.6804 241.574 83.6878 228.16L81.9151 227.234C74.741 240.967 72.3313 255.373 73.7391 266.535C75.1338 277.593 80.401 285.968 89.0261 286.534L89.1571 284.539ZM90.2328 237.532C92.2065 229.27 95.5655 219.435 100.5 207.42L98.6495 206.66C93.6949 218.725 90.2945 228.666 88.2875 237.067L90.2328 237.532ZM90.1286 236.804C88.2297 233.478 86.0468 230.209 83.5878 227.079L82.0151 228.315C84.4116 231.365 86.5401 234.552 88.3917 237.795L90.1286 236.804ZM114.576 235.096C111.642 225.863 106.899 216.158 100.405 206.483L98.7442 207.597C105.147 217.137 109.8 226.672 112.67 235.702L114.576 235.096ZM114.471 235.928C116.2 233.156 118.144 230.265 120.307 227.247L118.681 226.082C116.497 229.13 114.529 232.056 112.774 234.87L114.471 235.928ZM89.4235 286.48C93.0766 285.194 95.6839 282.494 97.3033 278.898L95.4797 278.076C94.0449 281.263 91.8115 283.519 88.7597 284.593L89.4235 286.48ZM97.3033 278.898C99.5382 273.934 99.9152 267.233 98.6737 259.918C97.4287 252.582 94.541 244.532 90.1286 236.804L88.3917 237.795C92.6992 245.34 95.4998 253.169 96.7019 260.252C97.9074 267.355 97.4901 273.612 95.4797 278.076L97.3033 278.898ZM103.924 284.804C101.385 282.445 99.1215 280.157 97.1538 277.84L95.6292 279.134C97.6644 281.531 99.9883 283.877 102.563 286.269L103.924 284.804ZM111.848 284.865C110.706 283.604 109.684 282.327 108.783 281.028L107.14 282.168C108.094 283.544 109.171 284.889 110.366 286.208L111.848 284.865ZM108.783 281.028C104.762 275.231 103.108 268.947 103.968 261.652C104.833 254.319 108.245 245.911 114.471 235.928L112.774 234.87C106.472 244.975 102.895 253.672 101.982 261.418C101.064 269.204 102.844 275.975 107.14 282.168L108.783 281.028ZM103.803 286.366C105.597 285.156 107.222 283.795 108.679 282.295L107.244 280.901C105.885 282.301 104.366 283.574 102.685 284.707L103.803 286.366Z" fill="#0F0F0F"/>
<path d="M131.909 285.536H75.112C74.4817 285.536 74.0086 286.112 74.1311 286.73L82.2814 327.883H124.74L132.89 286.73C133.013 286.112 132.539 285.536 131.909 285.536Z" fill="#FF8D2A" stroke="#0F0F0F" stroke-width="2"/>
<path d="M177.68 148.839C177.68 142.764 182.605 137.839 188.68 137.839H263.128C269.204 137.839 274.128 142.764 274.128 148.839V154.881V196.04C274.128 202.115 269.204 207.04 263.128 207.04H188.68C182.605 207.04 177.68 202.115 177.68 196.04V154.881V148.839Z" fill="white"/>
<path d="M177.68 154.881V196.04C177.68 202.115 182.605 207.04 188.68 207.04H263.128C269.204 207.04 274.128 202.115 274.128 196.04V154.881M177.68 154.881V148.839C177.68 142.764 182.605 137.839 188.68 137.839H263.128C269.204 137.839 274.128 142.764 274.128 148.839V154.881M177.68 154.881H274.128" stroke="#0F0F0F" stroke-width="2"/>
<path d="M178.204 145.586L177.68 155.398L272.556 154.881L274.128 154.365V147.135L271.508 141.971L266.266 138.356L191.832 137.839L185.542 138.356L181.873 140.421L178.204 145.586Z" fill="#FF8D2A"/>
<path d="M177.68 154.881V196.04C177.68 202.115 182.605 207.04 188.68 207.04H263.128C269.204 207.04 274.128 202.115 274.128 196.04V154.881M177.68 154.881V148.839C177.68 142.764 182.605 137.839 188.68 137.839H263.128C269.204 137.839 274.128 142.764 274.128 148.839V154.881M177.68 154.881H274.128" stroke="#0F0F0F" stroke-width="2"/>
<path d="M195.654 182.032C195.248 181.658 194.615 181.685 194.241 182.091C193.868 182.498 193.894 183.13 194.301 183.504L195.654 182.032ZM202.84 189.998L202.163 190.734C202.41 190.961 202.754 191.049 203.079 190.969C203.405 190.889 203.668 190.651 203.782 190.335L202.84 189.998ZM210.072 172.777C210.258 172.257 209.987 171.685 209.468 171.498C208.948 171.312 208.375 171.583 208.189 172.102L210.072 172.777ZM218.614 181.219C218.614 189.779 211.566 196.744 202.84 196.744V198.744C212.642 198.744 220.614 190.912 220.614 181.219H218.614ZM202.84 196.744C194.114 196.744 187.066 189.779 187.066 181.219H185.066C185.066 190.912 193.038 198.744 202.84 198.744V196.744ZM187.066 181.219C187.066 172.658 194.114 165.693 202.84 165.693V163.693C193.038 163.693 185.066 171.526 185.066 181.219H187.066ZM202.84 165.693C211.566 165.693 218.614 172.658 218.614 181.219H220.614C220.614 171.526 212.642 163.693 202.84 163.693V165.693ZM194.301 183.504L202.163 190.734L203.517 189.262L195.654 182.032L194.301 183.504ZM203.782 190.335L210.072 172.777L208.189 172.102L201.899 189.661L203.782 190.335Z" fill="#0F0F0F"/>
<path d="M229.047 171.407H261.546M229.047 180.703H261.546M229.047 189.482H261.546" stroke="#0F0F0F" stroke-width="2" stroke-linecap="round"/>
<path d="M198.651 147.652C198.651 149.648 197.008 151.267 194.982 151.267C192.955 151.267 191.312 149.648 191.312 147.652C191.312 145.655 192.955 144.037 194.982 144.037C197.008 144.037 198.651 145.655 198.651 147.652Z" fill="white"/>
<path d="M210.183 147.652C210.183 149.648 208.54 151.267 206.514 151.267C204.487 151.267 202.844 149.648 202.844 147.652C202.844 145.655 204.487 144.037 206.514 144.037C208.54 144.037 210.183 145.655 210.183 147.652Z" fill="white"/>
<path d="M220.666 147.652C220.666 149.648 219.024 151.267 216.997 151.267C214.971 151.267 213.328 149.648 213.328 147.652C213.328 145.655 214.971 144.037 216.997 144.037C219.024 144.037 220.666 145.655 220.666 147.652Z" fill="white"/>
<path d="M198.651 147.652C198.651 149.648 197.008 151.267 194.982 151.267C192.955 151.267 191.312 149.648 191.312 147.652C191.312 145.655 192.955 144.037 194.982 144.037C197.008 144.037 198.651 145.655 198.651 147.652Z" stroke="#0F0F0F" stroke-width="2"/>
<path d="M210.183 147.652C210.183 149.648 208.54 151.267 206.514 151.267C204.487 151.267 202.844 149.648 202.844 147.652C202.844 145.655 204.487 144.037 206.514 144.037C208.54 144.037 210.183 145.655 210.183 147.652Z" stroke="#0F0F0F" stroke-width="2"/>
<path d="M220.666 147.652C220.666 149.648 219.024 151.267 216.997 151.267C214.971 151.267 213.328 149.648 213.328 147.652C213.328 145.655 214.971 144.037 216.997 144.037C219.024 144.037 220.666 145.655 220.666 147.652Z" stroke="#0F0F0F" stroke-width="2"/>
<path d="M93.8164 91.0659C93.8164 86.0954 97.8458 82.0659 102.816 82.0659H150.863C155.833 82.0659 159.863 86.0954 159.863 91.0659V93.736V120.453C159.863 125.424 155.833 129.453 150.863 129.453H102.816C97.8458 129.453 93.8164 125.424 93.8164 120.453V93.736V91.0659Z" fill="white"/>
<path d="M93.8164 93.736V120.453C93.8164 125.424 97.8458 129.453 102.816 129.453H150.863C155.833 129.453 159.863 125.424 159.863 120.453V93.736M93.8164 93.736V91.0659C93.8164 86.0954 97.8458 82.0659 102.816 82.0659H150.863C155.833 82.0659 159.863 86.0954 159.863 91.0659V93.736M93.8164 93.736H159.863" stroke="#0F0F0F" stroke-width="2"/>
<path d="M95.3889 87.7466L93.8164 94.0896L158.786 93.736L159.863 93.3823L158.786 88.7794L156.194 85.1645L152.524 82.4196L103.508 82.0659L100.107 83.0988L96.9615 84.1316L95.3889 87.7466Z" fill="#FF8D2A"/>
<path d="M93.8164 93.736V120.453C93.8164 125.424 97.8458 129.453 102.816 129.453H150.863C155.833 129.453 159.863 125.424 159.863 120.453V93.736M93.8164 93.736V91.0659C93.8164 86.0954 97.8458 82.0659 102.816 82.0659H150.863C155.833 82.0659 159.863 86.0954 159.863 91.0659V93.736M93.8164 93.736H159.863" stroke="#0F0F0F" stroke-width="2"/>
<path d="M106.338 112.097C105.931 111.723 105.298 111.749 104.925 112.156C104.551 112.563 104.577 113.195 104.984 113.569L106.338 112.097ZM111.045 117.784L110.368 118.52C110.615 118.747 110.959 118.835 111.284 118.755C111.61 118.675 111.873 118.437 111.986 118.121L111.045 117.784ZM116.294 106.097C116.48 105.577 116.209 105.005 115.69 104.819C115.17 104.632 114.597 104.903 114.411 105.423L116.294 106.097ZM121.531 111.772C121.531 117.456 116.85 122.088 111.045 122.088V124.088C117.927 124.088 123.531 118.588 123.531 111.772H121.531ZM111.045 122.088C105.239 122.088 100.559 117.456 100.559 111.772H98.5586C98.5586 118.588 104.163 124.088 111.045 124.088V122.088ZM100.559 111.772C100.559 106.088 105.239 101.456 111.045 101.456V99.4556C104.163 99.4556 98.5586 104.956 98.5586 111.772H100.559ZM111.045 101.456C116.85 101.456 121.531 106.088 121.531 111.772H123.531C123.531 104.956 117.927 99.4556 111.045 99.4556V101.456ZM104.984 113.569L110.368 118.52L111.722 117.048L106.338 112.097L104.984 113.569ZM111.986 118.121L116.294 106.097L114.411 105.423L110.104 117.447L111.986 118.121Z" fill="#0F0F0F"/>
<path d="M128.992 105.053H151.247M128.992 111.418H151.247M128.992 117.43H151.247" stroke="#0F0F0F" stroke-width="2" stroke-linecap="round"/>
<path d="M108.174 88.785C108.174 90.1522 107.049 91.2605 105.661 91.2605C104.273 91.2605 103.148 90.1522 103.148 88.785C103.148 87.4179 104.273 86.3096 105.661 86.3096C107.049 86.3096 108.174 87.4179 108.174 88.785Z" fill="white"/>
<path d="M116.071 88.785C116.071 90.1522 114.946 91.2605 113.558 91.2605C112.17 91.2605 111.045 90.1522 111.045 88.785C111.045 87.4179 112.17 86.3096 113.558 86.3096C114.946 86.3096 116.071 87.4179 116.071 88.785Z" fill="white"/>
<path d="M123.25 88.785C123.25 90.1522 122.125 91.2605 120.737 91.2605C119.349 91.2605 118.224 90.1522 118.224 88.785C118.224 87.4179 119.349 86.3096 120.737 86.3096C122.125 86.3096 123.25 87.4179 123.25 88.785Z" fill="white"/>
<path d="M108.174 88.785C108.174 90.1522 107.049 91.2605 105.661 91.2605C104.273 91.2605 103.148 90.1522 103.148 88.785C103.148 87.4179 104.273 86.3096 105.661 86.3096C107.049 86.3096 108.174 87.4179 108.174 88.785Z" stroke="#0F0F0F" stroke-width="2"/>
<path d="M116.071 88.785C116.071 90.1522 114.946 91.2605 113.558 91.2605C112.17 91.2605 111.045 90.1522 111.045 88.785C111.045 87.4179 112.17 86.3096 113.558 86.3096C114.946 86.3096 116.071 87.4179 116.071 88.785Z" stroke="#0F0F0F" stroke-width="2"/>
<path d="M123.25 88.785C123.25 90.1522 122.125 91.2605 120.737 91.2605C119.349 91.2605 118.224 90.1522 118.224 88.785C118.224 87.4179 119.349 86.3096 120.737 86.3096C122.125 86.3096 123.25 87.4179 123.25 88.785Z" stroke="#0F0F0F" stroke-width="2"/>
<path d="M256.309 59.0474C256.309 54.0768 260.338 50.0474 265.309 50.0474H317.548C322.519 50.0474 326.548 54.0768 326.548 59.0474V62.4584V91.4436C326.548 96.4141 322.519 100.444 317.548 100.444H265.309C260.338 100.444 256.309 96.4141 256.309 91.4436V62.4584V59.0474Z" fill="white"/>
<path d="M256.309 62.4584V91.4436C256.309 96.4141 260.338 100.444 265.309 100.444H317.548C322.519 100.444 326.548 96.4141 326.548 91.4436V62.4584M256.309 62.4584V59.0474C256.309 54.0768 260.338 50.0474 265.309 50.0474H317.548C322.519 50.0474 326.548 54.0768 326.548 59.0474V62.4584M256.309 62.4584H326.548" stroke="#0F0F0F" stroke-width="2"/>
<path d="M257.981 56.0887L256.309 62.8345L325.403 62.4584L326.548 62.0823L325.403 57.1871L322.646 53.3426L318.744 50.4235L266.616 50.0474L262.998 51.1458L259.653 52.2442L257.981 56.0887Z" fill="#FF8D2A"/>
<path d="M256.309 62.4584V91.4436C256.309 96.4141 260.338 100.444 265.309 100.444H317.548C322.519 100.444 326.548 96.4141 326.548 91.4436V62.4584M256.309 62.4584V59.0474C256.309 54.0768 260.338 50.0474 265.309 50.0474H317.548C322.519 50.0474 326.548 54.0768 326.548 59.0474V62.4584M256.309 62.4584H326.548" stroke="#0F0F0F" stroke-width="2"/>
<path d="M269.584 82.0321C269.178 81.6582 268.545 81.6848 268.171 82.0913C267.798 82.4978 267.824 83.1304 268.231 83.5043L269.584 82.0321ZM274.634 88.0334L273.957 88.7695C274.203 88.9964 274.547 89.0846 274.873 89.0044C275.198 88.9242 275.462 88.6862 275.575 88.3707L274.634 88.0334ZM280.156 75.5836C280.342 75.0637 280.072 74.4912 279.552 74.3049C279.032 74.1187 278.459 74.3892 278.273 74.9091L280.156 75.5836ZM285.849 81.6399C285.849 87.7203 280.842 92.6748 274.634 92.6748V94.6748C281.918 94.6748 287.849 88.8529 287.849 81.6399H285.849ZM274.634 92.6748C268.425 92.6748 263.418 87.7203 263.418 81.6399H261.418C261.418 88.8529 267.349 94.6748 274.634 94.6748V92.6748ZM263.418 81.6399C263.418 75.5595 268.425 70.605 274.634 70.605V68.605C267.349 68.605 261.418 74.4269 261.418 81.6399H263.418ZM274.634 70.605C280.842 70.605 285.849 75.5595 285.849 81.6399H287.849C287.849 74.4269 281.918 68.605 274.634 68.605V70.605ZM268.231 83.5043L273.957 88.7695L275.31 87.2973L269.584 82.0321L268.231 83.5043ZM275.575 88.3707L280.156 75.5836L278.273 74.9091L273.692 87.6962L275.575 88.3707Z" fill="#0F0F0F"/>
<path d="M293.719 74.4937H317.387M293.719 81.2633H317.387M293.719 87.6568H317.387" stroke="#0F0F0F" stroke-width="2" stroke-linecap="round"/>
<path d="M271.575 57.1927C271.575 58.6467 270.378 59.8253 268.903 59.8253C267.427 59.8253 266.23 58.6467 266.23 57.1927C266.23 55.7387 267.427 54.5601 268.903 54.5601C270.378 54.5601 271.575 55.7387 271.575 57.1927Z" fill="white"/>
<path d="M279.973 57.1927C279.973 58.6467 278.777 59.8253 277.301 59.8253C275.825 59.8253 274.629 58.6467 274.629 57.1927C274.629 55.7387 275.825 54.5601 277.301 54.5601C278.777 54.5601 279.973 55.7387 279.973 57.1927Z" fill="white"/>
<path d="M287.608 57.1927C287.608 58.6467 286.411 59.8253 284.936 59.8253C283.46 59.8253 282.263 58.6467 282.263 57.1927C282.263 55.7387 283.46 54.5601 284.936 54.5601C286.411 54.5601 287.608 55.7387 287.608 57.1927Z" fill="white"/>
<path d="M271.575 57.1927C271.575 58.6467 270.378 59.8253 268.903 59.8253C267.427 59.8253 266.23 58.6467 266.23 57.1927C266.23 55.7387 267.427 54.5601 268.903 54.5601C270.378 54.5601 271.575 55.7387 271.575 57.1927Z" stroke="#0F0F0F" stroke-width="2"/>
<path d="M279.973 57.1927C279.973 58.6467 278.777 59.8253 277.301 59.8253C275.825 59.8253 274.629 58.6467 274.629 57.1927C274.629 55.7387 275.825 54.5601 277.301 54.5601C278.777 54.5601 279.973 55.7387 279.973 57.1927Z" stroke="#0F0F0F" stroke-width="2"/>
<path d="M287.608 57.1927C287.608 58.6467 286.411 59.8253 284.936 59.8253C283.46 59.8253 282.263 58.6467 282.263 57.1927C282.263 55.7387 283.46 54.5601 284.936 54.5601C286.411 54.5601 287.608 55.7387 287.608 57.1927Z" stroke="#0F0F0F" stroke-width="2"/>
<path d="M238.485 238.542C232.305 229.493 229.146 224.12 226.953 211.172M286.185 188.449C320.781 184.834 341.224 145.069 303.483 110.469M169.294 174.505C159.756 176.172 133.084 154.568 133.649 139.905M136.271 72.2537C169.294 29.9059 218.567 12.3482 277.275 43.8504" stroke="#0F0F0F" stroke-width="2" stroke-linecap="round" stroke-dasharray="11 11"/>
<path d="M504.244 263.847C526.259 239.575 536.743 204.458 510.534 167.792L504.971 165.965C501.547 164.841 497.793 165.41 494.857 167.499L494.149 168.003C491.603 169.814 490.091 172.746 490.091 175.871V175.871C490.091 178.617 491.26 181.233 493.305 183.065L493.631 183.357C495.087 184.66 496.874 185.538 498.795 185.893L499.127 185.954C502.388 186.557 505.752 185.764 508.4 183.768L508.906 183.387C511.634 181.332 513.464 178.306 514.019 174.937L516.3 161.078C516.3 136.225 508.358 110.625 473.994 101.146C470.009 100.047 465.788 101.361 462.843 104.263L461.889 105.202C459.239 107.814 458.219 111.661 459.229 115.242V115.242C459.866 117.499 461.26 119.468 463.178 120.818L464.094 121.462C466.344 123.046 469.049 123.896 471.8 123.896V123.896C475.124 123.896 478.372 122.655 480.847 120.438V120.438C482.101 119.315 483.144 117.961 483.905 116.46L484.135 116.008C485.294 113.725 485.898 111.2 485.898 108.639V106.723C485.898 102.087 484.571 97.5482 482.075 93.6419L476.987 85.6805C460.213 69.1551 440.396 58.9862 406.223 68.6381" stroke="#0F0F0F" stroke-width="2" stroke-linecap="round" stroke-dasharray="11 11"/>
<path d="M371.102 79.4835L392.593 59.8594L403.601 70.1878L400.456 85.1641L371.102 79.4835Z" fill="#FF8D2A"/>
<path d="M403.601 70.188L394.473 60.2956C393.724 59.4842 392.459 59.433 391.647 60.1813L376.868 73.8029M403.601 70.188L401.791 83.5622C401.635 84.7087 400.543 85.4848 399.409 85.2537L371.102 79.4836M403.601 70.188L388.924 75.3522" stroke="#0F0F0F" stroke-width="2" stroke-linecap="round" stroke-linejoin="round"/>
</svg>
