<svg width="496" height="308" viewBox="0 0 496 308" fill="none" xmlns="http://www.w3.org/2000/svg">
<path d="M487.544 197.549C468.08 167.963 439.607 171.548 406.143 161.153C386.398 155.019 357.766 162.422 347.016 144.527C322.575 103.838 346.453 66.0159 316.308 29.1804C294.017 1.94236 249.439 -4.10926 216.45 3.2844C183.284 10.7177 154.267 37.3744 141.12 68.4442C127.127 101.515 167.025 132.702 141.12 157.171C106.465 189.906 51.1658 146.346 16.3942 178.959C-8.86609 202.651 9.20023 250.514 20.2192 284.98C22.4396 291.926 24.2393 298.986 25.956 305.999H467.693C472.979 296.473 478.373 286.966 482.094 276.604C491.844 249.449 504.109 222.73 487.544 197.549Z" fill="#FFBF88"/>
<path d="M487.544 197.549C468.08 167.963 439.607 171.548 406.143 161.153C386.398 155.019 357.766 162.422 347.016 144.527C322.575 103.838 346.453 66.0159 316.308 29.1804C294.017 1.94236 249.439 -4.10926 216.45 3.2844C183.284 10.7177 154.267 37.3744 141.12 68.4442C127.127 101.515 167.025 132.702 141.12 157.171C106.465 189.906 51.1658 146.346 16.3942 178.959C-8.86609 202.651 9.20023 250.514 20.2192 284.98C22.4396 291.926 24.2393 298.986 25.956 305.999H467.693C472.979 296.473 478.373 286.966 482.094 276.604C491.844 249.449 504.109 222.73 487.544 197.549Z" fill="#FFBF88"/>
<path d="M22.1445 305.999H472.923" stroke="#0F0F0F" stroke-width="2" stroke-linecap="round"/>
<path d="M100.764 204.544C75.0537 194.813 73.2799 148.62 49.3362 160.63L0.724104 186.671C19.6094 184.907 24.0395 220.361 50.1253 233.245C50.4142 233.388 50.758 233.382 51.0408 233.23L100.95 206.495C101.745 206.069 101.611 204.865 100.764 204.544Z" fill="white"/>
<path d="M56.1527 164.54L48.5981 168.587M61.9563 168.153L24.5118 188.211M64.9817 173.673L48.5587 182.471M68.3631 179.843L35.5171 197.438M72.3464 184.01L45.0842 198.614M71.2798 192.143L36.7915 210.618M78.8762 194.375L68.694 199.829M89.2246 203.954L58.6777 220.318M49.3362 160.63C73.2799 148.62 75.0537 194.813 100.764 204.544C101.611 204.865 101.745 206.069 100.95 206.495L51.0408 233.23C50.758 233.382 50.4142 233.388 50.1253 233.245C24.0395 220.361 19.6094 184.907 0.724101 186.671L49.3362 160.63Z" stroke="#0F0F0F" stroke-width="2" stroke-linecap="round"/>
<path d="M170.53 86.4513C166.621 94.0849 157.192 97.1398 149.471 93.2746C141.75 89.4094 138.66 80.0878 142.57 72.4542C146.479 64.8206 155.908 61.7657 163.629 65.6309C171.35 69.4961 174.44 78.8177 170.53 86.4513Z" fill="#FF8D2A"/>
<path d="M166.802 84.585C163.935 90.183 157.021 92.4233 151.359 89.5888C145.697 86.7543 143.431 79.9184 146.298 74.3205C149.165 68.7225 156.079 66.4822 161.741 69.3167C167.403 72.1512 169.669 78.987 166.802 84.585Z" fill="#FF8D2A"/>
<path d="M170.53 86.4513C166.621 94.0849 157.192 97.1398 149.471 93.2746C141.75 89.4094 138.66 80.0878 142.57 72.4542C146.479 64.8206 155.908 61.7657 163.629 65.6309C171.35 69.4961 174.44 78.8177 170.53 86.4513Z" stroke="#0F0F0F" stroke-width="2"/>
<path d="M166.802 84.585C163.935 90.183 157.021 92.4233 151.359 89.5888C145.697 86.7543 143.431 79.9184 146.298 74.3205C149.165 68.7225 156.079 66.4822 161.741 69.3167C167.403 72.1512 169.669 78.987 166.802 84.585Z" stroke="#0F0F0F" stroke-width="2"/>
<path d="M157.467 86.9197L155.137 71.5991L156.079 71.4592L158.408 86.7798L157.467 86.9197ZM158.403 76.285C158.284 75.8091 158.03 75.4634 157.641 75.2478C157.252 75.0322 156.759 74.9688 156.162 75.0575C155.757 75.1178 155.423 75.2285 155.162 75.3897C154.9 75.5469 154.711 75.7403 154.593 75.97C154.479 76.1991 154.442 76.4453 154.482 76.7086C154.508 76.9291 154.581 77.1141 154.702 77.2635C154.826 77.4123 154.983 77.5337 155.174 77.6278C155.363 77.7179 155.578 77.7901 155.817 77.8443C156.055 77.8946 156.307 77.9306 156.573 77.9523L157.669 78.0587C158.2 78.1022 158.695 78.1919 159.154 78.3277C159.612 78.4635 160.021 78.6537 160.379 78.8983C160.737 79.1429 161.032 79.4499 161.264 79.8193C161.5 80.1882 161.659 80.6276 161.741 81.1378C161.851 81.8884 161.766 82.566 161.486 83.1706C161.21 83.7707 160.754 84.2729 160.119 84.6773C159.487 85.0772 158.693 85.3482 157.737 85.4904C156.788 85.6314 155.938 85.6026 155.188 85.404C154.442 85.2048 153.826 84.8373 153.342 84.3014C152.861 83.7609 152.543 83.0513 152.39 82.1724L154.795 81.815C154.884 82.222 155.049 82.5483 155.29 82.794C155.534 83.0352 155.835 83.2006 156.193 83.2902C156.554 83.3752 156.949 83.3859 157.378 83.3222C157.798 83.2597 158.154 83.1415 158.445 82.9678C158.739 82.7935 158.955 82.5799 159.093 82.3269C159.23 82.0739 159.277 81.7997 159.232 81.5045C159.19 81.2292 159.076 81.0095 158.891 80.8452C158.709 80.6805 158.459 80.5544 158.141 80.4671C157.826 80.3792 157.446 80.3133 157.001 80.2692L155.671 80.1243C154.641 80.0202 153.799 79.7435 153.144 79.2942C152.489 78.8448 152.094 78.1671 151.96 77.2608C151.844 76.5193 151.935 75.8428 152.233 75.2314C152.535 74.6194 152.999 74.1077 153.625 73.6965C154.251 73.2852 154.993 73.0159 155.85 72.8885C156.722 72.7589 157.507 72.8013 158.205 73.0158C158.907 73.2298 159.481 73.5871 159.929 74.0876C160.377 74.5882 160.662 75.2027 160.785 75.9311L158.403 76.285Z" fill="#0F0F0F"/>
<path d="M157.467 86.9197L155.137 71.5991L156.079 71.4592L158.408 86.7798L157.467 86.9197ZM158.403 76.285C158.284 75.8091 158.03 75.4634 157.641 75.2478C157.252 75.0322 156.759 74.9688 156.162 75.0575C155.757 75.1178 155.423 75.2285 155.162 75.3897C154.9 75.5469 154.711 75.7403 154.593 75.97C154.479 76.1991 154.442 76.4453 154.482 76.7086C154.508 76.9291 154.581 77.1141 154.702 77.2635C154.826 77.4123 154.983 77.5337 155.174 77.6278C155.363 77.7179 155.578 77.7901 155.817 77.8443C156.055 77.8946 156.307 77.9306 156.573 77.9523L157.669 78.0587C158.2 78.1022 158.695 78.1919 159.154 78.3277C159.612 78.4635 160.021 78.6537 160.379 78.8983C160.737 79.1429 161.032 79.4499 161.264 79.8193C161.5 80.1882 161.659 80.6276 161.741 81.1378C161.851 81.8884 161.766 82.566 161.486 83.1706C161.21 83.7707 160.754 84.2729 160.119 84.6773C159.487 85.0772 158.693 85.3482 157.737 85.4904C156.788 85.6314 155.938 85.6026 155.188 85.404C154.442 85.2048 153.826 84.8373 153.342 84.3014C152.861 83.7609 152.543 83.0513 152.39 82.1724L154.795 81.815C154.884 82.222 155.049 82.5483 155.29 82.794C155.534 83.0352 155.835 83.2006 156.193 83.2902C156.554 83.3752 156.949 83.3859 157.378 83.3222C157.798 83.2597 158.154 83.1415 158.445 82.9678C158.739 82.7935 158.955 82.5799 159.093 82.3269C159.23 82.0739 159.277 81.7997 159.232 81.5045C159.19 81.2292 159.076 81.0095 158.891 80.8452C158.709 80.6805 158.459 80.5544 158.141 80.4671C157.826 80.3792 157.446 80.3133 157.001 80.2692L155.671 80.1243C154.641 80.0202 153.799 79.7435 153.144 79.2942C152.489 78.8448 152.094 78.1671 151.96 77.2608C151.844 76.5193 151.935 75.8428 152.233 75.2314C152.535 74.6194 152.999 74.1077 153.625 73.6965C154.251 73.2852 154.993 73.0159 155.85 72.8885C156.722 72.7589 157.507 72.8013 158.205 73.0158C158.907 73.2298 159.481 73.5871 159.929 74.0876C160.377 74.5882 160.662 75.2027 160.785 75.9311L158.403 76.285Z" fill="#0F0F0F"/>
<path d="M154.29 92.7163C154.29 101.273 147.274 108.209 138.619 108.209C129.965 108.209 122.949 101.273 122.949 92.7163C122.949 84.16 129.965 77.2236 138.619 77.2236C147.274 77.2236 154.29 84.16 154.29 92.7163Z" fill="#FF8D2A"/>
<path d="M150.111 92.7163C150.111 98.991 144.966 104.078 138.619 104.078C132.273 104.078 127.128 98.991 127.128 92.7163C127.128 86.4417 132.273 81.355 138.619 81.355C144.966 81.355 150.111 86.4417 150.111 92.7163Z" fill="#FF8D2A"/>
<path d="M154.29 92.7163C154.29 101.273 147.274 108.209 138.619 108.209C129.965 108.209 122.949 101.273 122.949 92.7163C122.949 84.16 129.965 77.2236 138.619 77.2236C147.274 77.2236 154.29 84.16 154.29 92.7163Z" stroke="#0F0F0F" stroke-width="2"/>
<path d="M150.111 92.7163C150.111 98.991 144.966 104.078 138.619 104.078C132.273 104.078 127.128 98.991 127.128 92.7163C127.128 86.4417 132.273 81.355 138.619 81.355C144.966 81.355 150.111 86.4417 150.111 92.7163Z" stroke="#0F0F0F" stroke-width="2"/>
<path d="M142.846 98.9676L133.768 86.3396L134.544 85.7944L143.622 98.4225L142.846 98.9676ZM138.822 89.0618C138.498 88.6905 138.114 88.4955 137.668 88.4768C137.223 88.4582 136.754 88.6217 136.262 88.9674C135.928 89.2023 135.681 89.45 135.522 89.7104C135.36 89.9676 135.279 90.2249 135.279 90.4823C135.282 90.7375 135.362 90.9736 135.518 91.1907C135.642 91.376 135.791 91.5084 135.967 91.5878C136.146 91.665 136.342 91.7031 136.555 91.702C136.765 91.6976 136.99 91.6663 137.228 91.6079C137.463 91.5462 137.705 91.4657 137.951 91.3666L138.978 90.972C139.471 90.7737 139.954 90.6326 140.425 90.5489C140.897 90.4651 141.348 90.4524 141.779 90.5107C142.21 90.569 142.614 90.7111 142.99 90.937C143.369 91.1606 143.711 91.4818 144.017 91.9005C144.459 92.521 144.693 93.1634 144.719 93.8277C144.747 94.4866 144.569 95.1382 144.188 95.7826C143.807 96.4215 143.222 97.018 142.434 97.572C141.652 98.1216 140.881 98.4753 140.121 98.6331C139.364 98.7888 138.647 98.7357 137.97 98.474C137.293 98.2067 136.686 97.7153 136.148 96.9996L138.13 95.6067C138.396 95.93 138.692 96.1474 139.019 96.2591C139.347 96.3652 139.691 96.3784 140.051 96.2984C140.412 96.213 140.77 96.0462 141.123 95.798C141.47 95.5542 141.733 95.29 141.913 95.0052C142.096 94.7183 142.191 94.4312 142.198 94.144C142.205 93.8568 142.121 93.5916 141.946 93.3482C141.783 93.1213 141.582 92.976 141.341 92.9123C141.104 92.8464 140.823 92.8456 140.499 92.9099C140.178 92.9721 139.809 93.0828 139.392 93.2422L138.139 93.7073C137.173 94.0741 136.295 94.2034 135.505 94.0951C134.716 93.9869 134.054 93.5584 133.52 92.8097C133.078 92.2002 132.849 91.5561 132.836 90.8774C132.826 90.1965 133.006 89.5327 133.377 88.8862C133.748 88.2397 134.286 87.6682 134.993 87.1718C135.712 86.6665 136.432 86.3537 137.152 86.2335C137.876 86.111 138.552 86.1731 139.18 86.4197C139.808 86.6663 140.343 87.0871 140.785 87.6823L138.822 89.0618Z" fill="#0F0F0F"/>
<path d="M142.846 98.9676L133.768 86.3396L134.544 85.7944L143.622 98.4225L142.846 98.9676ZM138.822 89.0618C138.498 88.6905 138.114 88.4955 137.668 88.4768C137.223 88.4582 136.754 88.6217 136.262 88.9674C135.928 89.2023 135.681 89.45 135.522 89.7104C135.36 89.9676 135.279 90.2249 135.279 90.4823C135.282 90.7375 135.362 90.9736 135.518 91.1907C135.642 91.376 135.791 91.5084 135.967 91.5878C136.146 91.665 136.342 91.7031 136.555 91.702C136.765 91.6976 136.99 91.6663 137.228 91.6079C137.463 91.5462 137.705 91.4657 137.951 91.3666L138.978 90.972C139.471 90.7737 139.954 90.6326 140.425 90.5489C140.897 90.4651 141.348 90.4524 141.779 90.5107C142.21 90.569 142.614 90.7111 142.99 90.937C143.369 91.1606 143.711 91.4818 144.017 91.9005C144.459 92.521 144.693 93.1634 144.719 93.8277C144.747 94.4866 144.569 95.1382 144.188 95.7826C143.807 96.4215 143.222 97.018 142.434 97.572C141.652 98.1216 140.881 98.4753 140.121 98.6331C139.364 98.7888 138.647 98.7357 137.97 98.474C137.293 98.2067 136.686 97.7153 136.148 96.9996L138.13 95.6067C138.396 95.93 138.692 96.1474 139.019 96.2591C139.347 96.3652 139.691 96.3784 140.051 96.2984C140.412 96.213 140.77 96.0462 141.123 95.798C141.47 95.5542 141.733 95.29 141.913 95.0052C142.096 94.7183 142.191 94.4312 142.198 94.144C142.205 93.8568 142.121 93.5916 141.946 93.3482C141.783 93.1213 141.582 92.976 141.341 92.9123C141.104 92.8464 140.823 92.8456 140.499 92.9099C140.178 92.9721 139.809 93.0828 139.392 93.2422L138.139 93.7073C137.173 94.0741 136.295 94.2034 135.505 94.0951C134.716 93.9869 134.054 93.5584 133.52 92.8097C133.078 92.2002 132.849 91.5561 132.836 90.8774C132.826 90.1965 133.006 89.5327 133.377 88.8862C133.748 88.2397 134.286 87.6682 134.993 87.1718C135.712 86.6665 136.432 86.3537 137.152 86.2335C137.876 86.111 138.552 86.1731 139.18 86.4197C139.808 86.6663 140.343 87.0871 140.785 87.6823L138.822 89.0618Z" fill="#0F0F0F"/>
<path d="M175.192 106.143C175.192 114.699 168.176 121.636 159.522 121.636C150.867 121.636 143.852 114.699 143.852 106.143C143.852 97.5867 150.867 90.6504 159.522 90.6504C168.176 90.6504 175.192 97.5867 175.192 106.143Z" fill="#FF8D2A"/>
<path d="M171.013 106.143C171.013 112.418 165.868 117.504 159.522 117.504C153.175 117.504 148.03 112.418 148.03 106.143C148.03 99.8684 153.175 94.7818 159.522 94.7818C165.868 94.7818 171.013 99.8684 171.013 106.143Z" fill="#FF8D2A"/>
<path d="M175.192 106.143C175.192 114.699 168.176 121.636 159.522 121.636C150.867 121.636 143.852 114.699 143.852 106.143C143.852 97.5867 150.867 90.6504 159.522 90.6504C168.176 90.6504 175.192 97.5867 175.192 106.143Z" stroke="#0F0F0F" stroke-width="2"/>
<path d="M171.013 106.143C171.013 112.418 165.868 117.504 159.522 117.504C153.175 117.504 148.03 112.418 148.03 106.143C148.03 99.8684 153.175 94.7818 159.522 94.7818C165.868 94.7818 171.013 99.8684 171.013 106.143Z" stroke="#0F0F0F" stroke-width="2"/>
<path d="M163.748 112.394L154.67 99.7659L155.446 99.2207L164.524 111.849L163.748 112.394ZM159.725 102.488C159.401 102.117 159.016 101.922 158.571 101.903C158.125 101.884 157.657 102.048 157.165 102.394C156.83 102.629 156.584 102.876 156.424 103.137C156.263 103.394 156.182 103.651 156.182 103.909C156.185 104.164 156.264 104.4 156.42 104.617C156.544 104.802 156.694 104.935 156.87 105.014C157.048 105.091 157.244 105.129 157.457 105.128C157.668 105.124 157.892 105.093 158.13 105.034C158.366 104.972 158.607 104.892 158.854 104.793L159.88 104.398C160.374 104.2 160.856 104.059 161.328 103.975C161.799 103.891 162.25 103.879 162.682 103.937C163.113 103.995 163.516 104.137 163.892 104.363C164.271 104.587 164.614 104.908 164.92 105.327C165.361 105.947 165.595 106.59 165.622 107.254C165.649 107.913 165.472 108.564 165.09 109.209C164.709 109.848 164.125 110.444 163.336 110.998C162.554 111.548 161.783 111.902 161.023 112.059C160.266 112.215 159.549 112.162 158.872 111.9C158.196 111.633 157.589 111.142 157.05 110.426L159.032 109.033C159.298 109.356 159.594 109.574 159.921 109.685C160.249 109.792 160.593 109.805 160.954 109.725C161.315 109.639 161.672 109.472 162.025 109.224C162.372 108.98 162.635 108.716 162.815 108.431C162.998 108.145 163.093 107.857 163.1 107.57C163.108 107.283 163.024 107.018 162.849 106.775C162.686 106.548 162.484 106.402 162.243 106.339C162.006 106.273 161.726 106.272 161.402 106.336C161.081 106.398 160.712 106.509 160.295 106.669L159.041 107.134C158.075 107.5 157.198 107.63 156.408 107.521C155.618 107.413 154.956 106.985 154.423 106.236C153.98 105.626 153.752 104.982 153.739 104.304C153.728 103.623 153.909 102.959 154.279 102.312C154.65 101.666 155.189 101.094 155.895 100.598C156.614 100.093 157.334 99.78 158.054 99.6598C158.778 99.5373 159.454 99.5994 160.082 99.846C160.711 100.093 161.246 100.513 161.688 101.109L159.725 102.488Z" fill="#0F0F0F"/>
<path d="M163.748 112.394L154.67 99.7659L155.446 99.2207L164.524 111.849L163.748 112.394ZM159.725 102.488C159.401 102.117 159.016 101.922 158.571 101.903C158.125 101.884 157.657 102.048 157.165 102.394C156.83 102.629 156.584 102.876 156.424 103.137C156.263 103.394 156.182 103.651 156.182 103.909C156.185 104.164 156.264 104.4 156.42 104.617C156.544 104.802 156.694 104.935 156.87 105.014C157.048 105.091 157.244 105.129 157.457 105.128C157.668 105.124 157.892 105.093 158.13 105.034C158.366 104.972 158.607 104.892 158.854 104.793L159.88 104.398C160.374 104.2 160.856 104.059 161.328 103.975C161.799 103.891 162.25 103.879 162.682 103.937C163.113 103.995 163.516 104.137 163.892 104.363C164.271 104.587 164.614 104.908 164.92 105.327C165.361 105.947 165.595 106.59 165.622 107.254C165.649 107.913 165.472 108.564 165.09 109.209C164.709 109.848 164.125 110.444 163.336 110.998C162.554 111.548 161.783 111.902 161.023 112.059C160.266 112.215 159.549 112.162 158.872 111.9C158.196 111.633 157.589 111.142 157.05 110.426L159.032 109.033C159.298 109.356 159.594 109.574 159.921 109.685C160.249 109.792 160.593 109.805 160.954 109.725C161.315 109.639 161.672 109.472 162.025 109.224C162.372 108.98 162.635 108.716 162.815 108.431C162.998 108.145 163.093 107.857 163.1 107.57C163.108 107.283 163.024 107.018 162.849 106.775C162.686 106.548 162.484 106.402 162.243 106.339C162.006 106.273 161.726 106.272 161.402 106.336C161.081 106.398 160.712 106.509 160.295 106.669L159.041 107.134C158.075 107.5 157.198 107.63 156.408 107.521C155.618 107.413 154.956 106.985 154.423 106.236C153.98 105.626 153.752 104.982 153.739 104.304C153.728 103.623 153.909 102.959 154.279 102.312C154.65 101.666 155.189 101.094 155.895 100.598C156.614 100.093 157.334 99.78 158.054 99.6598C158.778 99.5373 159.454 99.5994 160.082 99.846C160.711 100.093 161.246 100.513 161.688 101.109L159.725 102.488Z" fill="#0F0F0F"/>
<path d="M357.895 61.6473C353.292 63.9071 347.707 62.0495 345.421 57.4981C343.135 52.9468 345.014 47.4253 349.618 45.1655C354.221 42.9057 359.806 44.7633 362.092 49.3146C364.377 53.8659 362.499 59.3874 357.895 61.6473Z" fill="#FF8D2A"/>
<path d="M356.791 59.4497C353.416 61.1069 349.32 59.7446 347.644 56.407C345.968 53.0694 347.346 49.0203 350.721 47.3631C354.097 45.7059 358.193 47.0681 359.869 50.4058C361.545 53.7434 360.167 57.7925 356.791 59.4497Z" fill="#FF8D2A"/>
<path d="M357.895 61.6473C353.292 63.9071 347.707 62.0495 345.421 57.4981C343.135 52.9468 345.014 47.4253 349.618 45.1655C354.221 42.9057 359.806 44.7633 362.092 49.3146C364.377 53.8659 362.499 59.3874 357.895 61.6473Z" stroke="#0F0F0F"/>
<path d="M356.791 59.4497C353.416 61.1069 349.32 59.7446 347.644 56.407C345.968 53.0694 347.346 49.0203 350.721 47.3631C354.097 45.7059 358.193 47.0681 359.869 50.4058C361.545 53.7434 360.167 57.7925 356.791 59.4497Z" stroke="#0F0F0F"/>
<path d="M351.51 57.2829L355.906 49.1735L356.405 49.4375L352.008 57.5469L351.51 57.2829ZM355.777 52.5505C355.891 52.2821 355.894 52.0283 355.787 51.7892C355.679 51.55 355.467 51.3467 355.151 51.1793C354.937 51.0656 354.738 51.0012 354.556 50.9862C354.375 50.9691 354.215 50.9945 354.077 51.0625C353.94 51.1315 353.834 51.2357 353.759 51.3751C353.692 51.4891 353.66 51.6028 353.664 51.7162C353.669 51.8307 353.701 51.9438 353.757 52.0554C353.815 52.1649 353.891 52.2746 353.986 52.3844C354.081 52.4921 354.188 52.5977 354.307 52.7013L354.79 53.1369C355.027 53.344 355.23 53.5605 355.4 53.7863C355.57 54.0121 355.696 54.2461 355.778 54.4883C355.861 54.7304 355.891 54.9802 355.869 55.2376C355.848 55.496 355.766 55.7609 355.622 56.0323C355.404 56.4282 355.12 56.7209 354.77 56.9104C354.423 57.0988 354.025 57.1778 353.578 57.1473C353.134 57.1157 352.658 56.9657 352.152 56.6974C351.65 56.4312 351.256 56.1192 350.97 55.7612C350.687 55.4043 350.526 55.0132 350.488 54.588C350.453 54.1618 350.557 53.7126 350.8 53.2406L352.073 53.9151C351.969 54.1401 351.93 54.3534 351.957 54.5549C351.986 54.7554 352.07 54.9398 352.208 55.1082C352.349 55.2755 352.533 55.4193 352.76 55.5395C352.983 55.6575 353.195 55.7263 353.395 55.7456C353.598 55.766 353.778 55.7402 353.934 55.6681C354.09 55.5961 354.211 55.4819 354.296 55.3256C354.375 55.1799 354.4 55.0354 354.37 54.8921C354.343 54.75 354.269 54.6022 354.149 54.4488C354.031 54.2964 353.874 54.1317 353.678 53.9544L353.097 53.418C352.644 53.007 352.343 52.5795 352.193 52.1356C352.042 51.6916 352.098 51.2305 352.36 50.7522C352.571 50.3583 352.857 50.0682 353.219 49.882C353.583 49.6969 353.987 49.6164 354.433 49.6406C354.879 49.6647 355.329 49.797 355.782 50.0374C356.244 50.2821 356.602 50.5781 356.857 50.9252C357.114 51.2735 357.259 51.6454 357.293 52.0409C357.326 52.4364 357.241 52.829 357.037 53.2186L355.777 52.5505Z" fill="#0F0F0F"/>
<path d="M351.51 57.2829L355.906 49.1735L356.405 49.4375L352.008 57.5469L351.51 57.2829ZM355.777 52.5505C355.891 52.2821 355.894 52.0283 355.787 51.7892C355.679 51.55 355.467 51.3467 355.151 51.1793C354.937 51.0656 354.738 51.0012 354.556 50.9862C354.375 50.9691 354.215 50.9945 354.077 51.0625C353.94 51.1315 353.834 51.2357 353.759 51.3751C353.692 51.4891 353.66 51.6028 353.664 51.7162C353.669 51.8307 353.701 51.9438 353.757 52.0554C353.815 52.1649 353.891 52.2746 353.986 52.3844C354.081 52.4921 354.188 52.5977 354.307 52.7013L354.79 53.1369C355.027 53.344 355.23 53.5605 355.4 53.7863C355.57 54.0121 355.696 54.2461 355.778 54.4883C355.861 54.7304 355.891 54.9802 355.869 55.2376C355.848 55.496 355.766 55.7609 355.622 56.0323C355.404 56.4282 355.12 56.7209 354.77 56.9104C354.423 57.0988 354.025 57.1778 353.578 57.1473C353.134 57.1157 352.658 56.9657 352.152 56.6974C351.65 56.4312 351.256 56.1192 350.97 55.7612C350.687 55.4043 350.526 55.0132 350.488 54.588C350.453 54.1618 350.557 53.7126 350.8 53.2406L352.073 53.9151C351.969 54.1401 351.93 54.3534 351.957 54.5549C351.986 54.7554 352.07 54.9398 352.208 55.1082C352.349 55.2755 352.533 55.4193 352.76 55.5395C352.983 55.6575 353.195 55.7263 353.395 55.7456C353.598 55.766 353.778 55.7402 353.934 55.6681C354.09 55.5961 354.211 55.4819 354.296 55.3256C354.375 55.1799 354.4 55.0354 354.37 54.8921C354.343 54.75 354.269 54.6022 354.149 54.4488C354.031 54.2964 353.874 54.1317 353.678 53.9544L353.097 53.418C352.644 53.007 352.343 52.5795 352.193 52.1356C352.042 51.6916 352.098 51.2305 352.36 50.7522C352.571 50.3583 352.857 50.0682 353.219 49.882C353.583 49.6969 353.987 49.6164 354.433 49.6406C354.879 49.6647 355.329 49.797 355.782 50.0374C356.244 50.2821 356.602 50.5781 356.857 50.9252C357.114 51.2735 357.259 51.6454 357.293 52.0409C357.326 52.4364 357.241 52.829 357.037 53.2186L355.777 52.5505Z" fill="#0F0F0F"/>
<path d="M363.272 105.672L362.181 104.594L348.078 114.922L348.995 115.828C349.756 116.581 350.74 117.069 351.801 117.219C353.097 117.402 354.413 117.067 355.465 116.287L362.91 110.767C363.766 110.132 364.271 109.13 364.271 108.064C364.271 107.165 363.911 106.304 363.272 105.672Z" fill="white" stroke="#0F0F0F" stroke-width="2"/>
<path d="M287.5 87.5275L293.594 93.1216C293.979 93.4757 294.573 93.4724 294.954 93.1139L299.501 88.8436L314.334 102.461L309.517 108.018C309.171 108.416 309.194 109.013 309.569 109.384L315.574 115.32C315.938 115.681 316.517 115.707 316.913 115.381L322.971 110.39C332.408 119.054 346.937 118.949 356.247 110.149L360.984 105.673C368.778 98.3071 368.917 85.9483 361.291 78.4084C363.44 74.724 364.263 71.394 362.182 65.8621L355.391 72.5756L338.987 56.357C333.815 51.2437 326.611 48.3791 319.472 49.7677C298.559 53.8353 297.306 64.2471 287.271 86.3645C287.092 86.7591 287.181 87.2345 287.5 87.5275Z" fill="white"/>
<path d="M293.594 93.1216L292.917 93.8583H292.917L293.594 93.1216ZM287.5 87.5275L288.176 86.7909H288.176L287.5 87.5275ZM287.271 86.3645L288.181 86.7777L288.181 86.7777L287.271 86.3645ZM319.472 49.7677L319.281 48.786V48.786L319.472 49.7677ZM360.984 105.673L361.671 106.4L360.984 105.673ZM356.247 110.149L355.561 109.422L356.247 110.149ZM305.409 84.6665C305.812 84.2884 305.831 83.6555 305.453 83.253C305.075 82.8504 304.442 82.8306 304.04 83.2087L305.409 84.6665ZM299.501 88.8436L298.816 88.1147L299.501 88.8436ZM294.954 93.1139L295.639 93.8428H295.639L294.954 93.1139ZM309.569 109.384L310.272 108.673V108.673L309.569 109.384ZM315.574 115.32L314.871 116.031L315.574 115.32ZM319.061 98.5354C319.423 98.1181 319.378 97.4866 318.96 97.1248C318.543 96.763 317.911 96.808 317.55 97.2253L319.061 98.5354ZM314.334 102.461L315.089 103.116V103.116L314.334 102.461ZM309.517 108.018L308.761 107.362V107.363L309.517 108.018ZM316.913 115.381L317.549 116.153H317.549L316.913 115.381ZM329.388 106.398C329.814 106.047 329.875 105.417 329.524 104.991C329.173 104.565 328.542 104.504 328.116 104.855L329.388 106.398ZM350.509 75.9959C350.117 76.3842 350.113 77.0173 350.501 77.4101C350.89 77.8028 351.523 77.8064 351.916 77.4181L350.509 75.9959ZM355.391 72.5756L356.094 73.2867L355.391 72.5756ZM362.182 65.8621L363.118 65.51C362.998 65.1929 362.727 64.9578 362.396 64.8853C362.065 64.8128 361.72 64.9128 361.479 65.151L362.182 65.8621ZM338.987 56.357L338.284 57.0681V57.0681L338.987 56.357ZM361.291 78.4084L360.427 77.9046V77.9046L361.291 78.4084ZM357.173 82.8619C356.865 83.32 356.986 83.9415 357.444 84.25C357.902 84.5584 358.524 84.4372 358.832 83.9791L357.173 82.8619ZM294.27 92.385L288.176 86.7909L286.824 88.2642L292.917 93.8583L294.27 92.385ZM288.181 86.7777C290.671 81.2914 292.69 76.3604 294.508 72.2957C296.358 68.1586 298.076 64.7312 300.107 61.8772C304.108 56.2545 309.399 52.7456 319.663 50.7493L319.281 48.786C308.632 50.8573 302.839 54.5882 298.477 60.7176C296.327 63.7397 294.543 67.3166 292.682 71.4793C290.788 75.7145 288.888 80.379 286.36 85.9513L288.181 86.7777ZM360.297 104.946L355.561 109.422L356.934 110.876L361.671 106.4L360.297 104.946ZM304.04 83.2087L298.816 88.1147L300.186 89.5725L305.409 84.6665L304.04 83.2087ZM298.816 88.1147L294.27 92.385L295.639 93.8428L300.186 89.5725L298.816 88.1147ZM308.866 110.095L314.871 116.031L316.277 114.609L310.272 108.673L308.866 110.095ZM317.55 97.2253L313.578 101.806L315.089 103.116L319.061 98.5354L317.55 97.2253ZM313.578 101.806L308.761 107.362L310.272 108.673L315.089 103.116L313.578 101.806ZM315.01 101.724L300.177 88.107L298.825 89.5803L313.658 103.198L315.01 101.724ZM317.549 116.153L323.606 111.162L322.335 109.618L316.277 114.609L317.549 116.153ZM323.606 111.162L329.388 106.398L328.116 104.855L322.335 109.618L323.606 111.162ZM351.916 77.4181L356.094 73.2867L354.688 71.8645L350.509 75.9959L351.916 77.4181ZM356.094 73.2867L362.885 66.5732L361.479 65.151L354.688 71.8645L356.094 73.2867ZM338.284 57.0681L354.688 73.2867L356.094 71.8645L339.69 55.6458L338.284 57.0681ZM361.246 66.2142C362.247 68.8761 362.521 70.9314 362.328 72.7208C362.135 74.5121 361.464 76.1269 360.427 77.9046L362.155 78.9123C363.267 77.0055 364.082 75.1132 364.317 72.9354C364.552 70.7557 364.197 68.38 363.118 65.51L361.246 66.2142ZM360.427 77.9046C359.547 79.4131 358.444 80.9752 357.173 82.8619L358.832 83.9791C360.065 82.1481 361.232 80.4947 362.155 78.9123L360.427 77.9046ZM314.871 116.031C315.6 116.753 316.757 116.805 317.549 116.153L316.277 114.609H316.277L314.871 116.031ZM310.272 108.673V108.673L308.761 107.363C308.071 108.159 308.117 109.354 308.866 110.095L310.272 108.673ZM355.561 109.422C346.631 117.861 332.697 117.962 323.647 109.653L322.294 111.127C332.118 120.145 347.242 120.036 356.934 110.876L355.561 109.422ZM361.671 106.4C369.876 98.6454 370.022 85.6348 361.994 77.6973L360.588 79.1196C367.812 86.2618 367.68 97.9687 360.297 104.946L361.671 106.4ZM319.663 50.7493C326.412 49.4365 333.295 52.136 338.284 57.0681L339.69 55.6458C334.335 50.3514 326.81 47.3217 319.281 48.786L319.663 50.7493ZM288.176 86.7909C288.179 86.7934 288.181 86.7956 288.181 86.7966C288.181 86.7972 288.181 86.7961 288.18 86.7931C288.18 86.7901 288.179 86.7868 288.18 86.7837C288.18 86.7808 288.181 86.7789 288.181 86.7777L286.36 85.9513C286.008 86.7261 286.175 87.669 286.824 88.2642L288.176 86.7909ZM292.917 93.8583C293.689 94.5665 294.876 94.5597 295.639 93.8428L294.27 92.385H294.27L292.917 93.8583Z" fill="#0F0F0F"/>
<ellipse cx="353.824" cy="90.6507" rx="2.08936" ry="2.06569" fill="#0F0F0F"/>
<path d="M334.492 61.2144L346.506 73.6085" stroke="#0F0F0F" stroke-width="4" stroke-linecap="round"/>
<path d="M464.76 186.796V227.019C464.76 227.571 464.312 228.019 463.76 228.019H456.209H448.658C448.106 228.019 447.658 227.571 447.658 227.019V186.796C447.658 186.658 447.546 186.546 447.408 186.546H440.801C439.919 186.546 439.469 185.487 440.081 184.852L456.209 168.114L472.336 184.852C472.948 185.487 472.498 186.546 471.616 186.546H465.01C464.872 186.546 464.76 186.658 464.76 186.796Z" fill="white"/>
<path d="M472.336 184.852L473.056 184.158V184.158L472.336 184.852ZM456.209 168.114L456.929 167.42C456.74 167.224 456.48 167.114 456.209 167.114C455.937 167.114 455.677 167.224 455.489 167.42L456.209 168.114ZM440.081 184.852L440.801 185.546H440.801L440.081 184.852ZM465.76 227.019V186.796H463.76V227.019H465.76ZM465.01 187.546H471.616V185.546H465.01V187.546ZM473.056 184.158L456.929 167.42L455.489 168.808L471.616 185.546L473.056 184.158ZM455.489 167.42L439.361 184.158L440.801 185.546L456.929 168.808L455.489 167.42ZM440.801 187.546H447.408V185.546H440.801V187.546ZM446.658 186.796V227.019H448.658V186.796H446.658ZM448.658 229.019H456.209V227.019H448.658V229.019ZM456.209 229.019H463.76V227.019H456.209V229.019ZM447.408 187.546C446.994 187.546 446.658 187.21 446.658 186.796H448.658C448.658 186.106 448.098 185.546 447.408 185.546V187.546ZM471.616 187.546C473.38 187.546 474.28 185.429 473.056 184.158L471.616 185.546V185.546V187.546ZM465.76 186.796C465.76 187.21 465.424 187.546 465.01 187.546V185.546C464.319 185.546 463.76 186.106 463.76 186.796H465.76ZM463.76 227.019V229.019C464.864 229.019 465.76 228.123 465.76 227.019H463.76ZM439.361 184.158C438.137 185.429 439.037 187.546 440.801 187.546V185.546L440.801 185.546L439.361 184.158ZM446.658 227.019C446.658 228.123 447.553 229.019 448.658 229.019V227.019H446.658Z" fill="#0F0F0F"/>
<path d="M445.761 195.218V226.502C445.761 227.055 445.313 227.502 444.761 227.502H438.97H433.18C432.628 227.502 432.18 227.055 432.18 226.502V195.218C432.18 195.08 432.068 194.968 431.93 194.968H427.239C426.355 194.968 425.906 193.903 426.524 193.269L438.97 180.508L451.417 193.269C452.035 193.903 451.586 194.968 450.701 194.968H446.011C445.873 194.968 445.761 195.08 445.761 195.218Z" fill="#FF8D2A"/>
<path d="M451.417 193.269L452.133 192.571V192.571L451.417 193.269ZM438.97 180.508L439.686 179.81C439.498 179.617 439.24 179.508 438.97 179.508C438.701 179.508 438.443 179.617 438.254 179.81L438.97 180.508ZM426.524 193.269L425.808 192.571H425.808L426.524 193.269ZM446.761 226.502V195.218H444.761V226.502H446.761ZM446.011 195.968H450.701V193.968H446.011V195.968ZM452.133 192.571L439.686 179.81L438.254 181.206L450.701 193.968L452.133 192.571ZM438.254 179.81L425.808 192.571L427.239 193.968L439.686 181.206L438.254 179.81ZM427.239 195.968H431.93V193.968H427.239V195.968ZM431.18 195.218V226.502H433.18V195.218H431.18ZM433.18 228.502H438.97V226.502H433.18V228.502ZM438.97 228.502H444.761V226.502H438.97V228.502ZM431.93 195.968C431.516 195.968 431.18 195.632 431.18 195.218H433.18C433.18 194.527 432.62 193.968 431.93 193.968V195.968ZM450.701 195.968C452.471 195.968 453.369 193.838 452.133 192.571L450.701 193.968L450.701 193.968V195.968ZM446.761 195.218C446.761 195.632 446.425 195.968 446.011 195.968V193.968C445.32 193.968 444.761 194.527 444.761 195.218H446.761ZM444.761 226.502V228.502C445.865 228.502 446.761 227.607 446.761 226.502H444.761ZM425.808 192.571C424.572 193.838 425.47 195.968 427.239 195.968V193.968H427.239L425.808 192.571ZM431.18 226.502C431.18 227.607 432.075 228.502 433.18 228.502V226.502H431.18Z" fill="#0F0F0F"/>
<ellipse cx="238.908" cy="166.048" rx="32.385" ry="32.0182" fill="white" stroke="#0F0F0F" stroke-width="2"/>
<path d="M238.386 176.926V164.982C238.386 164.43 237.938 163.982 237.386 163.982H236.467C236.05 163.982 235.677 164.241 235.531 164.632L231.057 176.575C230.812 177.229 231.295 177.926 231.993 177.926H237.386C237.938 177.926 238.386 177.478 238.386 176.926Z" fill="#0F0F0F"/>
<path d="M247.263 159.851C251.547 160.881 253.391 162.076 255.62 165.532M226.369 158.818C222.085 159.848 220.241 161.043 218.012 164.499" stroke="#0F0F0F" stroke-width="3" stroke-linecap="round"/>
<path d="M207.57 158.302C221.104 158.461 228.424 157.8 237.765 150.531C238.131 150.247 238.651 150.244 239.018 150.526C250.743 159.532 258.022 161.547 271.296 161.917L268.684 153.654L262.938 144.875L257.193 139.194L246.223 135.063L236.821 134.03L227.419 136.095L221.673 139.194L212.794 147.457L207.57 158.302Z" fill="#0F0F0F"/>
<ellipse cx="223.242" cy="168.114" rx="2.08936" ry="2.06569" fill="#0F0F0F"/>
<ellipse cx="247.265" cy="168.114" rx="2.08936" ry="2.06569" fill="#0F0F0F"/>
<path d="M299.508 241.962L304.209 216.141L323.535 221.306L325.625 220.789L334.505 196.001V188.771L336.072 183.607L343.384 179.992L351.742 176.377L353.831 177.926L352.786 179.992L346.518 184.123L353.831 183.09L358.532 180.508L360.621 175.344L363.233 173.795L367.412 173.278L370.024 172.762H372.635L373.68 174.827L372.635 177.41L374.725 177.926L375.247 181.024L372.635 185.672L366.367 191.869L357.487 194.968L352.264 197.034L352.786 206.329L352.264 214.592L351.742 222.855L349.652 229.052L344.951 236.798L334.505 241.962L320.924 242.995L308.388 242.479L299.508 241.962Z" fill="white"/>
<path d="M303.687 215.625L303.958 214.662L302.875 214.357L302.699 215.468L303.687 215.625ZM299.508 241.962L298.52 241.806L298.353 242.859L299.415 242.958L299.508 241.962ZM351.776 196.825L352.77 196.715V196.715L351.776 196.825ZM352.038 196.446L351.805 195.474H351.805L352.038 196.446ZM375.109 180.527L374.166 180.195V180.195L375.109 180.527ZM370.718 178.989L371.641 179.374L371.641 179.374L370.718 178.989ZM367.011 185.288C366.799 185.798 367.04 186.383 367.55 186.595C368.06 186.808 368.645 186.567 368.857 186.057L367.011 185.288ZM373.096 175.514L372.129 175.262V175.262L373.096 175.514ZM368.768 174.099L367.838 173.731L367.838 173.731L368.768 174.099ZM363.87 183.755C363.667 184.269 363.919 184.85 364.432 185.053C364.946 185.256 365.527 185.005 365.73 184.491L363.87 183.755ZM363.949 175.286L363.002 174.966L363.002 174.966L363.949 175.286ZM360.719 181.738C360.542 182.261 360.823 182.828 361.347 183.005C361.87 183.181 362.437 182.9 362.614 182.377L360.719 181.738ZM361.157 175.393L360.183 175.168V175.168L361.157 175.393ZM346.2 184.624L346.127 183.627L346.2 184.624ZM346.163 184.526L346.725 185.353L346.725 185.353L346.163 184.526ZM352.741 180.055L352.178 179.228L352.178 179.228L352.741 180.055ZM350.686 176.705L350.224 175.818V175.818L350.686 176.705ZM339.459 181.541L339.096 180.609L339.459 181.541ZM334.384 195.842L335.332 196.161L334.384 195.842ZM326.233 220.019L325.285 219.699L326.233 220.019ZM323.794 221.305L323.522 222.267L323.794 221.305ZM353.263 177.342L354.092 176.783V176.783L353.263 177.342ZM373.72 177.682L374.067 176.745L374.067 176.745L373.72 177.682ZM371.436 172.724L371.676 171.753V171.753L371.436 172.724ZM302.699 215.468L298.52 241.806L300.495 242.119L304.674 215.782L302.699 215.468ZM299.415 242.958C308.904 243.844 317.318 244.516 324.494 244.25C331.665 243.985 337.723 242.782 342.438 239.823C351.984 233.831 355.464 221.056 352.77 196.715L350.782 196.935C353.475 221.265 349.813 232.833 341.375 238.129C337.097 240.814 331.453 241.991 324.42 242.251C317.393 242.512 309.104 241.854 299.601 240.967L299.415 242.958ZM352.272 197.419C359.099 195.779 364.186 194.119 367.992 191.622C371.852 189.09 374.336 185.737 376.053 180.859L374.166 180.195C372.573 184.722 370.337 187.692 366.895 189.95C363.4 192.243 358.607 193.84 351.805 195.474L352.272 197.419ZM369.794 178.605L367.011 185.288L368.857 186.057L371.641 179.374L369.794 178.605ZM373.603 177.533L374.064 175.767L372.129 175.262L371.668 177.028L373.603 177.533ZM367.838 173.731L363.87 183.755L365.73 184.491L369.698 174.467L367.838 173.731ZM363.002 174.966L360.719 181.738L362.614 182.377L364.897 175.605L363.002 174.966ZM360.183 175.168C359.424 178.455 358.069 180.323 355.958 181.505C353.755 182.738 350.621 183.294 346.127 183.627L346.274 185.622C350.772 185.288 354.309 184.72 356.935 183.25C359.65 181.73 361.278 179.315 362.131 175.618L360.183 175.168ZM346.725 185.353L353.303 180.882L352.178 179.228L345.601 183.699L346.725 185.353ZM350.224 175.818C345.398 178.332 341.906 179.513 339.096 180.609L339.823 182.473C342.571 181.4 346.199 180.17 351.149 177.591L350.224 175.818ZM333.505 189.733V195.107H335.505V189.733H333.505ZM333.436 195.522L325.285 219.699L327.18 220.338L335.332 196.161L333.436 195.522ZM324.066 220.342L303.958 214.662L303.415 216.587L323.522 222.267L324.066 220.342ZM325.285 219.699C325.115 220.204 324.578 220.487 324.066 220.342L323.522 222.267C325.06 222.702 326.669 221.853 327.18 220.338L325.285 219.699ZM333.505 195.107C333.505 195.248 333.482 195.389 333.436 195.522L335.332 196.161C335.446 195.822 335.505 195.465 335.505 195.107H333.505ZM354.092 176.783C353.233 175.509 351.56 175.122 350.224 175.818L351.149 177.591C351.609 177.352 352.161 177.496 352.434 177.901L354.092 176.783ZM353.303 180.882C354.65 179.966 355.003 178.133 354.092 176.783L352.434 177.901C352.729 178.338 352.615 178.932 352.178 179.228L353.303 180.882ZM369.573 172.401C367.061 171.025 363.916 172.253 363.002 174.966L364.897 175.605C365.414 174.071 367.192 173.377 368.612 174.155L369.573 172.401ZM346.127 183.627C346.594 183.592 346.949 183.894 347.078 184.231C347.21 184.577 347.141 185.07 346.725 185.353L345.601 183.699C345.139 184.013 345.061 184.557 345.21 184.946C345.355 185.325 345.751 185.661 346.274 185.622L346.127 183.627ZM374.067 176.745C372.375 176.117 370.488 176.938 369.794 178.605L371.641 179.374C371.922 178.698 372.686 178.366 373.372 178.62L374.067 176.745ZM371.676 171.753C370.082 171.359 368.442 172.204 367.838 173.731L369.698 174.467C369.933 173.87 370.574 173.54 371.196 173.694L371.676 171.753ZM364.938 172.921C362.951 171.815 360.65 173.145 360.183 175.168L362.131 175.618C362.344 174.696 363.312 174.305 363.966 174.668L364.938 172.921ZM376.053 180.859C376.657 179.143 375.698 177.349 374.067 176.745L373.372 178.62C374.056 178.873 374.381 179.584 374.166 180.195L376.053 180.859ZM339.096 180.609C335.298 182.092 333.505 185.914 333.505 189.733H335.505C335.505 186.466 337.019 183.567 339.823 182.473L339.096 180.609ZM374.064 175.767C374.526 173.997 373.452 172.192 371.676 171.753L371.196 173.694C371.89 173.866 372.309 174.571 372.129 175.262L374.064 175.767ZM352.77 196.715C352.805 197.027 352.612 197.337 352.272 197.419L351.805 195.474C351.13 195.636 350.71 196.282 350.782 196.935L352.77 196.715Z" fill="#0F0F0F"/>
<path d="M178.324 244.028L173.623 218.207L154.297 223.371L152.207 222.855L143.328 198.066V190.836L141.76 185.672L134.448 182.057L126.09 178.442L124.001 179.991L125.046 182.057L131.314 186.188L124.001 185.156L119.3 182.573L117.211 177.409L114.599 175.86L110.42 175.344L107.808 174.827H105.197L104.152 176.893L105.197 179.475L103.107 179.991L102.585 183.09L105.197 187.738L111.465 193.935L120.345 197.033L125.568 199.099L125.046 208.395L125.568 216.657L126.09 224.92L128.18 231.117L132.881 238.864L143.328 244.028L156.908 245.061L169.444 244.544L178.324 244.028Z" fill="white"/>
<path d="M174.146 217.69L173.874 216.728L174.957 216.422L175.133 217.534L174.146 217.69ZM178.324 244.028L179.312 243.871L179.479 244.924L178.417 245.023L178.324 244.028ZM126.056 198.891L125.062 198.781V198.781L126.056 198.891ZM125.794 198.512L126.028 197.539H126.028L125.794 198.512ZM102.723 182.593L103.666 182.261V182.261L102.723 182.593ZM107.114 181.055L106.191 181.439L106.191 181.439L107.114 181.055ZM110.821 187.353C111.033 187.863 110.792 188.448 110.282 188.661C109.772 188.873 109.187 188.632 108.975 188.122L110.821 187.353ZM104.736 177.58L105.703 177.327V177.327L104.736 177.58ZM109.064 176.164L109.994 175.796L109.994 175.796L109.064 176.164ZM113.962 185.82C114.165 186.334 113.913 186.915 113.4 187.118C112.886 187.321 112.305 187.07 112.102 186.556L113.962 185.82ZM113.883 177.351L114.83 177.032L114.83 177.032L113.883 177.351ZM117.113 183.803C117.29 184.327 117.009 184.894 116.485 185.07C115.962 185.247 115.395 184.966 115.218 184.442L117.113 183.803ZM116.675 177.459L117.649 177.234V177.234L116.675 177.459ZM131.632 186.69L131.706 185.693L131.632 186.69ZM131.669 186.591L131.107 187.418L131.107 187.418L131.669 186.591ZM125.092 182.12L125.654 181.293L125.654 181.293L125.092 182.12ZM127.146 178.77L127.608 177.883V177.883L127.146 178.77ZM138.373 183.606L138.736 182.675L138.373 183.606ZM143.448 197.907L142.5 198.227L143.448 197.907ZM151.599 222.084L152.547 221.765L151.599 222.084ZM154.038 223.37L154.31 224.332L154.038 223.37ZM124.569 179.407L123.74 178.848V178.848L124.569 179.407ZM104.112 179.748L103.765 178.81L103.765 178.81L104.112 179.748ZM106.396 174.789L106.156 173.818V173.818L106.396 174.789ZM175.133 217.534L179.312 243.871L177.337 244.185L173.158 217.847L175.133 217.534ZM178.417 245.023C168.928 245.91 160.514 246.581 153.338 246.316C146.167 246.05 140.109 244.847 135.394 241.888C125.848 235.897 122.368 223.122 125.062 198.781L127.05 199.001C124.357 223.331 128.019 234.898 136.457 240.194C140.735 242.879 146.38 244.057 153.412 244.317C160.439 244.577 168.728 243.92 178.231 243.032L178.417 245.023ZM125.56 199.484C118.733 197.844 113.646 196.185 109.84 193.688C105.98 191.155 103.496 187.803 101.779 182.925L103.666 182.261C105.259 186.787 107.495 189.757 110.937 192.015C114.432 194.308 119.225 195.906 126.028 197.539L125.56 199.484ZM108.038 180.67L110.821 187.353L108.975 188.122L106.191 181.439L108.038 180.67ZM104.229 179.598L103.768 177.832L105.703 177.327L106.164 179.093L104.229 179.598ZM109.994 175.796L113.962 185.82L112.102 186.556L108.135 176.532L109.994 175.796ZM114.83 177.032L117.113 183.803L115.218 184.442L112.935 177.671L114.83 177.032ZM117.649 177.234C118.408 180.521 119.763 182.389 121.875 183.571C124.077 184.804 127.211 185.359 131.706 185.693L131.558 187.687C127.06 187.354 123.523 186.786 120.897 185.316C118.182 183.795 116.554 181.381 115.701 177.683L117.649 177.234ZM131.107 187.418L124.529 182.948L125.654 181.293L132.231 185.764L131.107 187.418ZM127.608 177.883C132.434 180.398 135.926 181.578 138.736 182.675L138.009 184.538C135.261 183.465 131.633 182.235 126.683 179.657L127.608 177.883ZM144.328 191.799V197.172H142.328V191.799H144.328ZM144.396 197.588L152.547 221.765L150.652 222.404L142.5 198.227L144.396 197.588ZM153.766 222.408L173.874 216.728L174.417 218.653L154.31 224.332L153.766 222.408ZM152.547 221.765C152.717 222.27 153.254 222.553 153.766 222.408L154.31 224.332C152.772 224.767 151.163 223.919 150.652 222.404L152.547 221.765ZM144.328 197.172C144.328 197.314 144.351 197.454 144.396 197.588L142.5 198.227C142.386 197.887 142.328 197.531 142.328 197.172H144.328ZM123.74 178.848C124.599 177.575 126.273 177.188 127.608 177.883L126.683 179.657C126.223 179.417 125.671 179.562 125.398 179.966L123.74 178.848ZM124.529 182.948C123.182 182.032 122.829 180.199 123.74 178.848L125.398 179.966C125.103 180.404 125.217 180.997 125.654 181.293L124.529 182.948ZM108.259 174.467C110.771 173.09 113.916 174.318 114.83 177.032L112.935 177.671C112.418 176.137 110.64 175.442 109.22 176.221L108.259 174.467ZM131.706 185.693C131.238 185.658 130.883 185.959 130.754 186.296C130.622 186.643 130.691 187.136 131.107 187.418L132.231 185.764C132.693 186.078 132.771 186.622 132.622 187.011C132.477 187.391 132.081 187.726 131.558 187.687L131.706 185.693ZM103.765 178.81C105.457 178.183 107.344 179.004 108.038 180.67L106.191 181.439C105.91 180.764 105.146 180.431 104.46 180.686L103.765 178.81ZM106.156 173.818C107.75 173.424 109.39 174.269 109.994 175.796L108.135 176.532C107.899 175.936 107.258 175.606 106.636 175.76L106.156 173.818ZM112.894 174.986C114.881 173.881 117.182 175.211 117.649 177.234L115.701 177.683C115.488 176.761 114.52 176.37 113.866 176.734L112.894 174.986ZM101.779 182.925C101.175 181.208 102.135 179.415 103.765 178.81L104.46 180.686C103.776 180.939 103.451 181.65 103.666 182.261L101.779 182.925ZM138.736 182.675C142.534 184.157 144.328 187.98 144.328 191.799H142.328C142.328 188.531 140.813 185.633 138.009 184.538L138.736 182.675ZM103.768 177.832C103.306 176.063 104.38 174.257 106.156 173.818L106.636 175.76C105.942 175.931 105.523 176.636 105.703 177.327L103.768 177.832ZM125.062 198.781C125.028 199.093 125.22 199.402 125.56 199.484L126.028 197.539C126.702 197.701 127.122 198.347 127.05 199.001L125.062 198.781Z" fill="#0F0F0F"/>
<path d="M201.768 206.556L196.083 207.878L167.891 212.358C167.318 212.449 166.943 213.006 167.074 213.571L175.01 247.901C175.115 248.355 175.519 248.676 175.985 248.676H185.909C186.047 248.676 186.159 248.788 186.159 248.926V306.032C186.159 306.584 186.606 307.032 187.159 307.032H296.846C297.433 307.032 297.894 306.528 297.842 305.943L292.74 248.948C292.727 248.802 292.842 248.676 292.989 248.676H300.778C301.253 248.676 301.663 248.341 301.758 247.874L308.714 213.488C308.822 212.954 308.483 212.432 307.951 212.313L288.015 207.878L278.268 205.902C271.203 204.469 264.012 203.747 256.802 203.747H226.239C218.002 203.747 209.792 204.689 201.768 206.556Z" fill="#0F0F0F"/>
</svg>
