<svg width="152" height="41" viewBox="0 0 152 41" fill="none" xmlns="http://www.w3.org/2000/svg">
<g clip-path="url(#clip0_1972_42)">
<path d="M33.3333 0.5H6.66667C2.98477 0.5 0 3.48477 0 7.16667V33.8333C0 37.5152 2.98477 40.5 6.66667 40.5H33.3333C37.0152 40.5 40 37.5152 40 33.8333V7.16667C40 3.48477 37.0152 0.5 33.3333 0.5Z" fill="#E4832E"/>
<path d="M8.88867 25.0559V12.1948C8.88867 12.1794 8.90111 12.167 8.91645 12.167H14.5801C14.5876 12.167 14.5947 12.17 14.5999 12.1752L31.064 28.7863C31.0813 28.8039 31.069 28.8337 31.0442 28.8337H22.863C22.8556 28.8337 22.8483 28.8307 22.8431 28.8253L14.687 20.4972C14.6521 20.4617 14.5917 20.4863 14.5917 20.5361V28.8337H12.6664C10.58 28.8337 8.88867 27.1423 8.88867 25.0559Z" fill="white"/>
<path d="M25.4082 21.5926V12.1948C25.4082 12.1794 25.4206 12.167 25.436 12.167H29.2223C30.2655 12.167 31.1112 13.0127 31.1112 14.0559V26.7626C31.1112 26.7867 31.0825 26.7993 31.0646 26.783L25.4172 21.613C25.4114 21.6078 25.4082 21.6003 25.4082 21.5926Z" fill="white"/>
</g>
<path d="M61.3878 4.45455V19H59.044L52.1903 9.09233H52.0696V19H49.4347V4.45455H51.7926L58.6392 14.3693H58.767V4.45455H61.3878ZM68.9038 19.2131C67.8384 19.2131 66.9151 18.9787 66.1339 18.5099C65.3526 18.0412 64.7466 17.3854 64.3157 16.5426C63.8896 15.6998 63.6765 14.715 63.6765 13.5881C63.6765 12.4612 63.8896 11.474 64.3157 10.6264C64.7466 9.77888 65.3526 9.12074 66.1339 8.65199C66.9151 8.18324 67.8384 7.94886 68.9038 7.94886C69.9691 7.94886 70.8924 8.18324 71.6737 8.65199C72.4549 9.12074 73.0586 9.77888 73.4847 10.6264C73.9156 11.474 74.131 12.4612 74.131 13.5881C74.131 14.715 73.9156 15.6998 73.4847 16.5426C73.0586 17.3854 72.4549 18.0412 71.6737 18.5099C70.8924 18.9787 69.9691 19.2131 68.9038 19.2131ZM68.918 17.1534C69.4956 17.1534 69.9786 16.9948 70.3668 16.6776C70.7551 16.3556 71.0439 15.9247 71.2333 15.3849C71.4274 14.8452 71.5245 14.2438 71.5245 13.581C71.5245 12.9134 71.4274 12.3097 71.2333 11.7699C71.0439 11.2254 70.7551 10.7921 70.3668 10.4702C69.9786 10.1482 69.4956 9.98722 68.918 9.98722C68.3261 9.98722 67.8337 10.1482 67.4407 10.4702C67.0524 10.7921 66.7612 11.2254 66.5671 11.7699C66.3777 12.3097 66.283 12.9134 66.283 13.581C66.283 14.2438 66.3777 14.8452 66.5671 15.3849C66.7612 15.9247 67.0524 16.3556 67.4407 16.6776C67.8337 16.9948 68.3261 17.1534 68.918 17.1534ZM76.3132 19V8.09091H78.7706V9.9446H78.8984C79.1257 9.3196 79.5021 8.83191 80.0277 8.48153C80.5533 8.12642 81.1806 7.94886 81.9098 7.94886C82.6484 7.94886 83.2711 8.12879 83.7777 8.48864C84.2891 8.84375 84.6489 9.32907 84.8572 9.9446H84.9709C85.2124 9.33854 85.6196 8.85559 86.1925 8.49574C86.7701 8.13116 87.4543 7.94886 88.245 7.94886C89.2488 7.94886 90.0679 8.2661 90.7024 8.90057C91.3369 9.53504 91.6541 10.4607 91.6541 11.6776V19H89.076V12.0753C89.076 11.3982 88.8961 10.9034 88.5362 10.5909C88.1764 10.2737 87.736 10.1151 87.2152 10.1151C86.5949 10.1151 86.1096 10.3092 85.7592 10.6974C85.4136 11.081 85.2408 11.5805 85.2408 12.196V19H82.7195V11.9688C82.7195 11.4053 82.549 10.9555 82.2081 10.6193C81.8719 10.2831 81.4316 10.1151 80.8871 10.1151C80.5178 10.1151 80.1816 10.2098 79.8786 10.3991C79.5755 10.5838 79.334 10.8466 79.1541 11.1875C78.9742 11.5237 78.8842 11.9167 78.8842 12.3665V19H76.3132ZM99.021 19.2131C97.9556 19.2131 97.0323 18.9787 96.2511 18.5099C95.4698 18.0412 94.8638 17.3854 94.4329 16.5426C94.0067 15.6998 93.7937 14.715 93.7937 13.5881C93.7937 12.4612 94.0067 11.474 94.4329 10.6264C94.8638 9.77888 95.4698 9.12074 96.2511 8.65199C97.0323 8.18324 97.9556 7.94886 99.021 7.94886C100.086 7.94886 101.01 8.18324 101.791 8.65199C102.572 9.12074 103.176 9.77888 103.602 10.6264C104.033 11.474 104.248 12.4612 104.248 13.5881C104.248 14.715 104.033 15.6998 103.602 16.5426C103.176 17.3854 102.572 18.0412 101.791 18.5099C101.01 18.9787 100.086 19.2131 99.021 19.2131ZM99.0352 17.1534C99.6128 17.1534 100.096 16.9948 100.484 16.6776C100.872 16.3556 101.161 15.9247 101.35 15.3849C101.545 14.8452 101.642 14.2438 101.642 13.581C101.642 12.9134 101.545 12.3097 101.35 11.7699C101.161 11.2254 100.872 10.7921 100.484 10.4702C100.096 10.1482 99.6128 9.98722 99.0352 9.98722C98.4433 9.98722 97.9509 10.1482 97.5579 10.4702C97.1696 10.7921 96.8784 11.2254 96.6843 11.7699C96.4949 12.3097 96.4002 12.9134 96.4002 13.581C96.4002 14.2438 96.4949 14.8452 96.6843 15.3849C96.8784 15.9247 97.1696 16.3556 97.5579 16.6776C97.9509 16.9948 98.4433 17.1534 99.0352 17.1534ZM111.189 19.2131C110.1 19.2131 109.165 18.974 108.384 18.4957C107.607 18.0175 107.008 17.357 106.587 16.5142C106.17 15.6667 105.962 14.6913 105.962 13.5881C105.962 12.4801 106.175 11.5024 106.601 10.6548C107.027 9.80256 107.628 9.13968 108.405 8.66619C109.186 8.18797 110.109 7.94886 111.175 7.94886C112.06 7.94886 112.844 8.11222 113.526 8.43892C114.212 8.76089 114.759 9.2178 115.166 9.80966C115.573 10.3968 115.805 11.0833 115.862 11.8693H113.405C113.305 11.3437 113.069 10.9058 112.695 10.5554C112.325 10.2003 111.83 10.0227 111.21 10.0227C110.685 10.0227 110.223 10.1648 109.825 10.4489C109.428 10.7282 109.117 11.1307 108.895 11.6562C108.677 12.1818 108.568 12.8116 108.568 13.5455C108.568 14.2888 108.677 14.928 108.895 15.4631C109.113 15.9934 109.418 16.4029 109.811 16.6918C110.209 16.9759 110.675 17.1179 111.21 17.1179C111.589 17.1179 111.928 17.0469 112.226 16.9048C112.529 16.758 112.782 16.5473 112.986 16.2727C113.189 15.9981 113.329 15.6643 113.405 15.2713H115.862C115.801 16.0431 115.573 16.7273 115.18 17.3239C114.787 17.9157 114.252 18.3797 113.575 18.7159C112.898 19.0473 112.103 19.2131 111.189 19.2131ZM121.113 19.2202C120.421 19.2202 119.799 19.0971 119.245 18.8509C118.695 18.5999 118.26 18.2306 117.938 17.7429C117.621 17.2552 117.462 16.6539 117.462 15.9389C117.462 15.3234 117.576 14.8144 117.803 14.4119C118.03 14.0095 118.34 13.6875 118.733 13.446C119.126 13.2045 119.569 13.0223 120.061 12.8991C120.559 12.7713 121.072 12.679 121.603 12.6222C122.242 12.5559 122.76 12.4967 123.158 12.4446C123.556 12.3878 123.845 12.3026 124.025 12.1889C124.209 12.0705 124.301 11.8883 124.301 11.642V11.5994C124.301 11.0644 124.143 10.6501 123.826 10.3565C123.508 10.063 123.051 9.91619 122.455 9.91619C121.825 9.91619 121.326 10.0535 120.956 10.3281C120.592 10.6027 120.346 10.9271 120.218 11.3011L117.817 10.9602C118.007 10.2973 118.319 9.74337 118.755 9.2983C119.19 8.84848 119.723 8.51231 120.353 8.28977C120.982 8.0625 121.678 7.94886 122.441 7.94886C122.966 7.94886 123.489 8.01042 124.01 8.13352C124.531 8.25663 125.007 8.46023 125.438 8.74432C125.869 9.02367 126.214 9.40483 126.475 9.88778C126.74 10.3707 126.873 10.9744 126.873 11.6989V19H124.401V17.5014H124.316C124.159 17.8045 123.939 18.0885 123.655 18.3537C123.376 18.6141 123.023 18.8248 122.597 18.9858C122.176 19.142 121.681 19.2202 121.113 19.2202ZM121.78 17.331C122.296 17.331 122.744 17.2292 123.123 17.0256C123.501 16.8172 123.792 16.5426 123.996 16.2017C124.204 15.8608 124.309 15.4891 124.309 15.0866V13.8011C124.228 13.8674 124.091 13.929 123.897 13.9858C123.707 14.0426 123.494 14.0923 123.257 14.1349C123.021 14.1776 122.786 14.2154 122.554 14.2486C122.322 14.2817 122.121 14.3101 121.951 14.3338C121.567 14.3859 121.224 14.4711 120.921 14.5895C120.618 14.7079 120.379 14.8736 120.203 15.0866C120.028 15.295 119.941 15.5649 119.941 15.8963C119.941 16.3698 120.114 16.7273 120.459 16.9688C120.805 17.2102 121.245 17.331 121.78 17.331ZM138.08 10.9744L135.736 11.2301C135.67 10.9934 135.554 10.7708 135.388 10.5625C135.227 10.3542 135.009 10.1861 134.735 10.0582C134.46 9.9304 134.124 9.86648 133.726 9.86648C133.191 9.86648 132.741 9.98248 132.377 10.2145C132.017 10.4465 131.839 10.7472 131.844 11.1165C131.839 11.4337 131.955 11.6918 132.192 11.8906C132.434 12.0895 132.831 12.2528 133.385 12.3807L135.246 12.7784C136.278 13.0009 137.045 13.3537 137.547 13.8366C138.054 14.3196 138.31 14.9517 138.314 15.733C138.31 16.4195 138.108 17.0256 137.711 17.5511C137.318 18.072 136.771 18.4792 136.07 18.7727C135.369 19.0663 134.564 19.2131 133.655 19.2131C132.32 19.2131 131.245 18.9337 130.431 18.375C129.616 17.8116 129.131 17.0279 128.975 16.0241L131.482 15.7827C131.596 16.2751 131.837 16.6468 132.206 16.8977C132.576 17.1487 133.056 17.2741 133.648 17.2741C134.259 17.2741 134.749 17.1487 135.118 16.8977C135.492 16.6468 135.679 16.3366 135.679 15.9673C135.679 15.6548 135.559 15.3968 135.317 15.1932C135.08 14.9896 134.711 14.8333 134.209 14.7244L132.348 14.3338C131.302 14.116 130.528 13.7491 130.026 13.233C129.524 12.7121 129.275 12.054 129.28 11.2585C129.275 10.5862 129.458 10.0038 129.827 9.51136C130.201 9.0142 130.72 8.63068 131.382 8.3608C132.05 8.08617 132.819 7.94886 133.691 7.94886C134.969 7.94886 135.975 8.22112 136.709 8.76562C137.448 9.31013 137.905 10.0464 138.08 10.9744ZM143.005 12.608V19H140.434V4.45455H142.949V9.9446H143.076C143.332 9.32907 143.727 8.84375 144.262 8.48864C144.802 8.12879 145.489 7.94886 146.322 7.94886C147.08 7.94886 147.74 8.10748 148.304 8.42472C148.867 8.74195 149.303 9.20597 149.61 9.81676C149.923 10.4276 150.079 11.1733 150.079 12.054V19H147.508V12.4517C147.508 11.7178 147.319 11.1473 146.94 10.7401C146.566 10.3281 146.04 10.1222 145.363 10.1222C144.909 10.1222 144.502 10.2216 144.142 10.4205C143.787 10.6146 143.507 10.8963 143.304 11.2656C143.105 11.6349 143.005 12.0824 143.005 12.608Z" fill="#F4F4F4"/>
<path d="M49.1186 38V27.8182H52.8473C53.5698 27.8182 54.1681 27.9375 54.642 28.1761C55.116 28.4115 55.4706 28.7313 55.706 29.1357C55.9413 29.5367 56.0589 29.9891 56.0589 30.4929C56.0589 30.9171 55.9811 31.2751 55.8253 31.5668C55.6695 31.8551 55.4607 32.0871 55.1989 32.2628C54.9403 32.4351 54.6553 32.5611 54.3438 32.6406V32.7401C54.6818 32.7566 55.0116 32.866 55.3331 33.0682C55.6579 33.267 55.9264 33.5504 56.1385 33.9183C56.3506 34.2862 56.4567 34.7337 56.4567 35.2607C56.4567 35.781 56.334 36.2483 56.0888 36.6626C55.8468 37.0736 55.4723 37.4001 54.9652 37.642C54.4581 37.8807 53.8101 38 53.0213 38H49.1186ZM50.6548 36.6825H52.8722C53.608 36.6825 54.1349 36.54 54.4531 36.255C54.7713 35.9699 54.9304 35.6136 54.9304 35.1861C54.9304 34.8646 54.8492 34.5696 54.6868 34.3011C54.5244 34.0327 54.2924 33.8189 53.9908 33.6598C53.6925 33.5007 53.3378 33.4212 52.9268 33.4212H50.6548V36.6825ZM50.6548 32.223H52.7131C53.0578 32.223 53.3677 32.1567 53.6428 32.0241C53.9212 31.8916 54.1416 31.706 54.304 31.4673C54.4697 31.2254 54.5526 30.9403 54.5526 30.6122C54.5526 30.1913 54.4051 29.8383 54.1101 29.5533C53.8151 29.2682 53.3627 29.1257 52.7528 29.1257H50.6548V32.223ZM62.9968 34.8331V30.3636H64.4883V38H63.0266V36.6776H62.9471C62.7714 37.0852 62.4897 37.425 62.1019 37.6967C61.7174 37.9652 61.2385 38.0994 60.6651 38.0994C60.1746 38.0994 59.7404 37.9917 59.3626 37.7763C58.988 37.5575 58.6931 37.2344 58.4776 36.8068C58.2655 36.3793 58.1594 35.8506 58.1594 35.2209V30.3636H59.646V35.0419C59.646 35.5623 59.7901 35.9766 60.0785 36.2848C60.3668 36.593 60.7414 36.7472 61.2021 36.7472C61.4805 36.7472 61.7572 36.6776 62.0323 36.5384C62.3107 36.3991 62.5411 36.1887 62.7234 35.907C62.909 35.6252 63.0001 35.2673 62.9968 34.8331ZM72.2079 32.228L70.8606 32.4666C70.8043 32.2943 70.7148 32.1302 70.5922 31.9744C70.4728 31.8187 70.3104 31.6911 70.1049 31.5916C69.8994 31.4922 69.6426 31.4425 69.3343 31.4425C68.9134 31.4425 68.5621 31.5369 68.2804 31.7259C67.9986 31.9115 67.8578 32.1518 67.8578 32.4467C67.8578 32.7019 67.9522 32.9074 68.1412 33.0632C68.3301 33.219 68.635 33.3466 69.0559 33.446L70.269 33.7244C70.9717 33.8868 71.4953 34.1371 71.84 34.4751C72.1847 34.8132 72.3571 35.2524 72.3571 35.7926C72.3571 36.25 72.2245 36.6577 71.9593 37.0156C71.6975 37.3703 71.3313 37.6487 70.8606 37.8509C70.3933 38.053 69.8514 38.1541 69.2349 38.1541C68.3798 38.1541 67.6821 37.9718 67.1419 37.6072C66.6016 37.2393 66.2702 36.7173 66.1475 36.0412L67.5843 35.8224C67.6738 36.197 67.8578 36.4804 68.1362 36.6726C68.4146 36.8615 68.7775 36.956 69.225 36.956C69.7122 36.956 70.1016 36.8549 70.3933 36.6527C70.685 36.4472 70.8308 36.197 70.8308 35.902C70.8308 35.6634 70.7413 35.4628 70.5623 35.3004C70.3867 35.138 70.1165 35.0154 69.752 34.9325L68.4593 34.6491C67.7467 34.4867 67.2198 34.2282 66.8784 33.8736C66.5403 33.5189 66.3713 33.0698 66.3713 32.5263C66.3713 32.0755 66.4972 31.6811 66.7491 31.343C67.001 31.005 67.349 30.7415 67.7931 30.5526C68.2373 30.3603 68.746 30.2642 69.3194 30.2642C70.1447 30.2642 70.7943 30.4432 71.2683 30.8011C71.7422 31.1558 72.0555 31.6314 72.2079 32.228ZM73.9915 38V30.3636H75.478V38H73.9915ZM74.7422 29.1854C74.4837 29.1854 74.2616 29.0992 74.076 28.9268C73.8937 28.7512 73.8026 28.5424 73.8026 28.3004C73.8026 28.0552 73.8937 27.8464 74.076 27.674C74.2616 27.4983 74.4837 27.4105 74.7422 27.4105C75.0007 27.4105 75.2211 27.4983 75.4034 27.674C75.589 27.8464 75.6818 28.0552 75.6818 28.3004C75.6818 28.5424 75.589 28.7512 75.4034 28.9268C75.2211 29.0992 75.0007 29.1854 74.7422 29.1854ZM78.9643 33.4659V38H77.4778V30.3636H78.9047V31.6065H78.9991C79.1748 31.2022 79.4499 30.8774 79.8244 30.6321C80.2022 30.3868 80.6779 30.2642 81.2512 30.2642C81.7716 30.2642 82.2273 30.3736 82.6184 30.5923C83.0095 30.8078 83.3128 31.1293 83.5282 31.5568C83.7437 31.9844 83.8514 32.513 83.8514 33.1428V38H82.3649V33.3217C82.3649 32.7682 82.2207 32.3357 81.9324 32.0241C81.644 31.7093 81.2479 31.5518 80.7441 31.5518C80.3994 31.5518 80.0929 31.6264 79.8244 31.7756C79.5592 31.9247 79.3488 32.1435 79.193 32.4318C79.0405 32.7169 78.9643 33.0616 78.9643 33.4659ZM89.1362 38.1541C88.3838 38.1541 87.7359 37.9934 87.1923 37.6719C86.652 37.3471 86.2344 36.8913 85.9395 36.3047C85.6478 35.7147 85.502 35.0237 85.502 34.2315C85.502 33.4493 85.6478 32.7599 85.9395 32.1634C86.2344 31.5668 86.6454 31.1011 87.1724 30.7663C87.7027 30.4316 88.3225 30.2642 89.0318 30.2642C89.4627 30.2642 89.8803 30.3355 90.2846 30.478C90.689 30.6205 91.0519 30.8442 91.3734 31.1491C91.6949 31.4541 91.9484 31.8501 92.1341 32.3374C92.3197 32.8213 92.4125 33.4096 92.4125 34.1023V34.6293H86.3422V33.5156H90.9558C90.9558 33.1245 90.8762 32.7782 90.7172 32.4766C90.5581 32.1716 90.3343 31.9313 90.046 31.7557C89.7609 31.58 89.4262 31.4922 89.0417 31.4922C88.6241 31.4922 88.2595 31.5949 87.948 31.8004C87.6397 32.0026 87.4011 32.2678 87.2321 32.5959C87.0663 32.9207 86.9835 33.2737 86.9835 33.6548V34.5249C86.9835 35.0353 87.073 35.4695 87.252 35.8274C87.4342 36.1854 87.6878 36.4588 88.0126 36.6477C88.3374 36.8333 88.7169 36.9261 89.1511 36.9261C89.4328 36.9261 89.6897 36.8864 89.9217 36.8068C90.1537 36.724 90.3542 36.6013 90.5233 36.4389C90.6923 36.2765 90.8216 36.076 90.911 35.8374L92.318 36.0909C92.2053 36.5052 92.0031 36.8681 91.7115 37.1797C91.4231 37.4879 91.0602 37.7282 90.6227 37.9006C90.1885 38.0696 89.693 38.1541 89.1362 38.1541ZM99.7841 32.228L98.4368 32.4666C98.3804 32.2943 98.291 32.1302 98.1683 31.9744C98.049 31.8187 97.8866 31.6911 97.6811 31.5916C97.4756 31.4922 97.2188 31.4425 96.9105 31.4425C96.4896 31.4425 96.1383 31.5369 95.8565 31.7259C95.5748 31.9115 95.4339 32.1518 95.4339 32.4467C95.4339 32.7019 95.5284 32.9074 95.7173 33.0632C95.9063 33.219 96.2112 33.3466 96.6321 33.446L97.8452 33.7244C98.5478 33.8868 99.0715 34.1371 99.4162 34.4751C99.7609 34.8132 99.9332 35.2524 99.9332 35.7926C99.9332 36.25 99.8007 36.6577 99.5355 37.0156C99.2737 37.3703 98.9074 37.6487 98.4368 37.8509C97.9695 38.053 97.4276 38.1541 96.8111 38.1541C95.956 38.1541 95.2583 37.9718 94.718 37.6072C94.1778 37.2393 93.8464 36.7173 93.7237 36.0412L95.1605 35.8224C95.25 36.197 95.4339 36.4804 95.7124 36.6726C95.9908 36.8615 96.3537 36.956 96.8011 36.956C97.2884 36.956 97.6778 36.8549 97.9695 36.6527C98.2611 36.4472 98.407 36.197 98.407 35.902C98.407 35.6634 98.3175 35.4628 98.1385 35.3004C97.9628 35.138 97.6927 35.0154 97.3281 34.9325L96.0355 34.6491C95.3229 34.4867 94.7959 34.2282 94.4545 33.8736C94.1165 33.5189 93.9474 33.0698 93.9474 32.5263C93.9474 32.0755 94.0734 31.6811 94.3253 31.343C94.5772 31.005 94.9252 30.7415 95.3693 30.5526C95.8134 30.3603 96.3222 30.2642 96.8956 30.2642C97.7209 30.2642 98.3705 30.4432 98.8445 30.8011C99.3184 31.1558 99.6316 31.6314 99.7841 32.228ZM107.29 32.228L105.943 32.4666C105.886 32.2943 105.797 32.1302 105.674 31.9744C105.555 31.8187 105.392 31.6911 105.187 31.5916C104.981 31.4922 104.725 31.4425 104.416 31.4425C103.995 31.4425 103.644 31.5369 103.362 31.7259C103.081 31.9115 102.94 32.1518 102.94 32.4467C102.94 32.7019 103.034 32.9074 103.223 33.0632C103.412 33.219 103.717 33.3466 104.138 33.446L105.351 33.7244C106.054 33.8868 106.577 34.1371 106.922 34.4751C107.267 34.8132 107.439 35.2524 107.439 35.7926C107.439 36.25 107.307 36.6577 107.041 37.0156C106.78 37.3703 106.413 37.6487 105.943 37.8509C105.475 38.053 104.933 38.1541 104.317 38.1541C103.462 38.1541 102.764 37.9718 102.224 37.6072C101.684 37.2393 101.352 36.7173 101.23 36.0412L102.666 35.8224C102.756 36.197 102.94 36.4804 103.218 36.6726C103.497 36.8615 103.86 36.956 104.307 36.956C104.794 36.956 105.184 36.8549 105.475 36.6527C105.767 36.4472 105.913 36.197 105.913 35.902C105.913 35.6634 105.823 35.4628 105.644 35.3004C105.469 35.138 105.199 35.0154 104.834 34.9325L103.541 34.6491C102.829 34.4867 102.302 34.2282 101.96 33.8736C101.622 33.5189 101.453 33.0698 101.453 32.5263C101.453 32.0755 101.579 31.6811 101.831 31.343C102.083 31.005 102.431 30.7415 102.875 30.5526C103.319 30.3603 103.828 30.2642 104.401 30.2642C105.227 30.2642 105.876 30.4432 106.35 30.8011C106.824 31.1558 107.137 31.6314 107.29 32.228Z" fill="#E4832E"/>
<defs>
<clipPath id="clip0_1972_42">
<rect width="40" height="40" fill="white" transform="translate(0 0.5)"/>
</clipPath>
</defs>
</svg>
