<?xml version="1.0" ?>
<!-- Uploaded to: SVG Repo, www.svgrepo.com, Generator: SVG Repo Mixer Tools -->
<svg width="800px" height="800px" viewBox="0 0 48.000015 48.000015" id="svg5" version="1.1" xml:space="preserve" xmlns="http://www.w3.org/2000/svg" xmlns:svg="http://www.w3.org/2000/svg">
<defs id="defs2"/>
<g id="layer1" transform="translate(-98,-377)">
<path d="m 131.16679,390.50001 c 0,5.24669 -4.25329,9.49998 -9.49999,9.49998 -5.24671,0 -9.50001,-4.25329 -9.50001,-9.49998 0,-5.2467 4.2533,-9.50001 9.50001,-9.50001 5.2467,0 9.49999,4.25331 9.49999,9.50001 z" id="path12476" style="fill:#f2a50c;fill-opacity:1;fill-rule:evenodd;stroke:none;stroke-width:2.00001;stroke-linecap:round;stroke-linejoin:round;stroke-miterlimit:4.1;stroke-opacity:1"/>
<path d="m 121.6668,381 c -5.2467,0 -9.5,4.25331 -9.5,9.5 0,2.98361 1.37595,5.64508 3.52734,7.38672 0.53194,0.0924 1.07835,0.14258 1.63672,0.14258 5.2467,0 9.5,-4.25332 9.5,-9.5 0,-2.98362 -1.37595,-5.64508 -3.52734,-7.38672 C 122.77158,381.05016 122.22517,381 121.6668,381 Z" id="path48385" style="fill:#fcca3d;fill-opacity:1;fill-rule:evenodd;stroke:none;stroke-width:2.00001;stroke-linecap:round;stroke-linejoin:round;stroke-miterlimit:4.1;stroke-opacity:1"/>
<path d="m 121.6668,383.25 a 1.0057667,0.99425681 0 0 0 -1.00586,0.9961 v 1.15625 c -1.28954,0.40756 -2.25,1.57366 -2.25,2.96679 0,1.73708 1.49318,3.125 3.25586,3.125 0.72118,0 1.24219,0.5214 1.24219,1.13672 0,0.61534 -0.52103,1.13281 -1.24219,1.13281 -0.72117,0 -1.24414,-0.51747 -1.24414,-1.13281 a 1.0057667,0.99425681 0 0 0 -1.00391,-0.99609 1.0057667,0.99425681 0 0 0 -1.00781,0.99609 c 0,1.39313 0.96046,2.55924 2.25,2.9668 v 1.15625 a 1.0057667,0.99425681 0 0 0 1.00586,0.99609 1.0057667,0.99425681 0 0 0 1.00586,-0.99609 v -1.15625 c 1.28905,-0.40756 2.24804,-1.57367 2.24805,-2.9668 0,-1.73706 -1.49123,-3.125 -3.25391,-3.125 -0.72118,0 -1.24414,-0.52137 -1.24414,-1.13672 0,-0.61533 0.52296,-1.13281 1.24414,-1.13281 0.72118,0 1.24219,0.51748 1.24219,1.13281 a 1.0057667,0.99425681 0 0 0 1.00586,0.9961 1.0057667,0.99425681 0 0 0 1.00586,-0.9961 c 0,-1.39313 -0.959,-2.55923 -2.24805,-2.96679 V 384.2461 A 1.0057667,0.99425681 0 0 0 121.6668,383.25 Z" id="path12478" style="color:#000000;fill:#808b9b;fill-opacity:1;fill-rule:evenodd;stroke:none;stroke-width:0.99999;stroke-linecap:round;stroke-linejoin:round;stroke-miterlimit:4.1;stroke-opacity:1"/>
<path d="m 140.29284,397.63849 c 0.51185,0 1.02354,0.19541 1.41407,0.58594 0.78104,0.78104 0.78104,2.04707 0,2.82812 l -5.65625,5.65625 -8.29297,8.29297 h -11.05078 l -2.91016,1.69141 c 0.0789,1.10821 -0.46192,2.21377 -1.49219,2.80859 l -2.59765,1.5 -8,-13.85547 2.59765,-1.5 c 1.43933,-0.831 3.26666,-0.34167 4.09766,1.09766 0,0 2.20899,-3.72852 5.20898,-3.72852 3,0 4.09571,0.98633 4.09571,0.98633 h 11.53906 c 1.0277,0 1.85351,0.892 1.85351,2 l 7.7793,-7.77734 c 0.39052,-0.39053 0.90222,-0.58594 1.41406,-0.58594 z" id="path32163" style="fill:#e7e7e7;fill-opacity:1;fill-rule:evenodd;stroke:none;stroke-width:2;stroke-linecap:round;stroke-linejoin:round;stroke-miterlimit:4.1"/>
<path d="m 140.29284,397.63849 c 0.51185,0 1.02354,0.19541 1.41407,0.58594 0.78104,0.78104 0.78104,2.04707 0,2.82812 l -5.65625,5.65625 -4.26368,4.26367 a 14.267931,15.294991 0 0 1 -1.65234,0.12696 14.267931,15.294991 0 0 1 -12.03906,-7.09766 h 11.15039 c 1.0277,0 1.85351,0.892 1.85351,2 l 7.7793,-7.77734 c 0.39052,-0.39053 0.90222,-0.58594 1.41406,-0.58594 z" id="path32165" style="fill:#fafafa;fill-opacity:1;fill-rule:evenodd;stroke:none;stroke-width:2;stroke-linecap:round;stroke-linejoin:round;stroke-miterlimit:4.1;stroke-opacity:1"/>
</g>
</svg>