<svg width="24" height="24" viewBox="0 0 24 24" fill="none" xmlns="http://www.w3.org/2000/svg">
<path d="M3 3V21H21M21 3L15 4.5M14.113 6.6499L16.884 10.3449M16 12.5L11 14.5M7 15C7 15.5304 7.21071 16.0391 7.58579 16.4142C7.96086 16.7893 8.46957 17 9 17C9.53043 17 10.0391 16.7893 10.4142 16.4142C10.7893 16.0391 11 15.5304 11 15C11 14.4696 10.7893 13.9609 10.4142 13.5858C10.0391 13.2107 9.53043 13 9 13C8.46957 13 7.96086 13.2107 7.58579 13.5858C7.21071 13.9609 7 14.4696 7 15ZM11 5C11 5.53043 11.2107 6.03914 11.5858 6.41421C11.9609 6.78929 12.4696 7 13 7C13.5304 7 14.0391 6.78929 14.4142 6.41421C14.7893 6.03914 15 5.53043 15 5C15 4.46957 14.7893 3.96086 14.4142 3.58579C14.0391 3.21071 13.5304 3 13 3C12.4696 3 11.9609 3.21071 11.5858 3.58579C11.2107 3.96086 11 4.46957 11 5ZM16 12C16 12.5304 16.2107 13.0391 16.5858 13.4142C16.9609 13.7893 17.4696 14 18 14C18.5304 14 19.0391 13.7893 19.4142 13.4142C19.7893 13.0391 20 12.5304 20 12C20 11.4696 19.7893 10.9609 19.4142 10.5858C19.0391 10.2107 18.5304 10 18 10C17.4696 10 16.9609 10.2107 16.5858 10.5858C16.2107 10.9609 16 11.4696 16 12Z" stroke="#E4832E" stroke-width="1.2" stroke-linecap="round" stroke-linejoin="round"/>
</svg>
