<?xml version="1.0" ?>
<!-- Uploaded to: SVG Repo, www.svgrepo.com, Generator: SVG Repo Mixer Tools -->
<svg width="800px" height="800px" viewBox="0 0 48 48" id="svg5" version="1.1" xml:space="preserve" xmlns="http://www.w3.org/2000/svg" xmlns:svg="http://www.w3.org/2000/svg">
<defs id="defs2"/>
<g id="layer1" transform="translate(-26,-233)">
<path d="m 50,256.52683 c -0.552285,0 -1,0.44772 -1,1 v 4.19734 H 35 c -0.552262,6e-5 -0.999945,0.44774 -1,1 v 5 c 0,0.55228 0.447715,1 1,1 0.552285,0 1,-0.44772 1,-1 v -4 h 13 v 4 c 0,0.55228 0.447715,1 1,1 0.552285,0 1,-0.44772 1,-1 v -4 h 13 v 4 c 0,0.55228 0.447715,1 1,1 0.552285,0 1,-0.44772 1,-1 v -5 c -5.5e-5,-0.55226 -0.447738,-0.99994 -1,-1 H 51 v -4.19734 c 0,-0.55228 -0.447715,-1 -1,-1 z" id="path809" style="color:#000000;fill:#808b9b;fill-opacity:1;fill-rule:evenodd;stroke-linecap:round;stroke-linejoin:round;stroke-miterlimit:4.1;-inkscape-stroke:none"/>
<path d="m 60.499997,247.50003 c 0,5.79898 -4.700999,10.49999 -10.499997,10.49999 -5.798998,0 -10.500023,-4.70101 -10.500023,-10.49999 C 39.499977,241.70104 44.201002,237 50,237 c 5.798998,0 10.499997,4.70104 10.499997,10.50003 z" id="path742" style="fill:#f2a50c;fill-opacity:1;fill-rule:evenodd;stroke:none;stroke-width:2;stroke-linecap:round;stroke-linejoin:round;stroke-miterlimit:4.1;stroke-opacity:1"/>
<path d="m 50,237 c -5.798992,0 -10.5,4.70102 -10.5,10.5 0,4.73306 3.13127,8.73375 7.435547,10.04492 a 13.738508,13.366062 0 0 0 9.802734,-12.80078 13.738508,13.366062 0 0 0 -1.722656,-6.4707 C 53.525482,237.46183 51.816258,237 50,237 Z" id="path2884" style="fill:#f7c63d;fill-opacity:1;fill-rule:evenodd;stroke:none;stroke-width:2;stroke-linecap:round;stroke-linejoin:round;stroke-miterlimit:4.1;stroke-opacity:1"/>
<path d="m 50,239.59375 a 1.0057659,0.99425603 0 0 0 -1.005859,0.99415 v 1.35351 c -1.42097,0.41539 -2.484376,1.68615 -2.484376,3.20508 0,1.86087 1.596827,3.34765 3.490235,3.34765 0.851906,0 1.480468,0.6222 1.480468,1.36133 -2e-6,0.73915 -0.628574,1.35742 -1.480468,1.35742 -0.851899,0 -1.478513,-0.61827 -1.478515,-1.35742 a 1.0057659,0.99425603 0 0 0 -1.00586,-0.9961 1.0057659,0.99425603 0 0 0 -1.00586,0.9961 c 4e-6,1.51893 1.063404,2.78774 2.484376,3.20313 v 1.35351 A 1.0057659,0.99425603 0 0 0 50,255.40624 a 1.0057659,0.99425603 0 0 0 1.005859,-0.99413 v -1.35351 c 1.42097,-0.41539 2.486325,-1.6842 2.486329,-3.20313 0,-1.86087 -1.598782,-3.34961 -3.492188,-3.34961 -0.851909,0 -1.478515,-0.62021 -1.478515,-1.35937 0,-0.73914 0.626601,-1.35938 1.478515,-1.35938 0.851909,0 1.480468,0.62024 1.480468,1.35938 a 1.0057659,0.99425603 0 0 0 1.005861,0.99413 1.0057659,0.99425603 0 0 0 1.005859,-0.99413 c 0,-1.51893 -1.06536,-2.78969 -2.486329,-3.20508 V 240.5879 A 1.0057659,0.99425603 0 0 0 50,239.59375 Z" id="path744" style="color:#000000;fill:#808b9b;fill-opacity:1;fill-rule:evenodd;stroke:none;stroke-width:0.999999;stroke-linecap:round;stroke-linejoin:round;stroke-miterlimit:4.1;stroke-opacity:1"/>
<path d="M 37.5,269.5 A 2.5,2.5 0 0 1 35,272 2.5,2.5 0 0 1 32.5,269.5 2.5,2.5 0 0 1 35,267 a 2.5,2.5 0 0 1 2.5,2.5 z" id="path5585" style="color:#000000;fill:#e7e7e7;fill-opacity:1;fill-rule:evenodd;stroke-width:2;stroke-linecap:round;stroke-linejoin:round;stroke-miterlimit:4.1"/>
<path d="m 30,277 c 0,-2.76143 2.238577,-5 5,-5 2.761423,0 5,2.23857 5,5 z" id="path5591" style="color:#000000;fill:#e7e7e7;fill-opacity:1;fill-rule:evenodd;stroke-width:2;stroke-linecap:round;stroke-linejoin:round;stroke-miterlimit:4.1"/>
<path d="m 35,272 c -2.604771,0 -4.744152,1.99154 -4.978516,4.53516 a 7.1580024,3.6352096 0 0 0 0.714844,0.0234 7.1580024,3.6352096 0 0 0 7.158203,-3.63476 C 37.077558,272.34266 36.078963,272 35,272 Z" id="path7739" style="fill:#fafafa;fill-opacity:1;fill-rule:evenodd;stroke:none;stroke-width:2;stroke-linecap:round;stroke-linejoin:round;stroke-miterlimit:4.1;stroke-opacity:1"/>
<path d="M 67.5,269.5 A 2.5,2.5 0 0 1 65,272 2.5,2.5 0 0 1 62.5,269.5 2.5,2.5 0 0 1 65,267 a 2.5,2.5 0 0 1 2.5,2.5 z" id="path5597" style="color:#000000;fill:#e7e7e7;fill-opacity:1;fill-rule:evenodd;stroke-width:2;stroke-linecap:round;stroke-linejoin:round;stroke-miterlimit:4.1"/>
<path d="m 60,277 c 0,-2.76143 2.238577,-5 5,-5 2.761423,0 5,2.23857 5,5 z" id="path5603" style="color:#000000;fill:#e7e7e7;fill-opacity:1;fill-rule:evenodd;stroke-width:2;stroke-linecap:round;stroke-linejoin:round;stroke-miterlimit:4.1"/>
<path d="m 14.1907,279.93101 c -2.424431,-0.55834 -4.7652487,0.71496 -5.6008973,2.90782 a 5.2618299,2.4648857 -180 0 0 3.8645123,0.79861 5.2618299,2.4648857 -180 0 0 4.890294,-1.55768 c -0.726287,-1.0471 -1.829291,-1.84369 -3.153909,-2.14875 z" id="path7728" style="fill:#fafafa;fill-opacity:1;fill-rule:evenodd;stroke:none;stroke-width:2.001;stroke-linecap:round;stroke-linejoin:round;stroke-miterlimit:4.1;stroke-opacity:1" transform="matrix(0.97403057,-0.22641654,0.18282299,0.98314585,0,0)"/>
<path d="M 52.5,269.5 A 2.5,2.5 0 0 1 50,272 2.5,2.5 0 0 1 47.5,269.5 2.5,2.5 0 0 1 50,267 a 2.5,2.5 0 0 1 2.5,2.5 z" id="path5609" style="color:#000000;fill:#e7e7e7;fill-opacity:1;fill-rule:evenodd;stroke-width:2;stroke-linecap:round;stroke-linejoin:round;stroke-miterlimit:4.1"/>
<path d="m 45,277 c 0,-2.76143 2.238577,-5 5,-5 2.761423,0 5,2.23857 5,5 z" id="path5615" style="color:#000000;fill:#ff5576;fill-opacity:1;fill-rule:evenodd;stroke-width:2;stroke-linecap:round;stroke-linejoin:round;stroke-miterlimit:4.1;-inkscape-stroke:none"/>
</g>
</svg>