<svg width="276" height="36" viewBox="0 0 276 36" fill="none" xmlns="http://www.w3.org/2000/svg">
<path d="M0.441895 22.7711V0.210843C0.441895 0.0943978 0.535003 0 0.649859 0H12.4184C12.4732 0 12.5257 0.0218679 12.5646 0.0608638L47.0817 34.6392C47.2139 34.7716 47.1214 35 46.9355 35H30.059C30.0039 35 29.951 34.9778 29.912 34.9382L13.2139 18.009C12.9519 17.7434 12.5038 17.9315 12.5038 18.3072V34.75C12.5038 34.8881 12.391 35.0003 12.253 34.9974C5.70717 34.862 0.441895 29.4399 0.441895 22.7711Z" fill="#0F0F0F"/>
<path d="M35.3799 19.7251V0.177231C35.3799 0.0793489 35.4582 0 35.5548 0C42.1198 0 47.4419 5.39572 47.4419 12.0517V30.3109C47.4419 30.4933 47.229 30.5896 47.0951 30.4679L35.4491 19.8821C35.4051 19.8421 35.3799 19.785 35.3799 19.7251Z" fill="#0F0F0F"/>
<path d="M81.3609 18.6364C81.3609 22.2053 80.6844 25.2415 79.3315 27.745C77.9891 30.2486 76.1567 32.1609 73.8343 33.4819C71.5225 34.7923 68.9231 35.4474 66.036 35.4474C63.1276 35.4474 60.5175 34.7869 58.2057 33.4659C55.894 32.1449 54.0669 30.2326 52.7246 27.729C51.3822 25.2255 50.7111 22.1946 50.7111 18.6364C50.7111 15.0675 51.3822 12.0312 52.7246 9.5277C54.0669 7.02415 55.894 5.11719 58.2057 3.80682C60.5175 2.48579 63.1276 1.82528 66.036 1.82528C68.9231 1.82528 71.5225 2.48579 73.8343 3.80682C76.1567 5.11719 77.9891 7.02415 79.3315 9.5277C80.6844 12.0312 81.3609 15.0675 81.3609 18.6364ZM74.3457 18.6364C74.3457 16.3246 73.9994 14.375 73.307 12.7876C72.6251 11.2003 71.661 9.99645 70.4146 9.17614C69.1681 8.35582 67.7086 7.94567 66.036 7.94567C64.3634 7.94567 62.9039 8.35582 61.6574 9.17614C60.411 9.99645 59.4415 11.2003 58.7491 12.7876C58.0673 14.375 57.7263 16.3246 57.7263 18.6364C57.7263 20.9482 58.0673 22.8977 58.7491 24.4851C59.4415 26.0724 60.411 27.2763 61.6574 28.0966C62.9039 28.9169 64.3634 29.3271 66.036 29.3271C67.7086 29.3271 69.1681 28.9169 70.4146 28.0966C71.661 27.2763 72.6251 26.0724 73.307 24.4851C73.9994 22.8977 74.3457 20.9482 74.3457 18.6364Z" fill="#0F0F0F"/>
<path d="M84.6866 2.27273H93.2199L102.233 24.2614H102.616L111.629 2.27273H120.162V35H113.451V13.6985H113.179L104.71 34.8402H100.139L91.6699 13.6186H91.3982V35H84.6866V2.27273Z" fill="#0F0F0F"/>
<path d="M154.138 18.6364C154.138 22.2053 153.461 25.2415 152.108 27.745C150.766 30.2486 148.934 32.1609 146.611 33.4819C144.299 34.7923 141.7 35.4474 138.813 35.4474C135.905 35.4474 133.294 34.7869 130.983 33.4659C128.671 32.1449 126.844 30.2326 125.502 27.729C124.159 25.2255 123.488 22.1946 123.488 18.6364C123.488 15.0675 124.159 12.0312 125.502 9.5277C126.844 7.02415 128.671 5.11719 130.983 3.80682C133.294 2.48579 135.905 1.82528 138.813 1.82528C141.7 1.82528 144.299 2.48579 146.611 3.80682C148.934 5.11719 150.766 7.02415 152.108 9.5277C153.461 12.0312 154.138 15.0675 154.138 18.6364ZM147.123 18.6364C147.123 16.3246 146.776 14.375 146.084 12.7876C145.402 11.2003 144.438 9.99645 143.191 9.17614C141.945 8.35582 140.486 7.94567 138.813 7.94567C137.14 7.94567 135.681 8.35582 134.434 9.17614C133.188 9.99645 132.218 11.2003 131.526 12.7876C130.844 14.375 130.503 16.3246 130.503 18.6364C130.503 20.9482 130.844 22.8977 131.526 24.4851C132.218 26.0724 133.188 27.2763 134.434 28.0966C135.681 28.9169 137.14 29.3271 138.813 29.3271C140.486 29.3271 141.945 28.9169 143.191 28.0966C144.438 27.2763 145.402 26.0724 146.084 24.4851C146.776 22.8977 147.123 20.9482 147.123 18.6364Z" fill="#0F0F0F"/>
<path d="M186.34 13.7305H179.34C179.212 12.8249 178.951 12.0206 178.557 11.3175C178.163 10.6037 177.657 9.99645 177.039 9.49574C176.421 8.99503 175.707 8.6115 174.898 8.34517C174.099 8.07884 173.231 7.94567 172.293 7.94567C170.599 7.94567 169.124 8.36648 167.867 9.2081C166.609 10.0391 165.635 11.2536 164.942 12.8516C164.25 14.4389 163.903 16.3672 163.903 18.6364C163.903 20.9695 164.25 22.9297 164.942 24.517C165.645 26.1044 166.625 27.3029 167.883 28.1126C169.14 28.9222 170.594 29.3271 172.245 29.3271C173.172 29.3271 174.03 29.2045 174.818 28.9595C175.617 28.7145 176.325 28.3576 176.943 27.8888C177.561 27.4094 178.073 26.8288 178.477 26.147C178.893 25.4652 179.18 24.6875 179.34 23.8139L186.34 23.8459C186.158 25.348 185.706 26.7969 184.981 28.1925C184.267 29.5774 183.303 30.8185 182.089 31.9158C180.885 33.0025 179.447 33.8654 177.774 34.5046C176.112 35.1332 174.232 35.4474 172.133 35.4474C169.214 35.4474 166.604 34.7869 164.303 33.4659C162.013 32.1449 160.201 30.2326 158.87 27.729C157.549 25.2255 156.888 22.1946 156.888 18.6364C156.888 15.0675 157.559 12.0312 158.902 9.5277C160.244 7.02415 162.066 5.11719 164.367 3.80682C166.668 2.48579 169.257 1.82528 172.133 1.82528C174.03 1.82528 175.787 2.09162 177.407 2.62429C179.037 3.15696 180.48 3.93466 181.737 4.95738C182.994 5.96946 184.017 7.21058 184.805 8.68075C185.604 10.1509 186.116 11.8342 186.34 13.7305Z" fill="#0F0F0F"/>
<path d="M237.755 11.685C237.627 10.396 237.079 9.39453 236.109 8.68075C235.14 7.96697 233.824 7.61008 232.162 7.61008C231.033 7.61008 230.079 7.76989 229.302 8.08949C228.524 8.39844 227.927 8.8299 227.512 9.38388C227.107 9.93785 226.905 10.5664 226.905 11.2695C226.883 11.8555 227.006 12.3668 227.272 12.8036C227.549 13.2404 227.927 13.6186 228.407 13.9382C228.886 14.2472 229.44 14.5188 230.069 14.7532C230.697 14.9769 231.368 15.1687 232.082 15.3285L235.023 16.0316C236.45 16.3512 237.76 16.7773 238.954 17.31C240.147 17.8427 241.18 18.4979 242.054 19.2756C242.927 20.0533 243.604 20.9695 244.083 22.0241C244.573 23.0788 244.824 24.288 244.834 25.6516C244.824 27.6545 244.312 29.391 243.3 30.8612C242.299 32.3207 240.85 33.4553 238.954 34.2649C237.068 35.0639 234.793 35.4634 232.13 35.4634C229.488 35.4634 227.187 35.0586 225.227 34.2489C223.277 33.4393 221.754 32.2408 220.656 30.6534C219.57 29.0554 219 27.0792 218.947 24.7248H225.642C225.717 25.8221 226.031 26.7383 226.585 27.4734C227.15 28.1978 227.901 28.7464 228.838 29.1193C229.786 29.4815 230.857 29.6626 232.05 29.6626C233.222 29.6626 234.239 29.4922 235.102 29.1513C235.976 28.8104 236.652 28.3363 237.132 27.729C237.611 27.1218 237.851 26.424 237.851 25.6357C237.851 24.9006 237.633 24.2827 237.196 23.782C236.77 23.2812 236.141 22.8551 235.31 22.5036C234.49 22.152 233.483 21.8324 232.29 21.5447L228.726 20.6499C225.967 19.9787 223.788 18.9293 222.19 17.5018C220.592 16.0742 219.799 14.1513 219.809 11.733C219.799 9.75142 220.326 8.02024 221.391 6.53942C222.467 5.05859 223.943 3.9027 225.818 3.07173C227.693 2.24077 229.824 1.82528 232.21 1.82528C234.639 1.82528 236.759 2.24077 238.57 3.07173C240.392 3.9027 241.809 5.05859 242.821 6.53942C243.833 8.02024 244.355 9.73544 244.387 11.685H237.755Z" fill="#0F0F0F"/>
<path d="M247.689 35V2.27273H254.608V15.7759H268.654V2.27273H275.558V35H268.654V21.4808H254.608V35H247.689Z" fill="#0F0F0F"/>
<path fill-rule="evenodd" clip-rule="evenodd" d="M187.112 35H194.527L196.955 27.5373H208.771L211.194 35H218.609L207.327 2.27273H198.41L187.112 35ZM207.018 22.136L202.997 9.75142H202.741L198.712 22.136H194.064V27.5373H196.955L198.712 22.136H207.018Z" fill="#0F0F0F"/>
<path d="M194.064 22.136V27.5373H196.955L198.712 22.136H194.064Z" fill="#0F0F0F"/>
<path d="M0.441895 22.7711V0.210843C0.441895 0.0943978 0.535003 0 0.649859 0H12.4184C12.4732 0 12.5257 0.0218679 12.5646 0.0608638L47.0817 34.6392C47.2139 34.7716 47.1214 35 46.9355 35H30.059C30.0039 35 29.951 34.9778 29.912 34.9382L13.2139 18.009C12.9519 17.7434 12.5038 17.9315 12.5038 18.3072V34.75C12.5038 34.8881 12.391 35.0003 12.253 34.9974C5.70717 34.862 0.441895 29.4399 0.441895 22.7711Z" fill="#FF8D2A"/>
<path d="M35.3799 19.7251V0.177231C35.3799 0.0793489 35.4582 0 35.5548 0C42.1198 0 47.4419 5.39572 47.4419 12.0517V30.3109C47.4419 30.4933 47.229 30.5896 47.0951 30.4679L35.4491 19.8821C35.4051 19.8421 35.3799 19.785 35.3799 19.7251Z" fill="#FF8D2A"/>
</svg>
