<svg width="51" height="52" viewBox="0 0 51 52" fill="none" xmlns="http://www.w3.org/2000/svg">
<rect y="0.463867" width="51" height="51" rx="25.5" fill="white"/>
<path fill-rule="evenodd" clip-rule="evenodd" d="M11.5432 25.6943C18.9769 22.4555 23.9339 20.3203 26.4142 19.2887C33.4958 16.3432 34.9673 15.8315 35.9264 15.8146C36.1374 15.8109 36.609 15.8632 36.9145 16.1111C37.1725 16.3204 37.2435 16.6032 37.2775 16.8017C37.3114 17.0001 37.3537 17.4523 37.3201 17.8055C36.9364 21.8377 35.2758 31.6226 34.4311 36.1387C34.0736 38.0496 33.3698 38.6903 32.6884 38.7531C31.2076 38.8893 30.0831 37.7744 28.6488 36.8342C26.4045 35.3631 25.1366 34.4472 22.9581 33.0116C20.4404 31.3525 22.0725 30.4407 23.5073 28.9504C23.8828 28.5604 30.4074 22.6258 30.5337 22.0875C30.5495 22.0201 30.5641 21.7692 30.415 21.6366C30.2659 21.5041 30.0459 21.5494 29.8871 21.5855C29.662 21.6366 26.0766 24.0063 19.131 28.6948C18.1133 29.3936 17.1915 29.7341 16.3656 29.7163C15.4551 29.6966 13.7037 29.2015 12.4017 28.7782C10.8048 28.2591 9.53559 27.9847 9.64611 27.1031C9.70368 26.6439 10.336 26.1743 11.5432 25.6943Z" fill="#0F0F0F"/>
</svg>
